<svg width="316" height="144" viewBox="0 0 316 144" fill="none" xmlns="http://www.w3.org/2000/svg">
<path d="M31.2523 109.325L25.5683 93.1093L19.8835 109.325H31.2523ZM34.6125 118.95H16.5233L13.6174 127.414H0.114609L18.6558 78.7046H32.4807L51.0219 127.414H37.5191L34.6125 118.95Z" fill="#3C3C3A"/>
<path d="M66.1377 110.747C66.1377 111.823 66.3312 112.824 66.7183 113.749C67.1069 114.677 67.633 115.484 68.3013 116.172C68.968 116.862 69.7655 117.401 70.6923 117.788C71.6176 118.176 72.6193 118.37 73.6957 118.37C74.7306 118.37 75.7081 118.176 76.6356 117.788C77.5609 117.401 78.3577 116.862 79.0244 116.172C79.6935 115.484 80.2317 114.688 80.6391 113.783C81.0496 112.879 81.2537 111.909 81.2537 110.875C81.2537 109.843 81.0496 108.862 80.6391 107.937C80.2317 107.012 79.6935 106.204 79.0244 105.515C78.3577 104.825 77.5609 104.286 76.6356 103.899C75.7081 103.511 74.7306 103.317 73.6957 103.317C72.6631 103.317 71.6811 103.511 70.7558 103.899C69.8306 104.286 69.0338 104.825 68.367 105.515C67.698 106.204 67.1598 106.989 66.7516 107.872C66.3418 108.756 66.1377 109.712 66.1377 110.747ZM80.8667 73.7944H92.624V127.415H80.8667V123.733C78.3683 126.877 74.9869 128.447 70.7241 128.447C68.3118 128.447 66.0939 127.995 64.0702 127.091C62.0458 126.186 60.2791 124.938 58.7732 123.343C57.2651 121.751 56.0919 119.878 55.2528 117.724C54.4122 115.571 53.9911 113.245 53.9911 110.747C53.9911 108.379 54.391 106.129 55.1878 103.996C55.9845 101.864 57.1139 100.001 58.5797 98.4067C60.0432 96.8146 61.797 95.5552 63.8434 94.6277C65.8898 93.7024 68.1395 93.2397 70.5956 93.2397C74.7306 93.2397 78.1536 94.6829 80.8667 97.5676V73.7944Z" fill="#3C3C3A"/>
<path d="M128.736 79.4806L117.495 89.4274L112.07 85.4231L121.308 74.1178L128.736 79.4806ZM124.795 106.03C124.408 104.394 123.611 103.081 122.406 102.091C121.199 101.101 119.735 100.604 118.012 100.604C116.204 100.604 114.728 101.08 113.586 102.026C112.446 102.975 111.723 104.31 111.422 106.03H124.795ZM111.101 112.814C111.101 117.853 113.468 120.372 118.206 120.372C120.747 120.372 122.664 119.34 123.956 117.272H135.261C132.977 124.854 127.272 128.641 118.141 128.641C115.342 128.641 112.779 128.222 110.455 127.381C108.129 126.542 106.136 125.347 104.479 123.795C102.819 122.246 101.539 120.395 100.634 118.242C99.7296 116.088 99.2776 113.676 99.2776 111.005C99.2776 108.248 99.707 105.763 100.569 103.544C101.431 101.326 102.659 99.4415 104.251 97.8918C105.845 96.3398 107.774 95.1454 110.034 94.3063C112.295 93.4649 114.848 93.0469 117.689 93.0469C120.488 93.0469 123.007 93.4649 125.247 94.3063C127.487 95.1454 129.383 96.3632 130.933 97.9545C132.483 99.5488 133.667 101.498 134.485 103.803C135.303 106.106 135.713 108.703 135.713 111.586V112.814H111.101Z" fill="#3C3C3A"/>
<path d="M153.22 110.747C153.22 111.823 153.413 112.824 153.8 113.749C154.189 114.677 154.715 115.484 155.384 116.172C156.05 116.862 156.848 117.401 157.775 117.788C158.7 118.176 159.701 118.37 160.778 118.37C161.813 118.37 162.79 118.176 163.718 117.788C164.643 117.401 165.44 116.862 166.107 116.172C166.776 115.484 167.314 114.677 167.721 113.749C168.132 112.824 168.336 111.844 168.336 110.812C168.336 109.778 168.132 108.808 167.721 107.904C167.314 107 166.776 106.204 166.107 105.515C165.44 104.825 164.643 104.286 163.718 103.899C162.79 103.511 161.813 103.317 160.778 103.317C159.745 103.317 158.763 103.511 157.838 103.899C156.913 104.286 156.116 104.825 155.449 105.515C154.78 106.204 154.242 106.989 153.834 107.872C153.424 108.756 153.22 109.712 153.22 110.747ZM167.949 143.952V124.185C165.236 127.026 161.813 128.447 157.678 128.447C155.308 128.447 153.11 127.995 151.087 127.091C149.062 126.186 147.308 124.938 145.822 123.343C144.337 121.751 143.174 119.889 142.335 117.756C141.494 115.623 141.073 113.353 141.073 110.94C141.073 108.444 141.504 106.118 142.367 103.963C143.227 101.811 144.411 99.9375 145.919 98.3439C147.426 96.7496 149.193 95.5008 151.218 94.5967C153.241 93.6918 155.436 93.2398 157.806 93.2398C162.069 93.2398 165.45 94.8129 167.949 97.9546V94.2724H179.706V143.952H167.949Z" fill="#3C3C3A"/>
<path d="M200.443 94.2725V112.942C200.443 117.034 202.424 119.081 206.386 119.081C210.348 119.081 212.331 117.034 212.331 112.942V94.2725H224.024V115.205C224.024 119.685 222.547 123.042 219.599 125.282C216.649 127.522 212.243 128.64 206.386 128.64C200.529 128.64 196.126 127.522 193.175 125.282C190.225 123.042 188.751 119.685 188.751 115.205V94.2725H200.443Z" fill="#3C3C3A"/>
<path d="M242.821 110.747C242.821 111.823 243.017 112.824 243.404 113.749C243.79 114.677 244.319 115.484 244.985 116.172C245.654 116.862 246.449 117.401 247.376 117.788C248.301 118.176 249.303 118.37 250.382 118.37C251.414 118.37 252.394 118.176 253.319 117.788C254.247 117.401 255.041 116.862 255.71 116.172C256.377 115.484 256.915 114.688 257.325 113.783C257.733 112.879 257.94 111.909 257.94 110.875C257.94 109.843 257.733 108.862 257.325 107.937C256.915 107.012 256.377 106.204 255.71 105.515C255.041 104.825 254.247 104.286 253.319 103.899C252.394 103.511 251.414 103.317 250.382 103.317C249.303 103.317 248.301 103.511 247.376 103.899C246.449 104.286 245.654 104.825 244.985 105.515C244.319 106.204 243.79 106.989 243.404 107.872C243.017 108.756 242.821 109.712 242.821 110.747ZM257.553 94.2724H269.31V127.415H257.553V123.733C255.054 126.877 251.673 128.447 247.408 128.447C244.995 128.447 242.779 128.005 240.754 127.125C238.729 126.241 236.965 125.003 235.457 123.408C233.949 121.817 232.775 119.943 231.936 117.788C231.097 115.636 230.677 113.289 230.677 110.747C230.677 108.379 231.085 106.129 231.905 103.996C232.721 101.864 233.863 100.001 235.328 98.4067C236.793 96.8146 238.536 95.5552 240.561 94.6277C242.585 93.7024 244.825 93.2397 247.279 93.2397C251.414 93.2397 254.837 94.6829 257.553 97.5676V94.2724Z" fill="#3C3C3A"/>
<path d="M290.303 104.028V127.415H278.611V104.028H274.735V94.2724H278.611V84.3255H290.303V94.2724H296.957V104.028H290.303Z" fill="#3C3C3A"/>
<path d="M300.767 121.213C300.767 120.178 300.963 119.201 301.35 118.273C301.737 117.348 302.276 116.541 302.965 115.85C303.653 115.163 304.46 114.623 305.388 114.236C306.313 113.849 307.293 113.653 308.328 113.653C309.36 113.653 310.34 113.849 311.265 114.236C312.193 114.623 313 115.163 313.688 115.85C314.378 116.541 314.916 117.348 315.303 118.273C315.692 119.201 315.886 120.178 315.886 121.213C315.886 122.246 315.692 123.225 315.303 124.151C314.916 125.078 314.378 125.886 313.688 126.574C313 127.263 312.193 127.801 311.265 128.188C310.34 128.578 309.36 128.771 308.328 128.771C307.293 128.771 306.313 128.578 305.388 128.188C304.46 127.801 303.653 127.263 302.965 126.574C302.276 125.886 301.737 125.078 301.35 124.151C300.963 123.225 300.767 122.246 300.767 121.213Z" fill="#3C3C3A"/>
<path d="M190.191 81.9467C199.276 82.7888 206.99 83.2023 212.834 83.4208C239.61 84.4224 246.068 82.0381 250.175 79.932C251.888 79.0536 258.437 75.5324 264.042 68.1974C265.68 66.0528 277.756 49.6675 271.445 29.4072C265.831 11.3854 250.03 4.29755 247.931 3.39796C245.216 2.23531 232.414 -2.90667 217.614 2.37894C202.794 7.6706 195.826 19.8959 193.444 25.0031C189.863 32.6775 189.754 41.3354 189.536 58.6505C189.415 68.2481 189.797 76.2566 190.191 81.9467Z" fill="#19B3BA"/>
</svg>
