<svg xmlns="http://www.w3.org/2000/svg" width="144.834" height="97.438" viewBox="0 0 144.834 97.438">
  <g id="Groupe_851" data-name="Groupe 851" transform="translate(-104.135 -2544.828)">
    <path id="Tracé_432" data-name="Tracé 432" d="M52.5,56.7H40.413V68.509H31.452V56.7H19.432V48.225h12.02V36.416h8.961V48.225H52.5Z" transform="translate(87.203 2548.962)" fill="#3ed1d2" stroke="#47d1d1" stroke-width="5"/>
    <path id="Tracé_433" data-name="Tracé 433" d="M74.427,77.89v10.84H30.989V80.108L53.158,59.173c5.094-4.847,6-7.805,6-10.594,0-4.517-3.123-7.146-9.2-7.146A14.046,14.046,0,0,0,38.053,47.18l-9.688-6.235c4.429-6.493,12.476-10.676,22.822-10.676,12.811,0,21.351,6.565,21.351,16.994,0,5.582-1.564,10.676-9.611,18.146L49.711,77.89Z" transform="translate(117.411 2517.059)" fill="#3ed1d2" stroke="#47d1d1" stroke-width="5"/>
    <path id="Tracé_434" data-name="Tracé 434" d="M37.734,59.991c0-18.97,10.511-29.722,24.639-29.722C76.573,30.269,87,41.022,87,59.991S76.573,89.719,62.373,89.719C48.245,89.719,37.734,78.961,37.734,59.991Zm35.886,0c0-13.053-4.6-18.476-11.247-18.476-6.57,0-11.17,5.423-11.17,18.476s4.6,18.476,11.17,18.476C69.02,78.467,73.62,73.049,73.62,59.991Z" transform="translate(159.467 2517.059)" fill="#3ed1d2" stroke="#47d1d1" stroke-width="5"/>
    <path id="Tracé_435" data-name="Tracé 435" d="M50.31,52.735V65.92H44.039V63.041c-1.244,2.1-3.65,3.221-7.042,3.221-5.412,0-8.632-3.006-8.632-7,0-4.084,2.875-6.919,9.921-6.919H43.61c0-2.875-1.718-4.548-5.324-4.548a11.1,11.1,0,0,0-6.656,2.147l-2.406-4.684a17.783,17.783,0,0,1,9.965-2.791C46.23,42.468,50.31,45.733,50.31,52.735Zm-6.7,5.881V56.254h-4.6c-3.133,0-4.123,1.161-4.123,2.708,0,1.674,1.42,2.791,3.782,2.791A4.931,4.931,0,0,0,43.61,58.615Z" transform="translate(130.64 2575.003)" fill="#3ed1d2" stroke="#47d1d1" stroke-width="2"/>
    <path id="Tracé_436" data-name="Tracé 436" d="M58.382,52.691V65.92h-6.7v-12.2c0-3.738-1.718-5.456-4.684-5.456-3.221,0-5.539,1.976-5.539,6.227V65.92h-6.7V42.81h6.4v2.708a10.117,10.117,0,0,1,7.646-3.05C54.259,42.468,58.382,45.645,58.382,52.691Z" transform="translate(152.261 2575.003)" fill="#3ed1d2" stroke="#47d1d1" stroke-width="2"/>
    <path id="Tracé_437" data-name="Tracé 437" d="M41.026,63.773l2.235-4.811A15.8,15.8,0,0,0,51.293,61.2c3.089,0,4.25-.819,4.25-2.1,0-3.782-13.961.083-13.961-9.149,0-4.382,3.953-7.476,10.7-7.476a18.957,18.957,0,0,1,8.891,2.02l-2.235,4.768a13.265,13.265,0,0,0-6.656-1.718c-3.006,0-4.294.942-4.294,2.147,0,3.948,13.956.127,13.956,9.233,0,4.294-3.992,7.344-10.907,7.344C47.126,66.262,43.173,65.188,41.026,63.773Z" transform="translate(173.458 2575.003)" fill="#3ed1d2" stroke="#47d1d1" stroke-width="2"/>
  </g>
</svg>
