<svg xmlns="http://www.w3.org/2000/svg" viewBox="0 0 523.06 426.22"><defs><style>.a{fill:#2e2e2d;}</style></defs><path class="a" d="M42.34,496.43c1.18,1,2.16.52,3-.45l14.36-16c2.42-2.69,4.81-5.41,7.27-8.06.3-.32.5-1.35,1.38-.68.22,1.21-.64,2.07-1,3.07A36.42,36.42,0,0,0,64,481.85c.65.83,1.57.46,2.36.48,4.54.13,9.07-.17,13.61.17,1.29.59.65,1.43.13,2-2.52,3.07-5.23,6-8,8.85-4.27,0-8.54.09-12.8,0A2.37,2.37,0,0,0,56.77,495c-1.94,4.1-4.09,8.09-6,12.2a2.79,2.79,0,0,1-3,1.84c-3.43-.1-6.86-.07-10.28,0-1.34,0-1.69-.36-.95-1.51C38.78,504,40.24,500,42.34,496.43Z" transform="translate(-36.11 -84.53)"/><path class="a" d="M298.16,265.34c5.61-4,11.36-7.74,16.77-11.94,4.24-3.3,8.14-7,12.44-10.26a26.41,26.41,0,0,1,6.16-3.33c.78,1.3-.27,2.15-.95,2.9-3,3.24-5.89,6.54-8.83,9.81-5.83,6.48-11.71,13-17.5,19.44-1.86,2.09-3.71,4.19-5.68,6.16a4.45,4.45,0,0,0-1.66,2.34c-3.38,4-7,7.74-10.29,11.83q-7.78,9.72-15.74,19.32c-3.35,4-6.89,7.91-10.52,11.71a154.42,154.42,0,0,1-39.45,29.3,17.2,17.2,0,0,1-1.72.7c-.79-.8-.83-1.1.06-2.19,1.2-1.46,2.54-2.81,3.81-4.19,4.54-4.95,9-10,13.52-15q8.53-9.42,17-18.89c4.29-4.8,8.62-9.57,13-14.36l17.4-19.35c3.65-4.07,7.33-8.1,10.86-12.27A7.84,7.84,0,0,0,298.16,265.34Z" transform="translate(-36.11 -84.53)"/><path class="a" d="M345.75,320.86c-3.24-6.37-6.48-12.75-9.26-19.34-.57-.91.2-1.43.65-2,3.09-3.8,6.48-7.31,9.76-11,4.64-5.23,9.34-10.42,14-15.61q6.31-7,12.66-14c.9-1,1.75-2,2.65-3,.76-.81,1.29-2.06,2.75-1.94l9.57,19.79q-5,5.4-9.88,10.88-7,7.83-14,15.62c-4.37,4.83-8.68,9.72-13.11,14.48A50.33,50.33,0,0,1,345.75,320.86Z" transform="translate(-36.11 -84.53)"/><path class="a" d="M298.14,265.35c-.15,2.28-2.14,3.36-3.41,4.81-6.42,7.36-13,14.55-19.59,21.81q-7.42,8.23-14.83,16.5c-6.79,7.6-13.52,15.25-20.33,22.82-4.57,5.09-9.23,10.1-13.86,15.15-1.51,1.64-3.05,3.24-4.5,5-.43.51-1.24,1.08-.47,1.94a110.54,110.54,0,0,1-19.66,8.37,15.16,15.16,0,0,1-4.35,1.3c-.58-.92.17-1.43.65-2,4.85-5.61,9.92-11,14.84-16.58,5.76-6.48,11.62-12.87,17.4-19.35,4.38-4.9,8.83-9.75,13.22-14.65l17-18.89c3.24-3.65,6.48-7.37,9.89-10.87.75-.77,1.52-1.5,2.73-.87,5.61-3,11.35-5.66,16.73-9.07Z" transform="translate(-36.11 -84.53)"/><path class="a" d="M345.75,320.86c.86-2.24,2.9-3.52,4.37-5.25,4.38-5.15,9.11-10,13.61-15,5.55-6.17,11-12.41,16.54-18.59,2.19-2.44,4.48-4.79,6.74-7.18.43-.45.82-1,1.53-1l8.86,18.51a43.22,43.22,0,0,1-5.59,6.48c-7,7.71-13.94,15.49-20.93,23.21-4.31,4.76-8.66,9.51-12.87,14.37-1,1.15-1.84,2.74-3.78,2.59Z" transform="translate(-36.11 -84.53)"/><path class="a" d="M405,307.88c2.39,5.65,5.31,11,8,16.55.24.5.38,1,.58,1.54-3.2,4.18-6.93,7.88-10.41,11.8-5.83,6.6-11.81,13.11-17.69,19.69-1.81,2-3.75,4-5.43,6.23.76.65,1.63.41,2.41.41h46.26c1.08,0,2.26-.3,3.24.56-.68.55-1.49.27-2.22.27H372.81c-.83,0-1.67.07-2.51.1a18.66,18.66,0,0,0-3.42-.22,79.1,79.1,0,0,1-4.7-9.83c-.57-1,0-1.72.65-2.4,5.95-6.22,11.58-12.72,17.34-19.11,6.87-7.64,13.84-15.21,20.57-23a21.34,21.34,0,0,1,2.23-2.23C403.5,307.81,404.11,307.22,405,307.88Z" transform="translate(-36.11 -84.53)"/><path class="a" d="M379,254a51.27,51.27,0,0,0-6.34,6.67c-3.16,3.24-6,6.78-9,10.16q-9.14,10.23-18.32,20.42-4,4.44-8,8.86c-.38.41-.82.77-.8,1.41-3.21-6-6.19-12.17-8.87-18.46.26-1.47,1.54-2.26,2.42-3.24,4.54-4.93,9-9.94,13.5-15,6.19-7,12.63-13.67,18.54-20.86a3.72,3.72,0,0,1,.48-.41c.81-.32,1.74-.44,2.14-1.38a12.12,12.12,0,0,1,5.79-5.84C373.46,242.2,376.4,248,379,254Z" transform="translate(-36.11 -84.53)"/><path class="a" d="M272.88,279.82c-2.31.15-3.28,2.14-4.59,3.53-3.24,3.45-6.3,7.08-9.46,10.61Q249.92,304,241,313.9c-2.75,3.07-5.53,6.1-8.28,9.16L213.94,343.9c-4.5,5-9.08,9.85-13.54,14.85a14.21,14.21,0,0,0-3.24,4.26,156.88,156.88,0,0,1-18.68,5c-1.63.37-3.24.65-4.91,1-.65.34-1.47-.12-2.13.33l-1.26,0c-1,0-2.44.22-2.68-1s1.12-1.78,2.1-2.19q8.29-3.51,16.24-7.74a52.59,52.59,0,0,0,19.37-16.24,14.37,14.37,0,0,0,2.59-5.59,152.13,152.13,0,0,0,11-11.83c4.54-4.93,9-10,13.47-15,5.79-6.48,11.6-12.89,17.39-19.34q6.38-7.14,12.78-14.18c2.54-2.8,5-5.65,7.6-8.43.59-.65,1.12-1.75,2.38-1.16l.19.87a20.6,20.6,0,0,1,.1,3,37.34,37.34,0,0,1-.22,6.16C272.68,277.74,272.1,278.87,272.88,279.82Z" transform="translate(-36.11 -84.53)"/><path class="a" d="M431.86,364.69h-51c-.65,0-1.64.38-1.95-.3-.39-.84.68-1.23,1.16-1.76q8.45-9.54,17-19c2.74-3.07,5.52-6.1,8.27-9.16q3.44-3.81,6.83-7.64a1.88,1.88,0,0,1,1.41-.8l9.25,19q4.37,9,8.71,18C431.73,363.47,432.24,364,431.86,364.69Z" transform="translate(-36.11 -84.53)"/><path class="a" d="M206,330.16A41.18,41.18,0,0,1,201.38,320c-.59-1,.06-1.7.65-2.4,3.12-3.79,6.52-7.33,9.78-11q8.87-10,17.83-19.83l13.09-14.51c5.72-6.35,11.48-12.67,17.13-19.07,1.62-1.84,3.27-3.65,4.93-5.45.57-.61,1.14-1.55,2.27-.95a36,36,0,0,1,3.69,11.8q-6.48,7.13-12.91,14.33c-5.74,6.41-11.51,12.78-17.24,19.19-4.2,4.69-8.43,9.35-12.63,14-4.81,5.37-9.66,10.69-14.49,16A73.88,73.88,0,0,1,206,330.16Z" transform="translate(-36.11 -84.53)"/><path class="a" d="M371,497.73a27.17,27.17,0,0,1-6.61-10.32,28.22,28.22,0,0,1-2.29-10.36,28.86,28.86,0,0,1,0-5.42,32.66,32.66,0,0,1,6-17.38,37.11,37.11,0,0,1,24.59-15.41c2.31-.46,4.68-.68,7-1a77.53,77.53,0,0,1,8.35,0,46.7,46.7,0,0,1,13.5,3.06c.36,1.07-.39,1.72-1,2.31-1.66,1.58-2.87,3.57-4.61,5.05-.72.61-.57,1.73-1.48,2.16a57.11,57.11,0,0,0-13.56-.94,27.39,27.39,0,0,0-19.44,8.17,21.61,21.61,0,0,0-6.08,14.79,26.13,26.13,0,0,0,3.48,15.31,2.41,2.41,0,0,1,.37,1.19,48.15,48.15,0,0,1-5,5.61C373.05,495.55,372.55,497.17,371,497.73Z" transform="translate(-36.11 -84.53)"/><path class="a" d="M260.72,497.54a32.6,32.6,0,0,1-8.52-19.26c-.32-1,.16-2-.3-3v-2c.5-1.08-.05-2.27.34-3.37a34.18,34.18,0,0,1,18-26.66,48.34,48.34,0,0,1,19.09-5.42,64.32,64.32,0,0,1,8.78,0,45.49,45.49,0,0,1,11,2.21,61.48,61.48,0,0,1-6.24,7.52,18,18,0,0,1-1.73,2.08,34,34,0,0,0-10.54-.7c-.68.33-1.48-.11-2.14.32a25,25,0,0,0-23.4,19.16,13.36,13.36,0,0,0-.13,2.28c-.49,1,.05,2-.33,3V475c.3.84-.13,1.76.3,2.59a23.13,23.13,0,0,0,3.89,11.27A80,80,0,0,1,260.72,497.54Z" transform="translate(-36.11 -84.53)"/><path class="a" d="M405,307.88c-2.05.25-2.94,2-4.13,3.31-3.1,3.3-6,6.8-9,10.17q-9.14,10.25-18.33,20.42c-3.32,3.68-6.71,7.3-10.09,10.94-.65.64-1.38,1.23-1.23,2.3-3-5.19-5.08-10.78-7.91-16a35.65,35.65,0,0,0,7.52-7.5c3.24-3.24,6.1-6.87,9.17-10.3Q380,311.05,389.07,301c2.59-2.86,5.18-5.67,7.77-8.49.12-.13.39-.12.59-.18Z" transform="translate(-36.11 -84.53)"/><path class="a" d="M267,246.85c-1.34.16-1.94,1.3-2.74,2.14-5,5.52-10,11.09-15,16.65L230.08,287q-7.37,8.18-14.69,16.37c-4.47,5-8.9,10-13.37,15a2.06,2.06,0,0,0-.64,1.69,41.39,41.39,0,0,1-3.24-11.38,4.31,4.31,0,0,1,1.43-3.33c6.58-6.88,12.78-14.1,19.18-21.15q6.63-7.31,13.23-14.64c5.66-6.29,11.35-12.57,17-18.9,3.76-4.24,7.6-8.42,11.38-12.63.59-.65,1.26-1.39,2.33-.82A53.46,53.46,0,0,1,267,246.85Z" transform="translate(-36.11 -84.53)"/><path class="a" d="M197.68,299l-.09-2.45c.47-.8,0-1.72.33-2.54a67.18,67.18,0,0,1,4.79-18.54,45.6,45.6,0,0,0,6.21-6.52q7.13-7.84,14.19-15.76c5.63-6.32,11.32-12.59,17-18.9,3.6-4,7.13-8.08,10.89-12,.47-.5.94-1.08,1.78-.73a50.46,50.46,0,0,1,6.2,9.29,44.28,44.28,0,0,1-5.74,6.64c-4.6,5.28-9.33,10.44-14,15.65l-12.67,14c-4.59,5.1-9.16,10.22-13.77,15.31-4.47,4.92-8.78,10-13.49,14.69C198.71,297.79,198.67,298.84,197.68,299Z" transform="translate(-36.11 -84.53)"/><path class="a" d="M282.2,188.38a94.43,94.43,0,0,1-5.87-12.26c-.65-1,.05-1.7.65-2.39,3.16-3.83,6.61-7.41,9.9-11.12,4.59-5.19,9.24-10.3,13.88-15.44,4.25-4.74,8.47-9.49,12.79-14.16,1.05-1.14,1.95-2.39,3.05-3.47.6-.58,1.13-1.54,2.26-.94L325,141.24q-4.79,5.26-9.55,10.57-6.9,7.73-13.87,15.43c-4.3,4.77-8.54,9.6-13,14.29A68.52,68.52,0,0,1,282.2,188.38Z" transform="translate(-36.11 -84.53)"/><path class="a" d="M306.19,238.39a111.43,111.43,0,0,1-5.89-12.21c-.78-1.18,0-2,.71-2.74,3-3.18,5.8-6.45,8.71-9.65q9.22-10.18,18.4-20.4c4.05-4.54,8.16-9,12.22-13.55.58-.65,1.13-1.74,2.38-1.15a110.91,110.91,0,0,1,6,12.19,33.78,33.78,0,0,1-6.14,7.39c-4.63,5.34-9.39,10.56-14.15,15.79-4.49,4.91-8.9,9.88-13.39,14.78-2.59,2.84-5.11,5.76-7.73,8.58A3.41,3.41,0,0,1,306.19,238.39Z" transform="translate(-36.11 -84.53)"/><path class="a" d="M306.19,238.39a14.74,14.74,0,0,1,3.61-4.54c4.38-5.07,9-9.91,13.51-14.91,5.69-6.32,11.31-12.72,17-19.05,2.74-3,5.58-6,8.38-9a127.62,127.62,0,0,1,5.83,12.21c-3.62,4.44-7.65,8.53-11.44,12.83-4.54,5.13-9.22,10.13-13.71,15.31-1.05,1.22-2.26,2.28-3.39,3.43-5.19,3.28-9.72,7.3-14.58,11-1.09.83-1.68,1-2.26-.46C308.21,242.92,307.17,240.66,306.19,238.39Z" transform="translate(-36.11 -84.53)"/><path class="a" d="M252.75,221.59a17.11,17.11,0,0,0-4.2,4c-6.83,7.54-13.54,15.2-20.34,22.77-4.47,5-9.07,9.87-13.54,14.84-3,3.36-6,6.81-9,10.17-.8.89-1.44,2.15-3,2.07,5.45-12.46,12.71-24,18.53-36.29,1.29-2.74,2.48-5.54,3.71-8.32a25.3,25.3,0,0,0,4.92-5.1c4.26-4.62,8.42-9.34,12.65-14,.49-.54.79-1.4,1.79-1.14A76.05,76.05,0,0,1,252.75,221.59Z" transform="translate(-36.11 -84.53)"/><path class="a" d="M282.18,188.38a24.55,24.55,0,0,1,4.91-5.88c6.13-7.07,12.45-14,18.72-20.9,4.5-5,9.07-9.9,13.56-14.85a22,22,0,0,1,5.62-5.51l5,10.51c-3.51,4.36-7.42,8.37-11.12,12.56-4.77,5.39-9.61,10.72-14.46,16.05-4.38,4.81-8.63,9.72-13.12,14.44-1.33,1.39-2.14,3.34-4.1,4.09A67.23,67.23,0,0,1,282.18,188.38Z" transform="translate(-36.11 -84.53)"/><path class="a" d="M362.57,243.6c-.34,1.94-1.94,3-3.11,4.36-4.43,5.1-9.07,10-13.61,15-5.53,6.16-11,12.39-16.51,18.57a20.59,20.59,0,0,1-1.7,1.53,135.43,135.43,0,0,1-6.69-14c-.16-1.14.65-1.83,1.29-2.5,4.38-4.71,8.61-9.55,12.93-14.32,3.24-3.58,6.51-7.13,9.65-10.77a10.81,10.81,0,0,1,2.19-2.24,9.2,9.2,0,0,1,4,1.62A17.9,17.9,0,0,0,362.57,243.6Z" transform="translate(-36.11 -84.53)"/><path class="a" d="M408.42,510.71l-7.13-.06c-.65-1.14.24-1.84.87-2.52,2.74-2.95,5.47-5.91,8-9,2.06-.9,4.33-1.12,6.43-1.89a23.57,23.57,0,0,0,16.12-21.69,6.7,6.7,0,0,1,.22-1.66c2.82-3.53,6-6.78,9-10.14.43-.47,1-1.1,1.78-.56a32.07,32.07,0,0,1,1.84,7.6,43.68,43.68,0,0,1,0,6.67,37.5,37.5,0,0,1-34.64,32.94C410.14,510.74,409.21,510.2,408.42,510.71Z" transform="translate(-36.11 -84.53)"/><path class="a" d="M42.34,496.44l11.88-23q8.27-16.09,16.48-32.22a2.4,2.4,0,0,1,2.54-1.6c3.15.09,6.3,0,9.46,0,.78,0,1.47,0,1.9.88,1.09,2.26,2.28,4.47,3.43,6.7a77.07,77.07,0,0,1-7.06,8,1.64,1.64,0,0,1-1.3.6c-1-.21-1-1.3-1.85-1.92-1,1.81-1.84,3.62-2.74,5.41q-2.51,5-5,9.95a4.29,4.29,0,0,1-1.4,2,43.88,43.88,0,0,0-7.13,7.35c-4.7,5.08-9.26,10.29-13.92,15.4a23,23,0,0,1-2.23,2.5C44.44,497.34,43.29,498.22,42.34,496.44Z" transform="translate(-36.11 -84.53)"/><path class="a" d="M268.72,147.51v-.77c.43-.88.09-1.84.21-2.75a40.57,40.57,0,0,1,5.44-6.34c5.95-6.71,12-13.34,18-20,4-4.44,8-8.82,12-13.27.62-.69,1.36-2.18,2.64-.61a65.07,65.07,0,0,1,4.63,10.12c-4.19,4.69-8.42,9.35-12.61,14q-8.54,9.53-17.1,19c-3.55,3.94-7,8-10.73,11.78-.29.29-.55.65-1,.57a32.37,32.37,0,0,1-1-7.12C268.65,150.62,269.25,149,268.72,147.51Z" transform="translate(-36.11 -84.53)"/><path class="a" d="M206,330.16a21.28,21.28,0,0,1,4.5-5.41c4.49-5.25,9.31-10.2,13.93-15.34,5.55-6.17,11-12.42,16.55-18.6,4.42-4.93,9-9.77,13.39-14.69s8.67-9.83,13.08-14.68c1-1.06,1.76-2.39,3.3-2.8a33.71,33.71,0,0,1,1.67,8c-1.47.39-2.24,1.65-3.15,2.65q-7.49,8.19-14.85,16.49c-6.78,7.59-13.52,15.23-20.32,22.81-4.48,5-9.07,9.88-13.55,14.85-3.65,4-7.25,8.11-10.92,12.13-.44.48-.76,1.5-1.81,1C208.18,334.13,206.5,332.32,206,330.16Z" transform="translate(-36.11 -84.53)"/><path class="a" d="M197.68,299c.79-2.41,2.95-3.74,4.5-5.52,6.08-7,12.31-13.84,18.55-20.74,3-3.24,6-6.48,8.88-9.72,5.87-6.53,11.6-13.2,17.62-19.6A152.52,152.52,0,0,1,259,230.91l3.73,6.3c-2.79.91-4,3.6-5.83,5.49-3.43,3.46-6.52,7.25-9.77,10.89l-17.42,19.49c-2.79,3.11-5.63,6.19-8.42,9.3L203.1,302.61c-1,1.09-2,2.14-3.12,3.13a5.24,5.24,0,0,0-1.78,2.95c-.07-.69-.15-1.38-.23-2.07-.36-.81.15-1.74-.33-2.53Z" transform="translate(-36.11 -84.53)"/><path class="a" d="M295.65,216.49a69.68,69.68,0,0,1-4.64-9.61c.3-2.13,2.12-3.24,3.37-4.59,8.34-9.16,16.53-18.44,24.87-27.59,4.19-4.6,8.37-9.21,12.46-13.91.56-.64,1.13-1.29,2.13-1l4.62,9.66q-5,5.38-9.88,10.88-7,7.83-14,15.62c-4.37,4.83-8.68,9.72-13.11,14.48A51,51,0,0,1,295.65,216.49Z" transform="translate(-36.11 -84.53)"/><path class="a" d="M295.67,216.49c.85-2.24,2.9-3.51,4.37-5.24,4.38-5.15,9.1-10,13.61-15,5.54-6.17,11-12.42,16.53-18.59,2.19-2.45,4.48-4.8,6.74-7.18.43-.45.81-1,1.53-1a63.92,63.92,0,0,1,4.25,9.25c-1.43.32-2.13,1.55-3,2.51-3.19,3.5-6.29,7.13-9.45,10.63L312.1,212.07c-3.27,3.63-6.63,7.19-9.91,10.8-.85.95-2.12,1.71-1.88,3.3A77.45,77.45,0,0,1,295.67,216.49Z" transform="translate(-36.11 -84.53)"/><path class="a" d="M306.94,103.76c-.88-.65-1.42,0-1.95.55q-6.48,7.26-12.93,14.53-3.88,4.38-7.82,8.72-6.76,7.42-13.57,14.82a18.67,18.67,0,0,1-1.57,1.38,1.93,1.93,0,0,1-.06-1.66,69.68,69.68,0,0,1,6-21.89c.08-.18.28-.3.41-.44,7.13-7.45,13.94-15.23,20.8-22.93,1.11-1.25,2.38-2.35,3.43-3.68a1.54,1.54,0,0,1,1.8-.73A124.45,124.45,0,0,1,306.94,103.76Z" transform="translate(-36.11 -84.53)"/><path class="a" d="M333.85,159.77a24.75,24.75,0,0,0-5.44,5.42c-3.2,3.3-6.1,6.87-9.16,10.3l-18.14,20.22q-5,5.59-10.1,11.16a41.41,41.41,0,0,1-3.8-8c3.79-4.27,7.56-8.57,11.36-12.83q9-10.06,18-20.09,6-6.69,12.06-13.35a2,2,0,0,1,1.38-.87Z" transform="translate(-36.11 -84.53)"/><path class="a" d="M270.08,159.28l9.61-10.73,17.55-19.61c2.84-3.16,5.71-6.29,8.57-9.44,1.35-1.5,2.7-3,4.08-4.48.46-.5.88-1.13,1.68-1.14a35,35,0,0,1,3.79,7.59,64.92,64.92,0,0,1-6.48,7.39C304.44,134,299.81,139,295.27,144q-6.37,7.13-12.78,14.18c-2.05,2.29-4.18,4.54-6.15,6.88a14.31,14.31,0,0,1-3.45,3A46.39,46.39,0,0,1,270.08,159.28Z" transform="translate(-36.11 -84.53)"/><path class="a" d="M72.15,493.4a11.27,11.27,0,0,1,2.8-3.79A38.82,38.82,0,0,0,80.57,483c.71-.77,1.66-.55,2.54-.59,2.76-.11,5.53.19,8.28-.19.59-.75-.06-1.29-.33-1.9-.83-1.76-1.73-3.49-2.6-5.24a2.68,2.68,0,0,1-.49-2.17c2.15-2.55,4.45-5,6.69-7.43.54-.6,1.08-1.57,2.22-1l10.92,21a58.83,58.83,0,0,0-8.71,10.06c-.74-1.84-2.16-2.13-4-2.11C87.43,493.51,79.79,493.43,72.15,493.4Z" transform="translate(-36.11 -84.53)"/><path class="a" d="M298.56,510.71H289c-.68-.39-1.47,0-2.17-.3l-2.55-.16a1,1,0,0,1,0-1.36,67.7,67.7,0,0,1,8.37-9.29,25.54,25.54,0,0,0,5.1-.21,29.66,29.66,0,0,0,16.48-6.12,23.84,23.84,0,0,0,4.31-4.44c.52-.65.83-1,1.65-.44,3,2.05,6,4,9.07,6.1a40.43,40.43,0,0,1-28.6,15.94C300,510.68,299.21,510.27,298.56,510.71Z" transform="translate(-36.11 -84.53)"/><path class="a" d="M272.93,168.11a27.81,27.81,0,0,1,4-4.43c4.4-5.14,9.12-10,13.61-15,5.55-6.17,10.94-12.48,16.57-18.58a75.52,75.52,0,0,1,8.27-8.6,55.09,55.09,0,0,1,3.45,7.13c-1.3.13-1.86,1.2-2.59,2-3.43,3.76-6.8,7.59-10.19,11.39-5.71,6.41-11.4,12.83-17.14,19.22-3.18,3.53-6.48,7-9.62,10.53-1.16,1.29-2.75,2.4-3,4.38A28.41,28.41,0,0,1,272.93,168.11Z" transform="translate(-36.11 -84.53)"/><path class="a" d="M188.68,510.71l-7.55-.06a11.72,11.72,0,0,0-3.24-.09c-.56.34-.93-.13-1.35-.33-1.66-.44-.77-1.4-.27-2,1.72-2,3.4-4.09,5.31-5.94.94-.91,1.49-2.24,2.84-2.71a11.57,11.57,0,0,0,3.16-.19,27.88,27.88,0,0,0,20.93-10.47c.71-.87,1.09-1.05,2-.43,2.52,1.73,5.07,3.46,7.65,5.11,1.1.7.92,1.22.22,2.13A37.86,37.86,0,0,1,203,507.33a48.28,48.28,0,0,1-12.12,3.08C190.13,510.69,189.34,510.28,188.68,510.71Z" transform="translate(-36.11 -84.53)"/><path class="a" d="M174.44,449.7a40.7,40.7,0,0,0-11.3,5.5,22.06,22.06,0,0,0-8,13.47,28.85,28.85,0,0,0,.74,14.26,29.22,29.22,0,0,0-5,4.94,14.54,14.54,0,0,1-4.19,3.89,31.48,31.48,0,0,1-4.53-18.52c8.35-8.93,16.43-18.12,24.62-27.22a90.24,90.24,0,0,1,6.86-7.37,20.58,20.58,0,0,1,5.94-.87,22.36,22.36,0,0,1,3.66-.12c1.38.76.36,1.55-.12,2-1.48,1.58-2.77,3.33-4.29,4.86A47.18,47.18,0,0,0,174.44,449.7Z" transform="translate(-36.11 -84.53)"/><path class="a" d="M347,239.28c-.36,1.6-1.72,2.53-2.68,3.64-4.4,5-9.08,9.84-13.47,14.9-3.29,3.78-6.9,7.28-9.91,11.3a11.24,11.24,0,0,1-1.44-2.46c-.48-1.62-1.36-1.46-2.46-.82a67.56,67.56,0,0,0-11.31,8.28,62.63,62.63,0,0,0-6.83,6.4c-.52-.81.13-1.35.55-1.83,2.59-2.92,5.18-5.83,7.82-8.71l18.3-20.38c1.94-2.18,4-4.29,6-6.44a5.4,5.4,0,0,0,1.95-3.33,21.68,21.68,0,0,1,6.34-1.47,10.21,10.21,0,0,1,3.31,0A14.54,14.54,0,0,1,347,239.28Z" transform="translate(-36.11 -84.53)"/><path class="a" d="M410.13,499.42a45.2,45.2,0,0,1-6.92,8.31c-.76.92-1.76,1.63-1.95,2.92l-2.08.07c-.65-.45-1.42,0-2.1-.3a42.19,42.19,0,0,1-20-7.19,35.86,35.86,0,0,1-6.11-5.5c1.68-2.73,4.27-4.67,6.17-7.22a2.4,2.4,0,0,1,1.81-1.25,3.14,3.14,0,0,1,1.87,1.25,30.34,30.34,0,0,0,21.14,8.67,26.25,26.25,0,0,0,6.26-.21A1.76,1.76,0,0,1,410.13,499.42Z" transform="translate(-36.11 -84.53)"/><path class="a" d="M443.74,463.17c-1.55.51-2.29,1.9-3.34,3a75.49,75.49,0,0,1-7.1,7.54,3.59,3.59,0,0,1-1-2.68A22.69,22.69,0,0,0,418,451.81c-1.12-.5-2.49-.59-3.24-1.78-.78-1,.16-1.46.65-2.06a58,58,0,0,0,6.06-7.12A34.35,34.35,0,0,1,443.74,463.17Z" transform="translate(-36.11 -84.53)"/><path class="a" d="M326,234.67c.65-2.1,2.55-3.24,3.89-4.81,4.27-5,8.86-9.81,13.29-14.71,3.24-3.61,6.49-7.28,9.73-10.92.45-.51.87-1.12,1.67-1.14a77.18,77.18,0,0,1,4.62,9.72,20.52,20.52,0,0,1-4.13,5c-3.14,3.49-6.16,7.09-9.46,10.43-1.05,1.06-1.75,2.37-2.75,3.45-1-.08-1.89-.65-2.91-.36a3.72,3.72,0,0,0-2.59,0,20,20,0,0,0-9,2.48A23.14,23.14,0,0,1,326,234.67Z" transform="translate(-36.11 -84.53)"/><path class="a" d="M292.28,499.81a22.75,22.75,0,0,1-3.94,5,15.66,15.66,0,0,0-4,5.42,64.17,64.17,0,0,1-10.66-3.31,34.13,34.13,0,0,1-12.91-9.37,32.2,32.2,0,0,1,5.39-6.26c.89-.81,1.15-2.32,2.64-2.47a27.54,27.54,0,0,0,22.14,10.58C291.31,499.71,291.9,499.4,292.28,499.81Z" transform="translate(-36.11 -84.53)"/><path class="a" d="M173.57,438.73c-.64,2.21-2.62,3.38-4,5-4.39,5.15-9.11,10-13.61,15-4.09,4.58-8.1,9.22-12.35,13.65-.45.47-.76,1-1.51.89L142,471.2c.47-.65,0-1.43.33-2.09a33.5,33.5,0,0,1,9.55-19.38A38.58,38.58,0,0,1,173.57,438.73Z" transform="translate(-36.11 -84.53)"/><path class="a" d="M301.12,449.63c-.14-1.6,1.3-2.22,2.1-3.18,1.85-2.23,3.89-4.29,5.87-6.41a38.09,38.09,0,0,1,17,10.06c3.57,3.65,3.59,3.65-.57,6.48a55.35,55.35,0,0,0-4.68,3.14c-1.21,1-1.94.55-2.69-.45A26,26,0,0,0,301.12,449.63Z" transform="translate(-36.11 -84.53)"/><path class="a" d="M99.1,495.54c-.3-1.5.84-2.21,1.65-3.13,1.68-1.91,3.31-3.89,5-5.79.54-.64,1.09-1.29,2.07-1.15q5.5,10.66,11,21.33c1.12,2.18,1.09,2.19-1.3,2.19H107c-.78,0-1.45,0-1.87-.9C103.29,503.86,100.8,499.89,99.1,495.54Z" transform="translate(-36.11 -84.53)"/><path class="a" d="M244.3,210.66c-3,3.24-5.91,6.43-8.84,9.67-3.07,3.4-6.11,6.83-9.19,10.23-.33.35-.69,1-1.33.33,1.33-4.93,2.84-9.82,4-14.8a104,104,0,0,0,2.79-16.25,11.45,11.45,0,0,1,.57-2.16A114.54,114.54,0,0,1,244.3,210.66Z" transform="translate(-36.11 -84.53)"/><path class="a" d="M184.11,499.81a87.76,87.76,0,0,1-6.74,7.81c-.58.69-2,1.3-.85,2.59a35.21,35.21,0,0,1-19.77-7.48c-.46-.57-.14-1.06.21-1.49,1.89-2.28,3.93-4.45,5.93-6.63.39-.42.87-.72,1.46-.32a29.49,29.49,0,0,0,15.55,5.06C181.25,500,182.78,499.18,184.11,499.81Z" transform="translate(-36.11 -84.53)"/><path class="a" d="M96.89,464.43a10.18,10.18,0,0,0-3.67,3.32,29.6,29.6,0,0,1-5.09,5.1c-.84.11-1-.6-1.29-1.12-2.44-4.8-4.92-9.58-7.06-14.52a1.58,1.58,0,0,1-.13-1.6,67.12,67.12,0,0,0,7.13-7.47c.4-.37.6-.92,1.24-1Z" transform="translate(-36.11 -84.53)"/><path class="a" d="M342.79,231.64c-.12-1.39,1-2.17,1.7-3q4.23-4.92,8.73-9.61a47.13,47.13,0,0,1,5.92-6.23c1.94,3.24,3.37,6.72,5,10.09-4,4.24-7.78,8.6-11.67,12.87A24,24,0,0,0,342.79,231.64Z" transform="translate(-36.11 -84.53)"/><path class="a" d="M301.47,92.44a23.94,23.94,0,0,0-5,4.94c-3.53,3.72-6.86,7.64-10.3,11.45q-4.4,4.88-8.86,9.72c-.5.55-1,1.24-1.85,1.24a112.49,112.49,0,0,1,8.86-16.56q5.7-9.12,12.11-17.75c.59-.79,1.06-1.57,1.71-.22A51.41,51.41,0,0,1,301.47,92.44Z" transform="translate(-36.11 -84.53)"/><path class="a" d="M352.48,235.72c.11-.39.1-.89.35-1.15q5.18-5.69,10.41-11.28a2.71,2.71,0,0,1,.91-.43c2.08,4.53,4.54,8.85,6.36,13.48a66.37,66.37,0,0,0-5.79,5.83A32.86,32.86,0,0,1,352.48,235.72Z" transform="translate(-36.11 -84.53)"/><path class="a" d="M164.34,494.31a19.72,19.72,0,0,0-4.75,4.72c-1,1.2-2.53,2-2.85,3.72a14.9,14.9,0,0,1-5.12-4.14,25.47,25.47,0,0,1-5-6.81q3.86-4.29,7.7-8.55a1.09,1.09,0,0,1,1.49-.31A24.77,24.77,0,0,0,164.34,494.31Z" transform="translate(-36.11 -84.53)"/><path class="a" d="M187.08,448.93l-.43-.13c-.31-1,.37-1.58.86-2.23,1.78-2.33,3.89-4.34,5.84-6.56.64-.74,1.42-1.37,2.54-.82a35.71,35.71,0,0,1,13.48,5.47,55.24,55.24,0,0,1-5,5.84c-.79,1-1.75,1.94-2.59,2.95a36.17,36.17,0,0,0-12.58-4.16C188.55,448.82,187.75,449.27,187.08,448.93Z" transform="translate(-36.11 -84.53)"/><path class="a" d="M201.79,453.42a1.6,1.6,0,0,1,.39-1.34,94.75,94.75,0,0,1,7.17-7.42,37.36,37.36,0,0,1,8.71,7.64c1,1.25,1.1,1.94-.42,2.85-2.51,1.48-4.93,3.12-7.28,4.83-.86.64-1.22.51-1.76-.28A22.94,22.94,0,0,0,201.79,453.42Z" transform="translate(-36.11 -84.53)"/><path class="a" d="M195.87,439.19a2.06,2.06,0,0,0-2,.95,66.43,66.43,0,0,0-7.23,8.65,67.56,67.56,0,0,0-12.22.91c-.65-.47-.2-.82.13-1.18,2.53-2.82,5.06-5.65,7.62-8.43a6.67,6.67,0,0,0,1.5-2.2,16.11,16.11,0,0,1,4.6,0A44.4,44.4,0,0,1,195.87,439.19Z" transform="translate(-36.11 -84.53)"/><path class="a" d="M298.14,437.83h-8.78A23.15,23.15,0,0,1,298.14,437.83Z" transform="translate(-36.11 -84.53)"/><path class="a" d="M188.27,437.84l-4.6,0h-4.18A22.75,22.75,0,0,1,188.27,437.84Z" transform="translate(-36.11 -84.53)"/><path class="a" d="M408,437.81h-8.35A23,23,0,0,1,408,437.81Z" transform="translate(-36.11 -84.53)"/><path class="a" d="M184.1,499.81c-1.39-.27-2.87.25-4.22-.45h7.67C186.46,500,185.25,499.58,184.1,499.81Z" transform="translate(-36.11 -84.53)"/><path class="a" d="M292.28,499.81l-1.38-.41h6.88A23.6,23.6,0,0,1,292.28,499.81Z" transform="translate(-36.11 -84.53)"/><path class="a" d="M445.6,477.44v-6.67A14.45,14.45,0,0,1,445.6,477.44Z" transform="translate(-36.11 -84.53)"/><path class="a" d="M272.49,276.72q0-3.21.06-6.4a.26.26,0,0,1,.33.15v0A24.42,24.42,0,0,1,272.49,276.72Z" transform="translate(-36.11 -84.53)"/><path class="a" d="M362,471.62V477A9.4,9.4,0,0,1,362,471.62Z" transform="translate(-36.11 -84.53)"/><path class="a" d="M269.06,142.1c0,.55,0,1.1.06,1.66-.27,1,.25,2.06-.4,3C268.88,145.2,268.31,143.6,269.06,142.1Z" transform="translate(-36.11 -84.53)"/><path class="a" d="M268.72,147.51a13.66,13.66,0,0,1,.35,4.64C268.3,150.65,268.88,149.05,268.72,147.51Z" transform="translate(-36.11 -84.53)"/><path class="a" d="M343.18,238.35h-3.31A3.71,3.71,0,0,1,343.18,238.35Z" transform="translate(-36.11 -84.53)"/><path class="a" d="M252.22,469.92a8.16,8.16,0,0,1-.33,3.37C252,472.17,251.52,471,252.22,469.92Z" transform="translate(-36.11 -84.53)"/><path class="a" d="M177.86,510.56a3.9,3.9,0,0,1,3.24.09Z" transform="translate(-36.11 -84.53)"/><path class="a" d="M366.84,364.86a10.4,10.4,0,0,1,3.43.22A8.29,8.29,0,0,1,366.84,364.86Z" transform="translate(-36.11 -84.53)"/><path class="a" d="M272.89,270.5l-.34-.18c0-.93,0-1.86.06-2.8C273.22,268.47,272.8,269.51,272.89,270.5Z" transform="translate(-36.11 -84.53)"/><path class="a" d="M264.57,473.67a5.54,5.54,0,0,1,.33-3C264.79,471.69,265.22,472.74,264.57,473.67Z" transform="translate(-36.11 -84.53)"/><path class="a" d="M251.9,475.31a6.37,6.37,0,0,1,.3,3C251.56,477.34,252,476.29,251.9,475.31Z" transform="translate(-36.11 -84.53)"/><path class="a" d="M264.89,477.56a4.2,4.2,0,0,1-.3-2.59C265.21,475.78,264.83,476.7,264.89,477.56Z" transform="translate(-36.11 -84.53)"/><path class="a" d="M408.42,510.71a5,5,0,0,1,2.54-.33C410.18,511,409.27,510.62,408.42,510.71Z" transform="translate(-36.11 -84.53)"/><path class="a" d="M337.26,231.26a2.82,2.82,0,0,1,2.59,0Z" transform="translate(-36.11 -84.53)"/><path class="a" d="M197.92,294a4.28,4.28,0,0,1-.33,2.54C197.68,295.71,197.29,294.8,197.92,294Z" transform="translate(-36.11 -84.53)"/><path class="a" d="M197.59,304.06a4.24,4.24,0,0,1,.33,2.53C197.28,305.82,197.68,304.88,197.59,304.06Z" transform="translate(-36.11 -84.53)"/><path class="a" d="M288.44,449.26a3.22,3.22,0,0,1,2.13-.33C289.94,449.53,289.15,449.2,288.44,449.26Z" transform="translate(-36.11 -84.53)"/><path class="a" d="M187.08,448.91a3,3,0,0,1,2.13.33C188.49,449.21,187.71,449.56,187.08,448.91Z" transform="translate(-36.11 -84.53)"/><path class="a" d="M171.44,369.29a3.25,3.25,0,0,1,2.12-.33C172.93,369.57,172.15,369.24,171.44,369.29Z" transform="translate(-36.11 -84.53)"/><path class="a" d="M188.68,510.7a3.15,3.15,0,0,1,2.13-.31C190.16,511,189.39,510.65,188.68,510.7Z" transform="translate(-36.11 -84.53)"/><path class="a" d="M286.84,510.39a3.53,3.53,0,0,1,2.17.3C288.27,510.65,287.49,511,286.84,510.39Z" transform="translate(-36.11 -84.53)"/><path class="a" d="M298.56,510.72a3.19,3.19,0,0,1,2.1-.3C300,511,299.27,510.65,298.56,510.72Z" transform="translate(-36.11 -84.53)"/><path class="a" d="M397.11,510.42a3.31,3.31,0,0,1,2.1.3C398.51,510.65,397.75,511,397.11,510.42Z" transform="translate(-36.11 -84.53)"/><path class="a" d="M142.36,469.06a3,3,0,0,1-.33,2.1C142.1,470.47,141.77,469.71,142.36,469.06Z" transform="translate(-36.11 -84.53)"/><path class="a" d="M536.42,481.86a56.72,56.72,0,0,0,8.17-3.1,20.34,20.34,0,0,0,10.87-15.19,5.33,5.33,0,0,1,.29-2.53h0v-2a5.64,5.64,0,0,1-.33-2.54h0a20,20,0,0,0-4.66-9.39A26.82,26.82,0,0,0,531,439.68c-14.91-.2-29.86,0-44.78-.12-2.14,0-2.46.65-2.45,2.59.07,20.09,0,40.22.05,60.33,0,2.09-.89,4.84.34,6.09s4.12.39,6.26.41c1.8,0,4.14.81,5.25-.35s.3-3.47.34-5.28c.13-6.79-.2-13.61.17-20.37.32-.37.76-.27,1.16-.27h24.31c.41,0,.85-.1,1.18.27h0q10.16,12.54,20.28,25.09c.42.53.65,1,1.41.95h14.67ZM497.91,472c-1.64,0-2-.5-2-2q.12-8.84,0-17.66c0-1.49.44-1.87,1.9-1.85,5.67.08,11.34,0,17,0h15.35a20.21,20.21,0,0,1,4.58.5A9.91,9.91,0,0,1,543.1,460a10.5,10.5,0,0,1-6.67,10.63,20,20,0,0,1-7.62,1.25c-10.3.06-20.6,0-30.9.07Z" transform="translate(-36.11 -84.53)"/><path class="a" d="M522.23,482.74h-25.5a1.18,1.18,0,0,0-.57.22h26.65A1.21,1.21,0,0,0,522.23,482.74Z" transform="translate(-36.11 -84.53)"/><path class="a" d="M555.46,463.57c.57-.79.21-1.69.29-2.53h0C555.3,461.83,555.75,462.74,555.46,463.57Z" transform="translate(-36.11 -84.53)"/><path class="a" d="M555.75,459c-.09-.85.31-1.77-.33-2.55h0C555.78,457.27,555.28,458.2,555.75,459Z" transform="translate(-36.11 -84.53)"/><path class="a" d="M63.26,481.71c.06.73.55.85,1.17.85l28.32-.14c-.46.8-1.23.51-1.89.52H64.65C64,482.92,62.54,483.44,63.26,481.71Z" transform="translate(-36.11 -84.53)"/></svg>