<svg xmlns="http://www.w3.org/2000/svg" viewBox="0 0 530.76 116.28"><defs><style>.a{fill:#2e2e2d;}</style></defs><path class="a" d="M239.3,355.78A58.15,58.15,0,1,1,298.25,298C298.22,329.7,271.73,355.65,239.3,355.78Zm-.52-6c29.18.15,53.29-23.1,53.39-51.46a52.88,52.88,0,0,0-52.32-53c-30.08-.27-53.58,23.34-53.93,50.59a52.55,52.55,0,0,0,51.22,53.85c.55,0,1.09,0,1.64,0Z" transform="translate(-32.26 -239.5)"/><path class="a" d="M159.87,316.16c-2.46-.67-4.63-1.35-6.83-1.82a4.55,4.55,0,0,0-2.27.41,15.53,15.53,0,0,1-11.11.18,9.52,9.52,0,0,1-6.51-8.19,8.29,8.29,0,0,1,4.34-9.07,145,145,0,0,1,14-5.38c-.06-1.56-1.31-3.11-3.8-3.63C144,287.88,142,289,140,293c-1.07-.41-2.19-.82-3.3-1.26l-3.33-1.38a12,12,0,0,1,10.8-9.11c6-.67,11.2,1.62,13.49,6.41a20.29,20.29,0,0,1,2.1,7.59C160.06,301.84,159.87,308.48,159.87,316.16Zm-7.47-15.85c-3.56,1.05-6.71,1.79-9.67,3a3.56,3.56,0,0,0-1.84,2.93,4.16,4.16,0,0,0,2.92,2.08c4.91.91,8.18-1.89,8.6-8Z" transform="translate(-32.26 -239.5)"/><path class="a" d="M32.57,290.24a12.92,12.92,0,0,1,14.54-9,12.18,12.18,0,0,1,11.58,11.54c.67,7.39.15,14.88.15,22.7-1.93-.38-4.55,1.21-6.9-1.47a16.84,16.84,0,0,1-12.07,1.2,9.85,9.85,0,0,1-7.4-8.17,8.54,8.54,0,0,1,4.63-9.57,128.78,128.78,0,0,1,13.67-5.05c0-1.84-1.43-3.21-3.74-3.74-3.6-.82-5.63.33-7.8,4.28-1.23-.45-2.49-.88-3.72-1.37C34.57,291.18,33.66,290.73,32.57,290.24Zm19.26,10.12c-3.44,1-6.67,1.67-9.73,2.83-1,.36-1.46,1.93-2.17,2.95,1.11.74,2.14,1.95,3.34,2.16,4.89.86,7.82-1.74,8.56-7.94Z" transform="translate(-32.26 -239.5)"/><path class="a" d="M74.68,304.57a4.46,4.46,0,0,0,4.38,3.76c3.57.43,5.21-.52,7.08-4.41,1.07.39,2.2.78,3.3,1.2s2.24.93,4.09,1.7a35.94,35.94,0,0,1-4.47,5.94,13.63,13.63,0,0,1-21.57-5.55,24.43,24.43,0,0,1,0-17.16,14.58,14.58,0,0,1,19-8.13c.42.17.83.36,1.24.56a9.63,9.63,0,0,1,.91,16.86A82,82,0,0,1,74.68,304.57Zm-1-7.78c3.59-1,6.73-1.64,9.69-2.77.94-.36,2.16-2.26,1.9-2.91a4.66,4.66,0,0,0-3-2.41C77.66,287.8,74.46,290.57,73.69,296.79Z" transform="translate(-32.26 -239.5)"/><path class="a" d="M480.55,315.43l-3.34-.26V281.49c6.08,0,12.1-.38,18,.13a8.28,8.28,0,0,1,7.37,8.8,8.58,8.58,0,0,1-6.73,9.05c-.95.28-1.94.46-3.3.78L503.24,315a3.9,3.9,0,0,1-5.3-1.49l0-.07c-2.22-3.31-4.92-6.31-7-9.71a6.08,6.08,0,0,0-6.71-3.44,28.26,28.26,0,0,1-3.68,0Zm.07-18c4.77-.25,9.27-.2,13.68-.8a6.2,6.2,0,0,0-.44-12.21c-4.34-.32-8.71-.08-13.23-.08Z" transform="translate(-32.26 -239.5)"/><path class="a" d="M318.27,315.09V281.36a124.36,124.36,0,0,1,16.38.21,12.65,12.65,0,0,1,7.23,4.59c4.93,6.13,4.74,17.34.17,23.7a11.54,11.54,0,0,1-9,5.18C328.24,315.26,323.42,315.09,318.27,315.09ZM321.38,284v26.41q.08.93.24,1.86c6.41-.62,13.66,2.26,18-4.72a17.3,17.3,0,0,0,0-18.7c-4.26-7.25-11.63-4-18.27-4.85Z" transform="translate(-32.26 -239.5)"/><path class="a" d="M107.35,315.37h-7.27V272.74h7.27Z" transform="translate(-32.26 -239.5)"/><path class="a" d="M512.83,296.26c5.16,0,10.08,0,15,0,1.83,0,2.8.49,2.08,2.85H512.76v13.16c6,0,11.78,0,17.61,0,1.81,0,3.16.2,2.33,2.72H509.55V281.43h22.22c.73,2.07,0,2.78-2.09,2.75-5.53-.08-11.06,0-16.85,0Z" transform="translate(-32.26 -239.5)"/><path class="a" d="M539.56,281.24h22.22v2.85H542.85v12.19c5,0,10,0,15,0,1.83,0,2.81.45,2.06,2.86H542.81v13.08h20l.26,2.86H539.58Z" transform="translate(-32.26 -239.5)"/><path class="a" d="M118,283.25h7.7v31.86c-.26.15-.41.33-.59.34-7.11.49-7.11.49-7.11-6.57V283.25Z" transform="translate(-32.26 -239.5)"/><path class="a" d="M375.1,281.27h3.09c0,8.66.26,17.24-.11,25.8a9,9,0,0,1-6.39,7.94,16.4,16.4,0,0,1-12.28-.06,9,9,0,0,1-6.24-8.06c-.32-8.47-.1-17-.1-25.61h3.05c0,7.35,0,14.6,0,21.85,0,7.76,5.05,11.55,12.58,9.62a7.29,7.29,0,0,0,6.11-7.13c.26-6.54.21-13.1.28-19.65C375.12,284.45,375.1,282.94,375.1,281.27Z" transform="translate(-32.26 -239.5)"/><path class="a" d="M451.9,315h-3.28V281.38h22.31c.72,2.2-.13,2.83-2.17,2.8-5.52-.08-11,0-16.78,0v11.33c4.86,0,9.72.06,14.59,0,1.95,0,3,.42,2.23,3H451.9Z" transform="translate(-32.26 -239.5)"/><path class="a" d="M428.38,298c3.24-5.06,6.29-9.68,9.16-14.4a3.86,3.86,0,0,1,5-2.1l.06,0c-1,1.64-2,3.23-3,4.81-.16.26-.33.52-.52.78C433,295.29,427,303.55,430.51,315h-3.94c0-3.71.17-7.3-.07-10.86a12.13,12.13,0,0,0-1.59-5.38c-3.53-5.73-7.32-11.3-11.15-17.12a3.77,3.77,0,0,1,5.09,1.62c0,.06.07.13.1.2C421.85,288.21,425,292.84,428.38,298Z" transform="translate(-32.26 -239.5)"/><path class="a" d="M408.92,281.32c.67,2.22-.11,3-2.2,2.85-2.64-.12-5.29,0-8.28,0v30.78l-3.43.23v-31c-3,0-5.71-.08-8.42,0-2,.08-2.94-.52-2.19-2.85Z" transform="translate(-32.26 -239.5)"/><path class="a" d="M118.2,279.74v-7h7.41v7Z" transform="translate(-32.26 -239.5)"/><path class="a" d="M240,297.67a105,105,0,0,1,2.35-10.4,21.22,21.22,0,0,1,22.52-14.78,16.24,16.24,0,0,1,14.34,10.8,16.63,16.63,0,0,1-6.36,17.11,29,29,0,0,1-17.26,5.51c-2.65.06-5.3,0-8,0a13.73,13.73,0,0,0,8.67,12.62c6.77,2,12-.19,16.75-7.23l5.87,2.47a48.82,48.82,0,0,1-6.6,7.47A19,19,0,0,1,242.51,312c-.61-1.73-.86-3.58-1.47-5.31a15.78,15.78,0,0,0-1.68-2.79,9.61,9.61,0,0,0-1.45,2.55c-2.38,10.89-10.27,18-20.74,18.6A16.65,16.65,0,0,1,199,311.24a15.41,15.41,0,0,1,9-15.38c7.09-3.35,14.33-2.73,21.62-.93.6.15,1.19.31,1.78.44a3.11,3.11,0,0,0,.61,0c1.27-5.67-2.79-13.91-7.94-16.12-6.64-2.85-13.19-.43-17.84,6.74l-5-2a16.39,16.39,0,0,1,14.1-11.48c12.15-1.41,20.36,5,22.56,17.69.33,1.91.39,3.87.66,5.8a9.71,9.71,0,0,0,.67,1.87Zm6.74,1.68a30.68,30.68,0,0,0,19.4-2,16.33,16.33,0,0,0,5.73-4.87c3.63-5.14,2-10.47-3.69-13.19a13.16,13.16,0,0,0-11.58,0c-6.88,3.14-10.82,11.08-9.84,20Zm-14.45,2.59c-8.37-3.33-15.82-3.69-21.62-1a9.57,9.57,0,0,0-5.92,8,8.49,8.49,0,0,0,4.52,8.12,14.38,14.38,0,0,0,18.29-3.16A21.14,21.14,0,0,0,232.29,302Z" transform="translate(-32.26 -239.5)"/></svg>