<svg xmlns="http://www.w3.org/2000/svg" viewBox="0 0 477.98 91.81"><defs><style>.a{fill:#2e2e2d;}</style></defs><path class="a" d="M287.88,252c-.68,1.57-1.42,3.12-2,4.73s-1.06,3.4-1.49,4.85l12.38,5a60.41,60.41,0,0,0-6.37,2.55c-5.16,2.85-5.47,4-2.5,9,1.49,2.5,3.29,4.82,4.86,7.28a2,2,0,0,0,2.72,1l.17-.09c7-2.46,12.76,1.24,13.58,8.79A22.1,22.1,0,0,1,295,290.58c-1.79,5.64-2.69,6.76-5.47,6.72a8.91,8.91,0,0,1,2.18-7.36,2.12,2.12,0,0,0,0-3l0,0c-2.36-3.31-4.51-6.79-6.75-10.2-.2-.3-.44-.59-.8-1.08a18,18,0,0,0-3,10,19.86,19.86,0,0,0,6.23,15.59,15.23,15.23,0,0,0,21.56-.25l0,0c8.47-8.3,7.75-23.53-1.6-30.52a49.36,49.36,0,0,0-7.34-3.77c.51-.33,1.21-.82,1.95-1.24a25.78,25.78,0,0,1,37.95,16.72c3.16,12.18-.58,22.74-8.14,32.25a78,78,0,0,1-16.25,14.19c-1.9,1.36-3.83,2.7-5.72,4.08a47.4,47.4,0,0,0-11.69,10.87,52.73,52.73,0,0,0-5-5.18c-3.65-2.92-7.52-5.55-11.26-8.36-4.42-3.31-9-6.44-13.15-10.05A38.28,38.28,0,0,1,254.77,291c-.22-11.71,6.45-25.22,20.3-28.46a30.81,30.81,0,0,1,6-.62,1.91,1.91,0,0,0,2.05-1.53c.91-2.42,2-4.77,3-7.14a11.37,11.37,0,0,1,1-1.53Zm-9,19.1a2.48,2.48,0,0,0,2.65-2.26c-.05-1.49-1-2.14-2.39-2.23a2.35,2.35,0,0,0-2.75,1.88,1.25,1.25,0,0,0,0,.19c-.17,1.14,1.18,2.37,2.52,2.42Z" transform="translate(-58.65 -251.73)"/><path class="a" d="M185.38,327.31a20.37,20.37,0,0,0,10.45,6.06l0,.66c-1.35.21-2.92,1-4,.51a51.37,51.37,0,0,1-8.18-4.29,6.52,6.52,0,0,0-4.56-1.38,11.84,11.84,0,0,1-3.53-23.38c7.37-1.74,14.09,1.95,15.73,8.65a11.85,11.85,0,0,1-4.44,12.06Zm2.59-9.8c0-5.69-3.57-10.05-8.46-10.31-6.73-.36-11.07,5.32-9.38,12.29a9.33,9.33,0,0,0,9.83,7.37A8.84,8.84,0,0,0,188,317.51Z" transform="translate(-58.65 -251.73)"/><path class="a" d="M396.05,270.35a11.82,11.82,0,0,1,12.27,9.5,12,12,0,0,1-9.62,14l-.33.05a12.74,12.74,0,0,1-12.75-4.48,10.85,10.85,0,0,1-1.3-12.22A12.13,12.13,0,0,1,396.05,270.35Zm-.29,2.12a8.73,8.73,0,0,0-9,8.4,10.29,10.29,0,0,0,0,1.11,9.78,9.78,0,0,0,9.35,10.18h0a8.92,8.92,0,0,0,8.89-9c0-.2,0-.4,0-.59a9.35,9.35,0,0,0-8.57-10.1Z" transform="translate(-58.65 -251.73)"/><path class="a" d="M120.35,315.11l1.78.84a5.76,5.76,0,0,1,3.42,7.4,5.85,5.85,0,0,1-1.91,2.59,8.81,8.81,0,0,1-4.46,2.13,92.7,92.7,0,0,1-9.43.09c0-7.43.17-14.87-.11-22.76,3.07.21,6.66.33,10.2.76a4.16,4.16,0,0,1,3.7,3.53,4.3,4.3,0,0,1-2.32,4.72C121,314.55,120.84,314.73,120.35,315.11Zm-7.3,1.8v5.53c0,4.64-.28,3.4,3.79,3.83a4.66,4.66,0,0,0,5.42-3.74s0-.08,0-.12a4.73,4.73,0,0,0-3.91-5.42,3.81,3.81,0,0,0-.59-.05,37.34,37.34,0,0,0-4.73,0Zm0-1.65a28.21,28.21,0,0,0,5.35-1.3,3.24,3.24,0,0,0,1.55-4.31,3.48,3.48,0,0,0-.82-1.08,5.68,5.68,0,0,0-5.5-.87,1.46,1.46,0,0,0-.57,1.08c0,1.93,0,3.87,0,6.48Z" transform="translate(-58.65 -251.73)"/><path class="a" d="M374.15,293.47c0-3.4,0-6.68,0-10a1.65,1.65,0,0,0-1.09-1.16q-5.36-.14-10.73,0a1.67,1.67,0,0,0-1.2,1.06c-.1,3.28-.06,6.56-.06,10h-3.35c.16-7.44.14-14.88,0-22.44h3.64c-.1,2.55-.2,5.15-.32,7.75,0,.9.18,1.48,1.28,1.47,3.82,0,7.66,0,11.52,0V271h3.79c-.37,7.52-.18,15-.13,22.54Z" transform="translate(-58.65 -251.73)"/><path class="a" d="M358.1,305c3.33.15,6.85.11,10.3.52a10.39,10.39,0,0,1,9.77,10.27,10.91,10.91,0,0,1-9.09,11.6A96.07,96.07,0,0,1,358,328,126.09,126.09,0,0,0,358.1,305Zm3.42,11.57V322c0,3.92,0,3.92,4,3.76a9.31,9.31,0,1,0-.5-18.61,10.09,10.09,0,0,0-1.74.21,1.86,1.86,0,0,0-1.82,1.9,1.71,1.71,0,0,0,0,.31c.08,2.32,0,4.66,0,7Z" transform="translate(-58.65 -251.73)"/><path class="a" d="M85.45,305.69a34.92,34.92,0,0,0-.49,4.19c.05,4.21,0,8.44.41,12.61a5,5,0,0,0,5.56,4.45l.53-.08a5.57,5.57,0,0,0,5.44-5.69v0c0-3.89,0-7.79,0-11.68a33.26,33.26,0,0,0-.49-3.74h4.13a181.16,181.16,0,0,0-.19,22.35c-2.41.7-3.14.44-3.65-1.43a29,29,0,0,1-4.55,2c-6.12,1.51-10.26-1.68-10.4-7.95-.08-3.83,0-7.65,0-11.47a29,29,0,0,0-.48-3.49Z" transform="translate(-58.65 -251.73)"/><path class="a" d="M213.82,326.39a10.11,10.11,0,0,1-9.59,2.19,6.42,6.42,0,0,1-5-6.34c-.07-3.44,0-6.89-.06-10.31,0-2-.23-4-.36-6.15h3.9a66.29,66.29,0,0,0-.2,16.11,5,5,0,0,0,4.08,4.82,6.43,6.43,0,0,0,6.74-2.39,5,5,0,0,0,.76-2.52c.07-4.41.06-8.82,0-13.23a16,16,0,0,0-.54-2.89H218a101.16,101.16,0,0,0-.21,22.41C214.88,328.71,214.45,328.55,213.82,326.39Z" transform="translate(-58.65 -251.73)"/><path class="a" d="M504.93,270.9H509a143.36,143.36,0,0,0-.06,22.51c-2.77.58-3.3.39-3.85-1.79a10.24,10.24,0,0,1-8.7,2.36,6.52,6.52,0,0,1-5.93-6.57c-.1-3.37,0-6.75-.09-10.11,0-2.11-.25-4.21-.39-6.38h4a57.93,57.93,0,0,0-.11,17,5.19,5.19,0,0,0,6,4.14,5.47,5.47,0,0,0,5.52-5.37c0-3.82,0-7.65,0-11.47C505.33,273.83,505.07,272.39,504.93,270.9Z" transform="translate(-58.65 -251.73)"/><path class="a" d="M501.37,327.78a6.18,6.18,0,0,1-6.85-3.19c-1.87-2.7-3.93-5.28-6.06-8.11,1.25-.49,2.21-.8,3.1-1.24a4.44,4.44,0,0,0,2.67-5.57,4.7,4.7,0,0,0-5.83-2.58,2.13,2.13,0,0,0-1.23,1.49c-.08,5.51-.07,11,0,16.53a15.24,15.24,0,0,0,.47,2.6h-3.91c.19-7.5.41-14.95-.15-22.71,2.84.13,6.07.09,9.25.48a5.16,5.16,0,0,1,4.82,4.37,6,6,0,0,1-3.17,5.8c-.66.39-1.38.7-2.58,1.3Z" transform="translate(-58.65 -251.73)"/><path class="a" d="M201.94,295.83a31.18,31.18,0,0,1-3.25-3.15c-3.57-4.62-7-9.32-10.56-14-.42-.56-.88-1.08-1.36-1.67-1,2-.71,15,.33,17.68h-3.27a100.32,100.32,0,0,0-.08-22.65,4.21,4.21,0,0,1,4.68,2c3.34,4.86,7,9.48,10.61,14.19a4.25,4.25,0,0,0,1.46,1.27c-.19-5.86,1.15-11.7-.64-17.44h3.39c-.22,2-.58,3.94-.62,5.89-.09,5.12,0,10.25,0,15.37v2.11Z" transform="translate(-58.65 -251.73)"/><path class="a" d="M282.77,340.93H58.65v-.26H282.74Z" transform="translate(-58.65 -251.73)"/><path class="a" d="M536.63,340.65H312.7v-.25H536.59Z" transform="translate(-58.65 -251.73)"/><path class="a" d="M524,283.32c-2.14,3.69-5.55,5.94-6.24,10.15H513c1.36-1.72,2.5-3.18,3.66-4.63a62.86,62.86,0,0,1,4-5,3,3,0,0,0,.72-4.23,2.79,2.79,0,0,0-.49-.54c-2.08-2.55-3.84-5.35-5.78-8.1a4.37,4.37,0,0,1,5.42,2.21,72.72,72.72,0,0,0,4.15,6c1.87-2.87,4.54-4.82,4.9-8.28h4.26c-1.78,2.34-3.42,4.48-5.06,6.61-2.74,3.57-2.75,3.57-.24,7.26,2,2.89,3.94,5.77,5.86,8.59-3,.62-3.53.42-5.27-2.19Z" transform="translate(-58.65 -251.73)"/><path class="a" d="M471.17,270.75c-.46.18-.4.14-.34.14,4-.24,4-.24,5.44,3.38,1.86,4.56,3.67,9.13,5.57,13.66.79,1.88,1.75,3.7,2.64,5.56h-4c-1-2.71-1.89-5.24-2.9-7.73a1.77,1.77,0,0,0-1.35-.74c-2.34-.08-4.68,0-7,0-.36,0-1,.1-1,.31a18,18,0,0,0-2.37,8.16h-3.64A205.55,205.55,0,0,0,471.17,270.75Zm1.83,3.08-.58,0L469,282.64h7.47Z" transform="translate(-58.65 -251.73)"/><path class="a" d="M452.44,327.77c2.42-3.53,8.82-20,8.83-22.55,4.11-.35,4.1-.35,5.61,3.35,2,5,4.08,10.08,6.18,15.1.57,1.36,1.34,2.64,2.06,4H471c-.9-2.49-1.73-5-2.73-7.39a2.24,2.24,0,0,0-1.58-1,11.13,11.13,0,0,0-3.31,0c-2,.31-4.72-1.33-5.54,2.16-.49,2.07-1.25,4.08-2,6.34Zm11.16-19.69-.62.1-3.38,8.73H467Z" transform="translate(-58.65 -251.73)"/><path class="a" d="M518,324.28a52.71,52.71,0,0,0,6.42,1.93,7.59,7.59,0,0,0,3.94-.55,3.37,3.37,0,0,0,.83-6.16,28.38,28.38,0,0,0-3.72-2.1,31,31,0,0,1-4.7-2.71,5.1,5.1,0,0,1-1.23-7.1,5.18,5.18,0,0,1,2.66-1.94,21.88,21.88,0,0,1,7.06-.89c3.12,0,3.25.26,3.08,3.13a57,57,0,0,0-6.07-1.05,3.48,3.48,0,0,0-3.88,2.61c-.48,1.8.69,3,2.09,3.79,1.85,1.07,3.82,1.9,5.71,2.92,2.21,1.21,4.37,2.52,4.17,5.53a6.78,6.78,0,0,1-4.73,5.86,13,13,0,0,1-9.69.05C519.06,327.29,518.69,325.51,518,324.28Z" transform="translate(-58.65 -251.73)"/><path class="a" d="M161.75,294.71h-3a206,206,0,0,0,8.54-22.65c-.22,0,0,0,.26,0,4,0,3-.51,4.39,2.93,2.07,5.16,4,10.38,6,15.55.56,1.42,1.34,2.75,2,4.19h-3.85c-.84-2.45-1.58-4.89-2.55-7.25-.24-.58-1.13-1-1.81-1.27a2.77,2.77,0,0,0-1.73,0c-2,.67-5-1.71-6.22,1.67C163.08,290,162.5,292.23,161.75,294.71Zm7.3-19.68h-.53c-1.07,2.86-2.13,5.72-3.3,8.84h7.11Z" transform="translate(-58.65 -251.73)"/><path class="a" d="M80.27,294.72H76.61c-1-2.7-1.84-5.24-2.84-7.74-.15-.39-.85-.7-1.34-.79a5.39,5.39,0,0,0-2.33,0c-2,.57-4.85-1.66-5.94,1.79-.69,2.17-1.36,4.33-2.11,6.73H59.14A213.77,213.77,0,0,0,67.64,272c-.31.16-.2.06-.09.05,3.57-.17,3.57-.17,4.85,3.1,1.88,4.9,3.74,9.8,5.66,14.68C78.68,291.44,79.47,293,80.27,294.72Zm-7.6-10.86-3.26-8.79h-.58l-3.28,8.79Z" transform="translate(-58.65 -251.73)"/><path class="a" d="M112.89,274.84a43.59,43.59,0,0,0-5.76-1.08,3.39,3.39,0,0,0-3.67,2.61,3.25,3.25,0,0,0,1.83,3.73c1.77,1.08,3.65,2,5.48,3,2.2,1.19,4.23,2.67,4.11,5.42a7,7,0,0,1-4.9,6.21,11.25,11.25,0,0,1-8.55,0c-.94-.37-1.42-1.93-2.12-2.94l.45-.31a38.06,38.06,0,0,0,5.2,1.7,7.6,7.6,0,0,0,3.78-.3,3.52,3.52,0,0,0,1-6.5,65.81,65.81,0,0,0-6-3.28,6.24,6.24,0,0,1-3.73-4.89c-.29-3.54,2-6,6.26-6.46a18.55,18.55,0,0,1,4.08,0C113.12,272,113.27,272.25,112.89,274.84Z" transform="translate(-58.65 -251.73)"/><path class="a" d="M138.67,275a27.76,27.76,0,0,0-4.56-1.26c-2.58-.27-4.22.73-4.77,2.46s.3,3.12,2.62,4.46c1.57.9,3.23,1.66,4.83,2.53,2.14,1.16,4,2.64,3.91,5.33a6.77,6.77,0,0,1-4.23,5.86,11.46,11.46,0,0,1-9.45.21c-.86-.33-1.22-2-2-3.4,2.35.81,4.12,1.5,5.94,2a5.66,5.66,0,0,0,2.49,0c1.88-.38,3.51-1.24,3.82-3.35a4.12,4.12,0,0,0-2.61-4.18c-2.14-1.23-4.4-2.25-6.46-3.59a5.16,5.16,0,0,1-2.33-5.41,5.27,5.27,0,0,1,4-4.36,11.12,11.12,0,0,1,2.45-.61,23,23,0,0,1,3.71,0C138.86,271.89,139,272.14,138.67,275Z" transform="translate(-58.65 -251.73)"/><path class="a" d="M64.36,328.19H60.52c0-7.53.32-14.92-.21-22.58a30.37,30.37,0,0,1,11.39.87A5.55,5.55,0,0,1,73,316.25a9.6,9.6,0,0,1-5.83,1.83,27.54,27.54,0,0,0,3.8-3.27,4.32,4.32,0,0,0,.31-4.62c-1-2.18-3.93-3-7.45-1.94C64.13,314.8,63.27,321.43,64.36,328.19Z" transform="translate(-58.65 -251.73)"/><path class="a" d="M238.28,305.78v2.72a25.48,25.48,0,0,0-3.65-.77,29.3,29.3,0,0,0-4,.26v6.92h3.54c2.35,0,2.35,0,2,2.42l-4-.3c-1.1-.08-1.7.29-1.66,1.54.07,1.94.08,3.89,0,5.84-.05,1.21.56,1.6,1.62,1.67a13.41,13.41,0,0,0,8.76-1.17c-.26,3.23-.48,3.43-3.45,3.43H227a163.32,163.32,0,0,0,0-22.56Z" transform="translate(-58.65 -251.73)"/><path class="a" d="M420.9,283.2c4.25-2.26,5.23-3.69,4.8-6.63a5.36,5.36,0,0,0-6.74-3.45l-.38.14a1.72,1.72,0,0,0-.56,1.27c0,5.45,0,10.9,0,16.35a10.64,10.64,0,0,0,.7,2.6h-4c0-3.82,0-7.54,0-11.27s-.13-7.44-.21-11.49c2.85.14,6.21.08,9.5.51a5.44,5.44,0,0,1,5.35,5.53c0,.16,0,.31,0,.47a6.47,6.47,0,0,1-5.83,5.81C422.82,283.14,422.11,283.14,420.9,283.2Z" transform="translate(-58.65 -251.73)"/><path class="a" d="M223.38,275.62c-4.45-2-8.7-2.74-12.11,1.49a10.72,10.72,0,0,0,0,12.06c2.62,3.84,5.48,4.33,13.23,2.26-.51,3-.79,3.39-4.25,3.85-6.08.8-12.57-1.86-13.84-8.67-1.89-10.05,4.68-16.46,14.25-14.79C223.72,272.36,223.71,272.41,223.38,275.62Z" transform="translate(-58.65 -251.73)"/><path class="a" d="M95.43,274.71a43.94,43.94,0,0,0-5.58-.95,3.41,3.41,0,0,0-3.62,2.41A3.3,3.3,0,0,0,88,280.11c1.82,1.11,3.77,2,5.63,3.06,2.18,1.2,4,2.62,3.86,5.51a6.71,6.71,0,0,1-4.29,5.76,11.52,11.52,0,0,1-9.26.17c-.86-.32-1.24-1.9-1.85-2.89l.48-.26c1.74.59,3.47,1.23,5.23,1.73a4.7,4.7,0,0,0,2.11.08c1.91-.38,3.73-1.07,4.18-3.24s-1-3.5-2.71-4.48c-1.51-.87-3.14-1.55-4.67-2.4-3.34-1.84-4.49-4-3.86-7.06a6.5,6.5,0,0,1,6-4.41,19.14,19.14,0,0,1,4.28,0C95.65,272,95.78,272.24,95.43,274.71Z" transform="translate(-58.65 -251.73)"/><path class="a" d="M431.55,305c3,.14,6.26.08,9.45.51a5.57,5.57,0,0,1,5.52,5.62,2.44,2.44,0,0,1,0,.27,6.57,6.57,0,0,1-6.16,5.95,16.68,16.68,0,0,1-2,0,22.83,22.83,0,0,0,3.26-2.26A4.73,4.73,0,0,0,442,309a6.3,6.3,0,0,0-6.27-1.53,1.86,1.86,0,0,0-.74,1.39q0,8.08.12,16.15a13.12,13.12,0,0,0,.65,2.7h-4.29A147.41,147.41,0,0,0,431.55,305Z" transform="translate(-58.65 -251.73)"/><path class="a" d="M395.71,316.82C390,316,390,316,390,321.36c0,4.3,0,4.4,4.37,4.35a53,53,0,0,0,6.15-.78c-.47,2.93-.47,2.93-3.76,2.93H386.58a127.93,127.93,0,0,0-.05-22.74c3.34,0,7-.17,10.55.07,1.86.12.64,1.79.85,2.51-2.1-.14-4.13-.33-6.17-.41a1.48,1.48,0,0,0-1.73,1.19,1.44,1.44,0,0,0,0,.62,2.54,2.54,0,0,1,0,.39c-.12,4.68-.12,4.72,4.45,4.95C396.4,314.53,395.86,315.63,395.71,316.82Z" transform="translate(-58.65 -251.73)"/><path class="a" d="M227.78,272.14h10.88v2.46l-7.2-.45v7.19h5.23v2.42c-5.36-.51-5.36-.51-5.36,4.9,0,3.88,0,4,3.87,4a54.09,54.09,0,0,0,6-.69c-.29,2.8-.36,2.86-3.63,2.86H228A119.86,119.86,0,0,0,227.78,272.14Z" transform="translate(-58.65 -251.73)"/><path class="a" d="M441.83,273.47c0-2,1-2.78,3.25-2.69,4.58.2,9.2.06,14.09.06l-.6,2.55a50.48,50.48,0,0,0-5.22-.37,1.91,1.91,0,0,0-1.31,1.33q-.14,8.16,0,16.31a12,12,0,0,0,.74,2.84h-4c0-6.53,0-13-.06-19.41,0-.39-.87-1.09-1.33-1.08C445.5,273,443.65,273.3,441.83,273.47Z" transform="translate(-58.65 -251.73)"/><path class="a" d="M133.86,305.65h3.89c-1,6.35-.26,12.73-.51,19.08-.05,1.2.71,1.36,1.64,1.38,2.94.06,5.94.64,8.76-1.25-.47,3.28-.69,3.48-3.44,3.48H133.8C134.12,320.61,134.1,313.16,133.86,305.65Z" transform="translate(-58.65 -251.73)"/><path class="a" d="M151.71,294.68h-4.23c1.05-6.27.29-12.59.51-18.87,0-1.28-.54-1.79-1.75-1.67l-4.61.47c-.28-2.18,0-2.59,2.14-2.59h14l-.58,2.64a43.35,43.35,0,0,0-4.83-.45,1.92,1.92,0,0,0-1.38,1.28c-.09,5.56-.08,11.14,0,16.7A9.89,9.89,0,0,0,151.71,294.68Z" transform="translate(-58.65 -251.73)"/><path class="a" d="M438,293.51h-3.6a155.57,155.57,0,0,0-.14-22.54h3.82C437.68,278.39,437.85,285.83,438,293.51Z" transform="translate(-58.65 -251.73)"/><path class="a" d="M159.27,305.72a122.76,122.76,0,0,0,0,22.52h-3.87a122.76,122.76,0,0,0,0-22.52Z" transform="translate(-58.65 -251.73)"/><path class="a" d="M511,305.23a83,83,0,0,0-.08,22.49H506.8a124.23,124.23,0,0,0,0-22.49Z" transform="translate(-58.65 -251.73)"/><path class="a" d="M118.61,272.11h3.63c-.39,7.48-.31,15,0,22.59a6.53,6.53,0,0,1-.76.08c-1,0-1.94,0-2.81,0A122.63,122.63,0,0,0,118.61,272.11Z" transform="translate(-58.65 -251.73)"/><path class="a" d="M391.21,268.71l4.69-4.3,4.63,4.33-.28.46a12.6,12.6,0,0,0-4.33-1.76,12.85,12.85,0,0,0-4.38,1.76Z" transform="translate(-58.65 -251.73)"/></svg>