<svg xmlns="http://www.w3.org/2000/svg" viewBox="0 0 231.27 254.51"><defs><style>.a{fill:none;stroke:#2e2e2d;stroke-linecap:round;stroke-linejoin:round;stroke-width:8px;}</style></defs><path class="a" d="M227.27,123.77a17.27,17.27,0,0,1-4.15,1.25c-4.05.17-8.11.06-12.43.06v9.67c0,3.49,0,7,0,10.46,0,2.57-.83,3.4-3.37,3.42-4.07,0-8.14-.1-12.21,0a3.46,3.46,0,0,1-3.92-2.93,1.23,1.23,0,0,1,0-.19c-1.52-6.18-3.15-12.34-4.63-18.54-.35-1.43-.83-2-2.43-2q-68.45.09-136.91,0c-1.57,0-2.1.51-2.44,2-1.46,6.13-3.06,12.22-4.61,18.33-.73,2.87-1.27,3.29-4.17,3.31-4,0-8,0-12,0-2.55,0-3.38-.83-3.39-3.4,0-6.61,0-13.22,0-20.15H9.92c-5.91,0-5.91,0-5.91-5.89,0-3.42,0-6.83,0-10.25,0-2.13.9-3,3.05-3h1.3q107.28,0,214.53,0a16.41,16.41,0,0,1,4.36,1.26Z"/><path class="a" d="M199.91,250.47h-64c-1.75-32.75-3.5-65.48-5.26-98.43.84,0,1.54-.12,2.23-.12,14.39,0,28.77,0,43.15,0,1.77,0,2.32.64,2.66,2.22q8.1,36.79,16.26,73.57,2.28,10.28,4.52,20.57C199.65,248.94,199.76,249.63,199.91,250.47Z"/><path class="a" d="M95.33,250.51h-64c.71-3.32,1.36-6.53,2.06-9.72q9.56-43.15,19.08-86.28c.42-1.94,1.07-2.67,3.22-2.65,14.08.12,28.16.06,42.26.06h2.68C98.84,184.89,97.09,217.67,95.33,250.51Z"/><path class="a" d="M124.53,4H152.7l16.61,74.87H128.54C127.21,54,125.87,29.13,124.53,4Z"/><path class="a" d="M78.58,4h28.17c-1.33,25-2.66,49.85-4,74.86H62Z"/></svg>