<svg xmlns="http://www.w3.org/2000/svg" viewBox="0 0 247.54 246.53"><defs><style>.a{fill:none;stroke:#2e2e2d;stroke-linecap:round;stroke-linejoin:round;stroke-width:8px;}</style></defs><path class="a" d="M148.1,128.88c-17.59,17-34.46,33.13-51,49.54a10.71,10.71,0,0,0-2,7.33,200.16,200.16,0,0,0,2.22,30.84c2.2,11-2.49,17.46-11.41,23.55-7.25-14.69-14.69-29.26-21.64-44a24.57,24.57,0,0,0-12.69-12.73c-14.75-6.8-29.2-14.27-44.24-21.69,5.81-7.48,10.85-13.7,22-11.49a205.09,205.09,0,0,0,32.46,2.26A11.67,11.67,0,0,0,69.71,150c16.24-16.38,32.17-33.05,49-50.45L4,39.09A159.46,159.46,0,0,1,18.72,26a12,12,0,0,1,8.75-.67c40.11,10.46,80.2,21,120.15,31.94,7.2,2,11.75.89,16.76-4.76,10.45-11.78,21.9-22.67,32.63-34.2C208.28,6.17,223.55,5.8,238.22,4c1.57-.2,5.57,4.66,5.31,6.8-1.92,16.18-4.11,32.12-18.2,43.74C213.84,64,203.77,75.23,192.82,85.39a9.69,9.69,0,0,0-3.21,11.25c10.46,38.44,20,77.13,30.92,115.46,3.13,11,2.37,19.07-7.31,25.61a55.67,55.67,0,0,0-5.36,4.82Z"/></svg>