<svg xmlns="http://www.w3.org/2000/svg" viewBox="0 0 470.94 470.79"><defs><style>.a{fill:#2e2e2d;}</style></defs><path class="a" d="M317,533H277.31c-.63-1.41-1.95-.82-2.95-.93A216.36,216.36,0,0,1,217.14,519Q88.58,468,64.5,331.66a55.23,55.23,0,0,0-2.33-13.8v-40.5c1.74-2.12,1.16-4.77,1.45-7.14A228.24,228.24,0,0,1,130.5,131.78c53.9-53.4,119.24-76.06,194.69-67.92A223.11,223.11,0,0,1,463.28,130.4c56.76,57.48,79.15,127,66.31,206.71A234.22,234.22,0,0,1,331.67,530.72,61.31,61.31,0,0,0,317,533Zm-19.61-37.68c108.94.09,197.32-88.15,197.41-197.08S406.63,101,297.69,100.86c-108-.09-196,86.75-197.39,194.77-1.59,108.7,85.23,198.1,193.93,199.7l3.14,0Z" transform="translate(-62.17 -62.24)"/><path class="a" d="M175.14,348.1c-12.75,0-23.43-.08-34.12,0-2.49,0-3.4-.53-3.4-3.23q.1-63.68,0-127.37c0-1.94.21-3.12,2.67-3.11,20.66.08,41.35-.47,62,.22,20.1.68,32.48,14.19,32.8,34.34a37.48,37.48,0,0,1-6.55,25.55c-1,1.27-.41,1.79.66,2.54,18.54,12.79,21.41,37.57,6.38,57.29a34.57,34.57,0,0,1-25.43,13C197.82,348.73,185.44,347.77,175.14,348.1Zm8.59-56.26c-5.33,0-10.67.11-16,0-2.48-.07-3.48.5-3.41,3.23.19,7.3.16,14.6,0,21.9,0,2.51.57,3.41,3.25,3.41,10-.16,19.94,0,29.92-.1a18.94,18.94,0,0,0,12.29-3.54,15.66,15.66,0,0,0,4.5-16.09,14.45,14.45,0,0,0-14.13-8.7c-5.46-.18-10.92,0-16.42-.06Zm-2.87-49.17v0c-4.63,0-9.26,0-13.88,0-1.59,0-2.66.16-2.63,2.22.11,5.89.06,11.78,0,17.67,0,1.36.45,2.1,1.93,2.06a244.43,244.43,0,0,0,29.4-.64,10.42,10.42,0,0,0,10-10.79,10.07,10.07,0,0,0-.16-1.44c-.41-5.4-4.32-8.65-11.25-9-4.45-.22-9-.05-13.43-.05Z" transform="translate(-62.17 -62.24)"/><path class="a" d="M365.07,281.32c0-20.81.08-41.63-.08-62.44,0-3.34.57-4.54,4.25-4.49,20.94.28,41.9-.21,62.82.53a30.72,30.72,0,0,1,30.06,28.77A40.85,40.85,0,0,1,456,274.64c-1.64,2.17.79,2.32,1.59,2.94A37.83,37.83,0,0,1,472.82,306a39.14,39.14,0,0,1-35.25,41.37c-23.27,1.71-46.65.33-70,.8-3.07.06-2.53-1.79-2.53-3.55Zm46.37,10.52c-5.33,0-10.67.17-16-.07-2.88-.13-3.51.89-3.4,3.57.18,5.88,0,11.78,0,17.67,0,7.23,0,7.34,7.21,7.21a280.4,280.4,0,0,0,30.68-.57,13,13,0,0,0,11.92-10.26c2.38-10.19-3.06-17.1-14-17.52-5.5-.19-11,0-16.45,0ZM408,264.56a97.23,97.23,0,0,0,15.54-.62,10.79,10.79,0,0,0,9.7-11.35,10,10,0,0,0-10.08-9.88,8.7,8.7,0,0,0-.89,0c-9.28-.3-18.56-.05-27.82-.19-2.27,0-2.44,1-2.41,2.79.07,5.48.13,11,0,16.46-.07,2.3.77,2.84,2.91,2.79,4-.15,8.12,0,13.06,0Z" transform="translate(-62.17 -62.24)"/><path class="a" d="M327.91,275c4.22,0,8.43,0,12.65,0,1.57,0,2.71.08,2.62,2.19-.07,1.67,0,2.91-2.31,2.94a11.89,11.89,0,0,0-10.16,6.49c-3.4,5.49-6.81,10.95-10.21,16.43-.42.67-1.11,1.18-.62,2.21a16.82,16.82,0,0,0,12.17,6.53,8,8,0,0,0,6.63-7.72c.29-2.61,1.28-3.32,3.68-3,3.11.35,1.53,2.63,1.43,3.86a18.11,18.11,0,0,1-29.16,14.29,11.39,11.39,0,0,0-13.71-.47,31.54,31.54,0,0,1-23.71,2.67,20.26,20.26,0,0,1-15.89-15.16A21.5,21.5,0,0,1,268.13,284a36,36,0,0,1,10.51-6.91c2.08-.89,2.32-1.78,1.34-3.75a49.58,49.58,0,0,1-3.8-9.77,18.3,18.3,0,0,1,11.56-23.14,18.64,18.64,0,0,1,3.68-.82,31.85,31.85,0,0,1,14.62.76,13.81,13.81,0,0,1,7.38,22.7A34.77,34.77,0,0,1,299.5,273c-2.27,1.06-2.4,1.86-1.14,3.88a256.81,256.81,0,0,0,15.08,21.8c1.48,1.9,2.37,1.91,3.61-.12a47.86,47.86,0,0,0,4.49-8.07c2.13-5.84.57-8.79-5.47-10.06-1.83-.4-3.84-.16-3.54-3.28s2.49-2,4-2.09C320.31,274.86,324.11,275,327.91,275Zm-52,18.94c.19,1.52.26,3.07.57,4.54,2.6,12.64,14.44,19.08,24.93,13.62,1.49-.77,2.78-1.21,1.14-3.23A162,162,0,0,1,284.75,283c-.95-1.76-1.79-1.56-3.15-.37A14.74,14.74,0,0,0,275.93,293.9Zm29.22-36.21c0-9.65-3.48-13.78-9-13.34s-8.23,5.18-7.16,12a40.79,40.79,0,0,0,4.28,11.3c1,2,2.06,1.6,3.6.8A13.68,13.68,0,0,0,305.15,257.69Z" transform="translate(-62.17 -62.24)"/><path class="a" d="M260.4,386.87a61.48,61.48,0,0,1-.64,11.66,14,14,0,0,1-14.42,10.53,13.55,13.55,0,0,1-13.77-11.23,59.66,59.66,0,0,1,0-18.86,13.48,13.48,0,0,1,14.07-11.35,13.68,13.68,0,0,1,14.23,11.19A58.66,58.66,0,0,1,260.4,386.87Zm-6.75,1.66a68.22,68.22,0,0,0-.05-7.15,7.66,7.66,0,0,0-7.82-7.27,7.56,7.56,0,0,0-8,7.07,106.63,106.63,0,0,0,0,14.3,7.49,7.49,0,0,0,7.91,7h.09a7.67,7.67,0,0,0,7.83-7.26C253.74,393,253.75,390.77,253.65,388.53Z" transform="translate(-62.17 -62.24)"/><path class="a" d="M215.59,388.7c0,4.92.12,9.84,0,14.75-.08,2.27,1.48,5.61-3.32,5.52s-2.87-3.54-3.08-5.73a63.76,63.76,0,0,1,0-8.85c.1-2.27-.61-3.37-3.08-3.25a89.77,89.77,0,0,1-9.28,0c-2.69-.14-3.41,1.09-3.3,3.52.13,3.79-.08,7.59.06,11.38.1,2.66-1.37,2.91-3.45,2.89s-3.19-.33-3.18-2.73q.12-17.93,0-35.85c0-2.53,1.48-2.56,3.31-2.58s3.36.09,3.3,2.59c-.09,3.94.06,7.88,0,11.81-.06,2.27.57,3.41,3.09,3.26,3.22-.16,6.47-.14,9.7,0,2.27.09,2.91-.9,2.84-3-.1-3.93.09-7.88-.06-11.81-.1-2.72,1.44-2.84,3.47-2.84s3.14.47,3.1,2.8C215.52,376.58,215.59,382.62,215.59,388.7Z" transform="translate(-62.17 -62.24)"/><path class="a" d="M311.92,388.4c0-5.91.07-11.81,0-17.71,0-2.18.71-3,2.91-3q10.33.15,20.67,0c2.5,0,2.61,1.35,2.63,3.23s-.3,3.22-2.7,3.17c-4.49-.11-9,.05-13.49-.06-2.41-.05-3.49.65-3.59,3.31-.3,8-.41,8,7.63,8,2.1,0,4.22.1,6.32,0s3,.62,3,2.84-.69,3.07-2.93,3c-3.51-.13-7,.08-10.54-.07-2.5-.11-3.52.71-3.48,3.34.15,9.77-.71,7.89,7.63,8.06,3.09.07,6.19.14,9.27,0,2.69-.13,2.84,1.36,2.88,3.44s-.7,3-2.91,3q-10.12-.15-20.24,0c-2.45.05-3.14-.91-3.09-3.22C312,399.92,311.92,394.16,311.92,388.4Z" transform="translate(-62.17 -62.24)"/><path class="a" d="M404.18,409a21.34,21.34,0,0,1-12.37-3.41c-1.14-.71-3.41-1.43-1.7-3.4,1.23-1.41,2-4.5,5.11-2.27a15.88,15.88,0,0,0,11.26,2.47c3.16-.35,5.82-1.48,5.88-5.28.07-3.56-2.23-4.83-5.33-5.29a62,62,0,0,1-7-1.26,10.84,10.84,0,0,1-8.81-12.06,11.12,11.12,0,0,1,10-10.74A21.54,21.54,0,0,1,415,370.17c1.28.71,3.23,1.27,1.64,3.33-1.14,1.46-1.5,4.28-4.6,2.44a14.42,14.42,0,0,0-9.36-1.76,5,5,0,0,0-5,4.78,4.87,4.87,0,0,0,4.26,5.39,40.75,40.75,0,0,0,5.39.93,11.84,11.84,0,0,1-.5,23.67h-.21A20.29,20.29,0,0,1,404.18,409Z" transform="translate(-62.17 -62.24)"/><path class="a" d="M281.65,391.27c0-4.78-.11-9.56,0-14.33.08-2.5-.65-3.69-3.31-3.41-1.53.16-3.1-.07-4.64.05-2.27.19-3.3-.49-3.24-3,.05-2.27,1-2.84,3.06-2.84q11.38.12,22.77,0c2.17,0,3,.7,3,2.92s-.67,2.86-2.89,3c-8.26.35-8.25.44-8.25,8.89,0,7.59-.05,15.18,0,22.78,0,2.27-.23,3.66-3.11,3.69s-3.56-1.14-3.47-3.77C281.77,400.56,281.66,395.91,281.65,391.27Z" transform="translate(-62.17 -62.24)"/><path class="a" d="M358.43,385.1c0,4.63.14,9.27,0,13.9-.11,2.84,1,3.66,3.69,3.57,4.49-.15,9,.07,13.49-.07,2.61-.08,2.93,1.28,2.93,3.41s-.69,3-2.92,3c-6.74-.09-13.48-.12-20.22,0-2.45,0-3.11-1-3.1-3.25q.12-17.47,0-35c0-2.15.71-3,2.93-3s3.35.57,3.28,3.07C358.36,375.54,358.43,380.32,358.43,385.1Z" transform="translate(-62.17 -62.24)"/></svg>