<svg xmlns="http://www.w3.org/2000/svg" viewBox="0 0 499.29 112.86"><defs><style>.a{fill:#2e2e2d;}</style></defs><path class="a" d="M238,256.73a21.62,21.62,0,0,1,7.3-3.22,14.05,14.05,0,0,1,17,10.31,14.26,14.26,0,0,1,.4,2.9c.53,7,.15,14,.28,21,.08,3.76-2.69,2.35-4.4,2.4s-4.38,1.17-4.29-2.51c.14-5.91.1-11.81,0-17.71s-2.52-8.82-7.1-8.9a8.53,8.53,0,0,0-9,8c0,.18,0,.36,0,.54-.31,5.88-.33,11.81-.07,17.7.16,3.45-1.88,3.08-3.95,3s-4.67,1-4.64-2.86c.1-13.72,0-27.44.08-41.17,0-4.66,4.09-3.06,6.49-3.47,3.17-.55,1.79,2.26,1.88,3.61C238.12,249.64,238,253,238,256.73Z" transform="translate(-47.99 -241.21)"/><path class="a" d="M291,272.28V259.83c0-5.14,3.65-7.85,7.89-5.11a3,3,0,0,0,3.75.25c11-4.91,21.16,1.12,21.69,13,.29,6.37-.1,12.77.18,19.16.18,4.24-2.69,2.86-4.78,3.1-2.53.28-4.2,0-4-3.41.31-5.72.14-11.49.07-17.23-.06-5.54-2.41-8.37-6.9-8.55a8.54,8.54,0,0,0-9.17,7.85c0,.17,0,.34,0,.52-.24,5.89-.25,11.81,0,17.71.15,3.71-2.16,3.12-4.34,3.11s-4.57.59-4.41-3.13C291.15,282.19,291,277.23,291,272.28Z" transform="translate(-47.99 -241.21)"/><path class="a" d="M142.8,267.58a65,65,0,0,0-.06-8.14c-.54-4.19.82-5.65,5.14-5.24,2.6.25,3.64.73,3.54,3.52-.2,5.74-.11,11.5,0,17.26s2.7,8.81,7.7,8.86,7.82-2.93,7.9-8.7.22-11.84-.06-17.73c-.19-3.78,2.17-3.14,4.28-3.06s4.61-1.09,4.45,2.88c-.27,6.54.08,13.11-.16,19.65-.35,9.52-6.3,14.71-16.44,14.67s-15.86-5.18-16.18-14.87c-.1-3,0-6.07,0-9.11Z" transform="translate(-47.99 -241.21)"/><path class="a" d="M272.46,272.07c0-4.95.2-9.91-.06-14.85-.18-3.43,1.93-3.09,4-2.86,1.85.21,4.75-1.43,4.71,2.64q-.15,15.33,0,30.66c0,3.94-2.78,2.57-4.72,2.76-2.16.22-4.1.28-3.94-3C272.64,282.3,272.46,277.18,272.46,272.07Z" transform="translate(-47.99 -241.21)"/><path class="a" d="M391.84,270.82c0,5.58,0,11.15,0,16.73,0,1,.44,2.6-1,2.75-1.71.18-1.29-1.49-1.29-2.46q-.06-17.2,0-34.41c0-1-.34-2.61,1.25-2.51s1.06,1.72,1.06,2.7C391.87,259.36,391.84,265.09,391.84,270.82Z" transform="translate(-47.99 -241.21)"/><path class="a" d="M281.23,245.94c-.41,2.89-1.87,4.71-5,4.68a4.29,4.29,0,0,1-4.61-3.94,3.69,3.69,0,0,1,0-.47,4.44,4.44,0,0,1,3.84-5,4.71,4.71,0,0,1,.75,0,4.76,4.76,0,0,1,5,4.54A1.15,1.15,0,0,1,281.23,245.94Z" transform="translate(-47.99 -241.21)"/><path class="a" d="M73.27,244.63c-7.57-1.83-15.29-.71-22.94-1-2.46-.1-2.32,1.53-2.32,3.18,0,6.72,0,13.44,0,20.14v20.14c0,1.74-.36,3.64,2.46,3.56A131.26,131.26,0,0,0,72,289.77a22.17,22.17,0,0,0,18.51-21.89A21.73,21.73,0,0,0,73.27,244.63ZM81.61,268c-.4,9-6.27,14.11-16.37,14.19h-2.3c-1.6-1.5-5.74,2.76-6.32-2.57-.43-4,.32-6.52,5.2-5.72a22.43,22.43,0,0,0,5.73-.11,6.28,6.28,0,0,0,6-6.56c0-.11,0-.21,0-.31a6.16,6.16,0,0,0-5.59-6.68h0a29.69,29.69,0,0,0-7.65-.23c-3.72.4-3.58-1.72-3.7-4.34-.13-3,.57-4.55,3.91-4.11,2,.29,4.15.12,6.21.33C77.13,253,82,258.27,81.62,268Z" transform="translate(-47.99 -241.21)"/><path class="a" d="M219.33,261.23c-5.13-7.36-14.35-9.62-23.94-5.82-1.1.44-1.47,1-2.89-.38-2.58-2.52-8.1-.52-8.11,2.44,0,15.65.07,31.3-.08,46.94,0,3.72,2.27,3,4.43,3.11s4.39.37,4.18-3.24c-.3-5.24-.08-10.52-.08-15.88a4.82,4.82,0,0,1,1,0c9,4.63,18.17,3.43,24.05-3.18A20,20,0,0,0,219.33,261.23Zm-15.85,22.39a11.26,11.26,0,0,1,.6-22.51A10.53,10.53,0,0,1,214.27,272c0,.25,0,.5-.05.74a10.25,10.25,0,0,1-9.56,10.91,9.31,9.31,0,0,1-1.18,0Z" transform="translate(-47.99 -241.21)"/><path class="a" d="M128.68,254.15c-2.31,0-3.52,2.57-6.57,1.14a18,18,0,0,0-22.7,5.47,20,20,0,0,0,.28,23.64,18.9,18.9,0,0,0,23,4.93,2.71,2.71,0,0,1,3.35.37c4.07,2.72,7.69.2,7.7-4.79V272.44c0-4.48-.33-9,.09-13.42S132.38,254.18,128.68,254.15Zm-13.39,29.47a11.27,11.27,0,0,1-.48-22.5,11.27,11.27,0,0,1,.48,22.5Z" transform="translate(-47.99 -241.21)"/><path class="a" d="M356.13,254.58A19.22,19.22,0,0,0,331.45,266c0,.12-.08.24-.13.37a18.77,18.77,0,0,0,11.6,23.88c.51.18,1,.33,1.56.47a31.84,31.84,0,0,0,12.38.09c7.65-1.22,8.62-2.62,7.41-10.34-15.88,5.31-23.06,3.73-25-5.81,8,0,16,0,23.9,0,1.47,0,3.11.53,3.4-2.08A18.75,18.75,0,0,0,356.13,254.58Zm-13.84,13.15c-.86,0-2.05.51-2.47-.71-.36-1,.42-1.8,1-2.56a9.55,9.55,0,0,1,9.76-3.64,7.63,7.63,0,0,1,7,6.93c-5.37,0-10.32,0-15.26,0Z" transform="translate(-47.99 -241.21)"/><path class="a" d="M458.29,252c.33.06.67.12,1,.16a14.14,14.14,0,0,1,10.11,6.21c.07.1.12.2.21.34l-3.25,2.51-.28-.37a10.59,10.59,0,0,0-5.86-4.19,9.19,9.19,0,0,0-6.1.29,5.12,5.12,0,0,0-3.25,3.53,5.32,5.32,0,0,0,1.85,5.84,14.51,14.51,0,0,0,2.6,1.62c2.18,1.08,4.37,2.15,6.54,3.24a23,23,0,0,1,4.57,2.91,9.86,9.86,0,0,1,3.21,4.57,10.83,10.83,0,0,1,.37,4.42,10.12,10.12,0,0,1-1.82,4.84,10.89,10.89,0,0,1-5.27,3.91,14.83,14.83,0,0,1-5.28.88,15.58,15.58,0,0,1-10.76-4.24,17.43,17.43,0,0,1-3.16-3.94l-.14-.26,3.31-2.52.22.31a16.06,16.06,0,0,0,4.08,4.34,10.93,10.93,0,0,0,5.74,2.06,9.84,9.84,0,0,0,4.49-.69,6,6,0,0,0,3.85-4.42,5.91,5.91,0,0,0-.45-4.11,6.16,6.16,0,0,0-2-2.18,25.15,25.15,0,0,0-3.61-2c-2.07-1-4.16-2-6.22-3.08a17.07,17.07,0,0,1-3.71-2.54,9.13,9.13,0,0,1-2.93-4.57A9.69,9.69,0,0,1,450.58,254a12.39,12.39,0,0,1,5.26-1.85c.34,0,.67-.11,1-.16Z" transform="translate(-47.99 -241.21)"/><path class="a" d="M508,292V252.75c.32-.1,38.91-.11,39.28,0V292C547,292.08,508.81,292.11,508,292Zm.41-.51v.23c.48.08,7,.05,7.25,0a.85.85,0,0,0,0-.22,11.61,11.61,0,0,1,.42-3.15A.33.33,0,0,0,516,288c-.64-.53-1.28-1.07-1.91-1.62a.31.31,0,0,0-.43-.05h0c.16-.08.16-.2,0-.32s-.2-.21-.29-.32a19.21,19.21,0,0,1-4.84-9.41l-.18-.84h-.09c0,.15,0,.29,0,.45v15.24a1.45,1.45,0,0,0,0,.36s.07,0,.12,0Zm33.45-4.86a1.12,1.12,0,0,0-.5-.44l-.19.16c-.62.54-1.24,1.09-1.88,1.6a.47.47,0,0,0-.2.57,10.26,10.26,0,0,1,.33,2.2c0,.33.05.66.07,1,.44.09,7.09.08,7.39,0l-.12-.15.24,0a2.17,2.17,0,0,0,0-.25q0-8,0-16c0-8,0,0,0,0l-.07,0a19.65,19.65,0,0,1-5.43,10.8ZM534.94,265a12.81,12.81,0,0,0,2-2.14,3.84,3.84,0,0,0-.48,0c-.39,0-.79.11-1.18.19a9.35,9.35,0,0,0-3.61,1.62c-.09.07-.24.19-.28.16-.2-.11-.29,0-.38.12a9.56,9.56,0,0,0-3.23,9.48,9.42,9.42,0,0,0,3.28,5.44l.2.19A12.21,12.21,0,0,0,517,285.76c.37-1.3.84-2.56,1.23-3.87l-.25,0a1.09,1.09,0,0,0,.47-.62c.7-2.1,1.4-4.21,2.11-6.31.12-.37.12-.37-.21-.62L518,272.65a1.05,1.05,0,0,0-.7-.23h-8.46l-.44,0a1.62,1.62,0,0,0,0,.31c.08.94.11,1.88.26,2.81a18.88,18.88,0,0,0,5,10,1.2,1.2,0,0,0,.26.24c.05,0,.15,0,.23-.05-.14.23,0,.34.17.47a17.38,17.38,0,0,0,2.6,2.09,19.18,19.18,0,0,0,21.5-.08,1.24,1.24,0,0,0,.25-.26h0l.15,0a12.63,12.63,0,0,0,2.3-1.95.15.15,0,0,1,0-.06l-.13-.17-3.55-3.56a.46.46,0,0,0-.54-.13h0l.07-.35a8.59,8.59,0,0,1-5.38-1.79,9.5,9.5,0,0,1-2.81-11.79,7.55,7.55,0,0,1,2.58-3.07c.1.31.19.63.28.94s.12.35.47.36h1.12a.55.55,0,0,0,.53-.27l0,.23a1.15,1.15,0,0,0,.26,0l10.53,0a.05.05,0,0,0,0,0v-.11l-.2-.25a9.5,9.5,0,0,0-6.9-3.17.62.62,0,0,0-.52.23c-.53.52-1,1-1.59,1.57a4.22,4.22,0,0,1-.46.38Zm-20.88-6.25.39.4,6.8,6.8c.11.11.22.23.34.33a.46.46,0,0,0,.24.12h1.53c.07-.19.13-.35.18-.51.5-1.56,1-3.11,1.49-4.67l2.44-7.62c0-.14.07-.27.11-.47a19.47,19.47,0,0,0-13.52,5.62Zm27.13,0-.23-.25a19.42,19.42,0,0,0-8.58-4.78,20.8,20.8,0,0,0-4.38-.59,2.25,2.25,0,0,0-.36.06l1.22,3.88c.41,1.28.81,2.58,1.21,3.84s.78,2.55,1.22,3.8a.5.5,0,0,0,.13,0l.33-.23a9.35,9.35,0,0,1,5.1-1.73,1,1,0,0,0,.73-.33c1.1-1.12,2.22-2.22,3.33-3.33a2.08,2.08,0,0,0,.27-.3Zm5.63,13.65h-8.91a1,1,0,0,0-.63.21l-2.51,1.83c-.3.22-.3.22-.18.59l1.27,3.82c.25.74.5,1.48.74,2.23a1,1,0,0,0,1.18.82,8.64,8.64,0,0,0,1.14-.12,9.55,9.55,0,0,0,7.84-8,3.21,3.21,0,0,0,0-1.31ZM514,258.84a19.43,19.43,0,0,0-4.52,7.23,16.58,16.58,0,0,0-1,6.28c.15,0,.3,0,.46,0h8a.61.61,0,0,0,.55-.16l-7.88-5.77,0-.07h11.49c.13,0,.28.05.37,0Zm27.45-.29,5.4-5.4a.59.59,0,0,0,.06-.14c-.33-.09-16-.1-16.36,0a23.39,23.39,0,0,1,3.94,1.06,20,20,0,0,1,3.7,1.86,22.09,22.09,0,0,1,3.27,2.6Zm-27.54-.06a3.76,3.76,0,0,0,.32-.28,19.44,19.44,0,0,1,10.23-5.09.46.46,0,0,0,.35-.17l-.4,0-15.92,0,0,0s0,0,0,0c.15.28,5.1,5.26,5.46,5.48Zm33.06,11c.13-.34.12-16.07,0-16.38-.28.15-5.21,5.07-5.48,5.47A19.56,19.56,0,0,1,547,269.54Zm-38.6-.16a19.69,19.69,0,0,1,5.47-10.77,2.43,2.43,0,0,0-.2-.25l-5.05-5.05a1.51,1.51,0,0,0-.26-.18c-.09.45-.08,15.87,0,16.25ZM545.15,267l-.13,0-7,5.06a.91.91,0,0,0-.21.18v0a.29.29,0,0,0,0,.09l.4,0h8.39a.22.22,0,0,0,.24-.21v-.32a9.68,9.68,0,0,0-1.5-4.61l-.23-.27Zm-7.64,15.16c1.22,1.3,2.45,2.55,3.71,3.78a18.59,18.59,0,0,0,5.33-10.46,11.71,11.71,0,0,1-1.38,2.62,10.25,10.25,0,0,1-2.07,2.09,10,10,0,0,1-2.64,1.39,12.4,12.4,0,0,1-3,.57Zm-.07-19.59.07.13.36.06a9.46,9.46,0,0,1,5.85,2.41c.37.32.69.7,1,1.05a.66.66,0,0,0,.31.21h.75a17.29,17.29,0,0,0-4.64-7.58Zm-21.55,29.23c.61.08,8.72.05,9-.05a19.86,19.86,0,0,1-8.57-3.43,7.9,7.9,0,0,0-.45,3.47Zm14.48,0c.5.12,8.62.1,9,0a10.69,10.69,0,0,0-.44-3.42,20.26,20.26,0,0,1-8.52,3.41Zm14.94-24.92,1.23,2.42a11.61,11.61,0,0,0-.66-2.84Z" transform="translate(-47.99 -241.21)"/><path class="a" d="M419.16,292h-4.37c-.1-.33-.1-38.92,0-39.31h.42c4.5,0,9,0,13.49,0a12.66,12.66,0,0,1,6.8,1.88,10.17,10.17,0,0,1,4.64,6.52,12.61,12.61,0,0,1-.16,6.51,10.3,10.3,0,0,1-6.1,6.84,13.38,13.38,0,0,1-5.4,1.07h-8.67l-.59,0c0,.19,0,.36,0,.53v15.56C419.19,291.8,419.18,291.92,419.16,292Zm.06-20.61c.19,0,.36,0,.53,0H428a10.5,10.5,0,0,0,2.61-.29,6.39,6.39,0,0,0,4.83-4.36,8.49,8.49,0,0,0,.1-5,6.24,6.24,0,0,0-3.3-4.1,8.48,8.48,0,0,0-3.93-.89h-8.62l-.45,0Z" transform="translate(-47.99 -241.21)"/><path class="a" d="M501,288V292H478.34a.1.1,0,0,1,0,0l0,0,0-.29V253a.9.9,0,0,1,0-.16,34.16,34.16,0,0,1,4.41,0c0,.17,0,.35,0,.53v34c0,.64,0,.61.6.61H501Z" transform="translate(-47.99 -241.21)"/><path class="a" d="M247.88,305.29c-.33.16-.51,0-.7-.19q-1.67-1.8-3.36-3.59l-.38-.38c0,.25-.05.4-.05.55v3.05c0,.16,0,.32,0,.5h-1.25c0-.12,0-.25,0-.38v-6.13c0-.12,0-.24,0-.35.29-.15.45,0,.62.16,1.14,1.23,2.3,2.45,3.46,3.66.08.09.17.16.32.31,0-.24,0-.39,0-.55v-3a5.16,5.16,0,0,1,0-.53h1.12a.19.19,0,0,1,.21.17v6.29A3.25,3.25,0,0,0,247.88,305.29Z" transform="translate(-47.99 -241.21)"/><path class="a" d="M279.38,302.82v2.42c-.43,0-.87,0-1.31,0,0-.17,0-.29,0-.43v-6.17a.21.21,0,0,1,.25-.24h2.32a3.18,3.18,0,0,1,1.18.23,2.16,2.16,0,0,1,1.07,2.87,2.06,2.06,0,0,1-.58.76l-.42.32.95,1.32,1,1.34c-.52,0-.95,0-1.38,0-.11,0-.23-.13-.3-.23-.47-.61-.93-1.23-1.37-1.86a.66.66,0,0,0-.67-.34A5.15,5.15,0,0,1,279.38,302.82Zm0-1.24a6.1,6.1,0,0,0,1.48,0,1,1,0,0,0,.8-1,.91.91,0,0,0-.81-1,8,8,0,0,0-1.29-.05c-.18,0-.21.13-.21.28v1.22c0,.18,0,.33,0,.49Z" transform="translate(-47.99 -241.21)"/><path class="a" d="M347.48,302.82v2.41h-1.27c-.09-.32-.12-6.21,0-6.78l.32,0h2.24a2.82,2.82,0,0,1,1.18.26,2.14,2.14,0,0,1,1,2.86,2.09,2.09,0,0,1-.68.82l-.29.22c.56.91,1.25,1.71,1.87,2.68-.51,0-1,0-1.38,0-.11,0-.22-.14-.29-.24-.46-.62-.93-1.24-1.37-1.87a.64.64,0,0,0-.64-.32C348,302.84,347.75,302.82,347.48,302.82Zm0-1.17h1.11a2.27,2.27,0,0,0,.52-.09,1,1,0,0,0,.05-1.86,3.19,3.19,0,0,0-1.68,0Z" transform="translate(-47.99 -241.21)"/><path class="a" d="M231.57,298.41h1.05a.21.21,0,0,1,.22.24v3.7a2.62,2.62,0,0,0,.11.84,1.48,1.48,0,0,0,1.57,1A1.43,1.43,0,0,0,235.9,303a4.74,4.74,0,0,0,0-.65v-3.84a4.59,4.59,0,0,1,1.17,0c.06,0,.12.12.18.18s0,.05,0,.08c0,1.43,0,2.86-.08,4.27a2.57,2.57,0,0,1-2.47,2.41,3.4,3.4,0,0,1-1.64-.22,2.51,2.51,0,0,1-1.59-2.27c-.07-1.43,0-2.86,0-4.31A1.11,1.11,0,0,1,231.57,298.41Z" transform="translate(-47.99 -241.21)"/><path class="a" d="M316.83,299.62h-3.19a8.78,8.78,0,0,0,0,1.45c.79.06,1.55,0,2.33,0v1.1c-.76.06-1.52,0-2.32,0a14.43,14.43,0,0,0,0,1.74l.48.06h2.4a3.94,3.94,0,0,1,.47,0v1.16h-4.65c0-.12,0-.23,0-.35v-6.09c0-.36,0-.38.36-.39h3.89l.3,0Z" transform="translate(-47.99 -241.21)"/><path class="a" d="M269,305.23c-.08-.34-.1-6.31,0-6.74a30.72,30.72,0,0,1,4.5,0v1.12c-.53,0-1.06,0-1.58,0h-1.57a7.58,7.58,0,0,0,0,1.43c.78,0,1.55,0,2.33,0v1.1c-.77.09-1.54,0-2.32.06V304c.17,0,.32,0,.48,0h2.36l.45,0v1.14Z" transform="translate(-47.99 -241.21)"/><path class="a" d="M335.41,305.26l3-6.93h.46l3,6.9a13.61,13.61,0,0,1-1.43,0c-.09-.22-.19-.42-.28-.64a.35.35,0,0,0-.36-.25H337.5a.33.33,0,0,0-.37.24c-.08.21-.18.4-.29.65C336.41,305.27,336,305.25,335.41,305.26Zm2.32-2a5.11,5.11,0,0,0,1.83,0,9.26,9.26,0,0,0-.94-2.22Z" transform="translate(-47.99 -241.21)"/><path class="a" d="M328.86,302.82v2.42H327.6c-.11-.32-.13-6.35,0-6.81l.38,0h2.12a2.53,2.53,0,0,1,1.73.57,2.17,2.17,0,0,1,.18,3.07,2.2,2.2,0,0,1-1.16.67,3.57,3.57,0,0,1-.8.09C329.67,302.83,329.3,302.82,328.86,302.82Zm0-1.19c.5,0,1,0,1.41,0a1,1,0,0,0,.86-.94,1,1,0,0,0-.72-1,5.36,5.36,0,0,0-1.55,0Z" transform="translate(-47.99 -241.21)"/><path class="a" d="M361.63,303.88l.2-.12.72-.53.31.32a1.84,1.84,0,0,0,1.68.62.77.77,0,0,0,.75-.79.11.11,0,0,0,0-.05.63.63,0,0,0-.36-.54c-.29-.17-.61-.29-.91-.46a11.6,11.6,0,0,1-1.25-.68,1.78,1.78,0,0,1-.46-2.46l.11-.15a2.19,2.19,0,0,1,.5-.41,2.8,2.8,0,0,1,3,.25,1.72,1.72,0,0,1,.51.68,1.35,1.35,0,0,1-.19.16l-.68.52a3.9,3.9,0,0,0-.28-.29,1.45,1.45,0,0,0-1.21-.45.78.78,0,0,0-.74.54.66.66,0,0,0,.41.76c.41.22.85.4,1.28.61a3.66,3.66,0,0,1,1.09.69,1.54,1.54,0,0,1,.46,1,2,2,0,0,1-1.69,2.19l-.21,0a3,3,0,0,1-2.72-1C361.88,304.25,361.78,304.09,361.63,303.88Z" transform="translate(-47.99 -241.21)"/><path class="a" d="M292.22,299.56l-.93.71a2,2,0,0,0-.24-.33,1.48,1.48,0,0,0-1.26-.45.75.75,0,0,0-.67.51.64.64,0,0,0,.37.77c.36.21.76.36,1.14.55a9.49,9.49,0,0,1,1,.54,1.89,1.89,0,0,1,.41,2.65,1.87,1.87,0,0,1-.47.46,3.1,3.1,0,0,1-4.09-.94l-.06-.18.16-.09.72-.54c.14.14.25.29.37.4a1.83,1.83,0,0,0,1.59.55,1,1,0,0,0,.35-.1.72.72,0,0,0,.39-.92.81.81,0,0,0-.28-.33,6.06,6.06,0,0,0-.76-.39c-.41-.21-.84-.39-1.23-.62a1.84,1.84,0,0,1-.94-1.22,1.77,1.77,0,0,1,.64-1.81,2.68,2.68,0,0,1,3.69.57A1.47,1.47,0,0,0,292.22,299.56Z" transform="translate(-47.99 -241.21)"/><path class="a" d="M258.2,298.42h1.31c.22,0,.26.17.32.32l.93,2.25.48,1.16c.05.12.11.24.21.44.09-.2.16-.32.22-.45.46-1.11.92-2.22,1.36-3.34a.51.51,0,0,1,.57-.39c.34,0,.67,0,1,0a1.83,1.83,0,0,1-.07.32l-2.78,6.36c-.06.15-.13.28-.34.28a.34.34,0,0,1-.35-.26c-.94-2.14-1.88-4.29-2.83-6.43Z" transform="translate(-47.99 -241.21)"/><path class="a" d="M305.9,305.24h-1.34v-5.57c-.72-.09-1.44,0-2.17-.06v-1.17c.14,0,.28,0,.4,0h5.12c.17,0,.24.09.24.26v.69c0,.22-.11.28-.31.28h-1.92C305.89,301.52,305.92,303.36,305.9,305.24Z" transform="translate(-47.99 -241.21)"/><path class="a" d="M254,305.23h-1.29v-6.78a4.64,4.64,0,0,1,1.29,0Z" transform="translate(-47.99 -241.21)"/><path class="a" d="M298.19,305.23h-1.25c-.09-.32-.12-6.25,0-6.78a4.34,4.34,0,0,1,1.14,0c.05,0,.13.1.15.17a1.31,1.31,0,0,1,0,.28v5.93C298.22,304.93,298.2,305.07,298.19,305.23Z" transform="translate(-47.99 -241.21)"/><path class="a" d="M356,298.41h1.1c.14,0,.19.09.2.21v6.17c0,.14,0,.28,0,.44H356Z" transform="translate(-47.99 -241.21)"/><path class="a" d="M496.14,354.06l.7-1.83h1.65a1,1,0,0,1-.1.29c-.39.47-.78.94-1.18,1.39a.49.49,0,0,1-.3.16C496.68,354.08,496.45,354.06,496.14,354.06Z" transform="translate(-47.99 -241.21)"/><path class="a" d="M527.48,279.81l-11,8A11.51,11.51,0,0,1,527.48,279.81Z" transform="translate(-47.99 -241.21)"/><path class="a" d="M538.67,288a2,2,0,0,0-.28-.3l-10.26-7.59c-.09-.07-.17-.15-.33-.27.33,0,.6,0,.86,0a11.63,11.63,0,0,1,7,3.19,11.45,11.45,0,0,1,3,4.58,1.78,1.78,0,0,1,.07.39Z" transform="translate(-47.99 -241.21)"/><path class="a" d="M536.93,282.08l1.26,3.78h0c-.33-.49-.63-1-1-1.48A16.72,16.72,0,0,0,536,283c-.43-.43-.91-.81-1.41-1.25a9.69,9.69,0,0,0,2.39.38Z" transform="translate(-47.99 -241.21)"/></svg>