<svg xmlns="http://www.w3.org/2000/svg" viewBox="0 0 450.07 126.9"><defs><style>.a{fill:#2e2e2d;}</style></defs><path class="a" d="M148.47,311.73c0,1.72,0,3.25,0,4.76a5.81,5.81,0,0,1-3.37,5,39.94,39.94,0,0,1-17.41,4.84c-4.6.35-9.21.81-13.82.82A64.69,64.69,0,0,1,93.21,324,31.68,31.68,0,0,1,78,314.05a24.28,24.28,0,0,1-4.94-11,26.7,26.7,0,0,1,.11-10.5,21.34,21.34,0,0,1,3-7.75,33.07,33.07,0,0,1,6.09-7.15,35.91,35.91,0,0,1,9.27-5.46,65.45,65.45,0,0,1,9.5-2.79,49.2,49.2,0,0,1,15.21-1A41.44,41.44,0,0,1,130,271.32a53.32,53.32,0,0,1,10.12,5.37,35.77,35.77,0,0,1,6.14,6.69A20,20,0,0,1,149.85,295a31.14,31.14,0,0,1-.51,6.39c-.05.39-.7.82-1.15,1a4.8,4.8,0,0,1-1.56.05H90.94c-1.56,0-2,.49-1.46,1.85a17.46,17.46,0,0,0,4.24,7.14,24,24,0,0,0,10,5.17,49.22,49.22,0,0,0,15,1.51A105.94,105.94,0,0,0,131,316.66c4.21-.74,8.36-1.82,12.5-2.91A38.63,38.63,0,0,0,148.47,311.73ZM111.22,293.2h20.36c1.79,0,2-.27,1.77-2a14.92,14.92,0,0,0-7.46-10.84A25.45,25.45,0,0,0,113.53,277a28.24,28.24,0,0,0-9.88,1.16,22,22,0,0,0-6.79,3.17A20.12,20.12,0,0,0,89.55,291c-.52,1.74-.38,2.15,1.44,2.15q10.11,0,20.22,0Z" transform="translate(-72.6 -234.19)"/><path class="a" d="M268.49,268.06a58.35,58.35,0,0,1,18.15,3,39.77,39.77,0,0,1,10.38,5.5A27,27,0,0,1,306,288a25,25,0,0,1,1.41,14.57,21.88,21.88,0,0,1-4.12,9.86,27.71,27.71,0,0,1-4.91,5.24,45.9,45.9,0,0,1-8.64,5.38,35.93,35.93,0,0,1-11.49,3.21,100,100,0,0,1-11.08.79,96.61,96.61,0,0,1-10.73-1.27,32.73,32.73,0,0,1-12.29-4.32,63,63,0,0,1-6.12-4.55,21.65,21.65,0,0,1-6.94-9.26,25.52,25.52,0,0,1-.62-18.13,25,25,0,0,1,7.35-11.12A28.76,28.76,0,0,1,248.3,272c3.32-1,6.58-2.23,10-2.9S265.09,268.39,268.49,268.06Zm.07,9.07-.06-.37c-2.82.36-5.63.87-8.4,1.51a18.9,18.9,0,0,0-11.71,8.52,20.65,20.65,0,0,0-1.31,19.3A18.59,18.59,0,0,0,259,316.83a30.41,30.41,0,0,0,19,.07,19.13,19.13,0,0,0,10.19-7.45,20,20,0,0,0,2.65-18,18.16,18.16,0,0,0-9.07-11.23,24.84,24.84,0,0,0-13.18-3.11Z" transform="translate(-72.6 -234.19)"/><path class="a" d="M440.92,339.34c-3.07-.3-6.15-.46-9.2-.91a46.59,46.59,0,0,1-14.64-4.72,41.81,41.81,0,0,1-18.57-18.46,39.67,39.67,0,0,1-4.13-13.31,43.52,43.52,0,0,1,.54-14.4,51.36,51.36,0,0,1,9.09-20,53.23,53.23,0,0,1,18.75-16,83.94,83.94,0,0,1,12-5,42.69,42.69,0,0,1,13.5-2.09,50.19,50.19,0,0,0-33.43,71.12,45.34,45.34,0,0,0,26.25,23.35Z" transform="translate(-72.6 -234.19)"/><path class="a" d="M320.82,298.85c0-8.41,0-16.82,0-25.23a1.82,1.82,0,0,1,1.49-2.1h.08a65.06,65.06,0,0,1,14.85-2.69c5.18-.17,10.39-.56,15.56-.34,4.74.18,9.45,1,14.16,1.61,1.18.15,1.79.63,1.58,2.09-.38,2.54-.47,5.12-.67,7.68-.17,2-.52,2.13-2.41,1.74-3.87-.78-7.76-1.39-11.65-2a18.28,18.28,0,0,0-4.11-.37c-3.93.27-7.85.7-11.78,1.05a1.38,1.38,0,0,0-1.4,1.38.37.37,0,0,0,0,.11c0,.58,0,1.15,0,1.72,0,11.66,0,23.33-.05,35a11.69,11.69,0,0,1-1.08,4.47,5,5,0,0,1-4.65,2.73c-2.95.17-5.92.11-8.88.06-.33,0-.75-.53-.94-.91a2.54,2.54,0,0,1,0-1.13Q320.82,311.26,320.82,298.85Z" transform="translate(-72.6 -234.19)"/><path class="a" d="M518.33,304a44.64,44.64,0,0,1-.45,17.31A45.74,45.74,0,0,1,506.5,343a54.81,54.81,0,0,1-20.33,13.67,59.74,59.74,0,0,1-16.18,4,57.56,57.56,0,0,1-17.28-.47,129.51,129.51,0,0,1-14.62-3.88A49.06,49.06,0,0,1,425,349.46c-3-2.19-5.79-4.64-8.67-7a1.24,1.24,0,0,1-.43-.88c1.33.48,2.67.94,4,1.46a82.4,82.4,0,0,0,18.2,4.88,79.82,79.82,0,0,0,18.39,1.11,95.14,95.14,0,0,0,17.76-2.84,72.63,72.63,0,0,0,18.48-7.8,53.88,53.88,0,0,0,22.78-25.62,81.3,81.3,0,0,0,2.4-7.77C518,304.83,518.07,304.64,518.33,304Z" transform="translate(-72.6 -234.19)"/><path class="a" d="M182.41,325.62a6,6,0,0,1-.85.12c-4.44,0-8.89,0-13.33,0-1,0-1.39-.33-1.39-1.39q0-34.34,0-68.66c0-4.77,2.53-6.3,6.72-6.73,2.36-.24,4.78,0,7.16-.07,1.36,0,1.7.49,1.7,1.77q-.06,19.79,0,39.56v35.4Z" transform="translate(-72.6 -234.19)"/><path class="a" d="M503.17,303.09c1.15-3.58,2.6-7.12,3.42-10.79a37.16,37.16,0,0,0-3.33-25.44,45.09,45.09,0,0,0-10.66-13.67A56.42,56.42,0,0,0,472,241.53a87.94,87.94,0,0,0-12.58-3.13c-4.41-.7-8.93-.66-13.4-1a1,1,0,0,1-.79-.41l2.24-.66a55.19,55.19,0,0,1,20.13-2,76.14,76.14,0,0,1,16,3.05,68.35,68.35,0,0,1,20.78,10.13A45,45,0,0,1,520.47,267a25.26,25.26,0,0,1-.51,21.71,28.55,28.55,0,0,1-13.07,12.54Z" transform="translate(-72.6 -234.19)"/><path class="a" d="M479.1,260.37a28.5,28.5,0,0,0-14.87,1.19,38.07,38.07,0,0,0-20.38,17.34A44.4,44.4,0,0,0,438,307.24a33.71,33.71,0,0,0,6.84,17.32,3.33,3.33,0,0,1,.25.5l-.24.37c-2-1.22-4.05-2.32-5.94-3.67a35.16,35.16,0,0,1-14.1-20.89,35.64,35.64,0,0,1-.32-15.35,38.68,38.68,0,0,1,13.75-23.29,32.94,32.94,0,0,1,27.65-7.46A33.65,33.65,0,0,1,479.1,260.37Z" transform="translate(-72.6 -234.19)"/><path class="a" d="M216.09,297.62c0,8.8,0,17.6,0,26.4,0,1.41-.45,1.78-1.8,1.74-4.07-.08-8.13-.07-12.19,0-1.19,0-1.55-.38-1.54-1.56q0-24.24,0-48.48a6.1,6.1,0,0,1,5.48-5.88c2.76,0,5.52-.15,8.27-.35,1.35-.09,1.79.29,1.78,1.72C216.05,280,216.09,288.82,216.09,297.62Z" transform="translate(-72.6 -234.19)"/><path class="a" d="M477,266.91a9.75,9.75,0,0,1,6.07,1.46,14.73,14.73,0,0,1,7.89,11,22.58,22.58,0,0,1-43.63,11.35,17.5,17.5,0,0,1-.82-3.93c.17.23.34.45.51.7A14.57,14.57,0,0,0,457.87,294,21.37,21.37,0,0,0,471,291.74a17.86,17.86,0,0,0,10.5-13.58,11.65,11.65,0,0,0-4-10.51c-.18-.16-.35-.33-.51-.49A1.72,1.72,0,0,1,477,266.91Z" transform="translate(-72.6 -234.19)"/><path class="a" d="M498.07,308.42a13.93,13.93,0,0,1-.38,1.7,33.63,33.63,0,0,1-12.88,16.39,27.5,27.5,0,0,1-20.37,4.16,22.38,22.38,0,0,1-15.3-10.08,18.19,18.19,0,0,1-3.06-9l.47-.37a27.9,27.9,0,0,0,2.19,2.54,26.62,26.62,0,0,0,12.62,6.32,32.94,32.94,0,0,0,10.38.84,40.27,40.27,0,0,0,21-8.12C494.49,311.48,496.07,310.07,498.07,308.42Z" transform="translate(-72.6 -234.19)"/><path class="a" d="M217.21,255.54a7,7,0,0,1-5.92,6.82,10.74,10.74,0,0,1-8-1.08A6.35,6.35,0,0,1,200,255.4a6.28,6.28,0,0,1,3.28-6.08,11,11,0,0,1,10.51-.14A6.62,6.62,0,0,1,217.21,255.54Z" transform="translate(-72.6 -234.19)"/></svg>