<svg xmlns="http://www.w3.org/2000/svg" viewBox="0 0 464.97 442.71"><defs><style>.a{fill:#2e2e2d;}</style></defs><path class="a" d="M85.7,517.75c-5.54,0-11.08.08-16.61-.06-1,0-2-.89-3-1.37.83-.88,1.63-2.5,2.5-2.5,5.32-.19,5.89-3.29,5.82-7.72-.22-13.68-.18-27.38,0-41.09,0-3.65-.73-5.83-4.78-6.27-1.26-.14-2.35-1.7-3.51-2.6A11.86,11.86,0,0,1,70,454.68c10.91,0,21.84,0,32.74.5A30.22,30.22,0,0,1,129,497a28.92,28.92,0,0,1-26.22,20.13c-5.64.5-11.35.09-17,.09Zm.82-31.6c0,7.69-.13,15.37.11,23.06a5.11,5.11,0,0,0,2.4,4,20.67,20.67,0,0,0,26.55-12.28,20,20,0,0,0,.66-2.16,54.92,54.92,0,0,0,1-21.29c-2-14-11.93-20.68-26-19.09-3.31.37-4.84,1.54-4.72,5.19.25,7.52,0,15.05,0,22.57Z" transform="translate(-65.15 -76.28)"/><path class="a" d="M193.19,364.77H167.45l-.47-1c.92-.68,1.78-1.83,2.78-2,3.71-.53,4-2.89,4-6-.1-16.14-.15-32.29,0-48.44,0-4.3-.2-8-5.2-9.3-.39-.1-.72-.56-1-.92a9.93,9.93,0,0,1-.5-2l17.35-3.3.46,7.33c.85-.71,1.51-1.18,2.07-1.72A17.51,17.51,0,0,1,211.7,297a17.76,17.76,0,0,1,3.6,5,30.44,30.44,0,0,1-1.41,30.44c-6,9.73-16.57,12.19-29.15,6.92,0,6.44-.18,12.68.17,18.88.06,1.05,2.35,2.12,3.77,2.89a46.63,46.63,0,0,0,5,2.06ZM184.73,319v10.58c0,6.09,1.6,7.8,7.73,7.85A10.85,10.85,0,0,0,204,330a72.58,72.58,0,0,0,2.32-18,16.6,16.6,0,0,0-3.15-8.45,10.89,10.89,0,0,0-12.72-3.9,8.22,8.22,0,0,0-5.77,9.68c.32,3.19.07,6.43.07,9.66Z" transform="translate(-65.15 -76.28)"/><path class="a" d="M118.24,428.76l-17.32,2.39-.5-5.67a48.51,48.51,0,0,1-11.16,4.91,17.25,17.25,0,0,1-18.41-8.67,29.15,29.15,0,0,1,5.52-36.52c6.93-5.44,14.43-6,24.21-1.69,0-5.51.19-10.83-.14-16.11-.07-1.22-1.7-2.63-2.94-3.44a24.72,24.72,0,0,0-4.86-1.89l0-1.91,19.08-2.82v9c0,17.67,0,35.35-.15,53,0,3.59.58,6,4.6,6.4.82.09,1.56,1,2.33,1.53Zm-17.63-25.05h0c0-4.14-.17-8.29,0-12.42a4.56,4.56,0,0,0-3.79-5.21h-.1a12.53,12.53,0,0,0-15.25,6.23,27.19,27.19,0,0,0-.79,24,12,12,0,0,0,11.69,7.49,7.33,7.33,0,0,0,8.16-6.39,7.15,7.15,0,0,0,0-1.73c0-4,0-8,0-12Z" transform="translate(-65.15 -76.28)"/><path class="a" d="M114.76,101.71l1.77,19-1.13.73c-.9-.8-2.45-1.5-2.6-2.43-1.8-11.42-10-13.06-19.38-13-6.84.08-6.85,0-6.89,6.85,0,4.15.11,8.31-.06,12.45-.13,3,.73,4.4,4.08,4.45,8,.13,8.28.08,11.88-7.34a24.47,24.47,0,0,1,2.37-3.08v24.17l-1,.26a18,18,0,0,1-1.5-2.41c-3.74-8.67-4.91-7-13.35-6.88-.81,0-2.23,2-2.26,3-.21,6.6-.05,13.22-.1,19.83,0,2.61,1.31,3.53,3.7,3.54s4.92.07,7.38.14a15.42,15.42,0,0,0,17.21-12,21.79,21.79,0,0,1,2.39-4.37l1.6.7c-.84,5.72-1.59,11.45-2.65,17.13a3.66,3.66,0,0,1-2.82,2q-22.14.3-44.27.27c-1,0-2-.87-3-1.34.87-.85,1.68-2.37,2.61-2.44,4.83-.35,5.8-3,5.73-7.36q-.37-20.75,0-41.51c.06-3.79-1-5.67-4.85-6.2-1.24-.17-2.29-1.71-3.43-2.63A11.92,11.92,0,0,1,70,101.77C84.67,101.68,99.39,101.71,114.76,101.71Z" transform="translate(-65.15 -76.28)"/><path class="a" d="M325.76,251.54c.71-.64,1.37-1.78,2.14-1.85,4.42-.39,4.77-3.17,4.66-6.77-.21-7.22,0-14.45-.13-21.67-.17-7.39-3.25-10.82-9.17-10.73a10.35,10.35,0,0,0-10.54,10.15,9.4,9.4,0,0,0,0,1.19c0,7.38.09,14.76,0,22.14-.06,3,.43,5.07,3.91,5.54.9.12,1.65,1.41,2.47,2.16-1,.47-2,1.32-3,1.34-6,.13-12,.1-18,0a17.87,17.87,0,0,1-3.66-1c1.24-1.17,1.9-2.33,2.64-2.38,4.82-.36,4.76-3.51,4.69-7.15-.16-8.3-.25-16.61,0-24.9a6.52,6.52,0,0,0-4.51-7.49c-.85-.31-1.5-1.22-3.41-2.9l18.4-3.72.85,8.77A17.93,17.93,0,0,1,327.51,204a14.66,14.66,0,0,1,15.91,15.77c.22,8,.16,16,0,24-.07,3.18.47,5.35,4.12,5.76.84.1,1.56,1.18,2.34,1.81-.57.56-1.13,1.62-1.71,1.63-7.3.11-14.59.07-21.89.07Z" transform="translate(-65.15 -76.28)"/><path class="a" d="M244.77,424.5a17.72,17.72,0,0,1,2.78,1c1.28.73,2.46,1.63,3.68,2.46a18.56,18.56,0,0,1-4.38,1.24c-4,.19-8,.16-12,0a9,9,0,0,1-3-1.29c.78-.73,1.47-2,2.35-2.13a7,7,0,0,0,5.57-5.39c6.43-17.27,13-34.49,19.45-51.75.81-2.17,1.61-4.38,4.33-3.46a6.88,6.88,0,0,1,3.9,3.4c6.62,17.2,12.94,34.52,19.61,51.69.83,2.13,3.22,3.64,4.87,5.46.64.7,1.23,1.45,1.84,2.17-.83.45-1.66,1.27-2.51,1.28q-10.14.18-20.28,0c-.78,0-1.56-1-2.33-1.5a8.82,8.82,0,0,1,2.15-1.84,51,51,0,0,1,5.31-1.51c-1.53-4.18-2.75-7.94-4.35-11.52a4.3,4.3,0,0,0-3.1-1.86c-2.74-.26-5.51-.09-8.29-.09C247.54,410.91,247.54,410.91,244.77,424.5Zm5.69-18.25h19l-9.79-26.78Z" transform="translate(-65.15 -76.28)"/><path class="a" d="M65.15,207.38l17.91-3.55v9.9c1.71-1.95,2.53-2.91,3.38-3.86a16.21,16.21,0,0,1,18.08-4.67,13.23,13.23,0,0,1,9.34,13.43c.29,8,.35,16,.24,24-.06,3.83.05,7.08,5,7.44.57,0,1.1.8,2.82,2.13H96.38c1-1.15,1.36-1.9,1.77-1.93,5.77-.51,5.89-4.32,5.7-8.81-.29-6.91,0-13.85-.25-20.76-.28-7.15-3.77-10.8-9.52-10.59a11.07,11.07,0,0,0-10.77,11.34h0c0,7.23.13,14.46-.06,21.69-.1,3.59.16,6.45,4.65,6.76.68.05,1.3.94,3.1,2.33H65.79c1-1.09,1.51-2.15,2.06-2.18,4.85-.32,5.26-3.32,5.14-7.31-.24-8.14-.27-16.31,0-24.45.15-4.18-.67-7.22-5.06-8.52C67.3,209.6,66.83,208.87,65.15,207.38Z" transform="translate(-65.15 -76.28)"/><path class="a" d="M107.94,295.28l17.72-1.62v26.7a59,59,0,0,0,.22,6.91c.69,5.92,3.76,8.85,8.79,8.64A10.13,10.13,0,0,0,144.76,326c.08-6.92-.12-13.84.08-20.76a5.14,5.14,0,0,0-3.9-5.87,18.52,18.52,0,0,1-3.59-2.12l.23-1.63,18.21-2.41v7.87c-.08,10.3-.28,20.6-.13,30.9,0,1.4,1.55,3,2.71,4.12a15.79,15.79,0,0,0,3.64,2.13l-.16,1.6-16.8,2.68-.44-8.38a17,17,0,0,1-16.84,8.18,12.88,12.88,0,0,1-12.45-12.12,195.35,195.35,0,0,1-.24-23.46c.11-4.32-.14-7.95-5.28-9C109.4,297.62,109.13,296.85,107.94,295.28Z" transform="translate(-65.15 -76.28)"/><path class="a" d="M390.21,295.33l17.69-1.72v5.26c0,9.38-.27,18.77.09,28.13.25,6.45,3.67,9.44,9.18,9.19a10.53,10.53,0,0,0,10.18-10.4c0-6.46-.2-12.93.08-19.38.17-3.89-.71-6.56-4.8-7.6A9.83,9.83,0,0,1,420,297l.3-1.16,17.31-2.29c0,12.18.17,23.69-.08,35.18-.1,4.25.28,7.61,5.17,8.64.48.09.82.8,2.1,2.17l-17.35,2.63v-7.65a47.65,47.65,0,0,1-10.62,6.92c-10.62,3.37-19.14-3.34-19.54-15-.25-7.07-.19-14.15,0-21.23.09-3.56-.24-6.4-4.45-7.22C392.17,298,391.68,296.92,390.21,295.33Z" transform="translate(-65.15 -76.28)"/><path class="a" d="M288.35,229.05A23.82,23.82,0,0,1,266,254.21q-.88,0-1.77,0a23.5,23.5,0,0,1-24-23c0-.77,0-1.54.07-2.31a23.87,23.87,0,0,1,22.82-24.88l1.21,0a23.15,23.15,0,0,1,24.13,22.13A25,25,0,0,1,288.35,229.05Zm-10.87.1a88.51,88.51,0,0,0-4.79-15.5,9.3,9.3,0,0,0-17.19.35,32.68,32.68,0,0,0,.73,31,8.92,8.92,0,0,0,16.5,0,87.81,87.81,0,0,0,4.75-15.87Z" transform="translate(-65.15 -76.28)"/><path class="a" d="M373,514.19a11.62,11.62,0,0,1-10.24,4.68c-4.56.47-7.37-2.14-8.73-6.83a17,17,0,0,1-17.54,6.47,10.77,10.77,0,0,1-9.37-9.42,10.29,10.29,0,0,1,5.51-11.67,60,60,0,0,1,15.43-5.73c5.27-1.05,6.18-3.65,5.75-8.23-.55-5.86-2.7-9.13-7.4-9.52a57.33,57.33,0,0,0-8.58.64c.86,2.25,2,3.71,1.8,5a10.9,10.9,0,0,1-2.33,6.69,6.45,6.45,0,0,1-6.41-.42,7.57,7.57,0,0,1-1-7c5.51-9.52,21.36-14.09,30.12-6.73a17.5,17.5,0,0,1,4.51,10.95c.7,7.15.18,14.42.21,21.65C364.78,512.34,364.8,512.34,373,514.19Zm-19.38-20.65a125.52,125.52,0,0,0-12.83,5.57,7.15,7.15,0,0,0-3,9.25,6.28,6.28,0,0,0,6.87,4.25c3.92-.15,7.82-1.56,8.71-5.43a64.79,64.79,0,0,0,.21-13.64Z" transform="translate(-65.15 -76.28)"/><path class="a" d="M401.14,249.89A10.6,10.6,0,0,1,382.69,247a16.54,16.54,0,0,1-17.07,6.66A10.76,10.76,0,0,1,356,245a10.31,10.31,0,0,1,5.26-12.16,102.93,102.93,0,0,1,15.38-5.9c3.18-1.07,6.54-1.11,6.12-6.17-.59-7.07-2.2-10.77-7-11.44a46.36,46.36,0,0,0-9.41.63c1,2.24,2.15,3.56,2,4.67a12.71,12.71,0,0,1-2.51,7.05,6.4,6.4,0,0,1-6.31-.6,8.7,8.7,0,0,1-.5-7.45,20.14,20.14,0,0,1,6.67-6.08,21.14,21.14,0,0,1,18.07-2.78,11.47,11.47,0,0,1,9.41,12c.13,7.37.08,14.74.08,22.12C393.26,247.35,393.25,247.35,401.14,249.89ZM383,228.41c-5.18,2.28-9.53,3.79-13.43,6a7.14,7.14,0,0,0-2.87,9.69l.16.3a11.5,11.5,0,0,0,7.55,3.71,8.48,8.48,0,0,0,8.52-6.8c.22-3.91.06-7.85.06-12.91Z" transform="translate(-65.15 -76.28)"/><path class="a" d="M281.5,493.46a23.55,23.55,0,0,1-21.89,25.11c-.58,0-1.17.06-1.76.06A23.11,23.11,0,0,1,234,493.83,23.47,23.47,0,0,1,256.05,469c.63,0,1.26,0,1.89,0a22.79,22.79,0,0,1,23.61,21.94A23.87,23.87,0,0,1,281.5,493.46Zm-37,.38a91.76,91.76,0,0,0,4.75,15.46,9.34,9.34,0,0,0,17.6-.06,33.64,33.64,0,0,0-.08-30.65,9.86,9.86,0,0,0-18.33.54c-1.68,4.55-2.55,9.38-3.94,14.72Z" transform="translate(-65.15 -76.28)"/><path class="a" d="M221.49,141.1a23.47,23.47,0,0,1-22.26,24.61c-.63,0-1.27,0-1.9,0a23.14,23.14,0,0,1-23.46-22.81c0-.67,0-1.33.06-2a23.67,23.67,0,0,1,22.45-24.84c.53,0,1.05,0,1.58,0C212.12,116.1,221.63,126.24,221.49,141.1Zm-37.05-.27a92.44,92.44,0,0,0,5,15.93,9.22,9.22,0,0,0,17.14.08,32.5,32.5,0,0,0,0-31.41,9.62,9.62,0,0,0-17.84.37A86.29,86.29,0,0,0,184.44,140.83Z" transform="translate(-65.15 -76.28)"/><path class="a" d="M137.33,211c.67,1.5,1.84,2.85,1.67,4a12.36,12.36,0,0,1-2.39,6.67,5.76,5.76,0,0,1-5.64-.27c-1.22-1.84-2.14-5.83-1.12-6.85a54.39,54.39,0,0,1,12.29-9.08,16.94,16.94,0,0,1,8.54-1,12.59,12.59,0,0,1,13.43,11.69,12.15,12.15,0,0,1,0,2.09c.19,6.91.06,13.82.06,20.73,0,8.45,0,8.45,8.25,11.05A14.19,14.19,0,0,1,161.54,254c-4.4.08-6.65-2.65-7.67-7.46a16.55,16.55,0,0,1-16.34,7.39,10.77,10.77,0,0,1-10.24-8.45,10.35,10.35,0,0,1,5.64-12.79,68,68,0,0,1,16-5.61c4.8-1,5.24-3.55,5-7.45C153.21,209.66,146.36,205.86,137.33,211Zm16.5,17.29a129,129,0,0,0-13.87,6.3,7.19,7.19,0,0,0-2.5,9.78,6.81,6.81,0,0,0,8,3.94c3.88-.69,7.7-2.26,8.26-6.77a117.5,117.5,0,0,0,.1-13.27Z" transform="translate(-65.15 -76.28)"/><path class="a" d="M446.92,477l-6.26-.69-.85-1.34,5.81-5.11,1,.88c.39-3,.63-6.06,1.2-9A19.41,19.41,0,0,1,470.34,446c.3.05.59.11.88.18,3.66.79,6.29,2.85,6,6.93a5,5,0,0,1-4.9,5.19h-.48a5.74,5.74,0,0,1-6.14-5.31,2.44,2.44,0,0,1,0-.27c-.13-.88-.19-1.77-.29-2.69-6.51,1.69-8.87,9-6.84,21h9.9c1.34,4,.75,6-3.58,5.69-2.1-.17-4.23,0-6.85,0,0,11.81-.07,23.13.13,34.45,0,.92,1.83,2.08,3,2.62a50.13,50.13,0,0,0,6,1.82l-.23,2.12H451.35c-2.92,0-5.84.08-8.76-.07-.7,0-1.38-.83-2.07-1.27.51-.64,1-1.81,1.58-1.85,5.48-.4,4.9-4.26,4.87-8C446.87,496.69,446.92,486.9,446.92,477Z" transform="translate(-65.15 -76.28)"/><path class="a" d="M529,314H501a17.34,17.34,0,0,0,5.94,18c8,5.38,15.33,3.47,22.7-2.42a17.35,17.35,0,0,1-1.07,3,20.69,20.69,0,0,1-34.8.88,28.51,28.51,0,0,1-.74-30.66,22.28,22.28,0,0,1,27.77-9A15.58,15.58,0,0,1,529,314Zm-28.22-3.93c5.7-.26,11-.44,16.38-.82a3.25,3.25,0,0,0,2.32-1.65,8.6,8.6,0,0,0-8.12-11.17c-5.77.22-9.61,5-10.57,13.64Z" transform="translate(-65.15 -76.28)"/><path class="a" d="M237.39,313.86c0,8,1.09,15,8.09,19.08,7.52,4.34,14.45,2.26,21.43-4.74a20.41,20.41,0,0,1-.83,4,20.81,20.81,0,0,1-28.44,7.59,21,21,0,0,1-6.14-5.4,29.89,29.89,0,0,1-.84-32.25,22.23,22.23,0,0,1,26.41-8.52,15.31,15.31,0,0,1,9.86,18.11,4.37,4.37,0,0,1-3.31,2.43c-6.92.09-13.84-.18-20.76-.31C241.19,313.82,239.54,313.86,237.39,313.86Zm-.59-3.67c7-.32,12.31-.5,17.61-.93a3.18,3.18,0,0,0,2.18-2.19,9.14,9.14,0,0,0-4.1-9.94,8.75,8.75,0,0,0-10.72,2.74,77,77,0,0,0-5,10.31Z" transform="translate(-65.15 -76.28)"/><path class="a" d="M165,417.93a17.05,17.05,0,0,1-10.81,11.42A20.83,20.83,0,0,1,127,418l0-.12a29.61,29.61,0,0,1-.24-23.77,22.17,22.17,0,0,1,27-12.82,15.65,15.65,0,0,1,11.79,16.59c-.12,3.38-1.12,5-4.92,4.71-6.43-.47-12.9-.46-19.35-.62-1.66,0-3.33,0-5.38,0-.68,7.21.37,13.81,6.23,17.91a18.9,18.9,0,0,0,11.58,2.87A40,40,0,0,0,165,417.93Zm-30.38-20.27c7,0,12.18.11,17.36-.11a3.69,3.69,0,0,0,2.77-2.17,9.21,9.21,0,0,0-3.67-9.75,7.46,7.46,0,0,0-9.76,1.11,70.56,70.56,0,0,0-6.7,10.92Z" transform="translate(-65.15 -76.28)"/><path class="a" d="M268.67,137c.37,7.94,1,15,8.06,19.2,7.81,4.63,14.88,2.56,21.61-3.09a16.53,16.53,0,0,1-9.69,11.26,20.48,20.48,0,0,1-27.2-9.94c-.09-.2-.18-.39-.26-.58a29.51,29.51,0,0,1-.56-24.18,21.87,21.87,0,0,1,27.82-12.38,16.18,16.18,0,0,1,10.71,16.54c-.26,3.06-1.44,4.26-4.62,4.06-7.05-.47-14.12-.64-21.18-.9C272,137,270.67,137,268.67,137Zm.65-3c6.09-.29,11.6-.5,17.09-.88.82-.06,2.32-1.24,2.23-1.63a20.77,20.77,0,0,0-2.87-9.65,9.93,9.93,0,0,0-8.72-1.21c-5.49,2-7.15,7.09-7.73,13.37Z" transform="translate(-65.15 -76.28)"/><path class="a" d="M178,506.33a17.36,17.36,0,0,1-14.41,12,19.94,19.94,0,0,1-20.09-7.47,29.72,29.72,0,0,1-.4-33,22.19,22.19,0,0,1,26-7.42c7.67,3.15,10.79,9.91,8.87,19.7H149.25a18.67,18.67,0,0,0,7.12,19.15A17,17,0,0,0,178,506.33Zm-29.83-20.87,1.44,1.42c5.47-.28,10.95-.46,16.4-.9.93-.08,2.45-1.12,2.54-1.87A9.88,9.88,0,0,0,165,473.85a7.56,7.56,0,0,0-10.14.79A66.29,66.29,0,0,0,148.15,485.46Z" transform="translate(-65.15 -76.28)"/><path class="a" d="M476.29,242.44a52.6,52.6,0,0,1-7.65,8.27,20.44,20.44,0,0,1-28.37-5.59c-.2-.28-.38-.58-.56-.88a28.89,28.89,0,0,1-1-27.87A21.89,21.89,0,0,1,466.1,205.6c8,3,11.46,10.28,9.27,19.83H446.22c-.13,7.6.84,14.63,7.38,19,7.72,5.12,15.11,3.23,21.62-3.21Zm-30.31-21c6.74,0,12.38.09,18-.11.77,0,1.94-1.39,2.16-2.32a10.27,10.27,0,0,0-4.4-10.37,9,9,0,0,0-11.12,2.91A65.56,65.56,0,0,0,446,221.44Z" transform="translate(-65.15 -76.28)"/><path class="a" d="M383.57,329.89a17.6,17.6,0,0,1-16.3,12.18,19.12,19.12,0,0,1-19.48-9.65,28.81,28.81,0,0,1-.94-27.87A21.73,21.73,0,0,1,373,293.42c8.81,2.68,12.64,9.9,10.53,20.29H354.42c-.34,7.48.7,14.45,7.24,18.86C369.4,337.79,376.75,335.77,383.57,329.89Zm-30-19.39c7-.34,12.67-.53,18.27-1a3.43,3.43,0,0,0,2.3-2.12,10.1,10.1,0,0,0-4.1-10.44,8.81,8.81,0,0,0-11.12,2.61,77,77,0,0,0-5.35,10.95Z" transform="translate(-65.15 -76.28)"/><path class="a" d="M175,429c0-4.11-.05-9.31.06-14.53,0-.66.84-1.79,1.37-1.84a2.6,2.6,0,0,1,2.08,1.22c1.16,2.34,1.92,4.86,3.11,7.18a9.63,9.63,0,0,0,10.52,5.74,7.39,7.39,0,0,0,6.69-6.08,7.09,7.09,0,0,0-3.89-8.52c-3.05-1.46-6.24-2.59-9.35-3.91a13.8,13.8,0,0,1,1.92-27,42,42,0,0,1,10-.5c2.87.06,5.73.55,9.81,1,0,3.41,0,8.06-.05,12.71,0,.57-.86,1.61-1.22,1.57a2.86,2.86,0,0,1-2.08-1.21c-.78-1.65-1.11-3.51-1.82-5.2a8.33,8.33,0,0,0-9.18-5.46,7.05,7.05,0,0,0-6.79,6.43,8.21,8.21,0,0,0,5.17,9.29,68,68,0,0,1,13.3,7.1,11.94,11.94,0,0,1-2.24,20.55,44.64,44.64,0,0,1-15.15,2.46A84.2,84.2,0,0,1,175,429Z" transform="translate(-65.15 -76.28)"/><path class="a" d="M404.88,252.18c.78-1,1.09-1.83,1.45-1.85,6.24-.43,5.84-4.75,5.78-9.22-.2-15.22-.37-30.44-.22-45.66,0-4.36-.7-7.52-5.35-8.73-.54-.15-.88-1.06-2.16-2.7l18.75-3.29c-.18,3.19-.42,5.56-.43,7.93-.09,18.91-.19,37.83,0,56.74,0,1.38,1.85,2.91,3.12,4a11.73,11.73,0,0,0,3.39,1.51l-.26,1.22Z" transform="translate(-65.15 -76.28)"/><path class="a" d="M371.89,429.39V412.08c1.4,1.23,2.51,1.82,3,2.74,1.25,2.28,2.07,4.81,3.36,7.06A9.89,9.89,0,0,0,389,426.41a7.08,7.08,0,0,0,5.95-6.73,8.52,8.52,0,0,0-6.62-8.83,67,67,0,0,1-9.2-4.21,12.59,12.59,0,0,1-7-12.1,11.71,11.71,0,0,1,7.91-11.42,59,59,0,0,1,14.31-1.77,75.09,75.09,0,0,1,9.24.64c0,3.39,0,8-.06,12.66a2.05,2.05,0,0,1-1.31,1.5,2.18,2.18,0,0,1-1.84-.88,12.47,12.47,0,0,1-.94-3.06,9.65,9.65,0,0,0-9.4-8.42,8,8,0,0,0-7.91,7c-.59,5,1.69,8,7.34,10.15a65.6,65.6,0,0,1,8.86,3.83,13.11,13.11,0,0,1-2.54,24.56,68.64,68.64,0,0,1-14.53.73C378.52,430.08,375.81,429.69,371.89,429.39Z" transform="translate(-65.15 -76.28)"/><path class="a" d="M507.56,470.43v13.35l-1.1.67a18.06,18.06,0,0,1-2.1-3.67c-1.32-4.41-3.41-7.9-8.52-8.45a8.08,8.08,0,0,0-8.69,5.34,8.41,8.41,0,0,0,3.56,10c3.4,1.77,7,3.07,10.49,4.73a12.75,12.75,0,0,1,8.73,13.65A13.29,13.29,0,0,1,497.76,518a69.68,69.68,0,0,1-12.34-.07c-2.65-.09-5.3-.39-8.74-.66V500a17.84,17.84,0,0,1,2.6,2.89c1.22,2.48,2,5.17,3.4,7.52a9.9,9.9,0,0,0,11.14,4.45,7.34,7.34,0,0,0,5.94-7.26,8.15,8.15,0,0,0-5.55-8.2c-3.26-1.36-6.62-2.51-9.77-4.08A12.73,12.73,0,0,1,476.37,483a12.28,12.28,0,0,1,8.9-12.2,62.84,62.84,0,0,1,14.8-1.19A55.42,55.42,0,0,1,507.56,470.43Z" transform="translate(-65.15 -76.28)"/><path class="a" d="M99.58,293.77v13.74l-1.07.46c-.63-1.07-1.21-2.16-1.9-3.18a31.62,31.62,0,0,0-5.66-8,7.78,7.78,0,0,0-10.81,2.05,6.65,6.65,0,0,0-.39.63,8.53,8.53,0,0,0,3,11.65c3.23,1.76,6.75,3,10.07,4.56,7.27,3.46,10.61,8.65,9.53,14.63a14.67,14.67,0,0,1-14.56,11.81,53.09,53.09,0,0,1-10.53-.79c-2.67-.4-5.42-3.26-7.51,2.29l-.84-1.57V323.7a24.21,24.21,0,0,1,2.82,3.41c1.2,2.31,1.91,4.91,3.27,7.1a10.08,10.08,0,0,0,12.59,3.67,7.34,7.34,0,0,0,3.78-9.67v0A13.89,13.89,0,0,0,86,322.89c-3-1.75-6.57-2.59-9.71-4.18a12.61,12.61,0,0,1-7.51-12.25A11.76,11.76,0,0,1,77,294.77a63.11,63.11,0,0,1,14.37-1.59A64.36,64.36,0,0,1,99.58,293.77Z" transform="translate(-65.15 -76.28)"/><path class="a" d="M228.24,95.88,245.06,93v16.24c0,15.08.11,30.16-.08,45.24,0,4,.39,7,5.14,7.35.58,0,1.1.83,2.66,2.1H227.53c1.08-1,1.68-2.09,2.37-2.16,4.55-.42,4.93-3.19,4.88-7-.2-14.46-.05-28.92-.1-43.38,0-5.62,2-12.23-7.52-13.67Z" transform="translate(-65.15 -76.28)"/><path class="a" d="M408.17,510.56a10.49,10.49,0,0,1-.95,2.27,16.77,16.77,0,0,1-18.28,5.31c-5.17-1.72-7.54-5.83-7.58-13.32,0-9.21,0-18.41,0-27.84a18.46,18.46,0,0,1-3.29-.67c-.74-.3-1.83-1-1.84-1.54,0-.89.54-2.44,1.16-2.61,5.76-1.58,7.32-6.45,9.36-11.12.61-1.39,2.32-2.3,3.51-3.43a15.47,15.47,0,0,1,2,4.34,87.48,87.48,0,0,1,.1,9.16c3.76,0,7-.21,10.12.11,1.05.11,1.95,1.59,2.93,2.44-.93.9-1.84,1.82-2.8,2.68-.18.16-.6,0-.9,0-9.36.42-9.36.42-9.36,10.06,0,5.84-.06,11.68,0,17.51.13,8.19,5.37,11.11,12.69,7.15l2.33-1.23Z" transform="translate(-65.15 -76.28)"/><path class="a" d="M225.08,506.09a14.54,14.54,0,0,1-10.48,11.56,20.32,20.32,0,0,1-15.7-1.14c-9.52-4.84-14.15-19.05-10.29-31.27a22.47,22.47,0,0,1,24.46-16,14.43,14.43,0,0,1,11.87,7.71,10.75,10.75,0,0,1,.65,7,4.65,4.65,0,0,1-5.73,3.23,4.57,4.57,0,0,1-.62-.22,5,5,0,0,1-4-5.87c0-.17.08-.33.13-.5a25.74,25.74,0,0,1,1.86-4.63,9.22,9.22,0,0,0-13-1.1,8.6,8.6,0,0,0-1,1,25.93,25.93,0,0,0,.07,31.92,14.16,14.16,0,0,0,18.91.89C223.2,507.8,224.13,506.94,225.08,506.09Z" transform="translate(-65.15 -76.28)"/><path class="a" d="M157.36,122.8a9.75,9.75,0,0,0-13.79-.33,10.53,10.53,0,0,0-1.16,1.33,26.68,26.68,0,0,0-.19,29.87,14,14,0,0,0,19.71,2.24c.15-.11.29-.23.43-.35a9.58,9.58,0,0,1,3-1.95A15.26,15.26,0,0,1,156,164.29a19.87,19.87,0,0,1-24.68-7.76,29.47,29.47,0,0,1,1-31.4,21.48,21.48,0,0,1,22.41-8.52,12.91,12.91,0,0,1,10.66,8.52,10.05,10.05,0,0,1-1.5,7.78c-.76,1.07-4.75,1-6.51,0-3.05-1.69-2.67-4.84-1.18-7.73C156.63,124.39,157,123.56,157.36,122.8Z" transform="translate(-65.15 -76.28)"/><path class="a" d="M181.37,211.9l-5.64-.8c.66-1.44,1-3.27,1.7-3.48,6-1.69,7.25-7,9.43-11.66.62-1.33,2.35-2.14,3.58-3.19l1.29.87v13.12h12.32c1.43,3.48.72,5-2.88,4.78-2.88-.16-5.79,0-9.37,0v24.05c0,1.22.16,2.45.2,3.68.24,8.22,5.3,11.15,12.62,7.28.78-.41,1.54-.86,3.28-1.83a14.6,14.6,0,0,1-1,3.47,16.67,16.67,0,0,1-20.38,4.36,11,11,0,0,1-5.11-10.62c-.07-8.3,0-16.61,0-24.9Z" transform="translate(-65.15 -76.28)"/><path class="a" d="M292.64,299.31c2.12-1.76,4.1-3.66,6.33-5.21a7.78,7.78,0,0,1,10.81.68c2.08,2.84.83,6.13-3.79,9.64a6.7,6.7,0,0,0-9.26-2,7.9,7.9,0,0,0-.81.62,8.83,8.83,0,0,0-3.11,5.56c-.45,7.81-.17,15.66-.54,23.48-.18,3.76,1.3,5.28,4.82,5.65a30,30,0,0,1,4.83,1.33l-.22,1.31H274.37c1.69-1.19,2.55-2.28,3.51-2.39,3.71-.41,4.17-2.64,4.08-5.79-.24-8.59-.43-17.2-.26-25.79.08-4-.58-7-4.81-8.16a15.69,15.69,0,0,1-2.46-1.14l.6-2c5.27-1,10.52-2,15.84-2.77.5-.07,1.57,1.32,1.71,2.16A28.85,28.85,0,0,1,292.64,299.31Z" transform="translate(-65.15 -76.28)"/><path class="a" d="M323.87,428.76h-27c.86-1.15,1.16-2,1.53-2,5.59-.56,6-4.16,5.77-8.76-.32-7.82-.26-15.67,0-23.5.13-4-.59-6.93-4.8-8.21-.72-.22-1.25-1-2.8-2.44l17.65-3.59c.23,3.32.41,6,.58,8.61l-.83-1.18c2.47-1.74,4.9-3.57,7.45-5.22a7.46,7.46,0,0,1,10.4.7c1.91,2.69.69,6.12-3.51,9.4a6.82,6.82,0,0,0-9.37-2.32,7.5,7.5,0,0,0-1.33,1.05,8.9,8.9,0,0,0-2.91,5.7c-.33,7.81,0,15.67-.22,23.49-.12,3.51,1.16,5.06,4.51,5.41a35.87,35.87,0,0,1,5,1.22Z" transform="translate(-65.15 -76.28)"/><path class="a" d="M450.7,295.31l16.92-3.19v8.93l-1.16-1.67c2.7-1.73,5.38-3.48,8.09-5.18A7.83,7.83,0,0,1,485,295c1.89,2.73.65,6.1-3.6,9.4a7,7,0,0,0-9.24-2.38,8.25,8.25,0,0,0-4.54,9.12c.31,7.06.45,14.14.31,21.21-.06,3.33,1.11,4.72,4.36,5a24.77,24.77,0,0,1,5.3,1.75l-.44,1.58H450.9l-.55-.79a13.18,13.18,0,0,1,3.44-2.32,4.14,4.14,0,0,0,3.43-4.64c0-9.85.13-19.69-.09-29.53a7.8,7.8,0,0,0-2.69-4.26,16.24,16.24,0,0,0-3.81-2.19Z" transform="translate(-65.15 -76.28)"/><path class="a" d="M366.63,421.56a14.47,14.47,0,0,1-16.17,8.73,10.35,10.35,0,0,1-10-10.64c-.3-8.61-.12-17.23-.13-25.84v-5.56l-5.68-.7c.67-1.43,1-3.26,1.73-3.48,6-1.74,7.24-7,9.44-11.69.62-1.34,2.31-2.18,3.5-3.25l1.29.88v13.3c3.5,0,6.55.13,9.57,0,3.26-.18,4.15,1.15,2.95,4.51H350.59V398.1c0,5.84-.06,11.69,0,17.54.1,8.47,5.4,11.57,12.87,7.6Z" transform="translate(-65.15 -76.28)"/><path class="a" d="M315.28,517.37H288.94l-.54-1c1-.76,1.9-2,3-2.18,3.37-.56,3.94-2.51,3.9-5.52-.1-8.44-.07-16.9.27-25.34.17-4.29-.5-7.62-5.17-8.86a19.79,19.79,0,0,1-2.14-.84l.66-1.83,16.75-3.24v10.07a47.94,47.94,0,0,1,3.07-4.16,25.36,25.36,0,0,1,4.4-4c3.8-2.41,8.82-1.94,10.38,1.05,2.15,4.14-.34,6.92-3.54,9.63-1.08-.85-2-2.25-3.15-2.37a13.34,13.34,0,0,0-7.3.44,8,8,0,0,0-3.37,5.74c-.38,7,.19,14.14-.18,21.19-.25,4.94.84,8,6.38,8.12,1.17,0,2.32,1,3.5,1.61Z" transform="translate(-65.15 -76.28)"/><path class="a" d="M234.6,252.26a13.38,13.38,0,0,1-3,.81c-6,.07-12,.1-18,0a9.35,9.35,0,0,1-3-1.27c.78-.77,1.5-2.11,2.36-2.23,3.62-.5,4.15-2.61,4.09-5.78-.18-8.44-.25-16.89,0-25.33.13-4.27-.47-7.61-5.16-8.86a13.72,13.72,0,0,1-1.73-.72l.47-1.56,17.1-3.68c.11,2.64.26,4.42.26,6.21,0,10.74.15,21.49,0,32.24-.07,4-.07,7.42,5.09,7.8.39,0,.79.45,1.09.77S234.32,251.2,234.6,252.26Z" transform="translate(-65.15 -76.28)"/><path class="a" d="M410.83,471.51c5-.93,10.07-2,15.16-2.6.64-.07,2.25,2.44,2.27,3.77q.28,17,.06,34.07c-.06,3.94-.21,7.47,5.09,7.82.56,0,1,1.19,2.2,2.6H411l-.53-.83c1-.74,1.92-1.94,3-2.14,3.29-.6,4-2.45,3.9-5.51-.18-8.59-.22-17.19,0-25.78.12-4-.63-6.92-4.82-8.19-.73-.22-1.27-1.12-1.89-1.71Z" transform="translate(-65.15 -76.28)"/><path class="a" d="M313.16,340.46c1-1.15,1.37-2.09,1.83-2.13,5.38-.37,5.51-3.89,5.38-8.07q-.35-12,0-24c.12-4-.66-6.94-4.87-8.19-.73-.22-1.27-1.11-2.83-2.57l18-3.41v14.05c0,8.46.17,16.92-.08,25.37-.11,3.76.58,6.25,4.79,6.68.66.07,1.25,1,2.82,2.26Z" transform="translate(-65.15 -76.28)"/><path class="a" d="M248.73,285.63c2.29-5.15,4.35-10.4,7-15.38,1.4-2.66,4-4.84,7.16-2.51,2.88,2.16,1.63,5.1-.29,7.25-3.25,3.64-6.78,7.05-10.3,10.45a8,8,0,0,1-2.67,1.09Z" transform="translate(-65.15 -76.28)"/><path class="a" d="M429.6,452.58a6.61,6.61,0,1,1-6.8-6.67,5.23,5.23,0,0,1,.56,0,6.42,6.42,0,0,1,6.24,6.59Z" transform="translate(-65.15 -76.28)"/><path class="a" d="M325.27,282.58a6.57,6.57,0,1,1,7-6.62A7.52,7.52,0,0,1,325.27,282.58Z" transform="translate(-65.15 -76.28)"/><path class="a" d="M92,96.23c2.85-6.38,4.95-11.64,7.52-16.65,1.34-2.59,4-4.42,6.92-2.51,3.11,2.05,1.93,5,0,7.2-3.36,3.79-7,7.32-10.66,10.85C95.32,95.64,94.27,95.62,92,96.23Z" transform="translate(-65.15 -76.28)"/><path class="a" d="M222.5,194a6.34,6.34,0,0,1-6.23-6.47v-.08a6.48,6.48,0,0,1,6.79-6,6,6,0,0,1,5.93,6.1,2.44,2.44,0,0,1,0,.27,6.12,6.12,0,0,1-6,6.23Z" transform="translate(-65.15 -76.28)"/><path class="a" d="M160.76,461.93c2.18-5,4.15-10.07,6.63-14.9,1.26-2.46,3.62-4.83,6.69-2.76s1.66,5-.23,7.13c-3.71,4.1-7.72,7.93-11.61,11.87Z" transform="translate(-65.15 -76.28)"/></svg>