<svg xmlns="http://www.w3.org/2000/svg" viewBox="0 0 489.37 340.95"><defs><style>.a{fill:#2e2e2d;}</style></defs><path class="a" d="M297.3,468.09a295.55,295.55,0,0,1-32.18-1.42,324.46,324.46,0,0,1-73.06-15.21,263.62,263.62,0,0,1-66.71-32.84,190.88,190.88,0,0,1-44.66-42.15A136.46,136.46,0,0,1,56.09,325a119.85,119.85,0,0,1-3-32.2,130.57,130.57,0,0,1,27.31-73.68,191.42,191.42,0,0,1,49.39-45.53A272.13,272.13,0,0,1,205,139.76a318.52,318.52,0,0,1,44.17-9.24c12.22-1.69,24.5-2.65,36.83-3.14a329,329,0,0,1,36.75.71,318.77,318.77,0,0,1,102.62,24.12,240.44,240.44,0,0,1,60.06,36.07,170.75,170.75,0,0,1,39.12,45.3,129.08,129.08,0,0,1,16.09,43.8,120,120,0,0,1,1.11,31.05,131.28,131.28,0,0,1-26.86,67.41,191.79,191.79,0,0,1-49,45.34,271.5,271.5,0,0,1-71.62,33A291.42,291.42,0,0,1,355,463.29c-8.39,1.31-16.81,2.52-25.24,3.35A276.52,276.52,0,0,1,297.3,468.09Zm.52-37.62c10.12-.11,20.2-.71,30.25-1.7q14.19-1.38,28.21-4.12A257.65,257.65,0,0,0,415,406a187.31,187.31,0,0,0,48.11-31.15,122.06,122.06,0,0,0,28.79-37.53,88.37,88.37,0,0,0,5.38-66,105.91,105.91,0,0,0-21.46-38,159.8,159.8,0,0,0-40.7-33.57,253.18,253.18,0,0,0-97-32.06c-9.58-1.27-19.21-1.92-28.86-2.33A316.32,316.32,0,0,0,274,166a279.23,279.23,0,0,0-33,4.31,260,260,0,0,0-61.66,19.5,187.44,187.44,0,0,0-47.32,30.81,123.38,123.38,0,0,0-28.5,37A89.12,89.12,0,0,0,94.7,308.4,93.1,93.1,0,0,0,106.83,344a133.53,133.53,0,0,0,34.53,38.65,206.42,206.42,0,0,0,55.41,30.22,280.83,280.83,0,0,0,75.57,16.4c8.45.69,17,.83,25.45,1.26Z" transform="translate(-52.95 -127.16)"/><path class="a" d="M210.66,322.77l3.57,23.75a67.7,67.7,0,0,1-6.22,2.75,76,76,0,0,1-27.83,4.44,50.27,50.27,0,0,1-21.93-5.15,35.42,35.42,0,0,1-19.35-24,33,33,0,0,1,13.09-36,37.24,37.24,0,0,1,3.91-2.28c.83-.52,1.6-1.11,2.61-1.81l-2.06-1.44a42.66,42.66,0,0,1-9.65-8.93A29.93,29.93,0,0,1,143,242.71a36.15,36.15,0,0,1,25-21.48,59.64,59.64,0,0,1,45.86,4.91c.52.26,1,.61,1.59,1l-3,23.54-3.09-1a65.19,65.19,0,0,0-14.69-3.48,23.75,23.75,0,0,0-8.76.71,14.54,14.54,0,0,0-10.49,11.49,14.36,14.36,0,0,0,7,13.65,20.45,20.45,0,0,0,7.64,2.21,62.54,62.54,0,0,0,16.17.52q.66,0,1.32,0l.42,22.29h-2.79c-4.9.13-9.79.09-14.69.48a28.21,28.21,0,0,0-7.52,1.82,14,14,0,0,0-8.37,17.95,13.18,13.18,0,0,0,.74,1.68,10.25,10.25,0,0,0,5.35,5.1A26.49,26.49,0,0,0,196,325.52c4.26-.7,8.47-1.7,12.71-2.57C209.29,322.91,209.86,322.86,210.66,322.77Z" transform="translate(-52.95 -127.16)"/><path class="a" d="M382.65,301.72A83.37,83.37,0,0,1,386.08,276a38.21,38.21,0,0,1,15.59-21.12A39,39,0,0,1,418.91,249a51.43,51.43,0,0,1,21,1.68,34.86,34.86,0,0,1,21.26,18.16A59.42,59.42,0,0,1,466.81,288a100.67,100.67,0,0,1,.42,24.16,58.22,58.22,0,0,1-5.84,20.9,36.06,36.06,0,0,1-24.25,19.28,49,49,0,0,1-24.19,0,35.79,35.79,0,0,1-25.25-22.59,62.25,62.25,0,0,1-4.21-16.94C383,308.6,382.84,304.33,382.65,301.72Zm26.79-2.13c.39,3.8.63,7.62,1.21,11.38a26.74,26.74,0,0,0,4.82,12.37,11.32,11.32,0,0,0,19.06-.15,23.6,23.6,0,0,0,3.93-9.06,58.79,58.79,0,0,0-.52-27,23.92,23.92,0,0,0-4.08-8.76,11.74,11.74,0,0,0-19.44.64,29,29,0,0,0-2.89,6.24,52,52,0,0,0-2.12,14.34Z" transform="translate(-52.95 -127.16)"/><path class="a" d="M225.54,346V320.51c.9.47,1.59.8,2.26,1.17a50.37,50.37,0,0,0,18.89,6.48,62.1,62.1,0,0,0,8.84.14,10.14,10.14,0,0,0,3.49-1,7,7,0,0,0,1.48-12,16.76,16.76,0,0,0-3.76-2.06c-3.68-1.49-7.43-2.77-11.08-4.3a89.22,89.22,0,0,1-8.37-4,24.42,24.42,0,0,1-13.07-21.28,34.2,34.2,0,0,1,.51-9.47,28.48,28.48,0,0,1,14.8-19.74c1.26-.69,2.53-1.37,3.82-2a30.67,30.67,0,0,1,12.51-3A61.91,61.91,0,0,1,288,256.12c.89.46,1.74,1,2.76,1.58.13,8,.26,16,.4,24.28-.81-.29-1.39-.47-1.94-.71-3.16-1.41-6.31-2.84-9.47-4.24a41.57,41.57,0,0,0-16.44-3.17,17,17,0,0,0-5.7,1,6.32,6.32,0,0,0-3.82,7.57,6.6,6.6,0,0,0,1.5,2.55,18,18,0,0,0,7.58,4.42c1.43.51,2.88.93,4.34,1.33A54.21,54.21,0,0,1,284,298.58a25.67,25.67,0,0,1,11,19.07,31.38,31.38,0,0,1-18.49,31.87,46.22,46.22,0,0,1-22.94,4.18,76.32,76.32,0,0,1-25-6.24C227.55,347,226.6,346.51,225.54,346Z" transform="translate(-52.95 -127.16)"/><path class="a" d="M370.83,282.12l-3.9-1.76a68.17,68.17,0,0,0-14.29-5.49,34.48,34.48,0,0,0-10.06-1.13,27.35,27.35,0,0,0-5.86,1.33,6.24,6.24,0,0,0-2.8,8.36,6.35,6.35,0,0,0,1.16,1.61,24.41,24.41,0,0,0,4.69,3,28.24,28.24,0,0,0,5.53,1.83,55.05,55.05,0,0,1,19.88,9.69,23.65,23.65,0,0,1,9,14.81,30.76,30.76,0,0,1-13.87,32.33,40.31,40.31,0,0,1-19.67,6.57,57.9,57.9,0,0,1-21.57-2.45c-3-.91-6-1.7-8.89-2.68-1.7-.56-3.31-1.39-5-2.12V320.49c.81.39,1.49.68,2.15,1a60.73,60.73,0,0,0,16.75,6.23,28.94,28.94,0,0,0,12,.24,19.28,19.28,0,0,0,1.88-.52,6.91,6.91,0,0,0,4.78-8.52,7,7,0,0,0-2.37-3.55,12.32,12.32,0,0,0-3.13-1.89c-3.6-1.51-7.25-2.81-10.82-4.39a109.93,109.93,0,0,1-10.86-5.29,22.65,22.65,0,0,1-11.39-17.68,35.56,35.56,0,0,1,.25-12.26,30.1,30.1,0,0,1,23.05-23.31,51.58,51.58,0,0,1,27.37.48A57.7,57.7,0,0,1,369,256.83c.76.44,1.43.82,1.44,1.92C370.56,266.35,370.71,274,370.83,282.12Z" transform="translate(-52.95 -127.16)"/></svg>