<svg xmlns="http://www.w3.org/2000/svg" width="88.611" height="92.307" viewBox="0 0 88.611 92.307">
  <g id="Groupe_852" data-name="Groupe 852" transform="translate(-199.805 -271.342)">
    <path id="Tracé_1267" data-name="Tracé 1267" d="M239.458,298.9v0c4.062-2.339,7.831-4.574,11.672-6.679a2.185,2.185,0,0,0,1.265-2.564c-.417-3.242-.687-6.5-1.114-9.742a8.565,8.565,0,0,0-9.386-7.358c-4.925.664-8.625,5.047-7.515,9.756C235.685,287.853,237.687,293.227,239.458,298.9Z" fill="#3ed1d2"/>
    <path id="Tracé_1268" data-name="Tracé 1268" d="M273.118,292.105c0-4.532.136-8.6-.036-12.645a8.483,8.483,0,0,0-16.954.1c.014,2.967.524,5.931.853,9.338C263.106,285.984,267.913,289.261,273.118,292.105Z" fill="#3ed1d2"/>
    <path id="Tracé_1269" data-name="Tracé 1269" d="M215.7,294.206c3.618,6.529,7.373,12.984,11.19,19.4,1.913,3.213,5.509,3.789,8.763,1.538a6.208,6.208,0,0,0-.415-.591c-3.959-4.317-4.093-7.956-.553-12.648a2.253,2.253,0,0,0,.247-1.768c-1.326-4.26-2.633-8.531-4.151-12.725a8.294,8.294,0,1,0-15.081,6.794Z" fill="#3ed1d2"/>
    <path id="Tracé_1270" data-name="Tracé 1270" d="M213.09,322.912a6,6,0,0,0,9.622-7.038q-4.15-7.4-8.489-14.7a7.731,7.731,0,0,0-6.635-3.734v0c-3.216.268-5.684,1.659-7,4.618a7.291,7.291,0,0,0,1.139,8.22Q207.305,316.683,213.09,322.912Z" fill="#3ed1d2"/>
    <path id="Tracé_1271" data-name="Tracé 1271" d="M279.743,301c-4.687-2.674-9.511-5.111-14.288-7.627a7.1,7.1,0,0,0-7.252.173c-6.354,3.662-12.718,7.309-19.054,11-2.775,1.619-3.074,4.165-.777,6.43a10.3,10.3,0,0,0,7.322,2.717c7.434.181,13.513-3.08,19.018-7.69,1.635-1.37,3.013-1.617,4.014-.552,1.036,1.1.809,2.59-.813,3.943-2.019,1.684-4.148,3.235-6.551,5.092,2.227,2.046,4.31,4.1,6.544,5.962,1.248,1.042,1.907,2.084,1.032,3.58-.743,1.27-2.383,1.471-3.825.2-2.437-2.152-4.67-4.533-7.018-6.788-.424-.408-1.108-1.049-1.467-.936-1.887.6-3.945,1.074-5.5,2.206a62.274,62.274,0,0,0-18.319,22.148c-.916,1.818-2.351,2.4-3.645,1.485-1.47-1.042-1.276-2.43-.452-3.709,2.993-4.639,5.926-9.325,9.144-13.807a69.705,69.705,0,0,1,5.9-6.429c-2.156-.864-3.887-.939-5.694.817a8.4,8.4,0,0,1-4.362,1.742,36.087,36.087,0,0,1-5.618.067c-.081.224-.239.656-.392,1.089-2.1,5.938-7.965,9.036-13.752,6.726-2.341-.935-4.311-3.014-6.191-4.84-2.3-2.244-4.341-4.767-6.5-7.17l-.6.212c.271,3.216.274,6.484.858,9.642,3.344,18.09,13.866,30.225,31.508,35.145,17.259,4.813,32.355,0,44.441-13.26,8.725-9.568,11.657-21.213,10.822-33.911A16.215,16.215,0,0,0,279.743,301Z" fill="#3ed1d2"/>
  </g>
</svg>
