<svg xmlns="http://www.w3.org/2000/svg" viewBox="0 0 490.71 114.65"><defs><style>.a{fill:#2e2e2e;}</style></defs><path class="a" d="M428.87,290.77a10.47,10.47,0,1,0-10.44-10.5v0a10.47,10.47,0,0,0,10.44,10.47" transform="translate(-52.29 -240.31)"/><path class="a" d="M476,298.17a10.45,10.45,0,0,0-10.45,10.45v9.46a13.11,13.11,0,0,1-26.22,0v-9.48a10.45,10.45,0,1,0-20.89,0h0v9.44a34,34,0,0,0,68,.46v-9.9A10.46,10.46,0,0,0,476,298.17" transform="translate(-52.29 -240.31)"/><path class="a" d="M532.53,269.83H514.71V252a10.45,10.45,0,0,0-20.89,0v17.87H476a10.47,10.47,0,1,0,0,20.93h17.84v17.87a10.45,10.45,0,0,0,20.89,0V290.78h17.82a10.47,10.47,0,0,0,0-20.94" transform="translate(-52.29 -240.31)"/><path class="a" d="M84.74,262.78a18,18,0,0,1,3.79,12.5v23.45a3.35,3.35,0,0,1-.94,2.55,3.5,3.5,0,0,1-2.51.91,3.58,3.58,0,0,1-2.59-.91,3.39,3.39,0,0,1-.95-2.55V275.45a12.63,12.63,0,0,0-2.28-8.31A9.11,9.11,0,0,0,72,264.46,12.28,12.28,0,0,0,62.74,268a13.19,13.19,0,0,0-3.46,9.61v21.11a3.15,3.15,0,0,1-2.8,3.46,3.53,3.53,0,0,1-.65,0,3.58,3.58,0,0,1-2.59-.91,3.34,3.34,0,0,1-1-2.55v-55a3.2,3.2,0,0,1,1-2.42,3.54,3.54,0,0,1,2.55-1,3.43,3.43,0,0,1,2.55.91,3.33,3.33,0,0,1,.9,2.46v22.68a14.07,14.07,0,0,1,5.79-5.8,17.48,17.48,0,0,1,8.45-2,14.33,14.33,0,0,1,11.21,4.2" transform="translate(-52.29 -240.31)"/><path class="a" d="M134.27,275.2v23.53a3.44,3.44,0,0,1-.91,2.52,3.22,3.22,0,0,1-2.46,1,3.27,3.27,0,0,1-3.45-3.07h0a2.54,2.54,0,0,1,0-.39v-4.16a12.32,12.32,0,0,1-5,5.76,14.7,14.7,0,0,1-7.76,2,16.92,16.92,0,0,1-7.47-1.64,13.33,13.33,0,0,1-5.39-4.59,11.4,11.4,0,0,1-2-6.49,10.58,10.58,0,0,1,2.42-7.4,14.72,14.72,0,0,1,7.94-3.81,79.14,79.14,0,0,1,15.37-1.17h1.89v-2.85a11.39,11.39,0,0,0-2.11-7.62,8.67,8.67,0,0,0-6.86-2.42,25.32,25.32,0,0,0-11.91,3.2,7.86,7.86,0,0,1-3.28,1.47,2.2,2.2,0,0,1-1.73-.78,2.88,2.88,0,0,1-.69-2,3.31,3.31,0,0,1,.73-2.12A8.42,8.42,0,0,1,104,262.3a27.69,27.69,0,0,1,6.86-2.73,30.25,30.25,0,0,1,7.63-1q15.79,0,15.8,16.61m-10.14,18.13a12.56,12.56,0,0,0,3.32-9v-2.52H125.9a77.18,77.18,0,0,0-11.57.65,11.28,11.28,0,0,0-5.65,2.16A5.71,5.71,0,0,0,107,289a7.18,7.18,0,0,0,2.46,5.58,8.87,8.87,0,0,0,6.16,2.2,11.18,11.18,0,0,0,8.5-3.5" transform="translate(-52.29 -240.31)"/><path class="a" d="M177.94,261.35a18.4,18.4,0,0,1,6.56,7.74,27.21,27.21,0,0,1,2.33,11.56,26.47,26.47,0,0,1-2.33,11.46,17.27,17.27,0,0,1-16.32,10.26,16.54,16.54,0,0,1-8.58-2.17,13.82,13.82,0,0,1-5.57-6.15v20.34a3.34,3.34,0,0,1-.91,2.46,3.43,3.43,0,0,1-2.55.91,3.51,3.51,0,0,1-2.59-.95,3.28,3.28,0,0,1-.94-2.43V262.21a3.38,3.38,0,0,1,.94-2.52,3.51,3.51,0,0,1,2.59-.95,3.39,3.39,0,0,1,2.55.95,3.51,3.51,0,0,1,.91,2.52v4.68a13.82,13.82,0,0,1,5.57-6.15,16.53,16.53,0,0,1,8.58-2.16,17.33,17.33,0,0,1,9.75,2.76m-1.63,31.07a18.23,18.23,0,0,0,3.36-11.76,18.8,18.8,0,0,0-3.36-11.9,12.74,12.74,0,0,0-18-1.07,12.15,12.15,0,0,0-1,.94,22.9,22.9,0,0,0,0,23.75,11.35,11.35,0,0,0,9.45,4.2,11.54,11.54,0,0,0,9.5-4.14" transform="translate(-52.29 -240.31)"/><path class="a" d="M228.17,261.35a18.31,18.31,0,0,1,6.55,7.74,26.91,26.91,0,0,1,2.33,11.56,26.19,26.19,0,0,1-2.33,11.46,17.24,17.24,0,0,1-16.31,10.26,16.6,16.6,0,0,1-8.59-2.17,13.8,13.8,0,0,1-5.56-6.15v20.34a3.38,3.38,0,0,1-.91,2.46,3.43,3.43,0,0,1-2.55.91,3.51,3.51,0,0,1-2.59-.95,3.33,3.33,0,0,1-1-2.43V262.21a3.43,3.43,0,0,1,1-2.52,3.51,3.51,0,0,1,2.59-.95,3.39,3.39,0,0,1,2.55.95,3.55,3.55,0,0,1,.91,2.52v4.68a13.8,13.8,0,0,1,5.56-6.15,16.59,16.59,0,0,1,8.59-2.16,17.33,17.33,0,0,1,9.75,2.76m-1.63,31.09a18.36,18.36,0,0,0,3.36-11.77,18.79,18.79,0,0,0-3.36-11.89,12.73,12.73,0,0,0-18-1.07,10.65,10.65,0,0,0-1,.94,22.9,22.9,0,0,0,0,23.75,11.34,11.34,0,0,0,9.45,4.2,11.52,11.52,0,0,0,9.49-4.14" transform="translate(-52.29 -240.31)"/><path class="a" d="M280.29,258.84a3.53,3.53,0,0,1,2.33.86,2.82,2.82,0,0,1,.69,3.55l-24.25,52.44a3.3,3.3,0,0,1-1.25,1.47,3.14,3.14,0,0,1-1.68.52,3.39,3.39,0,0,1-2.28-.83,2.61,2.61,0,0,1-1-2.12,3.17,3.17,0,0,1,.35-1.38l6-13.06-17.08-37a2.61,2.61,0,0,1-.35-1.3,2.84,2.84,0,0,1,1.17-2.24,4,4,0,0,1,2.54-1,3.14,3.14,0,0,1,1.68.52,3.39,3.39,0,0,1,1.26,1.47l14.41,32.45,14.41-32.27a3.15,3.15,0,0,1,3-2.07" transform="translate(-52.29 -240.31)"/><path class="a" d="M314.73,299.42a2.5,2.5,0,0,1-1.08,2.21,5.05,5.05,0,0,1-3.24.56l-2.33-.17a14.63,14.63,0,0,1-10.18-4.15,15.93,15.93,0,0,1-3.28-11V265.16h-5.78a3.29,3.29,0,0,1-2.29-.74,2.47,2.47,0,0,1-.81-2,2.74,2.74,0,0,1,.81-2.08,3.2,3.2,0,0,1,2.29-.78h5.78v-9.76a3.34,3.34,0,0,1,.95-2.55,3.58,3.58,0,0,1,2.59-.91,3.47,3.47,0,0,1,2.51.91,3.38,3.38,0,0,1,.95,2.55v9.79h9.57a3,3,0,0,1,2.2.78,2.69,2.69,0,0,1,.82,2.07,2.42,2.42,0,0,1-.82,2,3.15,3.15,0,0,1-2.2.74h-9.57v22.07a9.94,9.94,0,0,0,1.94,6.88,8.32,8.32,0,0,0,5.82,2.38l2.33.17q3,.26,3,2.76" transform="translate(-52.29 -240.31)"/><path class="a" d="M354.6,275.2v23.53a3.44,3.44,0,0,1-.91,2.52,3.22,3.22,0,0,1-2.45,1,3.27,3.27,0,0,1-3.45-3.07h0a2.67,2.67,0,0,1,0-.4v-4.15a12.38,12.38,0,0,1-5,5.76,14.71,14.71,0,0,1-7.77,2,17,17,0,0,1-7.47-1.64,13.39,13.39,0,0,1-5.39-4.59,11.31,11.31,0,0,1-2-6.49,10.52,10.52,0,0,1,2.41-7.4,14.75,14.75,0,0,1,7.94-3.81,79.2,79.2,0,0,1,15.37-1.17h1.9v-2.85a11.46,11.46,0,0,0-2.12-7.62,8.66,8.66,0,0,0-6.86-2.42,25.38,25.38,0,0,0-11.91,3.2,7.75,7.75,0,0,1-3.28,1.47,2.2,2.2,0,0,1-1.72-.78,2.84,2.84,0,0,1-.69-2,3.31,3.31,0,0,1,.73-2.12,8.42,8.42,0,0,1,2.38-1.86,27.69,27.69,0,0,1,6.86-2.73,30.25,30.25,0,0,1,7.63-1q15.79,0,15.8,16.61m-10.14,18.13a12.56,12.56,0,0,0,3.32-9v-2.52h-1.55a77.18,77.18,0,0,0-11.57.65,11.28,11.28,0,0,0-5.65,2.16,5.71,5.71,0,0,0-1.68,4.46,7.18,7.18,0,0,0,2.46,5.58,8.87,8.87,0,0,0,6.16,2.2,11.16,11.16,0,0,0,8.5-3.5" transform="translate(-52.29 -240.31)"/><path class="a" d="M368.37,301.29a3.31,3.31,0,0,1-1-2.55v-55a3.31,3.31,0,0,1,1-2.55,3.65,3.65,0,0,1,2.54-.91,3.53,3.53,0,0,1,2.46.91,3.27,3.27,0,0,1,1,2.55v55a3.24,3.24,0,0,1-1,2.55,3.48,3.48,0,0,1-2.46.91,3.6,3.6,0,0,1-2.54-.91" transform="translate(-52.29 -240.31)"/><path class="a" d="M197.58,350.38a.72.72,0,0,1-.2-.56V333.91a.74.74,0,0,1,.2-.56.83.83,0,0,1,.56-.19.68.68,0,0,1,.73.75v15.91a.69.69,0,0,1-.62.75h-.1a.8.8,0,0,1-.56-.19" transform="translate(-52.29 -240.31)"/><path class="a" d="M212.18,348.1a.67.67,0,0,1,.16.42q0,.54-.84,1.05a7,7,0,0,1-3.69,1.05,5.56,5.56,0,0,1-4.25-1.63,6.24,6.24,0,0,1-1.56-4.48,7.29,7.29,0,0,1,.69-3.22,5.12,5.12,0,0,1,1.95-2.17,5.39,5.39,0,0,1,2.88-.77,4.57,4.57,0,0,1,3.6,1.47,5.82,5.82,0,0,1,1.32,4.06.92.92,0,0,1-.19.64.81.81,0,0,1-.63.21h-8.09a5.1,5.1,0,0,0,1.16,3.41,4,4,0,0,0,3.08,1.17,4.73,4.73,0,0,0,1.75-.28,12.41,12.41,0,0,0,1.51-.74,1.61,1.61,0,0,1,.75-.37.51.51,0,0,1,.38.18m-7.38-7.46a4.88,4.88,0,0,0-1.21,3h7.5a4.62,4.62,0,0,0-1-3,3.31,3.31,0,0,0-2.6-1.06,3.6,3.6,0,0,0-2.72,1.08" transform="translate(-52.29 -240.31)"/><path class="a" d="M223.47,350.34a6,6,0,0,1-1.74-.77,2.83,2.83,0,0,1-.64-.56.8.8,0,0,1-.18-.52.56.56,0,0,1,.15-.41.5.5,0,0,1,.38-.17,1.69,1.69,0,0,1,.75.36,7.7,7.7,0,0,0,1.45.76,5.26,5.26,0,0,0,1.85.28,4.08,4.08,0,0,0,2.24-.53,1.67,1.67,0,0,0,.8-1.5,1.5,1.5,0,0,0-.28-1,2.22,2.22,0,0,0-1-.65,11,11,0,0,0-1.94-.56,7.51,7.51,0,0,1-3.08-1.26,2.52,2.52,0,0,1-.91-2.06,3.05,3.05,0,0,1,1.21-2.52,5,5,0,0,1,3.16-1,6.92,6.92,0,0,1,1.81.24,4.87,4.87,0,0,1,1.49.71c.56.39.84.77.84,1.15a.6.6,0,0,1-.15.42.46.46,0,0,1-.38.18,1.47,1.47,0,0,1-.75-.39,7.93,7.93,0,0,0-1.3-.74,4.17,4.17,0,0,0-1.64-.28,3.27,3.27,0,0,0-2,.56,1.86,1.86,0,0,0-.76,1.55,1.59,1.59,0,0,0,.26.92,2.15,2.15,0,0,0,.87.65,10.05,10.05,0,0,0,1.79.56,12.27,12.27,0,0,1,2.57.84,2.81,2.81,0,0,1,.43,5,5.49,5.49,0,0,1-3.32.91,7,7,0,0,1-2-.28" transform="translate(-52.29 -240.31)"/><path class="a" d="M235.11,349.87a5,5,0,0,1-1.91-2.15,8,8,0,0,1,0-6.48,5.06,5.06,0,0,1,1.91-2.14,5.72,5.72,0,0,1,5.69,0,5,5,0,0,1,1.91,2.14,8.2,8.2,0,0,1,0,6.48,5,5,0,0,1-1.91,2.15,5.77,5.77,0,0,1-5.69,0m5.71-1.8a6.73,6.73,0,0,0,0-7.15,3.83,3.83,0,0,0-5.42-.28h0a3.83,3.83,0,0,0-.29.28,6.82,6.82,0,0,0,0,7.15,3.49,3.49,0,0,0,2.87,1.24,3.56,3.56,0,0,0,2.89-1.24" transform="translate(-52.29 -240.31)"/><path class="a" d="M255.85,338.61a.76.76,0,0,1,.2.56v10.66a.71.71,0,0,1-.65.76h-.1a.69.69,0,0,1-.51-.21.73.73,0,0,1-.19-.56v-1.49A3.9,3.9,0,0,1,253,350a4.72,4.72,0,0,1-2.35.59,4.08,4.08,0,0,1-3.14-1.16,4.92,4.92,0,0,1-1.06-3.42v-6.89a.72.72,0,0,1,.67-.76h.08a.72.72,0,0,1,.54.21.76.76,0,0,1,.2.56V346a3.85,3.85,0,0,0,.69,2.55,2.7,2.7,0,0,0,2.17.81,3.57,3.57,0,0,0,2.73-1.07,4,4,0,0,0,1-2.89v-6.18a.75.75,0,0,1,.19-.56.69.69,0,0,1,.54-.21.73.73,0,0,1,.56.21" transform="translate(-52.29 -240.31)"/><path class="a" d="M266.08,338.52a.56.56,0,0,1,.19.49c0,.4-.24.63-.72.68l-.73.07a3.56,3.56,0,0,0-2.56,1.24,3.91,3.91,0,0,0-.84,2.52v6.31a.78.78,0,0,1-.2.56.74.74,0,0,1-.53.19.71.71,0,0,1-.56-.19.73.73,0,0,1-.21-.56V339.16a.73.73,0,0,1,.21-.56.71.71,0,0,1,.56-.19.69.69,0,0,1,.51.19.76.76,0,0,1,.19.54v1.58a4.08,4.08,0,0,1,3.69-2.29l.34,0a1.07,1.07,0,0,1,.66.12" transform="translate(-52.29 -240.31)"/><path class="a" d="M268.13,335.35a1,1,0,0,1-.3-.75,1,1,0,0,1,.3-.79,1.24,1.24,0,0,1,1.58,0,1.05,1.05,0,0,1,.31.79,1,1,0,0,1-.31.75,1.21,1.21,0,0,1-1.58,0m.25,15a.74.74,0,0,1-.21-.56V339.16a.73.73,0,0,1,.21-.56.76.76,0,0,1,.56-.2.69.69,0,0,1,.53.2.76.76,0,0,1,.2.56v10.66a.76.76,0,0,1-.2.56.71.71,0,0,1-.53.2.76.76,0,0,1-.56-.2" transform="translate(-52.29 -240.31)"/><path class="a" d="M279.71,338.52a.56.56,0,0,1,.19.49c0,.4-.24.63-.73.68l-.73.07a3.56,3.56,0,0,0-2.56,1.24,4,4,0,0,0-.84,2.52v6.31a.81.81,0,0,1-.19.56.76.76,0,0,1-.54.19.73.73,0,0,1-.56-.19.77.77,0,0,1-.21-.56V339.16a.69.69,0,0,1,.77-.75.68.68,0,0,1,.51.19.73.73,0,0,1,.2.54v1.58a4.07,4.07,0,0,1,3.69-2.29l.33,0a1.07,1.07,0,0,1,.66.12" transform="translate(-52.29 -240.31)"/><path class="a" d="M291,348.1a.67.67,0,0,1,.16.42q0,.54-.84,1.05a7,7,0,0,1-3.69,1.05,5.56,5.56,0,0,1-4.25-1.63,6.24,6.24,0,0,1-1.56-4.48,7.29,7.29,0,0,1,.69-3.22,5.18,5.18,0,0,1,1.95-2.17,5.39,5.39,0,0,1,2.88-.77,4.57,4.57,0,0,1,3.6,1.47,5.88,5.88,0,0,1,1.33,4.06,1,1,0,0,1-.2.64.81.81,0,0,1-.63.21h-8.08a5.05,5.05,0,0,0,1.16,3.41,4,4,0,0,0,3.08,1.17,4.73,4.73,0,0,0,1.75-.28,12.41,12.41,0,0,0,1.51-.74,1.61,1.61,0,0,1,.75-.37.51.51,0,0,1,.38.18m-7.38-7.46a4.88,4.88,0,0,0-1.21,3h7.5a4.62,4.62,0,0,0-1-3,3.31,3.31,0,0,0-2.6-1.06,3.6,3.6,0,0,0-2.72,1.08" transform="translate(-52.29 -240.31)"/><path class="a" d="M309.86,348.1a.66.66,0,0,1,.15.42q0,.54-.84,1.05a7,7,0,0,1-3.69,1.05,5.58,5.58,0,0,1-4.25-1.63,6.19,6.19,0,0,1-1.55-4.48,7,7,0,0,1,.69-3.22,5.16,5.16,0,0,1,1.94-2.17,5.42,5.42,0,0,1,2.88-.77,4.61,4.61,0,0,1,3.61,1.47,5.92,5.92,0,0,1,1.32,4.06.88.88,0,0,1-.2.64.81.81,0,0,1-.63.21h-8.08a5.05,5.05,0,0,0,1.16,3.41,4,4,0,0,0,3.08,1.17,4.73,4.73,0,0,0,1.75-.28,12.41,12.41,0,0,0,1.51-.74,1.61,1.61,0,0,1,.75-.37.47.47,0,0,1,.37.18m-7.37-7.46a4.88,4.88,0,0,0-1.21,3h7.5a4.62,4.62,0,0,0-1-3,3.31,3.31,0,0,0-2.6-1.06,3.6,3.6,0,0,0-2.72,1.08" transform="translate(-52.29 -240.31)"/><path class="a" d="M323,342.93v6.89a.78.78,0,0,1-.2.56.72.72,0,0,1-.54.21.71.71,0,0,1-.75-.67h0V343a3.8,3.8,0,0,0-.7-2.55,2.82,2.82,0,0,0-2.24-.81,3.78,3.78,0,0,0-2.8,1.07,3.94,3.94,0,0,0-1.06,2.88v6.21a.81.81,0,0,1-.19.56.72.72,0,0,1-.54.21.71.71,0,0,1-.75-.67V339.18a.72.72,0,0,1,.67-.76H314a.65.65,0,0,1,.51.2.69.69,0,0,1,.2.53v1.54a4,4,0,0,1,1.61-1.72,4.84,4.84,0,0,1,2.44-.59q4.26,0,4.26,4.57" transform="translate(-52.29 -240.31)"/><path class="a" d="M341.25,339.1a5.1,5.1,0,0,1,1.84,2.17,7.56,7.56,0,0,1,.65,3.25,7.2,7.2,0,0,1-.65,3.2,4.9,4.9,0,0,1-4.59,2.89A4.79,4.79,0,0,1,336,350a3.92,3.92,0,0,1-1.58-1.81v6a.74.74,0,0,1-.19.56.77.77,0,0,1-1.09,0,.91.91,0,0,1-.2-.42V339.16a.71.71,0,0,1,.67-.75.14.14,0,0,1,.09,0,.69.69,0,0,1,.53.2.74.74,0,0,1,.19.56v1.64A4,4,0,0,1,336,339a4.69,4.69,0,0,1,2.48-.61,4.91,4.91,0,0,1,2.74.76m-.05,8.94a5.39,5.39,0,0,0,1-3.52,5.65,5.65,0,0,0-1-3.6,3.87,3.87,0,0,0-5.74,0,6.91,6.91,0,0,0,0,7.15,3.42,3.42,0,0,0,2.85,1.25,3.54,3.54,0,0,0,2.9-1.25" transform="translate(-52.29 -240.31)"/><path class="a" d="M347.09,350.38a.77.77,0,0,1-.21-.56V333.91a.78.78,0,0,1,.21-.56.81.81,0,0,1,.56-.19.72.72,0,0,1,.52.19.74.74,0,0,1,.21.56v15.91a.69.69,0,0,1-.62.75h-.11a.81.81,0,0,1-.56-.19" transform="translate(-52.29 -240.31)"/><path class="a" d="M361.62,338.61a.77.77,0,0,1,.21.56v10.66a.72.72,0,0,1-.66.76h-.1a.71.71,0,0,1-.51-.21.81.81,0,0,1-.19-.56v-1.49a3.84,3.84,0,0,1-1.59,1.7,4.68,4.68,0,0,1-2.34.59,4.08,4.08,0,0,1-3.15-1.16,4.92,4.92,0,0,1-1.06-3.42v-6.89a.72.72,0,0,1,.67-.76H353a.7.7,0,0,1,.53.21.71.71,0,0,1,.19.56V346a3.91,3.91,0,0,0,.7,2.55,2.7,2.7,0,0,0,2.17.81,3.57,3.57,0,0,0,2.73-1.07,4,4,0,0,0,1-2.89v-6.18a.71.71,0,0,1,.19-.56.69.69,0,0,1,.54-.21.74.74,0,0,1,.56.21" transform="translate(-52.29 -240.31)"/><path class="a" d="M367.51,350.34a6,6,0,0,1-1.73-.77,2.88,2.88,0,0,1-.65-.56.86.86,0,0,1-.18-.52.57.57,0,0,1,.16-.41.48.48,0,0,1,.37-.17,1.67,1.67,0,0,1,.76.36,7.93,7.93,0,0,0,1.44.76,5.35,5.35,0,0,0,1.86.28,4.08,4.08,0,0,0,2.24-.53,1.69,1.69,0,0,0,.8-1.5,1.5,1.5,0,0,0-.28-1,2.28,2.28,0,0,0-1-.65,11,11,0,0,0-1.94-.56,7.45,7.45,0,0,1-3.08-1.26,2.56,2.56,0,0,1-.92-2.06,3.09,3.09,0,0,1,1.22-2.52,5,5,0,0,1,3.16-1,6.92,6.92,0,0,1,1.81.24,4.87,4.87,0,0,1,1.49.71c.56.39.84.77.84,1.15a.61.61,0,0,1-.16.42.46.46,0,0,1-.37.18,1.47,1.47,0,0,1-.75-.39,8.37,8.37,0,0,0-1.3-.74,4.2,4.2,0,0,0-1.64-.28,3.28,3.28,0,0,0-2,.56,1.85,1.85,0,0,0-.75,1.55,1.66,1.66,0,0,0,.25.92,2.11,2.11,0,0,0,.88.65,10,10,0,0,0,1.78.56,13,13,0,0,1,2.58.84,3.11,3.11,0,0,1,1.29,1,2.87,2.87,0,0,1,.38,1.56,2.81,2.81,0,0,1-1.25,2.4,5.48,5.48,0,0,1-3.31.91,7.1,7.1,0,0,1-2-.28" transform="translate(-52.29 -240.31)"/><path class="a" d="M428.87,290.77a10.47,10.47,0,1,0-10.44-10.5v0a10.47,10.47,0,0,0,10.44,10.47" transform="translate(-52.29 -240.31)"/><path class="a" d="M476,298.17a10.45,10.45,0,0,0-10.45,10.45v9.46a13.11,13.11,0,0,1-26.22,0v-9.48a10.45,10.45,0,1,0-20.89,0h0v9.44a34,34,0,0,0,68,.46v-9.9A10.46,10.46,0,0,0,476,298.17" transform="translate(-52.29 -240.31)"/><path class="a" d="M532.53,269.83H514.71V252a10.45,10.45,0,0,0-20.89,0v17.87H476a10.47,10.47,0,1,0,0,20.93h17.84v17.87a10.45,10.45,0,0,0,20.89,0V290.78h17.82a10.47,10.47,0,0,0,0-20.94" transform="translate(-52.29 -240.31)"/><path class="a" d="M84.74,262.78a18,18,0,0,1,3.79,12.5v23.45a3.35,3.35,0,0,1-.94,2.55,3.5,3.5,0,0,1-2.51.91,3.58,3.58,0,0,1-2.59-.91,3.39,3.39,0,0,1-.95-2.55V275.45a12.63,12.63,0,0,0-2.28-8.31A9.11,9.11,0,0,0,72,264.46,12.28,12.28,0,0,0,62.74,268a13.19,13.19,0,0,0-3.46,9.61v21.11a3.15,3.15,0,0,1-2.8,3.46,3.53,3.53,0,0,1-.65,0,3.58,3.58,0,0,1-2.59-.91,3.34,3.34,0,0,1-1-2.55v-55a3.2,3.2,0,0,1,1-2.42,3.54,3.54,0,0,1,2.55-1,3.43,3.43,0,0,1,2.55.91,3.33,3.33,0,0,1,.9,2.46v22.68a14.07,14.07,0,0,1,5.79-5.8,17.48,17.48,0,0,1,8.45-2,14.33,14.33,0,0,1,11.21,4.2" transform="translate(-52.29 -240.31)"/><path class="a" d="M134.27,275.2v23.53a3.44,3.44,0,0,1-.91,2.52,3.22,3.22,0,0,1-2.46,1,3.27,3.27,0,0,1-3.45-3.07h0a2.54,2.54,0,0,1,0-.39v-4.16a12.32,12.32,0,0,1-5,5.76,14.7,14.7,0,0,1-7.76,2,16.92,16.92,0,0,1-7.47-1.64,13.33,13.33,0,0,1-5.39-4.59,11.4,11.4,0,0,1-2-6.49,10.58,10.58,0,0,1,2.42-7.4,14.72,14.72,0,0,1,7.94-3.81,79.14,79.14,0,0,1,15.37-1.17h1.89v-2.85a11.39,11.39,0,0,0-2.11-7.62,8.67,8.67,0,0,0-6.86-2.42,25.32,25.32,0,0,0-11.91,3.2,7.86,7.86,0,0,1-3.28,1.47,2.2,2.2,0,0,1-1.73-.78,2.88,2.88,0,0,1-.69-2,3.31,3.31,0,0,1,.73-2.12A8.42,8.42,0,0,1,104,262.3a27.69,27.69,0,0,1,6.86-2.73,30.25,30.25,0,0,1,7.63-1q15.79,0,15.8,16.61m-10.14,18.13a12.56,12.56,0,0,0,3.32-9v-2.52H125.9a77.18,77.18,0,0,0-11.57.65,11.28,11.28,0,0,0-5.65,2.16A5.71,5.71,0,0,0,107,289a7.18,7.18,0,0,0,2.46,5.58,8.87,8.87,0,0,0,6.16,2.2,11.18,11.18,0,0,0,8.5-3.5" transform="translate(-52.29 -240.31)"/><path class="a" d="M177.94,261.35a18.4,18.4,0,0,1,6.56,7.74,27.21,27.21,0,0,1,2.33,11.56,26.47,26.47,0,0,1-2.33,11.46,17.27,17.27,0,0,1-16.32,10.26,16.54,16.54,0,0,1-8.58-2.17,13.82,13.82,0,0,1-5.57-6.15v20.34a3.34,3.34,0,0,1-.91,2.46,3.43,3.43,0,0,1-2.55.91,3.51,3.51,0,0,1-2.59-.95,3.28,3.28,0,0,1-.94-2.43V262.21a3.38,3.38,0,0,1,.94-2.52,3.51,3.51,0,0,1,2.59-.95,3.39,3.39,0,0,1,2.55.95,3.51,3.51,0,0,1,.91,2.52v4.68a13.82,13.82,0,0,1,5.57-6.15,16.53,16.53,0,0,1,8.58-2.16,17.33,17.33,0,0,1,9.75,2.76m-1.63,31.07a18.23,18.23,0,0,0,3.36-11.76,18.8,18.8,0,0,0-3.36-11.9,12.74,12.74,0,0,0-18-1.07,12.15,12.15,0,0,0-1,.94,22.9,22.9,0,0,0,0,23.75,11.35,11.35,0,0,0,9.45,4.2,11.54,11.54,0,0,0,9.5-4.14" transform="translate(-52.29 -240.31)"/><path class="a" d="M228.17,261.35a18.31,18.31,0,0,1,6.55,7.74,26.91,26.91,0,0,1,2.33,11.56,26.19,26.19,0,0,1-2.33,11.46,17.24,17.24,0,0,1-16.31,10.26,16.6,16.6,0,0,1-8.59-2.17,13.8,13.8,0,0,1-5.56-6.15v20.34a3.38,3.38,0,0,1-.91,2.46,3.43,3.43,0,0,1-2.55.91,3.51,3.51,0,0,1-2.59-.95,3.33,3.33,0,0,1-1-2.43V262.21a3.43,3.43,0,0,1,1-2.52,3.51,3.51,0,0,1,2.59-.95,3.39,3.39,0,0,1,2.55.95,3.55,3.55,0,0,1,.91,2.52v4.68a13.8,13.8,0,0,1,5.56-6.15,16.59,16.59,0,0,1,8.59-2.16,17.33,17.33,0,0,1,9.75,2.76m-1.63,31.09a18.36,18.36,0,0,0,3.36-11.77,18.79,18.79,0,0,0-3.36-11.89,12.73,12.73,0,0,0-18-1.07,10.65,10.65,0,0,0-1,.94,22.9,22.9,0,0,0,0,23.75,11.34,11.34,0,0,0,9.45,4.2,11.52,11.52,0,0,0,9.49-4.14" transform="translate(-52.29 -240.31)"/><path class="a" d="M280.29,258.84a3.53,3.53,0,0,1,2.33.86,2.82,2.82,0,0,1,.69,3.55l-24.25,52.44a3.3,3.3,0,0,1-1.25,1.47,3.14,3.14,0,0,1-1.68.52,3.39,3.39,0,0,1-2.28-.83,2.61,2.61,0,0,1-1-2.12,3.17,3.17,0,0,1,.35-1.38l6-13.06-17.08-37a2.61,2.61,0,0,1-.35-1.3,2.84,2.84,0,0,1,1.17-2.24,4,4,0,0,1,2.54-1,3.14,3.14,0,0,1,1.68.52,3.39,3.39,0,0,1,1.26,1.47l14.41,32.45,14.41-32.27a3.15,3.15,0,0,1,3-2.07" transform="translate(-52.29 -240.31)"/><path class="a" d="M314.73,299.42a2.5,2.5,0,0,1-1.08,2.21,5.05,5.05,0,0,1-3.24.56l-2.33-.17a14.63,14.63,0,0,1-10.18-4.15,15.93,15.93,0,0,1-3.28-11V265.16h-5.78a3.29,3.29,0,0,1-2.29-.74,2.47,2.47,0,0,1-.81-2,2.74,2.74,0,0,1,.81-2.08,3.2,3.2,0,0,1,2.29-.78h5.78v-9.76a3.34,3.34,0,0,1,.95-2.55,3.58,3.58,0,0,1,2.59-.91,3.47,3.47,0,0,1,2.51.91,3.38,3.38,0,0,1,.95,2.55v9.79h9.57a3,3,0,0,1,2.2.78,2.69,2.69,0,0,1,.82,2.07,2.42,2.42,0,0,1-.82,2,3.15,3.15,0,0,1-2.2.74h-9.57v22.07a9.94,9.94,0,0,0,1.94,6.88,8.32,8.32,0,0,0,5.82,2.38l2.33.17q3,.26,3,2.76" transform="translate(-52.29 -240.31)"/><path class="a" d="M354.6,275.2v23.53a3.44,3.44,0,0,1-.91,2.52,3.22,3.22,0,0,1-2.45,1,3.27,3.27,0,0,1-3.45-3.07h0a2.67,2.67,0,0,1,0-.4v-4.15a12.38,12.38,0,0,1-5,5.76,14.71,14.71,0,0,1-7.77,2,17,17,0,0,1-7.47-1.64,13.39,13.39,0,0,1-5.39-4.59,11.31,11.31,0,0,1-2-6.49,10.52,10.52,0,0,1,2.41-7.4,14.75,14.75,0,0,1,7.94-3.81,79.2,79.2,0,0,1,15.37-1.17h1.9v-2.85a11.46,11.46,0,0,0-2.12-7.62,8.66,8.66,0,0,0-6.86-2.42,25.38,25.38,0,0,0-11.91,3.2,7.75,7.75,0,0,1-3.28,1.47,2.2,2.2,0,0,1-1.72-.78,2.84,2.84,0,0,1-.69-2,3.31,3.31,0,0,1,.73-2.12,8.42,8.42,0,0,1,2.38-1.86,27.69,27.69,0,0,1,6.86-2.73,30.25,30.25,0,0,1,7.63-1q15.79,0,15.8,16.61m-10.14,18.13a12.56,12.56,0,0,0,3.32-9v-2.52h-1.55a77.18,77.18,0,0,0-11.57.65,11.28,11.28,0,0,0-5.65,2.16,5.71,5.71,0,0,0-1.68,4.46,7.18,7.18,0,0,0,2.46,5.58,8.87,8.87,0,0,0,6.16,2.2,11.16,11.16,0,0,0,8.5-3.5" transform="translate(-52.29 -240.31)"/><path class="a" d="M368.37,301.29a3.31,3.31,0,0,1-1-2.55v-55a3.31,3.31,0,0,1,1-2.55,3.65,3.65,0,0,1,2.54-.91,3.53,3.53,0,0,1,2.46.91,3.27,3.27,0,0,1,1,2.55v55a3.24,3.24,0,0,1-1,2.55,3.48,3.48,0,0,1-2.46.91,3.6,3.6,0,0,1-2.54-.91" transform="translate(-52.29 -240.31)"/><path class="a" d="M197.58,350.38a.72.72,0,0,1-.2-.56V333.91a.74.74,0,0,1,.2-.56.83.83,0,0,1,.56-.19.68.68,0,0,1,.73.75v15.91a.69.69,0,0,1-.62.75h-.1a.8.8,0,0,1-.56-.19" transform="translate(-52.29 -240.31)"/><path class="a" d="M212.18,348.1a.67.67,0,0,1,.16.42q0,.54-.84,1.05a7,7,0,0,1-3.69,1.05,5.56,5.56,0,0,1-4.25-1.63,6.24,6.24,0,0,1-1.56-4.48,7.29,7.29,0,0,1,.69-3.22,5.12,5.12,0,0,1,1.95-2.17,5.39,5.39,0,0,1,2.88-.77,4.57,4.57,0,0,1,3.6,1.47,5.82,5.82,0,0,1,1.32,4.06.92.92,0,0,1-.19.64.81.81,0,0,1-.63.21h-8.09a5.1,5.1,0,0,0,1.16,3.41,4,4,0,0,0,3.08,1.17,4.73,4.73,0,0,0,1.75-.28,12.41,12.41,0,0,0,1.51-.74,1.61,1.61,0,0,1,.75-.37.51.51,0,0,1,.38.18m-7.38-7.46a4.88,4.88,0,0,0-1.21,3h7.5a4.62,4.62,0,0,0-1-3,3.31,3.31,0,0,0-2.6-1.06,3.6,3.6,0,0,0-2.72,1.08" transform="translate(-52.29 -240.31)"/><path class="a" d="M223.47,350.34a6,6,0,0,1-1.74-.77,2.83,2.83,0,0,1-.64-.56.8.8,0,0,1-.18-.52.56.56,0,0,1,.15-.41.5.5,0,0,1,.38-.17,1.69,1.69,0,0,1,.75.36,7.7,7.7,0,0,0,1.45.76,5.26,5.26,0,0,0,1.85.28,4.08,4.08,0,0,0,2.24-.53,1.67,1.67,0,0,0,.8-1.5,1.5,1.5,0,0,0-.28-1,2.22,2.22,0,0,0-1-.65,11,11,0,0,0-1.94-.56,7.51,7.51,0,0,1-3.08-1.26,2.52,2.52,0,0,1-.91-2.06,3.05,3.05,0,0,1,1.21-2.52,5,5,0,0,1,3.16-1,6.92,6.92,0,0,1,1.81.24,4.87,4.87,0,0,1,1.49.71c.56.39.84.77.84,1.15a.6.6,0,0,1-.15.42.46.46,0,0,1-.38.18,1.47,1.47,0,0,1-.75-.39,7.93,7.93,0,0,0-1.3-.74,4.17,4.17,0,0,0-1.64-.28,3.27,3.27,0,0,0-2,.56,1.86,1.86,0,0,0-.76,1.55,1.59,1.59,0,0,0,.26.92,2.15,2.15,0,0,0,.87.65,10.05,10.05,0,0,0,1.79.56,12.27,12.27,0,0,1,2.57.84,2.81,2.81,0,0,1,.43,5,5.49,5.49,0,0,1-3.32.91,7,7,0,0,1-2-.28" transform="translate(-52.29 -240.31)"/><path class="a" d="M235.11,349.87a5,5,0,0,1-1.91-2.15,8,8,0,0,1,0-6.48,5.06,5.06,0,0,1,1.91-2.14,5.72,5.72,0,0,1,5.69,0,5,5,0,0,1,1.91,2.14,8.2,8.2,0,0,1,0,6.48,5,5,0,0,1-1.91,2.15,5.77,5.77,0,0,1-5.69,0m5.71-1.8a6.73,6.73,0,0,0,0-7.15,3.83,3.83,0,0,0-5.42-.28h0a3.83,3.83,0,0,0-.29.28,6.82,6.82,0,0,0,0,7.15,3.49,3.49,0,0,0,2.87,1.24,3.56,3.56,0,0,0,2.89-1.24" transform="translate(-52.29 -240.31)"/><path class="a" d="M255.85,338.61a.76.76,0,0,1,.2.56v10.66a.71.71,0,0,1-.65.76h-.1a.69.69,0,0,1-.51-.21.73.73,0,0,1-.19-.56v-1.49A3.9,3.9,0,0,1,253,350a4.72,4.72,0,0,1-2.35.59,4.08,4.08,0,0,1-3.14-1.16,4.92,4.92,0,0,1-1.06-3.42v-6.89a.72.72,0,0,1,.67-.76h.08a.72.72,0,0,1,.54.21.76.76,0,0,1,.2.56V346a3.85,3.85,0,0,0,.69,2.55,2.7,2.7,0,0,0,2.17.81,3.57,3.57,0,0,0,2.73-1.07,4,4,0,0,0,1-2.89v-6.18a.75.75,0,0,1,.19-.56.69.69,0,0,1,.54-.21.73.73,0,0,1,.56.21" transform="translate(-52.29 -240.31)"/><path class="a" d="M266.08,338.52a.56.56,0,0,1,.19.49c0,.4-.24.63-.72.68l-.73.07a3.56,3.56,0,0,0-2.56,1.24,3.91,3.91,0,0,0-.84,2.52v6.31a.78.78,0,0,1-.2.56.74.74,0,0,1-.53.19.71.71,0,0,1-.56-.19.73.73,0,0,1-.21-.56V339.16a.73.73,0,0,1,.21-.56.71.71,0,0,1,.56-.19.69.69,0,0,1,.51.19.76.76,0,0,1,.19.54v1.58a4.08,4.08,0,0,1,3.69-2.29l.34,0a1.07,1.07,0,0,1,.66.12" transform="translate(-52.29 -240.31)"/><path class="a" d="M268.13,335.35a1,1,0,0,1-.3-.75,1,1,0,0,1,.3-.79,1.24,1.24,0,0,1,1.58,0,1.05,1.05,0,0,1,.31.79,1,1,0,0,1-.31.75,1.21,1.21,0,0,1-1.58,0m.25,15a.74.74,0,0,1-.21-.56V339.16a.73.73,0,0,1,.21-.56.76.76,0,0,1,.56-.2.69.69,0,0,1,.53.2.76.76,0,0,1,.2.56v10.66a.76.76,0,0,1-.2.56.71.71,0,0,1-.53.2.76.76,0,0,1-.56-.2" transform="translate(-52.29 -240.31)"/><path class="a" d="M279.71,338.52a.56.56,0,0,1,.19.49c0,.4-.24.63-.73.68l-.73.07a3.56,3.56,0,0,0-2.56,1.24,4,4,0,0,0-.84,2.52v6.31a.81.81,0,0,1-.19.56.76.76,0,0,1-.54.19.73.73,0,0,1-.56-.19.77.77,0,0,1-.21-.56V339.16a.69.69,0,0,1,.77-.75.68.68,0,0,1,.51.19.73.73,0,0,1,.2.54v1.58a4.07,4.07,0,0,1,3.69-2.29l.33,0a1.07,1.07,0,0,1,.66.12" transform="translate(-52.29 -240.31)"/><path class="a" d="M291,348.1a.67.67,0,0,1,.16.42q0,.54-.84,1.05a7,7,0,0,1-3.69,1.05,5.56,5.56,0,0,1-4.25-1.63,6.24,6.24,0,0,1-1.56-4.48,7.29,7.29,0,0,1,.69-3.22,5.18,5.18,0,0,1,1.95-2.17,5.39,5.39,0,0,1,2.88-.77,4.57,4.57,0,0,1,3.6,1.47,5.88,5.88,0,0,1,1.33,4.06,1,1,0,0,1-.2.64.81.81,0,0,1-.63.21h-8.08a5.05,5.05,0,0,0,1.16,3.41,4,4,0,0,0,3.08,1.17,4.73,4.73,0,0,0,1.75-.28,12.41,12.41,0,0,0,1.51-.74,1.61,1.61,0,0,1,.75-.37.51.51,0,0,1,.38.18m-7.38-7.46a4.88,4.88,0,0,0-1.21,3h7.5a4.62,4.62,0,0,0-1-3,3.31,3.31,0,0,0-2.6-1.06,3.6,3.6,0,0,0-2.72,1.08" transform="translate(-52.29 -240.31)"/><path class="a" d="M309.86,348.1a.66.66,0,0,1,.15.42q0,.54-.84,1.05a7,7,0,0,1-3.69,1.05,5.58,5.58,0,0,1-4.25-1.63,6.19,6.19,0,0,1-1.55-4.48,7,7,0,0,1,.69-3.22,5.16,5.16,0,0,1,1.94-2.17,5.42,5.42,0,0,1,2.88-.77,4.61,4.61,0,0,1,3.61,1.47,5.92,5.92,0,0,1,1.32,4.06.88.88,0,0,1-.2.64.81.81,0,0,1-.63.21h-8.08a5.05,5.05,0,0,0,1.16,3.41,4,4,0,0,0,3.08,1.17,4.73,4.73,0,0,0,1.75-.28,12.41,12.41,0,0,0,1.51-.74,1.61,1.61,0,0,1,.75-.37.47.47,0,0,1,.37.18m-7.37-7.46a4.88,4.88,0,0,0-1.21,3h7.5a4.62,4.62,0,0,0-1-3,3.31,3.31,0,0,0-2.6-1.06,3.6,3.6,0,0,0-2.72,1.08" transform="translate(-52.29 -240.31)"/><path class="a" d="M323,342.93v6.89a.78.78,0,0,1-.2.56.72.72,0,0,1-.54.21.71.71,0,0,1-.75-.67h0V343a3.8,3.8,0,0,0-.7-2.55,2.82,2.82,0,0,0-2.24-.81,3.78,3.78,0,0,0-2.8,1.07,3.94,3.94,0,0,0-1.06,2.88v6.21a.81.81,0,0,1-.19.56.72.72,0,0,1-.54.21.71.71,0,0,1-.75-.67V339.18a.72.72,0,0,1,.67-.76H314a.65.65,0,0,1,.51.2.69.69,0,0,1,.2.53v1.54a4,4,0,0,1,1.61-1.72,4.84,4.84,0,0,1,2.44-.59q4.26,0,4.26,4.57" transform="translate(-52.29 -240.31)"/><path class="a" d="M341.25,339.1a5.1,5.1,0,0,1,1.84,2.17,7.56,7.56,0,0,1,.65,3.25,7.2,7.2,0,0,1-.65,3.2,4.9,4.9,0,0,1-4.59,2.89A4.79,4.79,0,0,1,336,350a3.92,3.92,0,0,1-1.58-1.81v6a.74.74,0,0,1-.19.56.77.77,0,0,1-1.09,0,.91.91,0,0,1-.2-.42V339.16a.71.71,0,0,1,.67-.75.14.14,0,0,1,.09,0,.69.69,0,0,1,.53.2.74.74,0,0,1,.19.56v1.64A4,4,0,0,1,336,339a4.69,4.69,0,0,1,2.48-.61,4.91,4.91,0,0,1,2.74.76m-.05,8.94a5.39,5.39,0,0,0,1-3.52,5.65,5.65,0,0,0-1-3.6,3.87,3.87,0,0,0-5.74,0,6.91,6.91,0,0,0,0,7.15,3.42,3.42,0,0,0,2.85,1.25,3.54,3.54,0,0,0,2.9-1.25" transform="translate(-52.29 -240.31)"/><path class="a" d="M347.09,350.38a.77.77,0,0,1-.21-.56V333.91a.78.78,0,0,1,.21-.56.81.81,0,0,1,.56-.19.72.72,0,0,1,.52.19.74.74,0,0,1,.21.56v15.91a.69.69,0,0,1-.62.75h-.11a.81.81,0,0,1-.56-.19" transform="translate(-52.29 -240.31)"/><path class="a" d="M361.62,338.61a.77.77,0,0,1,.21.56v10.66a.72.72,0,0,1-.66.76h-.1a.71.71,0,0,1-.51-.21.81.81,0,0,1-.19-.56v-1.49a3.84,3.84,0,0,1-1.59,1.7,4.68,4.68,0,0,1-2.34.59,4.08,4.08,0,0,1-3.15-1.16,4.92,4.92,0,0,1-1.06-3.42v-6.89a.72.72,0,0,1,.67-.76H353a.7.7,0,0,1,.53.21.71.71,0,0,1,.19.56V346a3.91,3.91,0,0,0,.7,2.55,2.7,2.7,0,0,0,2.17.81,3.57,3.57,0,0,0,2.73-1.07,4,4,0,0,0,1-2.89v-6.18a.71.71,0,0,1,.19-.56.69.69,0,0,1,.54-.21.74.74,0,0,1,.56.21" transform="translate(-52.29 -240.31)"/><path class="a" d="M367.51,350.34a6,6,0,0,1-1.73-.77,2.88,2.88,0,0,1-.65-.56.86.86,0,0,1-.18-.52.57.57,0,0,1,.16-.41.48.48,0,0,1,.37-.17,1.67,1.67,0,0,1,.76.36,7.93,7.93,0,0,0,1.44.76,5.35,5.35,0,0,0,1.86.28,4.08,4.08,0,0,0,2.24-.53,1.69,1.69,0,0,0,.8-1.5,1.5,1.5,0,0,0-.28-1,2.28,2.28,0,0,0-1-.65,11,11,0,0,0-1.94-.56,7.45,7.45,0,0,1-3.08-1.26,2.56,2.56,0,0,1-.92-2.06,3.09,3.09,0,0,1,1.22-2.52,5,5,0,0,1,3.16-1,6.92,6.92,0,0,1,1.81.24,4.87,4.87,0,0,1,1.49.71c.56.39.84.77.84,1.15a.61.61,0,0,1-.16.42.46.46,0,0,1-.37.18,1.47,1.47,0,0,1-.75-.39,8.37,8.37,0,0,0-1.3-.74,4.2,4.2,0,0,0-1.64-.28,3.28,3.28,0,0,0-2,.56,1.85,1.85,0,0,0-.75,1.55,1.66,1.66,0,0,0,.25.92,2.11,2.11,0,0,0,.88.65,10,10,0,0,0,1.78.56,13,13,0,0,1,2.58.84,3.11,3.11,0,0,1,1.29,1,2.87,2.87,0,0,1,.38,1.56,2.81,2.81,0,0,1-1.25,2.4,5.48,5.48,0,0,1-3.31.91,7.1,7.1,0,0,1-2-.28" transform="translate(-52.29 -240.31)"/></svg>