<svg xmlns="http://www.w3.org/2000/svg" viewBox="0 0 197.67 241.92"><defs><style>.a,.b{fill:none;stroke:#2e2e2d;stroke-linecap:round;stroke-width:8px;}.a{stroke-linejoin:round;}.b{stroke-miterlimit:10;}</style></defs><path class="a" d="M52.56,37l5,10.09,11.14,1.62-8.06,7.86,1.91,11.09-10-5.24-10,5.24,1.9-11.09-8.06-7.86,11.14-1.62Z"/><path class="a" d="M146.57,37l5,10.09,11.14,1.62-8.06,7.86,1.91,11.09-10-5.24-10,5.24,1.9-11.09-8.06-7.86,11.14-1.62Z"/><path class="a" d="M100.06,37l5,10.09,11.15,1.62-8.07,7.86L110,67.68l-10-5.24-10,5.24L92,56.59l-8.07-7.86,11.14-1.62Z"/><rect class="a" x="4" y="4" width="189.67" height="233.92"/><rect class="a" x="52.45" y="102.57" width="92.77" height="135.35"/><line class="b" x1="98.83" y1="102.57" x2="98.83" y2="237.91"/></svg>