<svg xmlns="http://www.w3.org/2000/svg" viewBox="0 0 453.07 165.5"><path d="M443.18,288.48H412.53c-.41-1.62-.35-1.74,1.09-2.23,1.78-.61,3.55-1.28,5.36-1.82a1.45,1.45,0,0,0,1.19-1.65q0-20.61.16-41.24c0-4.86,0-9.73,0-14.6v-1.21l-.33-.06-25.84,62.88c-1.32,0-2.58-.06-3.84,0a1.37,1.37,0,0,1-1.58-1.08q-7.89-20-15.84-40-4-10.11-8-20.23a6.67,6.67,0,0,0-.65-1.41c0,.33-.07.69-.07,1q0,26.54,0,53.07c0,1.12.13,2.24.14,3.35a1.06,1.06,0,0,0,.89,1.14c1.84.56,3.66,1.2,5.49,1.8,1.44.48,1.49.58,1.09,2.23H353.5c-.31-1.15-.24-2,1.1-2.33s2.66-1,4-1.51a1.43,1.43,0,0,0,1.16-1.54c0-1.42.14-2.85.14-4.28q0-26.82,0-53.65a23.16,23.16,0,0,0-.19-3.33,1.7,1.7,0,0,0-.83-1.14c-1.36-.63-2.79-1.13-4.18-1.69s-1.53-.61-1.16-2.37c.36,0,.74,0,1.12,0,7.41,0,14.83,0,22.24,0a1.51,1.51,0,0,1,1.67,1.19Q388,242.4,397.62,267c.13.33.29.69.53,1.23.28-.59.49-1,.66-1.38q10.2-24.57,20.36-49.14a1.54,1.54,0,0,1,1.67-1.16c7.07,0,14.13,0,21.2,0,.38,0,.76,0,1.12.06.36,1.76.35,1.78-1.16,2.37s-3.18,1.19-4.73,1.87a1.5,1.5,0,0,0-.75,1.06c-.14,1.73-.21,3.47-.21,5.2q0,26.47,0,53c0,3.89,0,3.89,3.58,5.26a16.68,16.68,0,0,0,2.17.82C443.41,286.47,443.49,287.32,443.18,288.48Z" transform="translate(-71.1 -214.89)"/><path d="M81.74,223.09v54.74c0,1.85.07,3.71.21,5.55a1.5,1.5,0,0,0,.78,1.05,38.17,38.17,0,0,0,4.54,1.72c1.29.37,1.66,1,1.23,2.33H71.34c-.4-1.63-.35-1.71,1.08-2.26s2.78-1.14,4.21-1.61A1.49,1.49,0,0,0,77.77,283c0-2.19.1-4.4.11-6.6V228.55c0-2.09-.09-4.17-.11-6.25a1.58,1.58,0,0,0-1.22-1.79c-1.58-.49-3.08-1.22-4.66-1.76-.89-.3-.86-1-.69-1.57.08-.29.71-.59,1.09-.59,7.95,0,15.91,0,23.86-.05a2,2,0,0,1,1.71.92q16.38,20.86,32.77,41.72c1,1.27,2,2.54,3.15,4a6.59,6.59,0,0,0,.16-1l-.09-39.63a2,2,0,0,0-1.52-2.2c-1.14-.33-2.19-1-3.33-1.31s-1.67-1.07-1.24-2.38h16.32c.47,1.57.39,1.74-1,2.33-1.21.5-2.39,1.09-3.63,1.5a1.55,1.55,0,0,0-1.16,1.72c0,2-.11,4-.11,6v60.29c-1.45,0-2.78,0-4.11,0-.3,0-.63-.39-.85-.67q-16.48-20.91-33-41.86l-17.48-22.2c-.19-.24-.4-.47-.6-.71Z" transform="translate(-71.1 -214.89)"/><path d="M223,269.86h2.78v18.59H166c-.33-1.16-.17-1.91,1.14-2.29,1.59-.46,3.09-1.2,4.67-1.74a1.36,1.36,0,0,0,1-1.44c0-2.12.11-4.25.11-6.37v-48.2c0-2-.09-4.1-.11-6.14a1.42,1.42,0,0,0-1.07-1.54c-1.53-.52-3-1.16-4.53-1.74s-1.52-.58-1.21-2.37c.39,0,.8-.05,1.22-.05q27.65,0,55.28,0c1.2,0,1.48.33,1.47,1.5,0,5.09,0,10.19.05,15.29v1.41a21.27,21.27,0,0,1-2.26,0,1,1,0,0,1-.66-.6,18.89,18.89,0,0,0-18.3-14.54c-4.52-.33-9.09-.06-13.77-.06-.07,1-.19,1.91-.19,2.85,0,8.42,0,16.84-.08,25.26,0,1,.46,1.1,1.26,1.09q10.95,0,21.9,0h1.49v3.93H212c-7.26,0-14.52,0-21.78,0-1.11,0-1.44.29-1.43,1.42.06,8.8.05,17.61.08,26.42,0,1.5.07,3,.19,4.5,0,.28.39.75.6.75a87.2,87.2,0,0,0,16.63-.54,21.68,21.68,0,0,0,16.4-14.36C222.77,270.49,222.88,270.17,223,269.86Z" transform="translate(-71.1 -214.89)"/><path d="M524,288.48H495.62a1.72,1.72,0,0,1,.71-2.32,1.52,1.52,0,0,1,.42-.16,24.31,24.31,0,0,0,3.3-1.67,1.08,1.08,0,0,0,.39-.95q-2.67-7.81-5.48-15.6a1.42,1.42,0,0,0-1.07-.73q-10.2-.07-20.39,0a1.35,1.35,0,0,0-1,.66c-2.11,5.42-4.17,10.86-6.28,16.41,1.18.63,2.29,1.33,3.48,1.84a1.8,1.8,0,0,1,1.36,2.16,2,2,0,0,1-.12.37c-.28,0-.64.07-1,.07h-12.4c-.38,0-1-.23-1.08-.47-.15-.63-.26-1.36.67-1.72,1.18-.47,2.29-1.11,3.48-1.56a2.91,2.91,0,0,0,1.79-1.92q11-29.16,22-58.29c.9-2.38,1.83-4.75,2.68-7.14a1.15,1.15,0,0,1,1.27-.88c3.52-.09,3.48-.09,4.81,3.24,8.06,20.39,16.16,40.77,24.14,61.19a6.36,6.36,0,0,0,4.17,4.43c.48.14.9.47,1.37.62C524.07,286.43,524.42,287.22,524,288.48Zm-30.61-25.25-9.11-25.94-.26,0-9.83,26Z" transform="translate(-71.1 -214.89)"/><path d="M301.55,214.89a34.63,34.63,0,0,1,31.87,30,43.63,43.63,0,0,1-3,25.24,33.44,33.44,0,0,1-25.59,19.53c-.49.09-1,.16-1.48.23l-1.84.27c.84-.8,1.48-1.35,2.06-2a39.19,39.19,0,0,0,9.06-16.72,64.56,64.56,0,0,0,2.75-20.44,60.59,60.59,0,0,0-7.11-28A31.09,31.09,0,0,0,301.55,214.89Z" transform="translate(-71.1 -214.89)"/><path d="M283.33,290.17a34.63,34.63,0,0,1-31.87-30,43.63,43.63,0,0,1,3-25.24,33.44,33.44,0,0,1,25.59-19.53c.49-.09,1-.16,1.49-.23l1.83-.27c-.83.79-1.47,1.35-2.06,2a39,39,0,0,0-9.05,16.72A64.25,64.25,0,0,0,269.53,254a60.29,60.29,0,0,0,7.11,28A31.1,31.1,0,0,0,283.33,290.17Z" transform="translate(-71.1 -214.89)"/><path d="M209.85,305.57V327c-1.28,0-2.5,0-3.72,0-.26,0-.58-.33-.76-.59Q200.65,319.7,196,313a2.35,2.35,0,0,0-.33-.3V326.9h-4.16V305.5c1.27,0,2.49-.05,3.71,0a1.52,1.52,0,0,1,.93.7q4.59,6.52,9.13,13.09a1.79,1.79,0,0,1,.16.44l.24-.19v-14Z" transform="translate(-71.1 -214.89)"/><path d="M73.72,305.37c3.63.13,7.21.09,10.76.44a4.64,4.64,0,0,1,4.13,4.59,4.85,4.85,0,0,1-3.13,5.24c-.17.08-.33.18-.5.27.06.1.08.19.12.2,3,.77,4.45,2.43,4.4,5.09a5.28,5.28,0,0,1-4.78,5.49,66.11,66.11,0,0,1-7,.29c-1.31,0-2.61,0-4,0Zm4.4,18h3.44a7.24,7.24,0,0,0,1,0,2.51,2.51,0,0,0,2.42-2.6.37.37,0,0,0,0-.11A2.35,2.35,0,0,0,82.93,318l-.25,0c-1.48-.11-3,0-4.57,0Zm-.2-11.56H78a13.12,13.12,0,0,0,0,2.08c0,.3.43.78.68.78a22.42,22.42,0,0,0,3.57-.17,2.17,2.17,0,0,0,1.8-1.74,2.55,2.55,0,0,0-1.42-3.32,2.74,2.74,0,0,0-.74-.17,9.26,9.26,0,0,0-3.67.08c-.3.1-.25,1.62-.37,2.47Z" transform="translate(-71.1 -214.89)"/><path d="M455.66,316.32c-.16,1.22-.21,2.46-.48,3.66a9.32,9.32,0,0,1-10.89,7.45,3.43,3.43,0,0,1-.44-.09,8.91,8.91,0,0,1-8.15-8.66,22.88,22.88,0,0,1,.21-6,9.19,9.19,0,0,1,10.47-7.7l.67.13a9.3,9.3,0,0,1,8.48,9.65c0,.5,0,1,0,1.5Zm-4.42-.08A33.74,33.74,0,0,0,450,311.7a4.5,4.5,0,0,0-4.55-2.77,4.65,4.65,0,0,0-4.53,2.83,10.94,10.94,0,0,0,0,9.08,4.67,4.67,0,0,0,4.86,2.82,4.54,4.54,0,0,0,4.44-3.09,33.59,33.59,0,0,0,1-4.33Z" transform="translate(-71.1 -214.89)"/><path d="M490.66,316.32c-.14,1.18-.19,2.39-.44,3.55a9.33,9.33,0,0,1-10.8,7.58,5.78,5.78,0,0,1-.57-.12,8.88,8.88,0,0,1-8.14-8.66,22.46,22.46,0,0,1,.2-6A9.18,9.18,0,0,1,481.38,305a5.43,5.43,0,0,1,.68.13,9.29,9.29,0,0,1,8.47,9.66c0,.5,0,1,0,1.5Zm-4.39.08a38.5,38.5,0,0,0-1.19-4.61,4.51,4.51,0,0,0-4.48-2.87,4.64,4.64,0,0,0-4.6,2.73,10.85,10.85,0,0,0,0,9.39,4.55,4.55,0,0,0,4.53,2.61A4.42,4.42,0,0,0,485,321a37.47,37.47,0,0,0,1.25-4.56Z" transform="translate(-71.1 -214.89)"/><path d="M414.85,314.14v-8.56h4.27v21.35h-4.28v-9h-6.09c-3,0-3,0-3,2.94v6h-4.23V305.56h4.23v6.51c0,2.42-.26,2.05,2.11,2.07S412.41,314.14,414.85,314.14Z" transform="translate(-71.1 -214.89)"/><path d="M105.35,305.56h4.2v12.65a12.47,12.47,0,0,0,.12,1.73,4.23,4.23,0,0,0,4.39,4.05,4.28,4.28,0,0,0,1.88-.53,4,4,0,0,0,2.21-4.13c0-4.13,0-8.26,0-12.4v-1.35h4.3c0,.45.06.89.06,1.33v12.52a6.78,6.78,0,0,1-5.61,7.78,6.25,6.25,0,0,1-1.14.08,15.76,15.76,0,0,1-5.72-.42,5.69,5.69,0,0,1-4.66-5.52C105.23,316.12,105.35,310.88,105.35,305.56Z" transform="translate(-71.1 -214.89)"/><path d="M290.17,320.6c1.34,2.9,2.67,3.76,5.14,3.45a2.52,2.52,0,0,0,2.41-2,2.38,2.38,0,0,0-1.33-2.7c-.88-.47-1.83-.81-2.75-1.19s-1.75-.62-2.58-1a6.06,6.06,0,0,1-3.9-7,5.84,5.84,0,0,1,5.9-5.05,17.8,17.8,0,0,1,5.67.65,4.64,4.64,0,0,1,3.37,4c0,.28-.17.82-.38.88-1.17.33-2.38.57-3.64.85-.18-.42-.31-.77-.47-1.11a3.57,3.57,0,0,0-4.84-1.43l-.23.13a2.3,2.3,0,0,0-.46,3.23,2.23,2.23,0,0,0,.46.46,12.15,12.15,0,0,0,2.48,1.22c1.24.52,2.55.89,3.76,1.48a5.81,5.81,0,0,1,3.48,6.22,5.6,5.6,0,0,1-4.6,5.26,12.63,12.63,0,0,1-7.08-.05,5.93,5.93,0,0,1-4-3.86c-.25-.67-.22-1.07.53-1.33C288.12,321.43,289.12,321,290.17,320.6Z" transform="translate(-71.1 -214.89)"/><path d="M336.36,322.11l3.86-1.53c.17.4.33.78.5,1.14a4.32,4.32,0,0,0,5.49,2.13,2.35,2.35,0,0,0,1.51-3,2.37,2.37,0,0,0-.9-1.21,18.07,18.07,0,0,0-3.11-1.48,41.1,41.1,0,0,1-3.88-1.76,5.76,5.76,0,0,1-2.59-6.43,5.41,5.41,0,0,1,4.21-4.56,11.52,11.52,0,0,1,7.38.31,4.85,4.85,0,0,1,3.28,4.87c-1.13.27-2.27.58-3.44.78-.25,0-.71-.31-.83-.59a3.38,3.38,0,0,0-4.31-2.09l-.24.09a3.35,3.35,0,0,0-1.51,1.7,1.9,1.9,0,0,0,.83,2.33,16.76,16.76,0,0,0,2.49,1.2c1.17.49,2.39.86,3.54,1.39a6.17,6.17,0,0,1-1.3,11.66,12.75,12.75,0,0,1-6.63-.14A6,6,0,0,1,336.36,322.11Z" transform="translate(-71.1 -214.89)"/><path d="M267.85,311.56c-.83-2.38-2.17-3.25-4.26-2.91a2.36,2.36,0,0,0-1,4.36,19.09,19.09,0,0,0,2.3,1.05c1.25.51,2.56.89,3.75,1.49a5.86,5.86,0,0,1,3.34,6.72,5.51,5.51,0,0,1-4.46,4.73,12.49,12.49,0,0,1-7.19-.06,6,6,0,0,1-4.21-4.81l3.88-1.56c.18.41.31.8.49,1.17a4.36,4.36,0,0,0,5.72,2,2.37,2.37,0,0,0,1.17-3.14,2.42,2.42,0,0,0-.8-1,21.19,21.19,0,0,0-3.12-1.48,38.51,38.51,0,0,1-4-1.83A5.73,5.73,0,0,1,257,310a5.3,5.3,0,0,1,4-4.47,11.42,11.42,0,0,1,7.48.22,5.24,5.24,0,0,1,3.42,3.93c.14.59.09,1-.7,1.14C270.11,311,269,311.3,267.85,311.56Z" transform="translate(-71.1 -214.89)"/><path d="M137.2,322.11l3.87-1.52c1.26,2.86,2.66,3.8,5.17,3.46a2.45,2.45,0,0,0,2.36-2,2.35,2.35,0,0,0-1.36-2.66,26.76,26.76,0,0,0-2.75-1.18c-.82-.34-1.67-.6-2.47-1A6.13,6.13,0,0,1,138.1,310a5.85,5.85,0,0,1,5.89-4.79,17.2,17.2,0,0,1,5.66.67,4.62,4.62,0,0,1,3.33,4.82l-4,.91c-1.22-2.5-2.17-3.15-4.19-2.91a2.29,2.29,0,0,0-2.23,1.85,2.23,2.23,0,0,0,1.22,2.62c.92.49,1.92.8,2.87,1.22a25.47,25.47,0,0,1,4.07,1.89,6.16,6.16,0,0,1,1.23,8.62,7,7,0,0,1-.62.71,5.69,5.69,0,0,1-1.75,1.1,12.2,12.2,0,0,1-8.38.23A6,6,0,0,1,137.2,322.11Z" transform="translate(-71.1 -214.89)"/><path d="M241.55,323.3v3.59H227.64V305.58h13.9v3.71H232v5h8.37V318h-5.25c-3.21,0-3.21,0-3.21,3.16,0,2.18,0,2.18,2.24,2.18Z" transform="translate(-71.1 -214.89)"/><path d="M386,310.39l-4.11,2a5.17,5.17,0,0,1-.33-.7,4.88,4.88,0,0,0-8.3-.91,10.71,10.71,0,0,0-.36,10.66,5.44,5.44,0,0,0,8.46.39c.33-.38.59-.8,1-1.35l3.5,2.2a8.31,8.31,0,0,1-4.27,4,11.75,11.75,0,0,1-6.37.67,9,9,0,0,1-7.87-8.56,21,21,0,0,1,.3-6.42,9.55,9.55,0,0,1,11.39-7.21A8.18,8.18,0,0,1,386,310.39Z" transform="translate(-71.1 -214.89)"/><path d="M183.87,380c0-.42-.06-.76-.06-1.1,0-5.25,0-10.5,0-15.75,0-1,.29-1.21,1.24-1.26a2.27,2.27,0,0,1,2.55,1.54c1.46,3.17,3.09,6.26,4.72,9.52.36-.79.66-1.51,1-2.21q2-3.93,4-7.85a2.53,2.53,0,0,1,2.95-.87.91.91,0,0,1,.28.66q0,8.52,0,17a1,1,0,0,1-.11.29h-2.09V365.67c-.2.18-.34.24-.38.34-1.48,2.88-3,5.75-4.39,8.66a1.55,1.55,0,0,1-2.69,0c-1.52-3-3.08-5.92-4.67-9V380Z" transform="translate(-71.1 -214.89)"/><path d="M346.54,362.05v17.88a2.81,2.81,0,0,1-3.48-1.36c-2.69-4.28-5.56-8.45-8.36-12.66a.33.33,0,0,0-.33-.2v14.23h-2.19V362.1c1.64-.56,2.33-.36,3.23,1q4.26,6.48,8.51,13a3.31,3.31,0,0,0,.45.39c-.06-1.23-.15-2.28-.16-3.33,0-3.13,0-6.25,0-9.38C344.2,361.69,344.3,361.6,346.54,362.05Z" transform="translate(-71.1 -214.89)"/><path d="M506.91,305.56h4.27v1.33c0,5.05,0,10.11,0,15.17,0,1,.28,1.27,1.24,1.25,2.47-.06,4.93,0,7.52,0v3.62h-13Z" transform="translate(-71.1 -214.89)"/><path d="M286.05,371.34a33.17,33.17,0,0,1-.81,3.94,7.06,7.06,0,0,1-7.2,5.06,7.15,7.15,0,0,1-7.41-4.95,13.2,13.2,0,0,1-.06-8.73,7.83,7.83,0,0,1,15.05,1.22C285.82,368.89,285.88,369.93,286.05,371.34ZM283.7,371a35.74,35.74,0,0,0-1-4.33,4.68,4.68,0,0,0-4.65-3.16,4.75,4.75,0,0,0-4.86,3,11.18,11.18,0,0,0,0,8.77,5.22,5.22,0,0,0,9.42,0,31.64,31.64,0,0,0,1.05-4.32Z" transform="translate(-71.1 -214.89)"/><path d="M254.05,380h-2.3V361.78c2.82.12,5.65.06,8.41.43a4,4,0,0,1,3.5,4.36c.1,2.6-.89,3.93-3.83,4.92,2.34.62,2.7,2.45,3.14,4.28.33,1.41.8,2.79,1.22,4.22a.45.45,0,0,1-.19.05c-2.36.06-2.36.06-2.94-2.3l-.6-2.47c-.51-2.08-1.19-2.69-3.27-3-3.12-.42-3.14-.41-3.14,2.7Zm0-9.52a48,48,0,0,0,5-.31c1.5-.24,2.13-1.28,2.16-3s-.59-2.88-2.09-3.14a46.65,46.65,0,0,0-5-.33Z" transform="translate(-71.1 -214.89)"/><path d="M419.78,380h-2.33V361.92a35.08,35.08,0,0,1,8.92.4,4.23,4.23,0,0,1,3,4.75c-.06,2.31-1.16,3.63-3.9,4.37,2.71.74,2.82,3,3.37,4.92.33,1.22.71,2.42,1.07,3.64,0,0,0,0,0,0-2.52.18-2.52.18-3.13-2.33-.24-1-.44-1.95-.71-2.92a3.11,3.11,0,0,0-2.85-2.45c-3.45-.43-3.45-.47-3.45,2.95Zm.11-16.14v6.48c1.44.06,2.89.05,4.33,0a2.79,2.79,0,0,0,2.75-2.83c0-.13,0-.26,0-.39a2.82,2.82,0,0,0-2.44-3.18l-.32,0c-1.39-.13-2.81,0-4.29,0Z" transform="translate(-71.1 -214.89)"/><path d="M147.7,380c-2.52.05-2.46.54-3.15-2.42-.2-.86-.43-1.72-.63-2.58a3.17,3.17,0,0,0-3-2.7c-3.36-.41-3.35-.46-3.35,2.84V380h-2.2V361.75c2.84.16,5.7.1,8.48.52a4.09,4.09,0,0,1,3.42,4.58c0,2.31-1.14,3.75-4,4.66,2.66.57,2.82,2.63,3.33,4.47C146.92,377.3,147.31,378.62,147.7,380Zm-10.15-16.16c0,2.05,0,4,0,5.88a.86.86,0,0,0,.58.63,24.42,24.42,0,0,0,3.92-.05,2.9,2.9,0,0,0,2.74-3.08,3.62,3.62,0,0,0-2.94-3.36h-.09c-1.34-.09-2.68,0-4.24,0Z" transform="translate(-71.1 -214.89)"/><path d="M411.25,379.91l-.16.09c-2.25.2-2.24.19-3-1.91-.4-1.12-.56-2.61-1.37-3.22s-2.22-.19-3.37-.21-2.23,0-3.35,0a1.52,1.52,0,0,0-1,.76c-.61,1.49-1.12,3-1.67,4.56h-2.37c.33-.92.6-1.78.91-2.63,1.76-4.81,3.53-9.61,5.26-14.43.27-.75.59-1.12,1.47-1.08,2.63.11,2-.39,2.88,2,1.83,5,3.62,10,5.42,15C411,379.21,411.14,379.57,411.25,379.91Zm-5.09-7.23-3.08-9.33L400,372.68Z" transform="translate(-71.1 -214.89)"/><path d="M303.79,362H306c0,.42.09.78.09,1.15,0,3.59,0,7.18,0,10.77a5.83,5.83,0,0,1-5.18,6.43,5.45,5.45,0,0,1-1.07,0,10.09,10.09,0,0,1-2.63-.2,5.44,5.44,0,0,1-4.69-5.73c0-3.82,0-7.65,0-11.47,0-.95.42-1.05,1.19-1.05s1.2.13,1.19,1.07c-.05,3.35,0,6.71,0,10.07a11.13,11.13,0,0,0,.13,2.08,4.46,4.46,0,0,0,8.79-1.1c.05-3.55,0-7.1,0-10.66Z" transform="translate(-71.1 -214.89)"/><path d="M173.63,327h-4.17V305.58h4.17Z" transform="translate(-71.1 -214.89)"/><path d="M207.41,375.6l1.92-.33.28.67a4.15,4.15,0,0,0,5.32,2.47,4,4,0,0,0,.87-.44,2.82,2.82,0,0,0,.7-3.91,2.93,2.93,0,0,0-.37-.42,13.7,13.7,0,0,0-2.87-1.67c-1-.5-2.08-.83-3-1.38a4.86,4.86,0,0,1,2.13-9,16.15,16.15,0,0,1,2.2,0,4.67,4.67,0,0,1,4.71,4.61l-2.1.39c-.18-.49-.3-.93-.49-1.35a3.41,3.41,0,0,0-3.85-1.87,2.81,2.81,0,0,0-2.6,2.39,2.66,2.66,0,0,0,1.59,3c1.38.69,2.83,1.22,4.23,1.85a5.09,5.09,0,0,1,3.08,3.1,4.67,4.67,0,0,1-2.66,6,4.32,4.32,0,0,1-.89.24,13,13,0,0,1-4.89,0A4.14,4.14,0,0,1,207.41,375.6Z" transform="translate(-71.1 -214.89)"/><path d="M155.06,380V362a6,6,0,0,1,.85-.12c2.93,0,5.86,0,8.8,0,.81,0,1.07.25,1.07,1.06s-.34,1-1.05,1c-2.16,0-4.33,0-6.49,0-.74,0-1,.24-1,1,0,1.61,0,3.24,0,5h7.49V372c-2.13,0-4.2,0-6.27,0-1,0-1.29.27-1.24,1.23a34.77,34.77,0,0,1,0,3.82c0,.76.25,1,1,1,2,0,3.94,0,5.91,0,1.79,0,1.87.11,1.44,2Z" transform="translate(-71.1 -214.89)"/><path d="M446.43,375.6l1.92-.34c.14.39.24.71.37,1a4.26,4.26,0,0,0,5.72,1.87,3.87,3.87,0,0,0,.64-.41,2.89,2.89,0,0,0,.14-4.07,3.62,3.62,0,0,0-.42-.36,17.13,17.13,0,0,0-2.66-1.37c-.8-.38-1.67-.65-2.44-1.05a4.9,4.9,0,0,1,2.11-9.35c.54,0,1.08,0,1.61,0a4.74,4.74,0,0,1,4.85,4.62l-2.11.39c-.2-.52-.34-1-.55-1.44a3.62,3.62,0,0,0-4.37-1.68,2.84,2.84,0,0,0-2,3.33,3,3,0,0,0,2,2.24c1.43.66,2.94,1.17,4.33,1.89a4.81,4.81,0,0,1,2.56,6,4.17,4.17,0,0,1-2.35,2.7,8.46,8.46,0,0,1-6.64.17A4.11,4.11,0,0,1,446.43,375.6Z" transform="translate(-71.1 -214.89)"/><path d="M314,361.89h9.17c1.71,0,1.72,0,1.42,2h-3.37c-1.36,0-2.71,0-4.06,0-.33,0-.87.43-.88.67-.08,1.72,0,3.45,0,5.33h7.38v2h-5.17c-2.22,0-2.22,0-2.22,2.17,0,.93.05,1.86,0,2.78s.31,1.12,1.14,1.11c2.39,0,4.78,0,7.27,0v2H314Z" transform="translate(-71.1 -214.89)"/><path d="M382.6,373.21V380h-2.23V361.76a65.93,65.93,0,0,1,7.7.51c2.66.47,3.82,2.51,3.66,5.48a5,5,0,0,1-4.29,5.1C385.89,373.08,384.31,373.09,382.6,373.21Zm0-2.14a38.85,38.85,0,0,0,3.91,0,3.05,3.05,0,0,0,2.75-3.19,3.23,3.23,0,0,0-2.09-3.7,33.33,33.33,0,0,0-4.57-.43Z" transform="translate(-71.1 -214.89)"/><path d="M439.49,362.07V380h-2.27c0-.41-.07-.85-.07-1.3V363.72C437.15,361.7,437.37,361.54,439.49,362.07Z" transform="translate(-71.1 -214.89)"/><path d="M175.3,380h-2.11V362h2.11Z" transform="translate(-71.1 -214.89)"/><path d="M232.6,372.72a2.19,2.19,0,0,1,2.05-2.33h.12a2.28,2.28,0,1,1,.11,4.55h0a2.23,2.23,0,0,1-2.28-2.15Z" transform="translate(-71.1 -214.89)"/><path d="M365.66,372.63a2.23,2.23,0,0,1-2.12,2.33h-.08a2.33,2.33,0,0,1-2.33-2.24,2.29,2.29,0,0,1,2.24-2.31,2.2,2.2,0,0,1,2.29,2.11Z" transform="translate(-71.1 -214.89)"/></svg>