<svg xmlns="http://www.w3.org/2000/svg" viewBox="0 0 489.24 323.86"><defs><style>.a{fill:#2e2e2d;}</style></defs><path class="a" d="M295.55,135.71h4.25V365.93h-4.25Z" transform="translate(-53.02 -135.71)"/><path class="a" d="M272.72,218.3c4.77,49.66,9.51,99,14.27,148.55l-4.42.62c-.27-2.21-.56-4.24-.76-6.27-1.17-12.3-2.29-24.6-3.47-36.9s-2.43-24.59-3.61-36.88c-1.05-10.85-2-21.7-3.07-32.55s-2.1-21.56-3.19-32.34c-.11-1.11,0-1.84,1.1-2.36A36,36,0,0,0,272.72,218.3Z" transform="translate(-53.02 -135.71)"/><path class="a" d="M312.7,367.45l-4.39-.56c4.76-49.52,9.5-98.88,14.27-148.55a39.32,39.32,0,0,1,3.68,2.25,2,2,0,0,1,.52,1.58q-2.52,26.52-5.1,53c-1.45,15.19-2.85,30.39-4.3,45.58q-2.07,21.87-4.19,43.72C313.1,365.4,312.9,366.27,312.7,367.45Z" transform="translate(-53.02 -135.71)"/><path class="a" d="M135,426.17c6.22,0,12.29-.36,18.28.11a9.48,9.48,0,0,1,9.39,8,10.47,10.47,0,0,1-5.91,12.1c-.35.2-.68.42-1.24.77l9.43,12c-3,0-5.42.08-7.87-.06-.53,0-1.11-.72-1.51-1.24-2-2.59-4-5.15-5.84-7.85a3.82,3.82,0,0,0-4-1.93c-1.31.07-2.63.08-3.94,0V459H135Zm6.88,5.29v11c3.38-.15,6.71-.06,9.95-.52a4.67,4.67,0,0,0,4-5.25h0a4.53,4.53,0,0,0-4.37-4.68h0c-3.06-.38-6.18-.34-9.57-.5Z" transform="translate(-53.02 -135.71)"/><path class="a" d="M123.32,459.2a53.1,53.1,0,0,1-6.18-.08,3.25,3.25,0,0,1-1.91-1.69A11.73,11.73,0,0,0,96.47,454c-1.1,1.11-1.75,2.66-2.75,3.87a3.44,3.44,0,0,1-2,1.27c-1.78.18-3.59.06-5.65.06.29-.8.45-1.37.68-1.91,4.27-10,8.57-20,12.81-30a2.91,2.91,0,0,1,2.71-1.9c4.91-.78,7.25,1.21,9,5.84,3.32,8.73,7.43,17.16,11.2,25.73C122.73,457.56,123,458.21,123.32,459.2Zm-25.1-12.32a17,17,0,0,1,12.74.43l-6.28-16.51Z" transform="translate(-53.02 -135.71)"/><path class="a" d="M53,426.23a166.67,166.67,0,0,1,17.6.13,10.48,10.48,0,0,1,9.45,11.41l0,.31a11.41,11.41,0,0,1-11,10.57c-2.43.15-4.86.15-7.29.08-1.47,0-1.93.52-1.89,1.95.09,2.75,0,5.52,0,8.51a57.25,57.25,0,0,1-5.86-.09c-.41,0-1-1.15-1-1.78-.09-4.44,0-8.89,0-13.34Zm6.91,16.66c2.82,0,5.39.18,7.91-.05a5.31,5.31,0,0,0,5.09-5.34A5.38,5.38,0,0,0,68,431.8a42.24,42.24,0,0,0-6.84-.13,1.74,1.74,0,0,0-1.18,1.2c-.11,3.24-.06,6.51-.06,10Z" transform="translate(-53.02 -135.71)"/><path class="a" d="M203.57,450.08a14.17,14.17,0,0,0,11.89,3.38c1.61-.31,3.2-1.14,3.08-2.84a5,5,0,0,0-2.11-3.42,37.61,37.61,0,0,0-6-2.34,38,38,0,0,1-6.06-2.66,8.15,8.15,0,0,1-4-8.16,8.35,8.35,0,0,1,5.63-7.38,19.05,19.05,0,0,1,18.25,2.45L221,434a14.78,14.78,0,0,0-9.95-2.58c-1.76.28-3.36.88-3.6,2.88a3.42,3.42,0,0,0,2.62,3.59c2,.79,4.08,1.36,6.09,2.09a40.94,40.94,0,0,1,5,2c7.27,3.87,4.66,13-.06,15.59a19.74,19.74,0,0,1-21.46-2.92Z" transform="translate(-53.02 -135.71)"/><path class="a" d="M340.61,445.87l10.14,13.06c-3.18.35-5.65.57-7.51-2.45a87.75,87.75,0,0,0-6.73-8.76,3,3,0,0,0-1.76-1.19c-2.63-.14-5.26-.06-8.17-.06v12.47h-4.23V425.88c1.54,0,3,0,4.54,0a124.36,124.36,0,0,1,13.09.42,9.3,9.3,0,0,1,9,9.28c.31,4.7-2.23,7.95-7.6,9.8A6.2,6.2,0,0,0,340.61,445.87ZM326.54,436c0,1.6,0,3.19,0,4.79,0,1.12.31,1.7,1.52,1.67,3.46-.11,6.95,0,10.39-.32a6.07,6.07,0,0,0,5.89-6.25v-.08a5.71,5.71,0,0,0-5.87-5.54h0c-3.39-.27-6.8-.2-10.2-.31-1.4-.06-1.8.59-1.72,1.89S326.54,434.6,326.54,436Z" transform="translate(-53.02 -135.71)"/><path class="a" d="M480.86,426.21c6,0,11.82-.41,17.58.13a9,9,0,0,1,8.83,8.39c.42,5.58-1.6,8.52-7.26,10.57a7.4,7.4,0,0,0-.93.56l10.13,13.06c-3.21.39-5.7.51-7.58-2.55a90.49,90.49,0,0,0-6.72-8.74,2.71,2.71,0,0,0-1.6-1.11c-2.69-.12-5.38,0-8.36,0V459h-4.09ZM485,436a40.13,40.13,0,0,0,.06,4.78c.06.58.84,1.53,1.29,1.54a106.63,106.63,0,0,0,11-.28,6.1,6.1,0,0,0,5.44-6.33,5.67,5.67,0,0,0-5.55-5.45c-3.58-.31-7.2-.31-10.81-.28-.49,0-1.32.89-1.39,1.45A34.85,34.85,0,0,0,485,436Z" transform="translate(-53.02 -135.71)"/><path class="a" d="M374.57,459.55a17,17,0,1,1,17.12-17v.06A16.8,16.8,0,0,1,375,459.55ZM362,442.49a12.67,12.67,0,1,0,12.67-12.68h0A12.57,12.57,0,0,0,362,442.29v.2Z" transform="translate(-53.02 -135.71)"/><path class="a" d="M452.7,459.55a17,17,0,1,1,.39,0Zm.09-29.74a12.71,12.71,0,1,0,12.8,12.65,12.71,12.71,0,0,0-12.8-12.65Z" transform="translate(-53.02 -135.71)"/><path class="a" d="M257.34,281.91c5.75,29.23,11.43,58.16,17.16,87.3l-4.4,1.24c-.88-4.39-1.73-8.51-2.54-12.65q-7-35.6-14-71.2a2.29,2.29,0,0,1,1.17-2.9C255.56,283.23,256.32,282.62,257.34,281.91Z" transform="translate(-53.02 -135.71)"/><path class="a" d="M338,281.91a28.39,28.39,0,0,1,3.42,2.45,2.58,2.58,0,0,1,.34,2q-5,25.5-10,51-3,15.3-6,30.61c-.14.74-.36,1.46-.6,2.42l-4.33-1.16Z" transform="translate(-53.02 -135.71)"/><path class="a" d="M274.94,459.08a21.8,21.8,0,0,1-4-.07,2.74,2.74,0,0,1-1.56-1.55,12.94,12.94,0,0,0-9.76-8.49,12.25,12.25,0,0,0-13.6,6.87c-1.9,3.66-1.94,3.68-6.38,3,.16-.57.35-1.12.56-1.67,4.46-9.94,9-19.83,13.34-29.82.93-2.18,2.45-1.74,4-1.87a2.75,2.75,0,0,1,3.19,1.87c4.35,9.83,8.82,19.59,13.24,29.4C274.27,457.38,274.5,458,274.94,459.08Zm-11.05-13.37L257.44,430l-.57,0-6.68,16.43a19.44,19.44,0,0,1,13.7-.7Z" transform="translate(-53.02 -135.71)"/><path class="a" d="M309.4,459H285.63V426h23.92c.08.49.18,1,.25,1.54.23,1.63-.31,2.34-2.13,2.3-5.21-.12-10.43,0-15.64-.07-1.53,0-2.15.46-2.08,2,.08,2.15.09,4.31,0,6.46-.08,1.68.65,2.15,2.22,2.13,4.31-.07,8.62,0,12.93,0h2.42c.08.79.14,1.4.21,2,.19,1.48-.31,2.1-2,2.07-4.58-.11-9.17,0-13.76-.07-1.55,0-2.13.49-2.07,2,.08,2.22.09,4.44,0,6.66-.06,1.52.45,2.06,2,2,4.93-.09,9.87,0,14.8,0C310.1,455.1,310.41,455.53,309.4,459Z" transform="translate(-53.02 -135.71)"/><path class="a" d="M402.55,426.27a165,165,0,0,1,16.79.13A9.74,9.74,0,0,1,427.89,437a10.38,10.38,0,0,1-9.53,10.33c-3,.28-5.95.28-8.94.34-2.68.06-2.68,0-2.69,2.8,0,2.15-.06,4.31,0,6.46.05,1.5-.25,2.25-2,2.24s-2.21-.69-2.2-2.34c.06-6.1,0-12.21,0-18.32,0-3.41-.08-6.81-.1-10.21C402.4,427.55,402.51,426.8,402.55,426.27Zm4.15,10.55c0,1.74,0,3.47,0,5.2,0,1.13.41,1.71,1.56,1.67,3-.11,6,0,8.92-.38a6.7,6.7,0,0,0,6-6.68,6.18,6.18,0,0,0-5.87-6.39,69.54,69.54,0,0,0-9.13-.31c-.49,0-1.33.91-1.38,1.47C406.59,433.2,406.71,435,406.7,436.82Z" transform="translate(-53.02 -135.71)"/><path class="a" d="M244.85,311.63c1.61,5.41,3.22,10.78,4.81,16.15q6.15,20.75,12.28,41.48c1.15,3.86,1.14,3.87-3.24,5.19-.24-.74-.52-1.49-.75-2.26q-8-27-15.93-54.06C240.79,314,240.8,314,244.85,311.63Z" transform="translate(-53.02 -135.71)"/><path class="a" d="M336.49,374.39c-4.27-1.24-4.27-1.24-3.07-5.29q8.19-27.71,16.39-55.41c.2-.65.45-1.29.79-2.23a17.68,17.68,0,0,1,2.61,2.2,3,3,0,0,1,.71,2.26q-8.37,28.72-16.9,57.42A7.38,7.38,0,0,1,336.49,374.39Z" transform="translate(-53.02 -135.71)"/><path class="a" d="M531,459h-4.35v-3c0-7.84-.07-15.68,0-23.52,0-2.08-.67-2.63-2.61-2.53-2.82.14-5.65,0-8.58,0V426H542a8.67,8.67,0,0,1,.22,1.13c.11,2.78.1,2.78-2.63,2.8h-5.83c-2.79,0-2.8,0-2.8,2.71V459Z" transform="translate(-53.02 -135.71)"/><path class="a" d="M185.08,458.92a2.59,2.59,0,0,1-.38.17c-6.53.85-6.53.85-6.53-5.62V426h6.91Z" transform="translate(-53.02 -135.71)"/><path class="a" d="M248.32,380.27c-2.41-6.22-4.74-12.19-7.07-18.19-3.16-8.13-6.22-16.3-9.51-24.37-.91-2.24-.93-3.88,1.07-5.36a9.33,9.33,0,0,0,1.25-1.55l18.34,47.07Z" transform="translate(-53.02 -135.71)"/><path class="a" d="M361.07,331.24a4.25,4.25,0,0,1,.6.31c3.1,2.89,3.11,2.89,1.59,6.78q-7.69,19.86-15.4,39.71c-.27.69-.58,1.38-.93,2.19l-4-2.37Z" transform="translate(-53.02 -135.71)"/><path class="a" d="M223.84,346.61c.9,1.78,1.74,3.43,2.56,5.1,5,10.05,9.95,20.13,15,30.14,1,1.9,1.09,3.15-1,4.11a13.27,13.27,0,0,0-1.6,1.09c-.39-.72-.76-1.34-1.08-2l-15.94-32.25c-1.45-2.94-1.45-2.95,1-5.29C223.09,347.24,223.41,347,223.84,346.61Z" transform="translate(-53.02 -135.71)"/><path class="a" d="M371.39,346.7a2.48,2.48,0,0,1,.44.2c3.17,2.86,3.17,2.85,1.32,6.6l-15.48,31.33c-.33.68-.69,1.33-1.17,2.24l-3.8-2.7Z" transform="translate(-53.02 -135.71)"/><path class="a" d="M364.6,395.34l-3.29-3.52,20.06-31.76,3.26,3.44Z" transform="translate(-53.02 -135.71)"/><path class="a" d="M230.71,395.34l-16.28-25.85c-.94-1.47-1.76-3-2.8-4.39a2,2,0,0,1-.18-2.83,2.14,2.14,0,0,1,.58-.46,13.65,13.65,0,0,0,1.71-2l20.24,32Z" transform="translate(-53.02 -135.71)"/><path class="a" d="M305.18,416.08c-2.93,2.63-4.79,6.56-9.45,4.74A8.2,8.2,0,0,1,305.18,416.08Z" transform="translate(-53.02 -135.71)"/></svg>