<svg xmlns="http://www.w3.org/2000/svg" viewBox="0 0 502.47 225.15"><defs><style>.a{fill:#2e2e2d;}</style></defs><path class="a" d="M82.53,345.72c-.07,1.49-.18,3-.19,4.46q0,25.45,0,50.91c0,4.86-1,6.16-5.71,6.65q-12.56,1.35-25.14,2.41c-4,.35-5-.62-5-4.74q0-85.67,0-171.33c0-3.08,1.17-5.11,4.25-5.37,14.78-1.25,29.56-3.19,44.36-3.3a40.23,40.23,0,0,1,33.19,16.14,49.63,49.63,0,0,1,9.63,24.17,82.27,82.27,0,0,1-2.59,38.14A57.39,57.39,0,0,1,121,327.27a5.76,5.76,0,0,0-1.43,7.08c7,19.79,13.91,39.65,20.79,59.51,1.88,5.4.71,7.36-4.89,8-8.94,1.05-17.91,1.87-26.85,2.9-3.52.39-4.71-1.66-5.64-4.42q-8.72-25.89-17.51-51.76a24.62,24.62,0,0,0-1.7-3.31Zm-.41-59.66c0,7.71,0,15.43,0,23.14,0,3.4.82,3.85,4,3a20.69,20.69,0,0,0,15.21-15.84,50.13,50.13,0,0,0,.18-24.64c-2-8.54-6.16-11.91-14.84-12.81-3.91-.39-4.57.14-4.59,4,0,7.73,0,15.44,0,23.16Z" transform="translate(-46.4 -185.06)"/><path class="a" d="M386,377.28c-4.95.62-6-1.53-6.49-4.34-1.17-7-2.5-14-3.52-21.07-.39-2.72-1.63-3.13-4-2.84-6.58.8-13.19,1.62-19.81,2-2.85.17-3.55,1.57-3.91,3.87-1,6.7-2.07,13.38-3,20.09-.85,5.79-1.64,6.51-7.54,7-7.68.68-15.35,1.51-23,2.18-3.81.33-5.18-1.28-4.46-5Q320.85,323.11,331.52,267q5.78-30.45,11.47-60.92c1.11-5.94,1.47-6.35,7.6-7,8.72-.93,17.45-1.68,26.15-2.71,3.64-.44,5,1.14,5.68,4.45q11.83,60.68,23.81,121.32,4.5,22.86,9,45.7c.88,4.43-.58,6.57-4.92,7C401.73,375.77,393.12,376.59,386,377.28Zm-25.45-58.65c1.22-.16,3.64-.51,6.06-.79s3.31-1.61,2.87-4.1c-1.83-10.44-3.51-20.92-5.38-31.36a10.25,10.25,0,0,0-1.71-2.95c-.76,1-2,2-2.2,3.06-1.81,10.44-3.46,20.91-5.13,31.38-.76,4.83-.71,4.86,5.49,4.77Z" transform="translate(-46.4 -185.06)"/><path class="a" d="M152.25,309.33V225.42c0-5.92.78-6.95,6.68-7.57,17.56-1.83,35.12-3.54,52.68-5.29,3.26-.32,6.52-.62,9.78-.95,3.65-.37,5.15.76,5.18,4.26.07,8,0,15.92,0,23.87a5,5,0,0,1-4.29,5.57,4.74,4.74,0,0,1-.65.05c-10,1-20,2.19-30,3.12-2.73.25-3.61,1.43-3.59,4q.09,16.16,0,32.3c0,2.86,1,3.55,3.82,3.2,7.77-1,15.58-1.59,23.38-2.29,5-.45,6.09.56,6.11,5.57q.06,10.89,0,21.77c0,4.54-1.46,6.1-5.91,6.52-7.56.71-15.12,1.56-22.68,2.11-3.49.25-4.83,1.56-4.76,5.22.22,10.64.07,21.3.09,31.95,0,3.93.39,4.12,4.33,3.72q14.82-1.51,29.66-2.88a3.61,3.61,0,0,1,4.32,2.7,3.47,3.47,0,0,1,.08,1.11q.18,12.63,0,25.28a4.62,4.62,0,0,1-4.53,4.73h-.16q-7.81.88-15.69,1.62c-15.94,1.52-31.89,3.05-47.84,4.47-5,.45-6-.54-6-5.63Q152.24,351.64,152.25,309.33Z" transform="translate(-46.4 -185.06)"/><path class="a" d="M427.83,335.56c0-9.47.26-19-.11-28.42a50.93,50.93,0,0,0-2.44-13.29c-9.72-30.7-19.65-61.33-29.52-92-1.73-5.39-.5-7.46,5.07-8.05,8-.84,16-1.65,24.08-2.29,5.61-.45,6.08,0,7.42,5.42l11.22,45.55a4.1,4.1,0,0,0,.32,1.35c.62.86,1.37,1.62,2.07,2.42.69-.82,1.76-1.54,2-2.47,1.61-6.1,3-12.23,4.51-18.36,2.63-11,5.29-22,7.82-33a5.8,5.8,0,0,1,5.79-5c8.27-.72,16.53-1.51,24.79-2.24,5.2-.46,6.56,1.23,5,6.3-1.87,6.25-3.79,12.51-5.68,18.77Q477.41,252.58,464.64,295a20.74,20.74,0,0,0-.77,5.86c-.05,20.59,0,41.18,0,61.78,0,5.82-1.08,7-6.75,7.54-8,.79-16,1.54-24.08,2.35-3.71.39-5.13-.78-5.13-4.63C427.81,357.09,427.83,346.33,427.83,335.56Z" transform="translate(-46.4 -185.06)"/><path class="a" d="M237.79,301.18V216.94c0-5.76.78-6.81,6.38-7.45q12-1.38,24.07-2.46c4.5-.42,5.58.75,5.57,5.36q0,68.43-.05,136.85c0,5,0,5,4.79,4.56,5.94-.51,11.87-1.13,17.81-1.56,3.7-.28,5,.86,5,4.53.09,8,0,15.91,0,23.85a5.08,5.08,0,0,1-4.58,5.54l-.5,0q-26.68,2.67-53.38,5.26c-3.7.35-5.16-1.34-5.16-5.69q0-30.36,0-60.72Z" transform="translate(-46.4 -185.06)"/><path class="a" d="M482.31,346.65A137.75,137.75,0,0,1,484.38,323a30.61,30.61,0,0,1,27.31-23.79,33,33,0,0,1,31.82,50.71,28.44,28.44,0,0,1-23.34,14c-10.72.63-21.38,2.21-32.06,3.26-5,.49-5.21.23-5.21-4.71v-15.8Zm33.68-1.2a13.54,13.54,0,0,0,13.8-13.27c0-.14,0-.28,0-.42a13.92,13.92,0,0,0-13.69-13.61,13.46,13.46,0,0,0-13.68,13.23v.22a13.29,13.29,0,0,0,12.72,13.84Z" transform="translate(-46.4 -185.06)"/></svg>