<svg xmlns="http://www.w3.org/2000/svg" viewBox="0 0 519.63 481.31"><defs><style>.a{fill:#2e2e2d;}</style></defs><path class="a" d="M460.38,525.88H446.51q-57.92.06-115.85.08a10.42,10.42,0,0,0-7.71,2.91,38.84,38.84,0,0,1-52.1-1.24,5.91,5.91,0,0,0-3.64-1.53q-19.23-.26-38.47-.24H135c-.46-3.68-.94-7.28-1.37-10.86q-2.43-20.29-4.82-40.58-2.34-19.86-4.64-39.71a3.71,3.71,0,0,1-.06-.67,11.29,11.29,0,0,0-6.15-10.29c-22.8-16.16-45.34-32.7-68.11-48.88a17.7,17.7,0,0,1-7.71-12.42,252.87,252.87,0,0,1,47-199.15A262.34,262.34,0,0,1,196.35,78.05,254.29,254.29,0,0,1,431.92,95.27,262.47,262.47,0,0,1,545.48,239.56a242.74,242.74,0,0,1,10.78,51.91,253.24,253.24,0,0,1-4.18,76.45,6.37,6.37,0,0,1-2.91,4c-11.81,8.73-23.57,17.51-35.47,26.11-13.16,9.51-26.44,18.91-39.71,28.26a4.68,4.68,0,0,0-2.26,3.55q-1.82,16-3.73,31.94-2.13,18-4.27,35.92l-2.91,24.4C460.72,523.27,460.55,524.44,460.38,525.88ZM249.7,395.79l-.39.19c-.59-1-1.2-2-1.78-3L149.14,222.32c-5.92-10.26-11.87-20.51-17.71-30.82-.9-1.59-1.73-1.89-3.06-.73a55.61,55.61,0,0,0-5,4.5,127.15,127.15,0,0,0-18.91,28.65c-3.06,6.11-5.41,12.56-7.87,18.91a6.09,6.09,0,0,0,1.26,6.42Q162.5,328.18,227,407.2l2.54,3.15-.39.31-136.74-139c-1.82,4.36-3.64,8.12-4.94,12a108.63,108.63,0,0,0-1.6,59.74,6.12,6.12,0,0,0,2.64,3.89q37.29,26.86,74.55,53.77a5,5,0,0,1,2.25,3.84c1,8.8,2.18,17.59,3.26,26.37q2.39,18.84,4.79,37.66c.46,3.59,1,7.17,1.45,10.91h3.39q45.18,0,90.37.06a7.87,7.87,0,0,1,4,1.46c5.32,3.53,10.39,7.49,15.88,10.74a17.58,17.58,0,0,0,18.75,0A167.58,167.58,0,0,0,322.06,482a9.39,9.39,0,0,1,6-2.18c30.05.07,60.1,0,90.15.09,2.06,0,2.78-.69,2.91-2.62s.38-3.7.62-5.54q2.17-16.95,4.3-33.9,2.1-16.5,4.16-33a5.31,5.31,0,0,1,2.48-3.93q36.93-26.58,73.82-53.24a7.48,7.48,0,0,0,3.25-4.74,122.53,122.53,0,0,0,2.69-38.18,85.82,85.82,0,0,0-8.19-30.23c-.4-.82-.93-1.58-1.49-2.53l-136.1,138.3a2,2,0,0,1,.55-1.54q64-78.39,128.16-156.66a11.79,11.79,0,0,0,2.19-13.75c-.4-.88-.73-1.81-1.06-2.71a150.17,150.17,0,0,0-15.27-28.28c-3.37-4.89-7.23-9.45-11.06-14a32.37,32.37,0,0,0-4.95-3.93L345.54,397a4,4,0,0,1,.49-2.15Q397.81,284.5,449.7,174.16a7.65,7.65,0,0,0-1.4-9.67,130.31,130.31,0,0,0-29.91-24.65,58.15,58.15,0,0,0-19.19-8.26c-3.11-.61-3.51-.38-4.32,2.46l-70,245.29c-.72,2.56-1.51,5.09-2.27,7.67,1-7.27,2.46-14.38,3.89-21.53L347.3,261.92q9.74-48.49,19.46-97,4.31-21.45,8.64-42.91a2.54,2.54,0,0,0-1.34-3.16c-3.29-1.74-6.44-3.76-9.82-5.28a97.86,97.86,0,0,0-31.48-8c-7.23-.63-14.55-.17-21.83-.22-1.56,0-2,.78-2,2.24,0,2.3,0,4.62-.13,6.93q-1,26.81-2.13,53.61c-.35,8.86-.65,17.73-1,26.59-.68,16.9-1.41,33.8-2.08,50.7-.53,13.56-1,27.11-1.49,40.67-.66,16.73-1.45,33.5-2.08,50.26-.54,13.63-1,27.26-1.45,40.89-.12,3.13-.34,6.26-.5,9.39a5.08,5.08,0,0,1-.32-1.77q-1.08-25.23-2.18-50.48-1.15-27.92-2.23-55.84L291,222.25q-1.11-28-2.23-56.07t-2.24-56.3c-.18-4.65-.18-4.65-4.82-4.9h-.3a118.51,118.51,0,0,0-33.93,3.18,83.17,83.17,0,0,0-25.6,10.26,3.31,3.31,0,0,0-1.78,4.15c1.31,5.58,2.28,11.23,3.41,16.85q12,59.64,24,119.28,11.58,57.71,23.14,115.39c.83,4.13,1.63,8.27,2.44,12.4a6.12,6.12,0,0,1-1.18-2.43q-27-94.49-53.94-189c-5.82-20.47-11.71-40.95-17.45-61.45-.59-2.11-1.67-2.64-3.52-2.19a54.54,54.54,0,0,0-6,1.58A93.51,93.51,0,0,0,166,147.27,105.9,105.9,0,0,0,146,166a5.69,5.69,0,0,0-.77,6.84q51.92,110.32,103.64,220.73C249.15,394.34,249.41,395.06,249.7,395.79Z" transform="translate(-37.82 -56.98)"/></svg>