<svg xmlns="http://www.w3.org/2000/svg" viewBox="0 0 538.32 109.36"><defs><style>.a{fill:#2e2e2d;}</style></defs><path class="a" d="M28.54,308.15H566.8c-.77.85-1.1,1.44-1.58,1.63a5,5,0,0,1-1.8.06q-266.05,0-532.13,0C30.29,309.81,28.38,310.71,28.54,308.15Z" transform="translate(-28.48 -242.96)"/><path class="a" d="M71.92,244.43H89.65c-.21.42-.26.64-.34.65-4.19.8-4.24.79-4.32,5-.07,3.94,0,7.88,0,12h22.1c0-4.79.07-9.54,0-14.28,0-1.74-1.46-2.35-3-2.57-.77-.1-1.57-.12-2.36-.17l0-.67h17.37l.11.35a3.09,3.09,0,0,1-.82.39c-3.32.47-3.76.89-3.77,4.14q0,15.6,0,31.2a15.65,15.65,0,0,0,.11,2c.35,2.87,1,3.46,3.91,3.63.68,0,1.35.13,2,.19l0,.64H102.1c.64-.44.92-.8,1.16-.77,2.74.24,3.71-1.31,3.73-3.71,0-5.59,0-11.19,0-17H85.22c0,6,0,11.89,0,17.78,0,2,1.38,2.71,3.2,2.8.85,0,1.7.11,2.56.16l0,.65H72.54c.48-.38.67-.65.89-.69,3.55-.6,3.85-.58,3.95-4.19.26-9.1.22-18.21.29-27.32,0-1.74,0-3.49,0-5.23-.1-3.27-.84-4-4.22-4.33a8.24,8.24,0,0,1-1.11-.16C72.21,245.05,72.16,244.85,71.92,244.43Z" transform="translate(-28.48 -242.96)"/><path class="a" d="M348.51,287c.44-.45.49-.55.55-.56,4.65-.93,4.72-.93,4.8-5.8.19-11.06.31-22.13.48-33.2,0-1.34.18-2.68.28-4l.71-.43,32.26,33.2c0-3,.05-5.73,0-8.48-.12-6.06-.21-12.12-.47-18.18-.15-3.53-.79-4-4.44-4.29a1.19,1.19,0,0,1-1-.71h15.45c-4.72,2-4.89,2-5.09,6.83-.29,7.34-.31,14.7-.47,22-.08,4-.17,8-.33,12.05a14.37,14.37,0,0,1-.53,2.51,11.66,11.66,0,0,1-2.4-1.44c-4.82-4.73-9.62-9.47-14.34-14.29s-9.55-10-14.33-14.93c-.39-.42-.83-.79-1.24-1.17,0,4.67-.05,9.24,0,13.81.06,3.79.27,7.57.4,11.36s1.42,5.28,4.85,5c.25,0,.51.18.74.73Z" transform="translate(-28.48 -242.96)"/><path class="a" d="M271.52,243a13.26,13.26,0,0,1,2.09,1.38q15,15.52,30,31.09c.19.2.39.37.74.7,0-3.85,0-7.46,0-11.06-.06-4.77-.19-9.55-.32-14.32,0-.91-.19-1.8-.29-2.71a3,3,0,0,0-3-2.79c-.8-.08-1.62-.11-2.43-.16l0-.61h15c-.1.25-.13.49-.2.51-4.25.91-4.42,1.18-4.48,5.74q-.24,17.18-.55,34.35a8.1,8.1,0,0,1-.77,3.13c-11.08-10.31-21.8-20.88-32.39-32.38,0,3.23-.05,6,0,8.73.11,5.22.3,10.45.43,15.68.12,4.62.68,5.27,5.31,6,.18,0,.33.23,1,.71h-16.1l-.08-.45a7.09,7.09,0,0,1,1.52-.32,2.94,2.94,0,0,0,3.4-2.39,3.17,3.17,0,0,0,0-.87c.11-5.08.28-10.15.39-15.23.15-7.66.27-15.31.41-23C271.29,244.36,271.4,243.92,271.52,243Z" transform="translate(-28.48 -242.96)"/><path class="a" d="M483.36,244.48c-4.58,1.93-4.62,1.93-4.66,7.28-.06,5.77,0,11.54-.1,17.3a38.27,38.27,0,0,1-.79,6.75,14.41,14.41,0,0,1-12.37,12,22.26,22.26,0,0,1-12.54-.94c-7.23-2.89-9.11-9.05-9.31-16s0-13.65-.1-20.48c0-4.33-.45-4.72-4.74-5.16-.28,0-.54-.16-.79-.72h17.61c-.09.26-.1.52-.17.52-4.33,1-4.52,1.19-4.48,5.75.07,7.88-.17,15.8.48,23.64,1,11.55,12.14,12.59,17.82,8.49a11.83,11.83,0,0,0,4.27-10.1c.2-8,.11-15.93.05-23.9,0-2.49-1-3.35-3.44-3.62l-1.89-.21,0-.6Z" transform="translate(-28.48 -242.96)"/><path class="a" d="M566.41,287.11H552.09a13.15,13.15,0,0,0-.05-3.6c-1-3.09-2.24-6.1-3.32-9.17a2.35,2.35,0,0,0-2.61-1.89c-3.26.12-6.53.1-9.79,0a2.17,2.17,0,0,0-2.46,1.73c-.73,2.22-1.6,4.4-2.41,6.6-1.66,4.54-1.58,4.72,2.73,6.16H519.05c.83-.44,1.07-.68,1.29-.67,3.76.2,5.31-2.26,6.5-5.26q6.9-17.4,13.86-34.77a20.58,20.58,0,0,1,2.11-3.28,22.59,22.59,0,0,1,2.06,3.31c4.23,10.36,8.32,20.78,12.58,31.12,1.74,4.21,2.69,9.37,9.29,9Zm-30.59-17.79h10.92l-5.39-14.83Z" transform="translate(-28.48 -242.96)"/><path class="a" d="M205.47,267.21a6.76,6.76,0,0,1,1.59-.47,7.29,7.29,0,0,0,5.65-3.38c4.52-6.16.95-15.66-6.23-16.66-2.93-.4-3.5.08-3.5,3l.06,30.51c0,.91.16,1.81.2,2.72.1,2.41,1.5,3.29,3.73,3.31a20.88,20.88,0,0,1,2.23.27l-.07.56H191.06c.2-.41.24-.63.32-.65,3.91-.73,4.27-1,4.3-5.12.07-10.17.08-20.34.09-30.51,0-4.82-.08-4.88-5-5.59-.18,0-.34-.21-.9-.57a9.38,9.38,0,0,1,1.88-.46c6,0,12-.08,18,.14,7.11.25,11.07,3.52,11.59,9.15a13.13,13.13,0,0,1-9.76,14.05,46.74,46.74,0,0,1-5.9.68Z" transform="translate(-28.48 -242.96)"/><path class="a" d="M128.77,244.24H156l-.83,8.12c-.48-.15-.71-.16-.73-.23-1.18-4.32-1.54-4.58-6-4.7-2-.05-3.94-.12-5.91-.16a3,3,0,0,0-.77.23v15.26c4.42-.26,8.95,1,13.39-1.7l-.83,9.7c-.48-.18-.71-.22-.72-.29-.62-3.78-.51-4.58-6.16-4.68-1.82,0-3.64,0-5.61,0,0,5.33-.1,10.6.11,15.86a3.38,3.38,0,0,0,2.36,2.25,34.79,34.79,0,0,0,8.77-.12c1.12-.18,2-1.92,2.93-3.08a7.88,7.88,0,0,0,.69-2.29,12,12,0,0,1-.52,8.6,2.75,2.75,0,0,1-1.66.56q-12.17-.1-24.34-.31c-.18,0-.37-.19-.78-.41.41-.25.69-.6.93-.57,2.78.3,3.62-1.38,3.76-3.69.12-2.12.17-4.25.17-6.37q0-12.77,0-25.51c0-4.66-.26-4.93-4.88-5.51a2.15,2.15,0,0,1-.58-.26Z" transform="translate(-28.48 -242.96)"/><path class="a" d="M257.09,278.85a73.31,73.31,0,0,1-1.21,7.65c-.13.55-1.73,1.06-2.65,1.05-5.3,0-10.61-.24-15.91-.33-2.06,0-4.11.08-6.15.09-.7,0-1.39-.12-2.36-.2.36-.46.47-.73.61-.77,3.86-.71,4.08-.8,4.13-4.75q.22-15.7.2-31.4c0-4.2-.45-4.5-4.7-5a4.42,4.42,0,0,1-.93-.31l0-.62h27.28l-.77,8-.55,0a2.36,2.36,0,0,1-.44-.7c-.86-3.63-1.26-4-5-4.16-2-.1-3.95-.11-5.91-.26-1.43-.11-1.84.51-1.83,1.86q.08,6,0,12.06c0,1.29.52,1.75,1.76,1.71,2.06-.07,4.11.1,6.15-.09a57.1,57.1,0,0,0,5.63-1.1c-.21,2.76-.45,5.86-.68,9l-.48.06a3.33,3.33,0,0,1-.53-.86c-.71-3.4-1.32-3.95-4.8-4-2.2-.05-4.39,0-6.8,0a16.82,16.82,0,0,0-.22,2q.08,6.49.19,13a3.05,3.05,0,0,0,2.75,3.33h.26a49.83,49.83,0,0,0,7,.11,4.39,4.39,0,0,0,4.36-3.9,10.07,10.07,0,0,1,.58-1.62Z" transform="translate(-28.48 -242.96)"/><path class="a" d="M407.1,275.76c.15.86.31,1.71.46,2.57a8.42,8.42,0,0,0,9.6,7,8.59,8.59,0,0,0,2.37-.74,6.56,6.56,0,0,0,3.66-8.54,6,6,0,0,0-.62-1.17,27.71,27.71,0,0,0-4.69-5.16c-2.67-2.56-5.7-4.8-8.1-7.58a11.14,11.14,0,0,1,8.62-18.7,64.82,64.82,0,0,1,8.58.65c1.19.1,1.66.73,1.57,2-.13,1.81,0,3.64-.14,5.46a2.61,2.61,0,0,1-1,1.91c-.12-.46-.26-.92-.36-1.38a7.69,7.69,0,0,0-9.11-6,7.57,7.57,0,0,0-.85.23,5.54,5.54,0,0,0-4.39,6.5,5.4,5.4,0,0,0,1.14,2.43,39.25,39.25,0,0,0,5.21,5,95.59,95.59,0,0,1,7.36,6.73,12.38,12.38,0,0,1,2.17,13.78A11.89,11.89,0,0,1,417.13,288a55.09,55.09,0,0,1-9.42-.94,2.28,2.28,0,0,1-2-2.48c0-.1,0-.2,0-.31.22-2.8.26-5.63.38-8.44Z" transform="translate(-28.48 -242.96)"/><path class="a" d="M44.53,247.78c-3.44,0-6.85,0-10.25,0a4.35,4.35,0,0,0-4.4,3.26,3.14,3.14,0,0,1-.47.73,5.15,5.15,0,0,1-.93.33c.51-3.1,1-5.85,1.4-8.45a338.11,338.11,0,0,0,37,.44v8.47c-.49-.2-.74-.25-.75-.31-.19-3.26-2.36-4.38-5.17-4.51s-5.86,0-9,0c0,4.7,0,9.39,0,14.07,0,6.51.1,13,.26,19.55.1,4.3.51,4.62,4.69,4.91a1.42,1.42,0,0,1,1.18.75H40c.11-.29.14-.52.22-.53,4-.88,4.24-.88,4.3-5.3C44.64,270,44.53,258.9,44.53,247.78Z" transform="translate(-28.48 -242.96)"/><path class="a" d="M519.9,278.65a79.85,79.85,0,0,1-1.4,8c-.14.53-1.81.95-2.77.94-5.23,0-10.46-.25-15.69-.33-2.5,0-5,.08-7.51.09a3.49,3.49,0,0,1-2.18-.73,2.12,2.12,0,0,1,.57-.27c3.71-.75,4-1,4.07-4.83q.12-15.83.05-31.64c0-3.82-.52-4.22-4.28-4.62-.28,0-.55-.14-.79-.71h17.72l.07.51c-.81.1-1.62.22-2.43.28a2.67,2.67,0,0,0-2.73,2.52,15.33,15.33,0,0,0-.2,2c0,9.19-.07,18.37,0,27.55.06,5.88.65,6.42,6.5,6.85,1.2.09,2.42,0,3.63,0a5.51,5.51,0,0,0,6-4.72,4.35,4.35,0,0,1,.54-1Z" transform="translate(-28.48 -242.96)"/><path class="a" d="M341.13,287.07H322.84c.4-.46.53-.74.66-.74,4-.06,4.11-1.09,4.19-4.7.2-10.91.11-21.82.06-32.75,0-2.62-.83-3.33-3.37-3.63a1.94,1.94,0,0,1-1.45-.76H339.6l.1.34a2.73,2.73,0,0,1-.83.38c-3.29.47-3.74.91-3.74,4.16q0,15.57,0,31.15c0,5,.56,5.81,5.26,5.74a2.58,2.58,0,0,1,.78.27Z" transform="translate(-28.48 -242.96)"/><path class="a" d="M299,343.38c0,1.8,0,3.6,0,5.39s.46,2.87,2.45,2.94h-7.33a12.66,12.66,0,0,0,1.23-3.63c.16-4.7,0-9.41.09-14.11,0-1.75-.12-3.24-2.33-3.52,3.44,0,6.9-.22,10.31.05a5.15,5.15,0,0,1,5,5.27,5.06,5.06,0,0,1-1,2.91,33.52,33.52,0,0,1-2.7,3.44c3.18,3.25,5,7.92,10.16,9.53-4.13.86-7.36.05-9.52-3.61a38.15,38.15,0,0,0-2.23-3.15C301.74,342.86,301.73,342.86,299,343.38ZM298.84,332c0,2.35-.1,4.62.05,6.87.06.88.67,2.45,1,2.45a6.46,6.46,0,0,0,3.88-.93,5.65,5.65,0,0,0,.44-6.38,4.41,4.41,0,0,0-5.4-2Z" transform="translate(-28.48 -242.96)"/><path class="a" d="M242.5,329.2c.58,1.19,1,1.89,1.25,2.61,2.22,5.46,4.34,11,6.7,16.37a16.63,16.63,0,0,0,2.82,3.55h-5.52c-.9-2.38-1.72-4.62-2.62-6.81-.08-.22-.64-.31-1-.34-.6-.06-1.21,0-1.82,0-3.81,0-5.64,1.63-5.82,5.43,0,.59.81,1.23,1.24,1.82h-6.45c2.26-.38,2.87-2.19,3.56-3.93q3.18-8,6.39-16C241.54,331.16,241.92,330.45,242.5,329.2Zm-.71,6.38-2.68,7.26h5.28Z" transform="translate(-28.48 -242.96)"/><path class="a" d="M180,330.38c2.52,0,5.55,0,8.58,0,3.82.05,6,1.86,6.16,5a6.8,6.8,0,0,1-5.75,6.87,13.39,13.39,0,0,1-1.9,0c1.15-.92,2.84-1.65,3.43-2.9a7.46,7.46,0,0,0,.21-4.76c-.6-2.31-2.4-3.05-5-2.6,0,6-.07,11.93.1,17.9,0,.68,1.41,1.32,2.1,1.91h-7.47a8.67,8.67,0,0,0,1.34-3c.16-5.23.19-10.47,0-15.7C181.74,332.18,180.6,331.3,180,330.38Z" transform="translate(-28.48 -242.96)"/><path class="a" d="M404.31,347a17.82,17.82,0,0,0,3.56,3.54,3.51,3.51,0,0,0,4-5.64c-.87-1-2-1.79-3-2.76a21.55,21.55,0,0,1-3.24-3.44,5.36,5.36,0,0,1,3.74-8.63,35.58,35.58,0,0,1,5.84-.05v4.67c-1-1.65-1.87-3.54-4.11-3.31a4.41,4.41,0,0,0-3.17,1.59,4.07,4.07,0,0,0,.66,3.44,40.08,40.08,0,0,0,3.74,3.28,14.34,14.34,0,0,1,3.17,4,6.1,6.1,0,0,1-5.44,8.5,12.21,12.21,0,0,1-1.6,0C403.8,352.1,403.25,351.65,404.31,347Z" transform="translate(-28.48 -242.96)"/><path class="a" d="M361.42,351.84h-7.71a11.75,11.75,0,0,0,1.33-3.57q.24-7.38,0-14.76c0-1.06-1-2.1-1.42-3.05h6.47a11,11,0,0,0-1.28,3.41c-.15,4.77,0,9.54-.06,14.31C358.72,350.09,358.91,351.76,361.42,351.84Z" transform="translate(-28.48 -242.96)"/></svg>