<svg xmlns="http://www.w3.org/2000/svg" viewBox="0 0 467.94 340.92"><defs><style>.a{fill:#2e2e2e;}</style></defs><path class="a" d="M201.34,330.22q-5.81-17.06-11.62-34c-3.43-9.95-7.15-19.8-11-29.6a33,33,0,0,0-18.43-18.39,93.87,93.87,0,0,0-28.12-7c-12.88-1.41-25.82-2.34-38.69-3.83a30.31,30.31,0,0,1-27.56-21,34.33,34.33,0,0,1,21-43.77,34.8,34.8,0,0,1,10-1.91,123.64,123.64,0,0,1,27.06,2.64c38.35,6.25,76.42,14,114.63,21.05,14.19,2.61,28.42,5,42.64,7.46a18.18,18.18,0,0,0,2.08.15,9.12,9.12,0,0,0,1.33.38c10.82,1.56,21.64,3.19,32.47,4.64,8,1.07,16,1.93,24,2.89,3.92.53,7.83,1,11.75,1.59,16.85,2.36,33.79,3.83,50.79,4.51a24.41,24.41,0,0,1,.46,3.9c-.19,5.37.45,10.69.63,16,.12,3.55.19,7.12.39,10.68.42,7.55.81,15.11,1.21,22.66-12.94-.23-25.85-1-38.76-1.87-10.42-.69-20.81-1.74-31.19-2.81a20.77,20.77,0,0,0-2.09,0c-1.07-.15-2.14-.34-3.21-.46l-34.28-3.63c-7.08-.73-14.17-1.37-21.25-2.05-4.85-.58-9.69-1.21-14.55-1.74q-15.62-1.69-31.24-3.3c-.54,0-1.08,0-1.87,0,1.07,5.46,2.22,10.86,3.18,16.28,1.36,7.7,3,15.35,4.42,23.05,1.85,10.17,4.31,20.23,6.48,30.35a24.69,24.69,0,0,1,.33,7.18H217.7c-.61,0-1.22-.12-1.82-.17A63.7,63.7,0,0,0,201.34,330.22Z" transform="translate(-63.67 -127.18)"/><path class="a" d="M409.72,127.83a171.79,171.79,0,0,1,35.12.54A124.76,124.76,0,0,1,492,142.83c16,9,28.24,21.34,33.48,39.43a65.41,65.41,0,0,1-2,46,49.1,49.1,0,0,1-4.91,8.33,27.25,27.25,0,0,1-6.22-3.12q-21-10.58-42-21.23c-.8-.41-1.82-.6-1.9-1.82.26-.17.51-.36.78-.51,5.54-3,6.29-6.53,2.27-11.36a31.21,31.21,0,0,0-11.67-8.24,86.6,86.6,0,0,0-17-5.17,167.11,167.11,0,0,0-34.11-3.7c.11-3.79.15-7.56.37-11.37.49-8.49-.12-17,.49-25.53C410,139,409.72,133.41,409.72,127.83Z" transform="translate(-63.67 -127.18)"/><path class="a" d="M343.62,282.69a65.31,65.31,0,0,0,24.44,17.18,112.69,112.69,0,0,0,50.86,9.44,167,167,0,0,0,34.5-6.28c5.54-1.5,11-3.26,16.63-4.44a17.12,17.12,0,0,1,20.07,13.57,16.81,16.81,0,0,1,.29,2.34,19.2,19.2,0,0,1-11.45,20A168.19,168.19,0,0,1,440,347.56a193.14,193.14,0,0,1-52,4.15A142.19,142.19,0,0,1,312.9,327a83.71,83.71,0,0,1-9-7.36,2.5,2.5,0,0,0,1.41-.75c6.61-6.16,13.21-12.34,19.86-18.46,4.61-4.23,9.34-8.32,13.9-12.61A15.35,15.35,0,0,0,343.62,282.69Z" transform="translate(-63.67 -127.18)"/><path class="a" d="M409.71,127.83c0,5.59.32,11.19-.07,16.75-.61,8.51,0,17-.49,25.53-.22,3.78-.26,7.56-.37,11.37-2.76.48-5.56.31-8.33.6a106.19,106.19,0,0,0-41.38,13.07,48.54,48.54,0,0,0-18,14.79c-8-.95-16-1.82-24-2.89-10.84-1.45-21.65-3.07-32.48-4.63a10,10,0,0,1-1.32-.39,116.57,116.57,0,0,1,23.19-32.12,135.18,135.18,0,0,1,73.4-38.42q10.39-2,20.91-3.06C403.74,128.11,406.73,128,409.71,127.83Z" transform="translate(-63.67 -127.18)"/><path class="a" d="M468.47,210.46c.06,1.2,1.09,1.4,1.89,1.82q21,10.64,42,21.23a27.8,27.8,0,0,0,6.21,3.12,58.77,58.77,0,0,1-21,18.44,112.82,112.82,0,0,1-42,12.73,339,339,0,0,1-46.28,1.78,7.76,7.76,0,0,1-3-.28c-.4-7.55-.79-15.11-1.21-22.67-.19-3.56-.26-7.13-.38-10.67-.19-5.34-.83-10.67-.63-16a26.78,26.78,0,0,0-.46-3.9c13.19,0,26.38.27,39.56-1A97.55,97.55,0,0,0,468.47,210.46Z" transform="translate(-63.67 -127.18)"/><path class="a" d="M343.62,282.69a15.4,15.4,0,0,1-4.58,5.15c-4.55,4.28-9.29,8.37-13.89,12.6-6.65,6.12-13.26,12.3-19.87,18.47a2.52,2.52,0,0,1-1.4.74,73.09,73.09,0,0,1-17.08-23.29,141.66,141.66,0,0,1-9.47-28.78c-.69-3-1.2-6.09-1.79-9.14,7.09.68,14.18,1.32,21.25,2.05q17.15,1.77,34.28,3.63c1.08.12,2.15.3,3.22.46A44.22,44.22,0,0,0,343.62,282.69Z" transform="translate(-63.67 -127.18)"/><path class="a" d="M422.31,448.2A17.91,17.91,0,0,1,398,446a19.63,19.63,0,0,1,.25-25.43,19.11,19.11,0,0,1,25.41-1.86c0-1.7-.19-3.44,1.52-4.32a5.23,5.23,0,0,1,4.1-.31,3.67,3.67,0,0,1,3,3.89c0,11.12.06,22.24-.07,33.36a15,15,0,0,1-12.76,15.75A30.15,30.15,0,0,1,396.69,464c-2.39-1.44-3.1-3-2.16-5.12a4.23,4.23,0,0,1,5.53-2.31l.13.06a30.67,30.67,0,0,0,13.19,2.18C420.12,458.89,423.25,455.23,422.31,448.2Zm.11-14.74a8.93,8.93,0,1,0-8.94,9,8.64,8.64,0,0,0,8.94-8.33v-.63Z" transform="translate(-63.67 -127.18)"/><path class="a" d="M239.26,426.44V404.28c0-2.82.25-3.06,3-3.07,9.55,0,19.1.05,28.65,0,2.24,0,3.13.8,3,3-.1,1.39,0,2.79,0,4.19,0,2.63-.46,3.05-3.18,3.05-6.06,0-12.12.05-18.19,0-1.48,0-2.05.31-2,1.89a62.87,62.87,0,0,1,0,7c-.07,1.43.37,1.85,1.82,1.82,5.2-.09,10.41.05,15.62-.08,2.27,0,3.09.85,2.92,3a36.61,36.61,0,0,0,0,4.19c.09,2-.73,2.79-2.76,2.76-5.13-.09-10.26,0-15.38-.07-1.65,0-2.4.25-2.22,2.11a37.82,37.82,0,0,1,0,5.83c-.09,1.43.37,1.84,1.82,1.82,6.68-.08,13.36,0,20-.08,1.67,0,2.12.5,2,2.09a59.27,59.27,0,0,0,0,6.53c0,1.19-.29,1.63-1.55,1.62q-15.62-.06-31.23,0c-2,0-2.46-1.08-2.46-2.81C239.27,441.52,239.26,434,239.26,426.44Z" transform="translate(-63.67 -127.18)"/><path class="a" d="M203.93,418.05c1.29-3.26,3-4.37,5.62-3.84,2.31.46,3.44,2.16,3.45,5.31,0,10.26,0,20.53,0,30.78,0,1.62-.41,2.28-2.06,2.07a18.23,18.23,0,0,0-2.56,0c-4.23.05-4.23.05-4.7-4.29a18.21,18.21,0,0,1-25.65-2.37,18.92,18.92,0,0,1-1.58-2.21,19.84,19.84,0,0,1,3.5-24.71A19.07,19.07,0,0,1,203.93,418.05Zm-1.2,15.35a9,9,0,1,0-17.92-.56v.33a9,9,0,0,0,17.92.57Z" transform="translate(-63.67 -127.18)"/><path class="a" d="M348.22,436c-3.64,0-7.31.09-11,0-1.87-.07-1.89.64-1.34,2.06a8,8,0,0,0,6.5,5.38,14.9,14.9,0,0,0,10.82-1.5,4.77,4.77,0,0,1,5.27-.33,3.54,3.54,0,0,1,1.83,4.66,3.72,3.72,0,0,1-.83,1.17,18.12,18.12,0,0,1-11.77,5.42,20.06,20.06,0,0,1-21.95-10.92,19.38,19.38,0,0,1,3-21.59,19,19,0,0,1,21-5.92,18.12,18.12,0,0,1,12.33,19.69c-.07,1.56-1.11,1.87-2.41,1.87ZM344,429.17c2.24,0,4.48-.05,6.73,0,1.28,0,1.41-.45,1.05-1.52a8.35,8.35,0,0,0-7.82-5.18,8.58,8.58,0,0,0-7.81,5.25c-.42,1.18-.06,1.49,1.12,1.45,2.25,0,4.49,0,6.73,0Z" transform="translate(-63.67 -127.18)"/><path class="a" d="M480.33,436c-3.73,0-7.46,0-11.19,0-1.38,0-1.78.29-1.27,1.72a8.22,8.22,0,0,0,7.16,5.83,15,15,0,0,0,10.57-1.76,4.46,4.46,0,0,1,5.45.11,3.42,3.42,0,0,1,1.23,4.67,3.31,3.31,0,0,1-.59.75,18.07,18.07,0,0,1-11.94,5.54,19.86,19.86,0,0,1-22.57-12.67,19.35,19.35,0,0,1,4.31-20.54,19.1,19.1,0,0,1,20.3-5.19,18.14,18.14,0,0,1,12.28,19.89c-.1,1.64-1.36,1.66-2.57,1.67C487.77,436,484.05,436,480.33,436ZM476,429.17c2.25,0,4.51-.08,6.75,0,1.54.09,1.43-.6,1-1.63a8.25,8.25,0,0,0-7.68-5.07,8.49,8.49,0,0,0-7.87,5.19c-.46,1.12-.24,1.54,1,1.5,2.24-.05,4.49,0,6.74,0Z" transform="translate(-63.67 -127.18)"/><path class="a" d="M119.53,452.31a19.06,19.06,0,1,1,19.73-19.55,19.45,19.45,0,0,1-19.32,19.55Zm8.64-19a8.92,8.92,0,1,0-17.84-.51,5.42,5.42,0,0,0,0,.57,8.92,8.92,0,0,0,17.84-.06Z" transform="translate(-63.67 -127.18)"/><path class="a" d="M514.4,453a28,28,0,0,1-13-3.19,9,9,0,0,1-2.76-2.09,3.8,3.8,0,0,1-.86-4.3,4.12,4.12,0,0,1,3.91-2.44,6.42,6.42,0,0,1,3.68,1.23,16.84,16.84,0,0,0,11.46,2,3,3,0,0,0,3.05-2.73c.15-1.94-1.36-2.47-2.82-2.83-2.86-.7-5.75-1.26-8.64-1.89a12.51,12.51,0,0,1-9.62-6.55,10.81,10.81,0,0,1,3.88-13.58,25.41,25.41,0,0,1,23.38-.75,12.56,12.56,0,0,1,1.5,1.1,4,4,0,0,1,1.23,5.51l0,0a4.33,4.33,0,0,1-5.91,1.43,17.51,17.51,0,0,0-8.27-2,8,8,0,0,0-3.42.61,2.42,2.42,0,0,0-1.79,2.21,2.37,2.37,0,0,0,1.74,2.24A45.69,45.69,0,0,0,519,428.8a31.73,31.73,0,0,1,5.8,1.66,10.66,10.66,0,0,1,2.27,18.68A20.94,20.94,0,0,1,514.4,453Z" transform="translate(-63.67 -127.18)"/><path class="a" d="M289.91,417.47a21.36,21.36,0,0,1,16.78-3.4,14.13,14.13,0,0,1,11.09,13.61c.36,7.37.16,14.77.22,22.15a1.77,1.77,0,0,1-2,2h-.23c-9.23-.09-7.52,1.12-7.64-7.1-.08-4.35,0-8.71,0-13.06a8.77,8.77,0,0,0-8.76-8.77h-.45a7.89,7.89,0,0,0-8.11,7.65,7.38,7.38,0,0,0,0,.94c-.05,6.14-.07,12.28,0,18.42,0,1.59-.33,2.21-2,2.05a35.34,35.34,0,0,0-5.82,0c-1.71.14-2-.55-2-2.11.06-10.18,0-20.37,0-30.55,0-3.63.76-5,3.07-5.45C286.62,413.37,288.5,414.5,289.91,417.47Z" transform="translate(-63.67 -127.18)"/><path class="a" d="M85.4,401.73c6.37,0,12.73,0,19.1,0,2,0,2.87.7,2.77,2.73-.07,1.47-.07,2.95,0,4.43.1,1.94-.85,2.61-2.68,2.59-4-.05-8.08.06-12.11-.05-1.63,0-2.09.42-2.08,2.07.07,12,0,24.1.07,36.13,0,1.75-.31,2.54-2.27,2.32a33.27,33.27,0,0,0-5.82,0c-1.56.11-1.92-.45-1.91-1.95.06-12,0-24.1.08-36.13,0-1.91-.4-2.52-2.39-2.43-3.87.17-7.76,0-11.64.07-2.11,0-2.89-.8-2.85-2.91.16-7.81-1-6.75,6.82-6.82C75.47,401.7,80.43,401.73,85.4,401.73Z" transform="translate(-63.67 -127.18)"/><path class="a" d="M145.79,433.28c0-2.73-.11-5.46,0-8.16.08-1.64-.42-2.31-2.05-2-2.35.46-3.26-.5-2.85-2.85a14.43,14.43,0,0,0,0-1.86c0-1.31-.36-2.9.24-3.87s2.27-.34,3.5-.36,1.1-.79,1.1-1.56c0-2.88.13-5.77-.05-8.64-.13-2,.61-2.49,2.35-2.18h.46c2.3.15,5.45-1,6.66.46s.38,4.44.39,6.76c0,5.08,0,5.07,5,5.09,1.63,0,3.27,0,4.89.09a4.41,4.41,0,0,1,4.57,4.25v.05a4.35,4.35,0,0,1-4.23,4.47h-.19a71.49,71.49,0,0,1-8.15.07c-1.47-.05-2,.3-2,1.89.12,4.12,0,8.24,0,12.36a5.69,5.69,0,0,0,8.43,5.65c.72-.27,1.41-.63,2.15-.85a4.21,4.21,0,0,1,5.21,1.9,4.28,4.28,0,0,1-.85,5.34c-4.55,4.72-18.11,4.22-22.31-.83a10.62,10.62,0,0,1-2.44-6.87c0-2.8,0-5.6,0-8.39Z" transform="translate(-63.67 -127.18)"/><path class="a" d="M201.34,330.22a64.45,64.45,0,0,1,14.56-.12c.61,0,1.22.17,1.81.17h24.61a17.4,17.4,0,0,1-8.36,15,23.62,23.62,0,0,1-21.62,2.34A12.37,12.37,0,0,1,204,338.9C203.23,336,202.24,333.1,201.34,330.22Z" transform="translate(-63.67 -127.18)"/><path class="a" d="M232,428.3c0,7.23,0,14.46,0,21.69,0,1.56-.45,2-2,1.95-2.25-.11-4.5-.07-6.75,0-1.11,0-1.69-.18-1.69-1.5,0-14.7,0-29.38.05-44.07a4.55,4.55,0,0,1,4.57-4.53l.58,0a4.61,4.61,0,0,1,5.11,4.05,4.18,4.18,0,0,1,0,.71C232,413.85,232,421.07,232,428.3Z" transform="translate(-63.67 -127.18)"/><path class="a" d="M376.3,419.49a15.52,15.52,0,0,1,9.41-5.94,6,6,0,0,1,6.39,1.65,4,4,0,0,1-2.38,6.77c-.31.07-.62.11-.91.16a11.59,11.59,0,0,0-11.17,12q0,.42.06.84c-.06,4.89-.08,9.8,0,14.69,0,1.67-.3,2.4-2.15,2.22-2.37-.24-5.59.68-7-.55-1.56-1.4-.46-4.67-.48-7.12-.06-8.79,0-17.57,0-26.38a3.47,3.47,0,0,1,2.23-3.7,4.6,4.6,0,0,1,5,.91C376.51,416.1,376.16,417.61,376.3,419.49Z" transform="translate(-63.67 -127.18)"/><path class="a" d="M440.41,434.13c0-4.73,0-9.46,0-14.19,0-3.52,1.81-5.54,4.82-5.57s5,2.09,5,5.68c0,9.7,0,19.4,0,29.1,0,2-.68,2.78-2.71,2.73-8.64-.18-7,1.14-7.18-7C440.33,441.27,440.41,437.7,440.41,434.13Z" transform="translate(-63.67 -127.18)"/><path class="a" d="M451.23,403.6a5.91,5.91,0,1,1-5.91-5.91h0A6.06,6.06,0,0,1,451.23,403.6Z" transform="translate(-63.67 -127.18)"/></svg>