<svg xmlns="http://www.w3.org/2000/svg" viewBox="0 0 503.1 130.41"><defs><style>.a{fill:#2e2e2d;}</style></defs><path class="a" d="M463,343.23V331.14a6.48,6.48,0,0,1,6-6.94,5,5,0,0,1,.95,0c6.54,0,13.09.1,19.63-.13a17.08,17.08,0,0,0,15.84-15.44,40.78,40.78,0,0,0-.58-7.56,21,21,0,0,1,4.75-16.55,21.58,21.58,0,0,1,22.4-7.89,20.8,20.8,0,0,1,16.52,16A22.53,22.53,0,0,1,532.19,320a22.09,22.09,0,0,1-3.25.57,39.64,39.64,0,0,1-8.56-.69,17.43,17.43,0,0,0-19.24,15.4,16.43,16.43,0,0,0-.11,2v18.15a6.45,6.45,0,0,1-6,6.87,6.61,6.61,0,0,1-.89,0h-24.2a6.5,6.5,0,0,1-6.95-6,6.91,6.91,0,0,1,0-.91Z" transform="translate(-46.09 -232.43)"/><path class="a" d="M455.7,315.92H417.59V277.79h1.3c7.77,0,15.55.09,23.3-.08A22.57,22.57,0,0,0,462.65,261a14.66,14.66,0,0,0,.32-3.24c0-6.24,0-12.48,0-18.72a6.39,6.39,0,0,1,4.82-6.36,8.78,8.78,0,0,1,2.16-.24h24.1a6.44,6.44,0,0,1,6.85,5.33,8.3,8.3,0,0,1,.11,1.57v24.28a6.46,6.46,0,0,1-6,6.89,6.61,6.61,0,0,1-.89,0c-5.62,0-11.25.16-16.85,0a19.29,19.29,0,0,0-13.4,5,22.05,22.05,0,0,0-8.19,18v22.49Z" transform="translate(-46.09 -232.43)"/><path class="a" d="M344.9,294.45A197.11,197.11,0,0,0,285.17,293c0,.3,0,.62,0,.93,0,4.73,0,9.45,0,14.17,0,.86.26,1.07,1.1,1.18a160.34,160.34,0,0,0,20.06,1.51,219.75,219.75,0,0,0,25.13-1.3c4.4-.5,8.77-1.18,13.16-1.77l.36,0c0,.33.05.65.05,1,0,3.89,0,7.8,0,11.69,0,.86-.28,1.16-1.07,1.28-5.66.79-11.29,1.74-17,2.4a178,178,0,0,1-23.77,1,183.12,183.12,0,0,1-22.92-1.71c-3.39-.49-6.77-1.12-10.16-1.64-.91-.14-1.22-.46-1.22-1.45q.06-19.22,0-38.44c0-.83.19-1.17,1.07-1.36a162.71,162.71,0,0,1,19.52-2.7,208.9,208.9,0,0,1,25.27-.57,173.9,173.9,0,0,1,29.31,3.32c.53.12.91.21.91.9,0,4.21,0,8.46,0,12.68A2.32,2.32,0,0,1,344.9,294.45Z" transform="translate(-46.09 -232.43)"/><path class="a" d="M250.4,277.82V324c-.33,0-.65.07-1,.07-4.8,0-9.59,0-14.38,0a2.67,2.67,0,0,1-1.51-.54,182.51,182.51,0,0,0-40.94-23.7l-1.18-.47V324h-16V277.83c1.87.48,3.68.91,5.48,1.41a131.24,131.24,0,0,1,32.24,14c6.86,4.09,13.53,8.5,20.28,12.76l.92.59V277.82Z" transform="translate(-46.09 -232.43)"/><path class="a" d="M116.49,277l12.28,11.22L87.44,325.38,46.09,288.24,58.4,277l29,27.86Z" transform="translate(-46.09 -232.43)"/><path class="a" d="M140.05,324V277.82h16.52V324Z" transform="translate(-46.09 -232.43)"/><path class="a" d="M363.26,277.8h16.5V324h-16.5Z" transform="translate(-46.09 -232.43)"/><path class="a" d="M358,352.08a30.83,30.83,0,0,1-.65,3.94,8.6,8.6,0,0,1-8,6.59,9.57,9.57,0,0,1-11-5.84,12.8,12.8,0,0,1-.76-6.13,18.64,18.64,0,0,1,1.07-4.48,8.06,8.06,0,0,1,6-5,13.22,13.22,0,0,1,6.19,0,8.74,8.74,0,0,1,6.8,7.51C357.78,349.7,357.83,350.77,358,352.08Zm-15.67-.44a45.54,45.54,0,0,0,1,5.05,4.67,4.67,0,0,0,8.85-.07,16,16,0,0,0,0-10,4.6,4.6,0,0,0-8.79,0,48.36,48.36,0,0,0-1,5Z" transform="translate(-46.09 -232.43)"/><path class="a" d="M304.16,353.14l3.85,4.51,4,4.69c-1.91,0-3.6,0-5.29,0-.24,0-.5-.39-.7-.63q-3.21-4-6.39-8c-.22-.28-.46-.54-.9-1.05v9.68c-1.59,0-3,0-4.48,0-.15,0-.36-.3-.45-.49a1.68,1.68,0,0,1,0-.59q0-9.12,0-18.23c0-.75.2-1.12.95-1.32a21.69,21.69,0,0,1,11.93-.14,5.68,5.68,0,0,1,4.52,4.71,4.7,4.7,0,0,1-2.59,5.3A33.58,33.58,0,0,1,304.16,353.14Zm-5.43-1.34a8.11,8.11,0,0,0,5.91-.77,4.15,4.15,0,0,0,1.76-4.42,3.21,3.21,0,0,0-2.52-3.18,25.07,25.07,0,0,0-4.5-.16.86.86,0,0,0-.62.56c0,2.64,0,5.27,0,8Z" transform="translate(-46.09 -232.43)"/><path class="a" d="M373.1,353l8.1,9.44a19,19,0,0,0-2.72,0,4.29,4.29,0,0,1-4.52-2.14,76.34,76.34,0,0,0-6.09-7.35v9.37H363c0-.32,0-.65,0-1q0-9.17,0-18.33a1.09,1.09,0,0,1,.88-1.28h.09a21.71,21.71,0,0,1,11.83-.14,5.76,5.76,0,0,1,4.65,5.26,4.62,4.62,0,0,1-2.46,4.63,24,24,0,0,1-3.88,1.34A8,8,0,0,1,373.1,353Zm-5.22-1.13a8.71,8.71,0,0,0,5.51-.55,3.92,3.92,0,0,0,2.19-4,3.62,3.62,0,0,0-2.1-3.71,8.2,8.2,0,0,0-5-.3.88.88,0,0,0-.54.64c0,2.58,0,5.18,0,7.89Z" transform="translate(-46.09 -232.43)"/><path class="a" d="M279.14,362.37c-1.66,0-3.14,0-4.62,0-.25,0-.59-.37-.7-.65-.56-1.33-1.08-2.69-1.58-4.05a.91.91,0,0,0-1-.73q-3.72,0-7.44,0a.93.93,0,0,0-1,.71c-.51,1.35-1.08,2.69-1.59,4a.9.9,0,0,1-1,.73c-1.18-.05-2.37,0-3.69,0,.16-.44.25-.74.38-1,2.74-6.46,5.5-12.92,8.22-19.39a1.08,1.08,0,0,1,1.22-.83c1.24.08,2.78-.38,3.67.2s1.14,2.13,1.62,3.27q3.52,8.28,7,16.57Zm-11.5-17.5-3.71,9.72h7.28Z" transform="translate(-46.09 -232.43)"/><path class="a" d="M316.38,362.37v-1q0-9.21,0-18.41a1.06,1.06,0,0,1,.86-1.22h0a22.22,22.22,0,0,1,11.16-.35,6.35,6.35,0,0,1,5.1,4.21,5.87,5.87,0,0,1-3.16,7.21,14.63,14.63,0,0,1-6.94,1.27h-2.19v7.61c0,.48-.13.74-.65.73C319.23,362.36,317.88,362.37,316.38,362.37Zm4.86-10.69a10.35,10.35,0,0,0,5.54-.45,3.78,3.78,0,0,0,2.27-3.93,3.62,3.62,0,0,0-2.21-3.75,8.65,8.65,0,0,0-5.06-.27.76.76,0,0,0-.52.54c0,2.59,0,5.19,0,7.85Z" transform="translate(-46.09 -232.43)"/><path class="a" d="M401.23,361.55l1.07-2.4a49.18,49.18,0,0,0,5.12.57,5.21,5.21,0,0,0,2.69-.82,2.71,2.71,0,0,0,0-4.63A25.37,25.37,0,0,0,407,352.8a21.52,21.52,0,0,1-3-1.46,5.16,5.16,0,0,1-1.75-7.08,5.09,5.09,0,0,1,1.36-1.49,8.53,8.53,0,0,1,5.21-1.89A13.66,13.66,0,0,1,415.6,342l-1,2a48.07,48.07,0,0,0-5.08-.54,3,3,0,0,0-3.19,2.74c0,.1,0,.21,0,.31a2.4,2.4,0,0,0,1.34,2.26c1.05.55,2.17.94,3.24,1.43a23.47,23.47,0,0,1,3.18,1.57,5.29,5.29,0,0,1,1.68,7.3,5.23,5.23,0,0,1-.87,1.06,8.49,8.49,0,0,1-5.22,2.37A16.84,16.84,0,0,1,401.23,361.55Z" transform="translate(-46.09 -232.43)"/><path class="a" d="M393.5,362.34h-4.93V343.73h-5.08v-2.52h15.07v2.46h-5.07Z" transform="translate(-46.09 -232.43)"/><path class="a" d="M282.9,341.2h4.82v21.12H282.9Z" transform="translate(-46.09 -232.43)"/></svg>