<svg xmlns="http://www.w3.org/2000/svg" viewBox="0 0 345.45 226.13"><defs><style>.a{fill:none;stroke:#2e2e2d;stroke-linecap:round;stroke-linejoin:round;stroke-width:8px;}</style></defs><path class="a" d="M173.24,4,4,67.69,173.24,126.1,341.45,69.23Z"/><path class="a" d="M101.83,119,173.24,145l70.39-24.26a131.93,131.93,0,0,1,7.58,62.94,307,307,0,0,1-78.31,38.48,449.77,449.77,0,0,1-45.1-18.36c-13.42-6.33-25.62-12.9-36.59-19.37A113.14,113.14,0,0,1,101.83,119Z"/><path class="a" d="M312.17,220.75l-7.49-22.14a11.18,11.18,0,0,0,.49-20.44l.93-81.09-11.5,4,.16,77.55a11.16,11.16,0,0,0,1.88,20.14l-8,22Z"/></svg>