<svg xmlns="http://www.w3.org/2000/svg" width="79.832" height="76.659" viewBox="0 0 79.832 76.659">
  <g id="Groupe_696" data-name="Groupe 696" transform="matrix(0.602, 0.799, -0.799, 0.602, -88.515, -103.219)">
    <path id="Tracé_384" data-name="Tracé 384" d="M159.419,3.714c2.6.409,16.359,2.341,25.72-5.882,4.649-4.084,6.273-9.556,6.829-11.254,1.226-3.749,2.661-8.134.693-12.784-.525-1.238-2.715-5.862-7.825-7.284-.6-.167-6.723-1.772-10.121,2.174-3,3.485-1.8,8.9.432,11.916,2.261,3.054,5.748,3.891,7.807,4.367a22.176,22.176,0,0,0,7.995.072c10.852-2.023,24.522-16.209,25.362-17.092" transform="translate(0 0.341)" fill="none" stroke="#2e2e2d" stroke-linecap="round" stroke-linejoin="round" stroke-width="5"/>
    <path id="Tracé_385" data-name="Tracé 385" d="M203.955-35.611c5.885,1.585,10.344.219,15.556-2.839a38.446,38.446,0,0,0-4.6,16.712" transform="translate(3.378 0)" fill="none" stroke="#2e2e2d" stroke-linecap="round" stroke-linejoin="round" stroke-width="5"/>
  </g>
</svg>
