<svg id="Groupe_991" data-name="Groupe 991" xmlns="http://www.w3.org/2000/svg" width="95.208" height="95.069" viewBox="0 0 95.208 95.069">
  <path id="Tracé_2927" data-name="Tracé 2927" d="M218.182,482.06c10.328.958,19.1,1.427,25.741,1.677,30.441,1.139,37.785-1.572,42.453-3.966a47.919,47.919,0,0,0,15.765-13.342c1.862-2.438,15.589-21.067,8.417-44.1-6.382-20.489-24.347-28.546-26.734-29.57-3.086-1.321-17.64-7.167-34.468-1.158-16.848,6.015-24.769,19.915-27.478,25.721-4.071,8.725-4.2,18.568-4.443,38.254C217.3,466.485,217.733,475.591,218.182,482.06Z" transform="translate(-217.41 -388.935)" fill="#ffa8b8"/>
  <g id="Groupe_735" data-name="Groupe 735" transform="translate(25.422 23.77)">
    <circle id="Ellipse_11" data-name="Ellipse 11" cx="22.182" cy="22.182" r="22.182" transform="translate(0 3.329)" fill="#ffa8b8" stroke="#2e2e2d" stroke-linecap="round" stroke-width="2"/>
    <circle id="Ellipse_12" data-name="Ellipse 12" cx="17.433" cy="17.433" r="17.433" transform="translate(4.748 8.374)" fill="#ffa8b8" stroke="#2e2e2d" stroke-linecap="round" stroke-width="2"/>
    <path id="Tracé_649" data-name="Tracé 649" d="M51.621,47.349,61.862,64.678,84.653,28.569" transform="translate(-40.289 -28.569)" fill="#ffa8b8" stroke="#2e2e2d" stroke-linecap="round" stroke-width="3"/>
  </g>
</svg>
