<svg id="Groupe_989" data-name="Groupe 989" xmlns="http://www.w3.org/2000/svg" width="95.208" height="95.069" viewBox="0 0 95.208 95.069">
  <path id="Tracé_2928" data-name="Tracé 2928" d="M218.182,482.06c10.328.958,19.1,1.427,25.741,1.677,30.441,1.139,37.785-1.572,42.453-3.966a47.919,47.919,0,0,0,15.765-13.342c1.862-2.438,15.589-21.067,8.417-44.1-6.382-20.489-24.347-28.546-26.734-29.57-3.086-1.321-17.64-7.167-34.468-1.158-16.848,6.015-24.769,19.915-27.478,25.721-4.071,8.725-4.2,18.568-4.443,38.254C217.3,466.485,217.733,475.591,218.182,482.06Z" transform="translate(-217.41 -388.935)" fill="#ffa8b8"/>
  <g id="Groupe_734" data-name="Groupe 734" transform="translate(27.435 22.189) rotate(7)">
    <path id="Tracé_647" data-name="Tracé 647" d="M39.811,1.047c-.253-.124-5.2-2.458-9.306.275l-.075.05A9.675,9.675,0,0,0,26.625,8a9.525,9.525,0,0,0,1.05,5.314C21,20.157,16.345,24.433,13.241,27.132c-.936.813-3.721,3.154-7.3,6.551C3.784,35.724,2.064,37.457.928,38.624a3.665,3.665,0,0,0-.914,2.052,4.1,4.1,0,0,0,1.254,3.1A4.688,4.688,0,0,0,4.294,45.4c1.4.068,3.008-1.456,6.231-4.5,1.018-.962,2.576-2.527,2.948-2.922,1.4-1.494-.767.866,7.447-7.527,4.6-4.7,8.814-9.051,11.739-12.08a8.648,8.648,0,0,0,6.261,1.5c4.18-.726,6-4.618,6.346-5.344a10.317,10.317,0,0,0,.557-7.126L38.141,14.63l-6.124-5.9Z" fill="#ffa8b8" stroke="#2e2e2d" stroke-width="2"/>
    <circle id="Ellipse_10" data-name="Ellipse 10" cx="1.899" cy="1.899" r="1.899" transform="translate(2.98 38.545)" fill="#ffa8b8" stroke="#2e2e2d" stroke-width="3"/>
    <path id="Tracé_648" data-name="Tracé 648" d="M7.57,0,0,7.505l5.619,5.444,7.455-7.067" transform="translate(32.551 1.194)" fill="#ffa8b8" stroke="#2e2e2d" stroke-width="3"/>
  </g>
</svg>
