<svg xmlns="http://www.w3.org/2000/svg" width="129.67" height="110.055" viewBox="0 0 129.67 110.055">
  <g id="Groupe_1010" data-name="Groupe 1010" transform="translate(8.008 116.13)">
    <g id="Calque_4" data-name="Calque 4">
      <path id="Tracé_2930" data-name="Tracé 2930" d="M47.178-58.6c-3.738,4.916-13.278,7.246-19.02,6.085-2.627-.531-6.315-1.427-3.56-4.573,1.5-1.717,9.564-1.422,11.665-1.552,3.151-.194,7.449.574,10.171-.684-1.441-2.714-18.27-8.35-12.494-14.318,4.788,2.1,9.933,7.643,13.9,11.172,1.19-6.013-1.981-11.617,3.177-16.614,6.1,3.477,1.092,16.79-1.481,21.346" fill="none" stroke="#95c072" stroke-linecap="round" stroke-linejoin="round" stroke-width="10"/>
      <path id="Tracé_2931" data-name="Tracé 2931" d="M97.393-42.739c-4.775,1.6-12.278-1.2-15.62-4.61-1.529-1.562-3.607-3.857-.306-4.716,1.8-.47,7.1,3.423,8.58,4.3,2.216,1.313,4.763,3.8,7.175,4.2.272-2.492-8.5-14.005-1.868-15.385,2.267,3.614,3.2,9.708,4.258,13.906,3.558-3.511,3.987-8.745,9.756-9.753,2.525,5.143-6.957,11.828-10.78,13.722" fill="none" stroke="#95c072" stroke-linecap="round" stroke-linejoin="round" stroke-width="10"/>
    </g>
    <g id="Calque_1" data-name="Calque 1">
      <g id="Calque_1-2" data-name="Calque 1">
        <path id="Tracé_2893" data-name="Tracé 2893" d="M-.99-85.771c-1.026,1.232-7.647,9.434-5.55,19.312C-4.3-55.9,7.017-47.623,20.671-48.293" fill="none" stroke="#171716" stroke-linecap="round" stroke-linejoin="round" stroke-width="2"/>
        <path id="Tracé_2894" data-name="Tracé 2894" d="M-.991-85.771c-.451-1.5-2.871-10.135,2.12-18.454,6.222-10.372,18.34-10.873,19.594-10.9a25.176,25.176,0,0,1,16.576,6" fill="none" stroke="#171716" stroke-linecap="round" stroke-linejoin="round" stroke-width="2"/>
        <path id="Tracé_2895" data-name="Tracé 2895" d="M37.293-109.339c5.276-3.021,12.746-.565,17.286,2.564,3.173,2.188,4.614,4.585,6.048,7.87,2.382,5.459-.6,14.756-6.447,18.122" fill="none" stroke="#171716" stroke-linecap="round" stroke-linejoin="round" stroke-width="2"/>
        <path id="Tracé_2896" data-name="Tracé 2896" d="M19.511-50.844c6.129,9.837,25.759,3.923,32.1-3.8,7.058-8.6,7.879-17.478,1.339-26.158" fill="none" stroke="#171716" stroke-linecap="round" stroke-linejoin="round" stroke-width="2"/>
        <path id="Tracé_2897" data-name="Tracé 2897" d="M51.558-78.464c-3.99,2.35-8.762,9.691-6.431,14.323" fill="none" stroke="#171716" stroke-linecap="round" stroke-linejoin="round" stroke-width="2"/>
        <path id="Tracé_2898" data-name="Tracé 2898" d="M20.177-53.421c2.314-6.479,10.711-9.548,17.054-7.616" fill="none" stroke="#171716" stroke-linecap="round" stroke-linejoin="round" stroke-width="2"/>
        <path id="Tracé_2899" data-name="Tracé 2899" d="M37.233-61.038c-6.289-2.531-11.843-11.069-9.327-18.007a14.206,14.206,0,0,1,7.064.664c8.442,3.144,10.077,13.692,10.153,14.235" fill="none" stroke="#171716" stroke-linecap="round" stroke-linejoin="round" stroke-width="2"/>
        <path id="Tracé_2900" data-name="Tracé 2900" d="M17.774-64.691c-5.142-4.129-6.113-12.011-1.255-16.9" fill="none" stroke="#171716" stroke-linecap="round" stroke-linejoin="round" stroke-width="2"/>
        <path id="Tracé_2901" data-name="Tracé 2901" d="M50.339-52.944A238.41,238.41,0,0,1,82.114-20.11" fill="none" stroke="#171716" stroke-linecap="round" stroke-linejoin="round" stroke-width="2"/>
        <path id="Tracé_2902" data-name="Tracé 2902" d="M37.9-108.456c2.476,3.109,4.913,7.7,4.376,11.756" fill="none" stroke="#171716" stroke-linecap="round" stroke-linejoin="round" stroke-width="2"/>
        <path id="Tracé_2903" data-name="Tracé 2903" d="M-.817-86.912C.527-84.4,3.222-81.8,5.975-81.35" fill="none" stroke="#171716" stroke-linecap="round" stroke-linejoin="round" stroke-width="2"/>
        <path id="Tracé_2904" data-name="Tracé 2904" d="M73.849-76.21c-1.062.571-8,4.45-9.31,11.946-1.4,8.018,4.189,16.989,13.93,20.36" fill="none" stroke="#171716" stroke-linecap="round" stroke-linejoin="round" stroke-width="2"/>
        <path id="Tracé_2905" data-name="Tracé 2905" d="M73.85-76.211a17.852,17.852,0,0,1,6.672-12.316c7.27-5.5,15.889-2.45,16.779-2.121a18.983,18.983,0,0,1,9.91,8.859" fill="none" stroke="#171716" stroke-linecap="round" stroke-linejoin="round" stroke-width="2"/>
        <path id="Tracé_2906" data-name="Tracé 2906" d="M107.264-81.937c4.541-.631,9.076,3.188,11.371,6.655a12.388,12.388,0,0,1,2.019,7.207c.134,4.492-4.57,10.152-9.607,10.866" fill="none" stroke="#171716" stroke-linecap="round" stroke-linejoin="round" stroke-width="2"/>
        <path id="Tracé_2907" data-name="Tracé 2907" d="M78.373-46.011c1.522,8.606,16.918,9.987,23.528,6.363,7.357-4.033,10.426-10.013,8.292-17.926" fill="none" stroke="#171716" stroke-linecap="round" stroke-linejoin="round" stroke-width="2"/>
        <path id="Tracé_2908" data-name="Tracé 2908" d="M108.561-56.325c-3.454.52-8.856,4.317-8.527,8.214" fill="none" stroke="#171716" stroke-linecap="round" stroke-linejoin="round" stroke-width="2"/>
        <path id="Tracé_2909" data-name="Tracé 2909" d="M79.564-47.626c3.438-3.887,10.178-3.669,14.075-.535" fill="none" stroke="#171716" stroke-linecap="round" stroke-linejoin="round" stroke-width="2"/>
        <path id="Tracé_2910" data-name="Tracé 2910" d="M93.638-48.16c-3.69-3.542-5.174-11.071-1.461-15.222a10.716,10.716,0,0,1,4.756,2.454c5.022,4.573,3.2,12.413,3.1,12.815" fill="none" stroke="#171716" stroke-linecap="round" stroke-linejoin="round" stroke-width="2"/>
        <path id="Tracé_2911" data-name="Tracé 2911" d="M85.461-69.286a8.618,8.618,0,0,1,11.663-3.536c.253.136.5.283.737.443" fill="none" stroke="#171716" stroke-linecap="round" stroke-linejoin="round" stroke-width="2"/>
        <path id="Tracé_2912" data-name="Tracé 2912" d="M85.775-36.489c-1.985,8.582-3.186,20.151-2.234,29.316" fill="none" stroke="#171716" stroke-linecap="round" stroke-linejoin="round" stroke-width="2"/>
        <path id="Tracé_2913" data-name="Tracé 2913" d="M107.439-81.147c.859,2.871,1.272,6.769-.246,9.451" fill="none" stroke="#171716" stroke-linecap="round" stroke-linejoin="round" stroke-width="2"/>
        <path id="Tracé_2914" data-name="Tracé 2914" d="M74.292-76.96c.233,2.134,1.388,4.715,3.188,5.8" fill="none" stroke="#171716" stroke-linecap="round" stroke-linejoin="round" stroke-width="2"/>
      </g>
    </g>
  </g>
</svg>
