<svg xmlns="http://www.w3.org/2000/svg" width="209.8" height="514.049" viewBox="0 0 209.8 514.049">
  <g id="Groupe_962" data-name="Groupe 962" transform="translate(-86.26 -258.101)">
    <g id="Calque_3" data-name="Calque 3" transform="translate(120.832 300.09)">
      <path id="Tracé_2637" data-name="Tracé 2637" d="M105.255,286.4c.146,70.519,5.712,141.237,6.3,211.762.274,32.81-3.145,65.02-4.261,97.7-1.224,35.9,3.835,73.546,8.422,109.074" transform="translate(-105.255 -285.354)" fill="none" stroke="#fda9b9" stroke-linecap="round" stroke-linejoin="round" stroke-width="69"/>
      <path id="Tracé_2638" data-name="Tracé 2638" d="M124.409,286.4c-8.663,28.528-.806,67.364-.052,96.932,1.011,39.722-2.451,79.352-1.033,119.134,1.434,40.226,1.085,80.558,1.085,120.859" transform="translate(-84.649 -285.354)" fill="none" stroke="#fda9b9" stroke-linecap="round" stroke-linejoin="round" stroke-width="69"/>
      <path id="Tracé_2639" data-name="Tracé 2639" d="M137.662,286.4c-5.4,67.121-1.127,135.695,5.639,202.567,4.3,42.5,3.779,88.151,3.779,129.125" transform="translate(-64.418 -285.354)" fill="none" stroke="#fda9b9" stroke-linecap="round" stroke-linejoin="round" stroke-width="69"/>
      <path id="Tracé_2640" data-name="Tracé 2640" d="M147.761,285.958c0,103.258,4.223,206.59,4.188,309.72" transform="translate(-47.313 -285.958)" fill="none" stroke="#fda9b9" stroke-linecap="round" stroke-linejoin="round" stroke-width="69"/>
      <path id="Tracé_2641" data-name="Tracé 2641" d="M160.927,289.5c-2.529,10.164-.636,21.578-.028,31.867,1.12,18.962.392,37.213-.759,56.179-2.8,46.124-3.219,93.579,1.541,139.667,2.309,22.329,3.866,45.231.061,67.388a102.13,102.13,0,0,0-1.862,19.848c.069,3.323-.56,14.065,1.047,11.511" transform="translate(-33.271 -281.13)" fill="none" stroke="#fda9b9" stroke-linecap="round" stroke-linejoin="round" stroke-width="69"/>
      <path id="Tracé_2642" data-name="Tracé 2642" d="M121.232,452c-.258,8.691-.149,25.438,8.37,31.542" transform="translate(-83.564 -59.618)" fill="none" stroke="#fda9b9" stroke-linecap="round" stroke-linejoin="round" stroke-width="69"/>
      <path id="Tracé_2643" data-name="Tracé 2643" d="M131.822,450.228" transform="translate(-69.04 -62.032)" fill="#ffa8b8" stroke="#f5b4ae" stroke-linecap="round" stroke-linejoin="round" stroke-width="39"/>
      <path id="Tracé_2644" data-name="Tracé 2644" d="M131.822,450.228c3.207,9.876,4.587,20.99,8.37,30.343" transform="translate(-69.04 -62.032)" fill="none" stroke="#fda9b9" stroke-linecap="round" stroke-linejoin="round" stroke-width="69"/>
      <path id="Tracé_2645" data-name="Tracé 2645" d="M145.1,448.457c1.926,8.694,4.849,29.246,5.232,32.437" transform="translate(-50.933 -64.446)" fill="none" stroke="#fda9b9" stroke-linecap="round" stroke-linejoin="round" stroke-width="69"/>
      <path id="Tracé_2646" data-name="Tracé 2646" d="M156.617,447.571c4.906,9.658,3.183,22.812,6.333,33.271q-.064-1.464-.054-2.926" transform="translate(-35.241 -65.654)" fill="none" stroke="#fda9b9" stroke-linecap="round" stroke-linejoin="round" stroke-width="69"/>
      <path id="Tracé_2647" data-name="Tracé 2647" d="M136.773,493.194c1.449-38.943-6.414-78.984-6.279-118.238" transform="translate(-70.853 -164.64)" fill="#ffa8b8" stroke="#fda9b9" stroke-linecap="round" stroke-linejoin="round" stroke-width="69"/>
    </g>
    <g id="Calque_5" data-name="Calque 5" transform="translate(93.828 275.591)">
      <path id="Tracé_2648" data-name="Tracé 2648" d="M93.951,278.509q22.747-1.457,45.493-2.918l.877,469.566-42.57-5.1Q95.851,509.285,93.951,278.509Z" transform="translate(-93.66 -275.591)" fill="none" stroke="#2d2d2d" stroke-width="2"/>
      <path id="Tracé_2649" data-name="Tracé 2649" d="M113.2,275.591l121.431,9.252,2.228,446.783L114.079,745.157Z" transform="translate(-67.418 -275.591)" fill="none" stroke="#2d2d2d" stroke-width="2"/>
      <path id="Tracé_2650" data-name="Tracé 2650" d="M96.3,323.614c1.354-2.224,5.917-5.4,8.611-5.258,7.352.373-1.184,6.766-5.5,6.036" transform="translate(-90.461 -217.302)" fill="none" stroke="#2d2d2d" stroke-linecap="round" stroke-linejoin="round" stroke-width="9"/>
      <path id="Tracé_2651" data-name="Tracé 2651" d="M103.812,305.151c-1.574-1.758-2.793-8.3.38-9.377,4.133-1.406,2.153,8,1.954,9.767" transform="translate(-82.404 -248.273)" fill="none" stroke="#2d2d2d" stroke-linecap="round" stroke-linejoin="round" stroke-width="9"/>
      <path id="Tracé_2652" data-name="Tracé 2652" d="M104.476,302.5c-1.51-.274-4.736.319-5.008,2.335-.536,3.958,5.835-.395,6.565-1.945" transform="translate(-86.183 -239.001)" fill="none" stroke="#2d2d2d" stroke-linecap="round" stroke-linejoin="round" stroke-width="9"/>
      <path id="Tracé_2653" data-name="Tracé 2653" d="M104.863,303.956c.766,2.273,3.131,5.078,5.927,5.078,5.447,0,1.349-5.648-2.035-6.246" transform="translate(-78.786 -238.516)" fill="none" stroke="#2d2d2d" stroke-linecap="round" stroke-linejoin="round" stroke-width="9"/>
      <path id="Tracé_2654" data-name="Tracé 2654" d="M119.918,298.071c-2.042-.347-4.121-.808-6.111.371,1.165,3.278,5.187,2.441,6.889.019" transform="translate(-66.593 -245.475)" fill="none" stroke="#2d2d2d" stroke-linecap="round" stroke-linejoin="round" stroke-width="9"/>
      <path id="Tracé_2655" data-name="Tracé 2655" d="M118.284,303.669c-1.5-2.864-.681-9.393,3.03-10.459,5.544-1.593,4.022,6.7-.3,8.122" transform="translate(-61.458 -251.85)" fill="none" stroke="#2d2d2d" stroke-linecap="round" stroke-linejoin="round" stroke-width="9"/>
      <path id="Tracé_2656" data-name="Tracé 2656" d="M117.561,299.66c-.2,3.148.711,9.025,4.308,9.833,2.354-2.557,1.288-8.5-2.363-9.443" transform="translate(-61.512 -242.781)" fill="none" stroke="#2d2d2d" stroke-linecap="round" stroke-linejoin="round" stroke-width="9"/>
      <path id="Tracé_2657" data-name="Tracé 2657" d="M123.621,288.295c.139,2.793-.874,5.071.39,7.784" transform="translate(-53.561 -258.273)" fill="none" stroke="#2d2d2d" stroke-linecap="round" stroke-width="9"/>
      <path id="Tracé_2658" data-name="Tracé 2658" d="M122.652,284.671a4.713,4.713,0,0,0,2.335,2.337" transform="translate(-54.536 -263.214)" fill="none" stroke="#2d2d2d" stroke-linecap="round" stroke-width="9"/>
      <path id="Tracé_2659" data-name="Tracé 2659" d="M125.887,287.721c0-1.812-.744-6.5.763-7.723,3.991-3.223,1.827,5.575,1.184,6.943" transform="translate(-50.377 -270.544)" fill="none" stroke="#2d2d2d" stroke-linecap="round" stroke-linejoin="round" stroke-width="9"/>
      <path id="Tracé_2660" data-name="Tracé 2660" d="M126.769,286.931c.409,1.482,3.275,6.761,5.468,6.2,3.847-.976-1.113-6.851-3.911-6.981" transform="translate(-48.924 -261.192)" fill="none" stroke="#2d2d2d" stroke-linecap="round" stroke-linejoin="round" stroke-width="9"/>
      <path id="Tracé_2661" data-name="Tracé 2661" d="M128.252,295.775c3.287-.981,9.651-6.156,13.023-5.485,4.88.974.879,5.043-1.749,5.9-3,.976-8.321.34-11.275-.8" transform="translate(-46.903 -255.635)" fill="none" stroke="#2d2d2d" stroke-linecap="round" stroke-linejoin="round" stroke-width="9"/>
      <path id="Tracé_2662" data-name="Tracé 2662" d="M125.652,294.554c0,3.186-.711,9.013,2.706,10.894,5.27,2.9,2.928-9.483-1.928-10.894" transform="translate(-50.53 -249.741)" fill="none" stroke="#2d2d2d" stroke-linecap="round" stroke-linejoin="round" stroke-width="9"/>
      <path id="Tracé_2663" data-name="Tracé 2663" d="M117.052,332.041c1.921-3.346,11.126-15.873,14.817-8.389,3.252,6.591-10.025,12.766-13.65,8" transform="translate(-62.17 -213.273)" fill="none" stroke="#2d2d2d" stroke-linecap="round" stroke-linejoin="round" stroke-width="9"/>
      <path id="Tracé_2664" data-name="Tracé 2664" d="M115.889,328.6c.362-8.607-7.283-4.766-.777.777" transform="translate(-68.404 -210.222)" fill="none" stroke="#2d2d2d" stroke-linecap="round" stroke-width="9"/>
      <path id="Tracé_2665" data-name="Tracé 2665" d="M114.253,329.261c-.071,3.512,1.437,16.4,7,15.323,7.25-1.4-1.841-14.2-5.06-16.1" transform="translate(-65.988 -203.49)" fill="none" stroke="#2d2d2d" stroke-linecap="round" stroke-linejoin="round" stroke-width="9"/>
      <path id="Tracé_2666" data-name="Tracé 2666" d="M132.508,278.248c-2,.3-4.965,3.285-2.356,4.658,1.7.9,7.366-3.181,8.973-3.88" transform="translate(-45.709 -271.969)" fill="none" stroke="#2d2d2d" stroke-linecap="round" stroke-linejoin="round" stroke-width="9"/>
      <path id="Tracé_2667" data-name="Tracé 2667" d="M130.723,294.719a6.554,6.554,0,0,1,4.67,4.28" transform="translate(-43.534 -249.517)" fill="none" stroke="#2d2d2d" stroke-linecap="round" stroke-width="10"/>
      <path id="Tracé_2668" data-name="Tracé 2668" d="M95.31,336.957c1.427-4.873,6.51-10.57,9.731-14.4" transform="translate(-91.808 -211.573)" fill="none" stroke="#2d2d2d" stroke-width="2"/>
      <path id="Tracé_2669" data-name="Tracé 2669" d="M103.216,341.577c3.285-6.64,8.711-13.248,12.846-19.735,2.562-4.022,5.128-8.493,8.4-11.986,2.6-2.777,7.3-5.965,8.725-9.538" transform="translate(-81.031 -241.883)" fill="none" stroke="#2d2d2d" stroke-width="2"/>
      <path id="Tracé_2670" data-name="Tracé 2670" d="M109.8,306.578a2.029,2.029,0,0,1,.78,2.335" transform="translate(-72.05 -233.351)" fill="none" stroke="#2d2d2d" stroke-width="2"/>
      <path id="Tracé_2671" data-name="Tracé 2671" d="M93.828,333.17c6.329-4.152,14.8-3.528,21.954-3.5,8.127.028,18.8,4.107,25.532-2.335" transform="translate(-93.828 -205.061)" fill="none" stroke="#2d2d2d" stroke-width="2"/>
      <path id="Tracé_2672" data-name="Tracé 2672" d="M109.8,306.248a7.2,7.2,0,0,0,.78,2.335" transform="translate(-72.05 -233.801)" fill="none" stroke="#2d2d2d" stroke-width="2"/>
      <path id="Tracé_2673" data-name="Tracé 2673" d="M94.651,322.39c1.354,4,3.812,6.525,3.892,10.9" transform="translate(-92.706 -211.797)" fill="none" stroke="#2d2d2d" stroke-width="2"/>
      <path id="Tracé_2674" data-name="Tracé 2674" d="M148.888,396.487c6.243,5.511,12.981,9.772,18.591,16.176,3.408,3.892,6.437,7.839,10.121,11.511,3.228,3.216,5.65,7.39,8.966,10.336" transform="translate(-18.773 -110.791)" fill="none" stroke="#2d2d2d" stroke-width="2"/>
      <path id="Tracé_2675" data-name="Tracé 2675" d="M163.48,394.023c-6.317,3.441-7.352,17.251-5.138,23.634" transform="translate(-7.332 -114.15)" fill="none" stroke="#2d2d2d" stroke-width="2"/>
      <path id="Tracé_2676" data-name="Tracé 2676" d="M169.021,421.419a51.966,51.966,0,0,0-6.508,5.138" transform="translate(-0.2 -76.805)" fill="none" stroke="#2d2d2d" stroke-linecap="round" stroke-width="8"/>
      <path id="Tracé_2677" data-name="Tracé 2677" d="M143.383,387.487c.019,6.839,4,10.384,7.985,15.649" transform="translate(-26.277 -123.059)" fill="none" stroke="#2d2d2d" stroke-width="2"/>
      <path id="Tracé_2678" data-name="Tracé 2678" d="M144.059,386.811c3.812,5.36,6.057,9.741,6.066,16.608" transform="translate(-25.355 -123.981)" fill="none" stroke="#2d2d2d" stroke-linecap="round" stroke-width="8"/>
      <path id="Tracé_2679" data-name="Tracé 2679" d="M144.87,396.406c.673,3.115,7.881,2.916,10.218,2.876" transform="translate(-24.25 -110.901)" fill="none" stroke="#2d2d2d" stroke-linecap="round" stroke-width="8"/>
      <path id="Tracé_2680" data-name="Tracé 2680" d="M152.575,399.794c-.073-2.061.775-6.173,3.521-6.336,4.471-.267.676,7.69-2.245,6.017" transform="translate(-13.752 -114.928)" fill="none" stroke="#2d2d2d" stroke-linecap="round" stroke-linejoin="round" stroke-width="8"/>
      <path id="Tracé_2681" data-name="Tracé 2681" d="M159.407,401.036c-2.585-2.883-3.552-9.365-.9-12.477,4.341,1.6,3.03,10.9,1.222,14.073" transform="translate(-7.808 -121.598)" fill="none" stroke="#2d2d2d" stroke-linecap="round" stroke-linejoin="round" stroke-width="8"/>
      <path id="Tracé_2682" data-name="Tracé 2682" d="M152.793,399.65c-1.262.922-2.02,2.389-3.193,3.512" transform="translate(-17.802 -106.479)" fill="none" stroke="#2d2d2d" stroke-linecap="round" stroke-width="8"/>
      <path id="Tracé_2683" data-name="Tracé 2683" d="M158.925,400.432c1.092-3.852,8.231-4.908,11.537-3.684,7.572,2.8-5.743,10.764-9.623,4.322" transform="translate(-5.091 -111.094)" fill="none" stroke="#2d2d2d" stroke-linecap="round" stroke-linejoin="round" stroke-width="8"/>
      <path id="Tracé_2684" data-name="Tracé 2684" d="M164.125,409.565c-2.394.976-7.99.473-6.723-3.644,1.3-4.237,6.1,2.7,8.321,3.325" transform="translate(-7.417 -99.788)" fill="none" stroke="#2d2d2d" stroke-linecap="round" stroke-linejoin="round" stroke-width="8"/>
      <path id="Tracé_2685" data-name="Tracé 2685" d="M163.114,409.786c-1.666.461-3.516,3.2-2.54,4.979,2.155,3.918,2.9-3.462,2.859-4.979" transform="translate(-3.213 -92.662)" fill="none" stroke="#2d2d2d" stroke-linecap="round" stroke-linejoin="round" stroke-width="8"/>
      <path id="Tracé_2686" data-name="Tracé 2686" d="M162.979,407.537a5.09,5.09,0,0,0,2.555-.319" transform="translate(0.436 -96.163)" fill="none" stroke="#2d2d2d" stroke-linecap="round" stroke-width="8"/>
      <path id="Tracé_2687" data-name="Tracé 2687" d="M166.173,424.249c-2.488-.288-8.919-4.341-9.689-.4-1,5.137,9.876,3.753,10.967.078" transform="translate(-8.507 -75.827)" fill="none" stroke="#2d2d2d" stroke-linecap="round" stroke-linejoin="round" stroke-width="8"/>
      <path id="Tracé_2688" data-name="Tracé 2688" d="M163.84,418.435h-.321" transform="translate(1.172 -80.872)" fill="none" stroke="#2d2d2d" stroke-width="2"/>
      <path id="Tracé_2689" data-name="Tracé 2689" d="M164.712,425.6c-1.12,1.824-.447,5.008-1.6,6.707" transform="translate(0.62 -71.108)" fill="none" stroke="#2d2d2d" stroke-linecap="round" stroke-width="8"/>
      <path id="Tracé_2690" data-name="Tracé 2690" d="M164.195,428.374a20.79,20.79,0,0,1,2.236-5.75" transform="translate(2.093 -75.162)" fill="none" stroke="#2d2d2d" stroke-width="2"/>
      <path id="Tracé_1389" data-name="Tracé 1389" d="M119.124,439.375a5.4,5.4,0,0,0-1.392,2.5c-1.869,6.463-1.416,15.8-1.25,18.747.092,1.706.236,3.762,1.666,5.272a5.512,5.512,0,0,0,2.911,1.557c8.25-.5,14.912-.756,19.139-.891,24.957-.794,49.733-4.922,74.652-6.624,1.631-.113,5.771-.366,8.082-3.457.86-1.148,1.208-2.337,1.527-10.658.352-9.174.073-11.433-1.465-12.619a4.461,4.461,0,0,0-3.105-.756c-3.493.236-94.075,5.532-97.19,5.631A5.329,5.329,0,0,0,119.124,439.375Z" transform="translate(-63.179 -61.83)" fill="none" stroke="#2a2a29" stroke-linecap="round" stroke-linejoin="round" stroke-width="2"/>
      <path id="Tracé_1390" data-name="Tracé 1390" d="M140.307,437.453l48.745-3.547v16.426l-12.376.773" transform="translate(-30.47 -59.783)" fill="none" stroke="#2a2a29" stroke-linecap="round" stroke-linejoin="round" stroke-width="2"/>
      <path id="Tracé_1391" data-name="Tracé 1391" d="M141.06,436.716v14.3l-7.68.685" transform="translate(-39.912 -55.952)" fill="none" stroke="#2a2a29" stroke-linecap="round" stroke-linejoin="round" stroke-width="2"/>
      <path id="Tracé_1392" data-name="Tracé 1392" d="M162.06,435.589l-44.087,2.744v18.255L136.6,454.91" transform="translate(-60.915 -57.489)" fill="none" stroke="#2a2a29" stroke-linecap="round" stroke-linejoin="round" stroke-width="2"/>
      <path id="Tracé_1393" data-name="Tracé 1393" d="M156.714,447.939l-11.062,1.382-5.343.829v-13" transform="translate(-30.467 -55.366)" fill="none" stroke="#2a2a29" stroke-linecap="round" stroke-linejoin="round" stroke-width="2"/>
      <path id="Tracé_1394" data-name="Tracé 1394" d="M124.315,449.229a18.682,18.682,0,0,1,9.935-6.473,18.429,18.429,0,0,1,14.9,3.155" transform="translate(-52.269 -48.317)" fill="none" stroke="#2a2a29" stroke-linecap="round" stroke-linejoin="round" stroke-width="2"/>
      <path id="Tracé_1395" data-name="Tracé 1395" d="M145.9,447.036a18.673,18.673,0,0,1,9.937-6.473,18.433,18.433,0,0,1,14.9,3.153" transform="translate(-22.848 -51.307)" fill="none" stroke="#2a2a29" stroke-linecap="round" stroke-linejoin="round" stroke-width="2"/>
      <line id="Ligne_199" data-name="Ligne 199" y2="21.671" transform="translate(103.354 375.055)" fill="none" stroke="#2a2a29" stroke-linecap="round" stroke-width="2"/>
      <path id="Tracé_2691" data-name="Tracé 2691" d="M136.858,418.807c-9.817-1.222-5.175,11.977-10.4,16.346" transform="translate(-49.348 -80.474)" fill="none" stroke="#2a2a29" stroke-width="2"/>
      <path id="Tracé_2692" data-name="Tracé 2692" d="M129.39,423.185c-3.736-.555-4.852,5.116-1.784,4.755" transform="translate(-50.201 -74.449)" fill="none" stroke="#2a2a29" stroke-width="2"/>
      <path id="Tracé_2693" data-name="Tracé 2693" d="M137.4,437.692a13.375,13.375,0,0,1-7.446-1.118,5.662,5.662,0,0,0-3.181-.785c-.995.09-2.432.555-2.562,1.333-.182,1.085,2.2,2.595,4.133,3.086,9.779,2.491,12.874-6.366,15.006-13.917.64-2.264,1.113-6.012-.773-7.3-1.182-.806-2.881-.324-3.833.04" transform="translate(-52.424 -80.704)" fill="none" stroke="#2a2a29" stroke-width="2"/>
      <path id="Tracé_2694" data-name="Tracé 2694" d="M133.268,423.917a3.213,3.213,0,0,1,2.441-.449c.383.1.917.229,1.115.643.317.657-.555,1.321-1.685,3.23-1.153,1.95-1.276,3-2.283,3.332a2.891,2.891,0,0,1-1.3.09,2.552,2.552,0,0,1-1.028-.454" transform="translate(-43.799 -74.127)" fill="none" stroke="#2a2a29" stroke-width="2"/>
      <path id="Tracé_2695" data-name="Tracé 2695" d="M127.429,432.717c0-.924.8-1.389,1.26-2.013a8.7,8.7,0,0,0,1.392-2.808,24.558,24.558,0,0,0,.21-2.982,5.965,5.965,0,0,1,1.276-2.859c1.416-1.772,3.209-.345,3.412,1.711.168,1.7-.638,3.987-1.2,5.558a16.634,16.634,0,0,1-1.312,2.581c-.317.548-1.179,2.236-1.784,2.2" transform="translate(-48.025 -77.033)" fill="none" stroke="#2a2a29" stroke-width="2"/>
      <path id="Tracé_2696" data-name="Tracé 2696" d="M159.3,417.724c-9.817-1.224-5.175,11.977-10.4,16.344" transform="translate(-18.756 -81.95)" fill="none" stroke="#2a2a29" stroke-width="2"/>
      <path id="Tracé_2697" data-name="Tracé 2697" d="M151.832,422.1c-3.736-.553-4.852,5.116-1.782,4.755" transform="translate(-19.608 -75.927)" fill="none" stroke="#2a2a29" stroke-width="2"/>
      <path id="Tracé_2698" data-name="Tracé 2698" d="M159.842,436.61a13.379,13.379,0,0,1-7.446-1.12,5.685,5.685,0,0,0-3.181-.785c-.995.09-2.432.555-2.562,1.335-.182,1.085,2.2,2.595,4.133,3.086,9.781,2.488,12.874-6.369,15.008-13.917.638-2.264,1.111-6.012-.773-7.3-1.184-.8-2.883-.324-3.835.043" transform="translate(-21.832 -82.181)" fill="none" stroke="#2a2a29" stroke-width="2"/>
      <path id="Tracé_2699" data-name="Tracé 2699" d="M155.71,422.832a3.228,3.228,0,0,1,2.441-.449c.385.1.919.232,1.118.645.314.657-.555,1.321-1.685,3.228-1.153,1.952-1.278,3-2.283,3.335a2.881,2.881,0,0,1-1.3.087,2.521,2.521,0,0,1-1.028-.454" transform="translate(-13.207 -75.604)" fill="none" stroke="#2a2a29" stroke-width="2"/>
      <path id="Tracé_2700" data-name="Tracé 2700" d="M149.871,431.634c0-.924.8-1.389,1.262-2.016a8.7,8.7,0,0,0,1.39-2.8,24.6,24.6,0,0,0,.213-2.985,5.922,5.922,0,0,1,1.276-2.857c1.413-1.772,3.207-.345,3.41,1.711.17,1.7-.636,3.987-1.2,5.558a16.826,16.826,0,0,1-1.314,2.578c-.317.548-1.177,2.238-1.784,2.2" transform="translate(-17.433 -78.51)" fill="none" stroke="#2a2a29" stroke-width="2"/>
      <path id="Tracé_2701" data-name="Tracé 2701" d="M128.193,301.708a26.835,26.835,0,0,0,2.963,9.013c1.857-4.6,3.885-9.292,5.863-13.806" transform="translate(-46.983 -246.522)" fill="none" stroke="#2a2a29" stroke-width="2"/>
      <path id="Tracé_2702" data-name="Tracé 2702" d="M137.466,300.141c-3.235-1.073-4.1,4.24-2.153,6.18,2.937,2.918,7.943-.215,6.655-4.232-1.238-3.859-7.676-3.656-7.983.638a4.812,4.812,0,0,0,7.387,4.384c4.61-3.1-.414-8.682-4.665-8.484" transform="translate(-39.104 -244.198)" fill="none" stroke="#2a2a29" stroke-width="2"/>
      <path id="Tracé_2703" data-name="Tracé 2703" d="M140.642,297.556c-1.373,2.42-.815,16.19,3.278,12.865" transform="translate(-30.93 -245.649)" fill="none" stroke="#2a2a29" stroke-width="2"/>
      <path id="Tracé_2704" data-name="Tracé 2704" d="M139.186,299.209c1.985.007,4.523-.328,6.307.253" transform="translate(-31.998 -243.519)" fill="none" stroke="#2a2a29" stroke-width="2"/>
      <path id="Tracé_2705" data-name="Tracé 2705" d="M140.15,297.663c0,2.136-.269,14.236,3.027,12.612" transform="translate(-30.691 -245.503)" fill="none" stroke="#2a2a29" stroke-width="2"/>
      <path id="Tracé_2706" data-name="Tracé 2706" d="M143.349,298.944v10.341" transform="translate(-26.323 -243.757)" fill="none" stroke="#2a2a29" stroke-width="2"/>
      <path id="Tracé_2707" data-name="Tracé 2707" d="M143.669,299.264c.685,2.441.253,7.3.253,8.829" transform="translate(-25.887 -243.321)" fill="none" stroke="#2a2a29" stroke-width="2"/>
      <path id="Tracé_2708" data-name="Tracé 2708" d="M143.456,303.094a4.688,4.688,0,0,1,4.792-4.036" transform="translate(-26.177 -243.621)" fill="none" stroke="#2a2a29" stroke-width="2"/>
      <path id="Tracé_2709" data-name="Tracé 2709" d="M143.99,301.855c.716-1.893,2.819-1.827,3.783-2.271" transform="translate(-25.449 -242.885)" fill="none" stroke="#2a2a29" stroke-width="2"/>
      <path id="Tracé_2710" data-name="Tracé 2710" d="M145.591,299.264v.756" transform="translate(-23.267 -243.321)" fill="none" stroke="#2a2a29" stroke-width="2"/>
      <path id="Tracé_2711" data-name="Tracé 2711" d="M147.192,301.633c2.609-.73,6.466-.25,8.576-.253" transform="translate(-21.085 -240.644)" fill="none" stroke="#2a2a29" stroke-width="2"/>
      <path id="Tracé_2712" data-name="Tracé 2712" d="M156.671,304.568c-.239-3.313-4.561-6.26-7.328-3.464-2.8,2.831-.534,9.06,3.84,7.512.695-.246,1.219-1.217,2.009-.919,1.033.392-.773,1.063-1.349,1.264a5.062,5.062,0,0,1-5.133-1.257c-1.456-1.453-2.481-3.93-1.687-5.917.893-2.233,3.011-2.921,5.246-2.569,1.917.3,5.01,2.67,4.315,5.012-.354,1.2-2.907.773-3.991.773-.941,0-3.819.269-4.36-.347" transform="translate(-21.692 -243.502)" fill="none" stroke="#2a2a29" stroke-width="2"/>
      <path id="Tracé_2713" data-name="Tracé 2713" d="M136.507,298.634c-2.727,1.857-3.349,5-1.935,8.077,1.614,3.514,6.662,2.692,8.023-.527a6.624,6.624,0,0,0,.265-5.029" transform="translate(-39.287 -244.18)" fill="none" stroke="#2a2a29" stroke-width="2"/>
      <path id="Tracé_2714" data-name="Tracé 2714" d="M136.076,298.56c-2.569,1.616-3.63,7.531-.522,9.308" transform="translate(-39.55 -244.281)" fill="none" stroke="#2a2a29" stroke-width="2"/>
      <path id="Tracé_2715" data-name="Tracé 2715" d="M134.674,298.8a1.893,1.893,0,0,1,2.132-.045,15.3,15.3,0,0,1,2.217,1" transform="translate(-38.149 -244.432)" fill="none" stroke="#2a2a29" stroke-width="2"/>
      <path id="Tracé_2716" data-name="Tracé 2716" d="M135.189,298.781c.532-1.153,4.485.6,5.135,1.217,1.505,1.423,2.427,5.542.52,6.962" transform="translate(-37.446 -244.502)" fill="none" stroke="#2a2a29" stroke-width="2"/>
      <path id="Tracé_2717" data-name="Tracé 2717" d="M132.86,297.566c-.674.794-.742,2.16-1.045,3.134-.286.922-.508,1.846-.728,2.781-.331,1.406-.494,3.4-1.274,4.613" transform="translate(-44.773 -245.636)" fill="none" stroke="#2a2a29" stroke-width="2"/>
      <path id="Tracé_2718" data-name="Tracé 2718" d="M133.813,298.192a13.942,13.942,0,0,1-1.127,3.219c-.359.941-.6,1.886-.924,2.836-.4,1.172-.912,3.249-1.69,4.211" transform="translate(-44.422 -244.782)" fill="none" stroke="#2a2a29" stroke-width="2"/>
      <path id="Tracé_2719" data-name="Tracé 2719" d="M128.967,300.07c.5,1.328.983,2.732,1.567,4" transform="translate(-45.928 -242.222)" fill="none" stroke="#2a2a29" stroke-width="2"/>
      <path id="Tracé_2720" data-name="Tracé 2720" d="M129.041,300.18c.324,1.415.889,3.9,1.654,4.873" transform="translate(-45.827 -242.072)" fill="none" stroke="#2a2a29" stroke-width="2"/>
      <path id="Tracé_2721" data-name="Tracé 2721" d="M129.115,300.659c.317.948.853,2.947,1.042,3.391" transform="translate(-45.726 -241.419)" fill="none" stroke="#2a2a29" stroke-width="2"/>
      <path id="Tracé_2722" data-name="Tracé 2722" d="M128.378,300.475a25.759,25.759,0,0,1,1.479,3.566" transform="translate(-46.731 -241.67)" fill="none" stroke="#2a2a29" stroke-width="2"/>
      <path id="Tracé_2723" data-name="Tracé 2723" d="M128.636,300.806c.5,1.014.858,3.335,1.654,3.913" transform="translate(-46.379 -241.219)" fill="none" stroke="#2a2a29" stroke-width="2"/>
      <path id="Tracé_2724" data-name="Tracé 2724" d="M129.115,302.536a3.777,3.777,0,0,0,1.827.347" transform="translate(-45.726 -238.861)" fill="none" stroke="#2a2a29" stroke-width="2"/>
      <path id="Tracé_2725" data-name="Tracé 2725" d="M129.409,302.759a4.971,4.971,0,0,1,1.392.087" transform="translate(-45.326 -238.561)" fill="none" stroke="#2a2a29" stroke-width="2"/>
      <path id="Tracé_2726" data-name="Tracé 2726" d="M129.409,302.9a12.246,12.246,0,0,1,1.742,0" transform="translate(-45.326 -238.439)" fill="none" stroke="#2a2a29" stroke-width="2"/>
      <path id="Tracé_2727" data-name="Tracé 2727" d="M130,303.978a15.688,15.688,0,0,0,1.044-2.436" transform="translate(-44.523 -240.216)" fill="none" stroke="#2a2a29" stroke-width="2"/>
      <path id="Tracé_2728" data-name="Tracé 2728" d="M129.961,303.345c.411-1.184,1.354-2.6,1.479-3.828" transform="translate(-44.573 -242.976)" fill="none" stroke="#2a2a29" stroke-width="2"/>
      <path id="Tracé_2729" data-name="Tracé 2729" d="M130,303.633c.969-1.312,1.338-2.885,2.176-4.263" transform="translate(-44.523 -243.177)" fill="none" stroke="#2a2a29" stroke-width="2"/>
      <path id="Tracé_2730" data-name="Tracé 2730" d="M139.791,297.456a7.684,7.684,0,0,1,.435,3.131" transform="translate(-31.173 -245.786)" fill="none" stroke="#2a2a29" stroke-width="2"/>
      <path id="Tracé_2731" data-name="Tracé 2731" d="M139.828,297.4a5.945,5.945,0,0,1,1.468-.08c-.085,1.6.234,3.181.184,4.778" transform="translate(-31.123 -245.988)" fill="none" stroke="#2a2a29" stroke-width="2"/>
      <path id="Tracé_2732" data-name="Tracé 2732" d="M140.233,299a57.529,57.529,0,0,1,.347,5.742" transform="translate(-30.571 -243.678)" fill="none" stroke="#2a2a29" stroke-width="2"/>
      <path id="Tracé_2733" data-name="Tracé 2733" d="M140.38,299.481c0,1.957.3,3.89.347,5.828" transform="translate(-30.37 -243.025)" fill="none" stroke="#2a2a29" stroke-width="2"/>
      <path id="Tracé_2734" data-name="Tracé 2734" d="M140.122,300.364a21.715,21.715,0,0,1,.087,4" transform="translate(-30.722 -241.822)" fill="none" stroke="#2a2a29" stroke-width="2"/>
      <path id="Tracé_2735" data-name="Tracé 2735" d="M140.235,300.769a7.737,7.737,0,0,0,0,3.393" transform="translate(-30.835 -241.269)" fill="none" stroke="#2a2a29" stroke-width="2"/>
      <path id="Tracé_2736" data-name="Tracé 2736" d="M140.049,300.879a18.017,18.017,0,0,0,.26,3.656" transform="translate(-30.822 -241.119)" fill="none" stroke="#2a2a29" stroke-width="2"/>
      <path id="Tracé_2737" data-name="Tracé 2737" d="M140.168,301.284a6.9,6.9,0,0,0,.7,3.741" transform="translate(-30.768 -240.567)" fill="none" stroke="#2a2a29" stroke-width="2"/>
      <path id="Tracé_2738" data-name="Tracé 2738" d="M140.054,301.726c-.083.855.416,2.937,1.477,2.959" transform="translate(-30.827 -239.965)" fill="none" stroke="#2a2a29" stroke-width="2"/>
      <path id="Tracé_2739" data-name="Tracé 2739" d="M140.159,302.61a2.674,2.674,0,0,0,1.392,1.3" transform="translate(-30.672 -238.76)" fill="none" stroke="#2a2a29" stroke-width="2"/>
      <path id="Tracé_2740" data-name="Tracé 2740" d="M139.055,298.894a14.12,14.12,0,0,1,3.24.173c.709.033,2.843-.071,3.11.435" transform="translate(-32.177 -243.918)" fill="none" stroke="#2a2a29" stroke-width="2"/>
      <path id="Tracé_2741" data-name="Tracé 2741" d="M128.682,307.1c0,2.625.241,5.232.021,7.834-.1,1.193-.225,2.377-.286,3.566-.043.839.2,2.1.09,2.694" transform="translate(-46.685 -232.638)" fill="none" stroke="#2a2a29" stroke-width="2"/>
      <path id="Tracé_2742" data-name="Tracé 2742" d="M129.247,307.138c-.087,2.959.109,5.92-.17,8.881-.064.678-.281,4.667.083,4.778" transform="translate(-45.946 -232.587)" fill="none" stroke="#2a2a29" stroke-width="2"/>
      <path id="Tracé_2743" data-name="Tracé 2743" d="M128.6,313.234c1.472,0,2.966.073,4.436,0,1.373-.066,3.488-.378,4.788.085" transform="translate(-46.43 -224.502)" fill="none" stroke="#2a2a29" stroke-width="2"/>
      <path id="Tracé_2744" data-name="Tracé 2744" d="M129.262,312.66c1.3.021,2.573.175,3.911.175,1.314,0,2.635.21,3.918.173" transform="translate(-45.526 -225.06)" fill="none" stroke="#2a2a29" stroke-width="2"/>
      <path id="Tracé_2745" data-name="Tracé 2745" d="M136.909,309.782c-1.926,1.621-3.509,3.387-2.7,6.154.7,2.394,3.429,3.3,5.667,3.067,2.6-.269,3.578-2.417,3.391-4.8-.128-1.621-1.12-4.022-2.68-4.755-4.544-2.131-7.045,4.318-4.462,7.463,1.262,1.538,3.786,2.219,5.39.785,1.645-1.468,1.316-3.715.267-5.386-1.34-2.134-4.4-2.592-5.9-.208-1.056,1.687-1.486,6.6,1.548,6.811" transform="translate(-39.079 -230.011)" fill="none" stroke="#2a2a29" stroke-width="2"/>
      <path id="Tracé_2746" data-name="Tracé 2746" d="M148.182,311.559c-.607-1.465-2.63-1.973-4.039-1.917-3.462.144-4.878,3.951-3.878,6.882.754,2.212,4.029,3.694,6.173,2.413,2.6-1.555,2.878-4.771,2.011-7.392-.655-1.973-3.313-2.486-5.095-1.642a5.577,5.577,0,0,0-2.566,4.081c-.312,4.228,5.66,6.7,7.7,2.531.943-1.924.191-5.213-1.784-6.265-1.616-.86-4.471-.4-5.4,1.309" transform="translate(-30.953 -229.352)" fill="none" stroke="#2a2a29" stroke-width="2"/>
      <path id="Tracé_2747" data-name="Tracé 2747" d="M143.817,309.273c0,3-.087,5.962-.087,8.961" transform="translate(-25.804 -229.677)" fill="none" stroke="#2a2a29" stroke-width="2"/>
      <path id="Tracé_2748" data-name="Tracé 2748" d="M144.287,309.384c-.092,1.775-.184,3.516-.106,5.308.064,1.553.659,3.961.106,5.393" transform="translate(-25.229 -229.526)" fill="none" stroke="#2a2a29" stroke-width="2"/>
      <path id="Tracé_2749" data-name="Tracé 2749" d="M139.769,317.867c-.269,1.063,1.564,2.654,2.432,3.067a6.023,6.023,0,0,0,4.138.423c4.081-1.2,4.218-5.069,4.218-8.623" transform="translate(-31.239 -224.959)" fill="none" stroke="#2a2a29" stroke-width="2"/>
      <path id="Tracé_2750" data-name="Tracé 2750" d="M139.791,314.869a8.18,8.18,0,0,0,3.044.087" transform="translate(-31.173 -222.049)" fill="none" stroke="#2a2a29" stroke-width="2"/>
      <path id="Tracé_2751" data-name="Tracé 2751" d="M140.233,315.274c1.023.329,2.774,1.7,3.826,1.044" transform="translate(-30.571 -221.497)" fill="none" stroke="#2a2a29" stroke-width="2"/>
      <path id="Tracé_2752" data-name="Tracé 2752" d="M141.153,318.88a3.049,3.049,0,0,0,4.176,1.092,5.251,5.251,0,0,0,1.881-3.136c.324-1.177.735-3.571.12-4.655" transform="translate(-29.317 -225.713)" fill="none" stroke="#2a2a29" stroke-width="2"/>
      <path id="Tracé_2753" data-name="Tracé 2753" d="M145.209,316.919c-.265-.555.057-1.56.087-2.174.04-.813.045-1.642.043-2.437a12.64,12.64,0,0,0-.307-2.439c-.225-1.1-.267-.57-1.3-.692" transform="translate(-25.804 -229.841)" fill="none" stroke="#2a2a29" stroke-width="2"/>
      <path id="Tracé_2754" data-name="Tracé 2754" d="M148.166,310.164c-2.056.889-2.524,4.3-2.264,6.262.272,2.042,2.193,3.112,4.072,3.4a5.359,5.359,0,0,0,5.156-2.3c1.182-2.016.617-5.374-1.486-6.532a4.288,4.288,0,0,0-5.65,1.631c-.846,1.8-1.316,3.736.085,5.379,2.207,2.592,7.5,1.174,7.156-2.436a6.27,6.27,0,0,0-2.332-4.844c-1.264-.905-4.145-1.295-5.386-.173,2.826-1.635,6.976-1.385,8.217,2.139,1.148,3.261-.4,7.831-4.4,8.009a4.8,4.8,0,0,1-3.1-1.137,4.354,4.354,0,0,1-1.619-1.756c-.447-1.03-.161-1.98-.364-3.027" transform="translate(-22.932 -229.264)" fill="none" stroke="#2a2a29" stroke-width="2"/>
      <path id="Tracé_2755" data-name="Tracé 2755" d="M135.343,319.816c.321.829,0,2.136,0,3.048,0,1.054.142,2.087.092,3.138-.043.848-.829,4.292.525,4.247.312-.912-.083-2.42-.184-3.382-.125-1.163-.187-2.387-.239-3.554-.033-.775.484-3.786-.879-3.4a15.792,15.792,0,0,0,.163,2.6c.042.99.024,2.009.069,2.98a26.147,26.147,0,0,0,.291,4.317c1.319.4,1.153-.369,1.141-1.43-.019-1.38.109-2.748-.026-4.128s.111-3.294-.343-4.523" transform="translate(-38.21 -215.425)" fill="none" stroke="#2a2a29" stroke-width="2"/>
      <path id="Tracé_2756" data-name="Tracé 2756" d="M135.88,318c-.435.588-1.827-.007-1.139,1.276,1.014-.39,1.555.827,1.4-.929" transform="translate(-38.313 -217.784)" fill="none" stroke="#2a2a29" stroke-width="2"/>
      <path id="Tracé_2757" data-name="Tracé 2757" d="M147.675,323.362c-.7-1.6-1.191-2.793-3.039-3.311-2.023-.565-4.27-.825-5.9.773-3.987,3.9-.51,10.485,4.752,10.2a4.382,4.382,0,0,0,4.19-2.874" transform="translate(-34.969 -215.579)" fill="none" stroke="#2a2a29" stroke-width="2"/>
      <path id="Tracé_2758" data-name="Tracé 2758" d="M145.579,322.9a2.814,2.814,0,0,0-2.193-2.852,4.562,4.562,0,0,0-4.594,1.108c-1.3,1.217-1.628,3.6-1.25,5.265.456,2,1.869,2.833,3.786,3.405a3.94,3.94,0,0,0,4.6-1.966" transform="translate(-34.44 -215.286)" fill="none" stroke="#2a2a29" stroke-width="2"/>
      <path id="Tracé_2759" data-name="Tracé 2759" d="M140.674,321.2a9.159,9.159,0,0,0,1.654.26" transform="translate(-29.97 -213.417)" fill="none" stroke="#2a2a29" stroke-width="2"/>
      <path id="Tracé_2760" data-name="Tracé 2760" d="M144.857,322.114c-.513-2.41-3.266-2.682-5.149-1.4a5.716,5.716,0,0,0-2.16,5.416c.284,1.713,1.841,4.729,4.091,3.987" transform="translate(-34.325 -215.112)" fill="none" stroke="#2a2a29" stroke-width="2"/>
      <path id="Tracé_2761" data-name="Tracé 2761" d="M139.079,320.391c-1.957,1.241-1.307,5.312-.2,6.874a3.4,3.4,0,0,0,2.982,1.39c.945-.031,2.715-.428,2.959-1.477" transform="translate(-33.854 -214.522)" fill="none" stroke="#2a2a29" stroke-width="2"/>
      <path id="Tracé_2762" data-name="Tracé 2762" d="M140.858,323.449c.418-.239,1.125-.085,1.567-.26" transform="translate(-29.719 -210.707)" fill="none" stroke="#2a2a29" stroke-width="2"/>
      <path id="Tracé_2763" data-name="Tracé 2763" d="M143.579,319.986c-.435.4-.175,1.959-.175,2.585,0,1.094-.116,2.141-.177,3.212-.087,1.557.09,3.093.09,4.644" transform="translate(-26.522 -215.074)" fill="none" stroke="#2a2a29" stroke-width="2"/>
      <path id="Tracé_2764" data-name="Tracé 2764" d="M143.877,319.949a11.045,11.045,0,0,0,.019,3.131c.045,1.038.017,2.023-.019,3.056a21.34,21.34,0,0,0,0,4.429" transform="translate(-25.776 -215.124)" fill="none" stroke="#2a2a29" stroke-width="2"/>
      <path id="Tracé_2765" data-name="Tracé 2765" d="M144.617,318.449c-.444-.2-.971.05-1.465.007-.08,1.2.357,1.576,1.626,1.548.019-.369.012-.747.012-1.12" transform="translate(-26.604 -217.277)" fill="none" stroke="#2a2a29" stroke-width="2"/>
      <path id="Tracé_2766" data-name="Tracé 2766" d="M135.594,318c-.331.125-.905.2-.957.262" transform="translate(-38.199 -217.784)" fill="none" stroke="#2a2a29" stroke-width="2"/>
      <path id="Tracé_2767" data-name="Tracé 2767" d="M140.672,340.635c0,16.284-1.3,32.482-1.3,48.754,0,19.9.435,39.642,0,59.563" transform="translate(-31.744 -186.926)" fill="none" stroke="#2a2a29" stroke-width="2"/>
      <path id="Tracé_2768" data-name="Tracé 2768" d="M126.538,343.152c5.976-.912,12.161-.848,18.2-.867" transform="translate(-49.239 -184.677)" fill="none" stroke="#2a2a29" stroke-width="2"/>
      <path id="Tracé_2769" data-name="Tracé 2769" d="M122.322,347.868c9.58-.395,19.506-.648,29.029-1.732" transform="translate(-54.986 -179.427)" fill="none" stroke="#2a2a29" stroke-width="2"/>
      <path id="Tracé_2770" data-name="Tracé 2770" d="M119.938,351.969c10.646-1.139,21.417-.9,32.061-2.167" transform="translate(-58.236 -174.43)" fill="none" stroke="#2a2a29" stroke-width="2"/>
      <path id="Tracé_2771" data-name="Tracé 2771" d="M118.1,343.519c6.043,0,12.088-.87,18.2-.867" transform="translate(-60.735 -184.176)" fill="none" stroke="#2a2a29" stroke-width="2"/>
      <path id="Tracé_2772" data-name="Tracé 2772" d="M117,355.143c4.953,1.321,11.1-.388,16.2-.359,6.128.033,12.853,1.876,18.9.359" transform="translate(-62.234 -167.639)" fill="none" stroke="#2a2a29" stroke-width="2"/>
      <path id="Tracé_2773" data-name="Tracé 2773" d="M119.938,360.4c10.159-1.763,20.342.3,30.329-2.167" transform="translate(-58.236 -162.933)" fill="none" stroke="#2a2a29" stroke-width="2"/>
      <path id="Tracé_2774" data-name="Tracé 2774" d="M120.855,365.184c9.984-1.574,20.032-.773,29.894-3.464" transform="translate(-56.986 -158.184)" fill="none" stroke="#2a2a29" stroke-width="2"/>
      <path id="Tracé_2775" data-name="Tracé 2775" d="M119.021,368.787c5.917-.165,11.31-1.113,17.277-.851a75.858,75.858,0,0,0,21.285-2.184" transform="translate(-59.486 -152.686)" fill="none" stroke="#2a2a29" stroke-width="2"/>
      <path id="Tracé_2776" data-name="Tracé 2776" d="M121.955,372.819a214.059,214.059,0,0,0,28.594-3.032" transform="translate(-55.486 -147.187)" fill="none" stroke="#2a2a29" stroke-width="2"/>
      <path id="Tracé_2777" data-name="Tracé 2777" d="M118.838,376.6c5.36.385,11.2-.808,16.552-1.193,7.633-.553,16.318.191,23.743-1.406" transform="translate(-59.735 -141.439)" fill="none" stroke="#2a2a29" stroke-width="2"/>
      <path id="Tracé_2778" data-name="Tracé 2778" d="M119.388,380.8a208.862,208.862,0,0,1,34.66-2.167" transform="translate(-58.986 -135.24)" fill="none" stroke="#2a2a29" stroke-width="2"/>
      <path id="Tracé_2779" data-name="Tracé 2779" d="M120.3,383.758c6.5-.187,12.409-1.163,19-.433,4.438.489,9.2,2.366,13.5.433" transform="translate(-57.736 -129.097)" fill="none" stroke="#2a2a29" stroke-width="2"/>
      <path id="Tracé_2780" data-name="Tracé 2780" d="M120.3,389.371a115.482,115.482,0,0,0,23.83-2.167" transform="translate(-57.736 -123.445)" fill="none" stroke="#2a2a29" stroke-width="2"/>
      <path id="Tracé_2781" data-name="Tracé 2781" d="M144.506,344.334c11.943.6,25.2.177,36.827-2.6" transform="translate(-24.746 -185.426)" fill="none" stroke="#2a2a29" stroke-width="2"/>
      <path id="Tracé_2782" data-name="Tracé 2782" d="M146.156,349.052c9.984-.423,20.985-1.321,30.761-3.467" transform="translate(-22.497 -180.178)" fill="none" stroke="#2a2a29" stroke-width="2"/>
      <path id="Tracé_2783" data-name="Tracé 2783" d="M146.156,353.7c9.377-1.248,20.621-.466,29.461-3.9" transform="translate(-22.497 -174.43)" fill="none" stroke="#2a2a29" stroke-width="2"/>
      <path id="Tracé_2784" data-name="Tracé 2784" d="M148.173,356.118c6.395-.031,14.85.829,20.8-1.732" transform="translate(-19.747 -168.181)" fill="none" stroke="#2a2a29" stroke-width="2"/>
      <path id="Tracé_2785" data-name="Tracé 2785" d="M146.889,360.586c7.791-2.479,17.492-.834,25.565-2.167" transform="translate(-21.498 -162.683)" fill="none" stroke="#2a2a29" stroke-width="2"/>
      <path id="Tracé_2786" data-name="Tracé 2786" d="M145.423,365.553c5.428-.423,10.982-.652,16.4-1.283,4.563-.532,10.644.04,14.8-2.184" transform="translate(-23.496 -157.685)" fill="none" stroke="#2a2a29" stroke-width="2"/>
      <path id="Tracé_2787" data-name="Tracé 2787" d="M145.606,368.97c8.2-1.463,20.408,1.182,27.729-3.034" transform="translate(-23.246 -152.437)" fill="none" stroke="#2a2a29" stroke-width="2"/>
      <path id="Tracé_2788" data-name="Tracé 2788" d="M145.423,373.3c10.726-2.623,23.32,1.267,33.793-2.6" transform="translate(-23.496 -145.938)" fill="none" stroke="#2a2a29" stroke-width="2"/>
      <path id="Tracé_2789" data-name="Tracé 2789" d="M147.989,376.6q13.732-.954,27.3-2.6" transform="translate(-19.998 -141.439)" fill="none" stroke="#2a2a29" stroke-width="2"/>
      <path id="Tracé_2790" data-name="Tracé 2790" d="M146.523,382.068c6.371-.733,12.711-2.2,19.071-3.141,3.937-.579,8.9-.1,12.558-1.624" transform="translate(-21.996 -136.94)" fill="none" stroke="#2a2a29" stroke-width="2"/>
      <path id="Tracé_2791" data-name="Tracé 2791" d="M144.873,385.42c10.982-1.4,22.481-3.065,33.361-3.9" transform="translate(-24.246 -131.192)" fill="none" stroke="#2a2a29" stroke-width="2"/>
      <path id="Tracé_2792" data-name="Tracé 2792" d="M146.156,388.454c4.492.347,9.41-.418,13.876-.879,3.507-.362,10.275.785,12.986-1.288" transform="translate(-22.497 -124.695)" fill="none" stroke="#2a2a29" stroke-width="2"/>
      <path id="Tracé_2793" data-name="Tracé 2793" d="M126.733,429.147a5.675,5.675,0,0,0-1.262,3.1,1.5,1.5,0,0,0,.255,1.189,1.4,1.4,0,0,0,1.822.154,1.376,1.376,0,0,0,.338-1.1A5.924,5.924,0,0,0,126.733,429.147Z" transform="translate(-50.707 -66.27)" fill="#2a2a29"/>
      <path id="Tracé_2794" data-name="Tracé 2794" d="M128.187,429.147a5.693,5.693,0,0,0-1.262,3.1,1.51,1.51,0,0,0,.255,1.189,1.4,1.4,0,0,0,1.822.154,1.376,1.376,0,0,0,.338-1.1A5.906,5.906,0,0,0,128.187,429.147Z" transform="translate(-48.724 -66.27)" fill="#2a2a29"/>
      <g id="Tracé_2795" data-name="Tracé 2795" transform="translate(-46.738 -66.401)" fill="none">
        <path d="M129.645,429.051a5.681,5.681,0,0,0-1.262,3.1,1.5,1.5,0,0,0,.255,1.191,1.4,1.4,0,0,0,1.822.154,1.379,1.379,0,0,0,.338-1.1A5.938,5.938,0,0,0,129.645,429.051Z" stroke="none"/>
        <path d="M 129.6033935546875 431.165771484375 C 129.4792327880859 431.5191955566406 129.4039306640625 431.8733520507812 129.3802642822266 432.2214660644531 C 129.3600616455078 432.5195617675781 129.3868255615234 432.6524353027344 129.3980102539062 432.69287109375 C 129.4352264404297 432.7222595214844 129.5395355224609 432.7676391601562 129.6696624755859 432.7676391601562 C 129.7100372314453 432.7676391601562 129.7421875 432.7630310058594 129.7650909423828 432.7578430175781 C 129.7784271240234 432.7013854980469 129.7962646484375 432.589111328125 129.7977752685547 432.3894348144531 C 129.7999114990234 431.9888916015625 129.7348327636719 431.5801696777344 129.6033935546875 431.165771484375 M 129.6445159912109 429.0509338378906 C 130.2376556396484 429.9110717773438 130.8048095703125 431.076171875 130.7977600097656 432.394775390625 C 130.7929992675781 433.0281677246094 130.6582946777344 433.3187866210938 130.4597625732422 433.4983520507812 C 129.99658203125 433.9166259765625 129.0679016113281 433.833984375 128.6378326416016 433.3448181152344 C 128.4676208496094 433.1533813476562 128.3353118896484 432.8508605957031 128.3825531005859 432.1538391113281 C 128.4227294921875 431.5630493164062 128.6118011474609 430.3955993652344 129.6445159912109 429.0509338378906 Z" stroke="none" fill="#2a2a29"/>
      </g>
      <g id="Tracé_2796" data-name="Tracé 2796" transform="translate(-44.748 -66.401)" fill="none">
        <path d="M131.1,429.051a5.7,5.7,0,0,0-1.262,3.1,1.513,1.513,0,0,0,.255,1.191,1.4,1.4,0,0,0,1.822.154,1.379,1.379,0,0,0,.338-1.1A5.9,5.9,0,0,0,131.1,429.051Z" stroke="none"/>
        <path d="M 131.0644989013672 431.163818359375 C 130.9395751953125 431.518310546875 130.8638916015625 431.8730773925781 130.8401794433594 432.221435546875 C 130.8197937011719 432.5222778320312 130.8478240966797 432.6546020507812 130.8591003417969 432.6937866210938 C 130.8972930908203 432.7232055664062 131.0007934570312 432.7676391601562 131.1295776367188 432.7676391601562 C 131.1699066162109 432.7676391601562 131.2020263671875 432.7630615234375 131.2249450683594 432.7578430175781 C 131.23828125 432.7012329101562 131.2561340332031 432.5885314941406 131.2576446533203 432.3875732421875 C 131.2605285644531 431.9867553710938 131.1958618164062 431.5780334472656 131.0644989013672 431.163818359375 M 131.1044158935547 429.0509338378906 C 131.6999053955078 429.9110717773438 132.2671203613281 431.076171875 132.2576141357422 432.394775390625 C 132.2528839111328 433.0281677246094 132.1181793212891 433.3187866210938 131.9197235107422 433.4983520507812 C 131.4565124511719 433.9166870117188 130.5277862548828 433.8340454101562 130.0977325439453 433.3448181152344 C 129.9298706054688 433.1533813476562 129.7952423095703 432.8508605957031 129.8424682617188 432.1538391113281 C 129.8826904296875 431.5630493164062 130.0740661621094 430.3955993652344 131.1044158935547 429.0509338378906 Z" stroke="none" fill="#2a2a29"/>
      </g>
      <g id="Tracé_2797" data-name="Tracé 2797" transform="translate(-43.006 -66.401)" fill="none">
        <path d="M132.383,429.051a5.661,5.661,0,0,0-1.262,3.1,1.5,1.5,0,0,0,.255,1.191,1.4,1.4,0,0,0,1.822.154,1.371,1.371,0,0,0,.336-1.1A5.919,5.919,0,0,0,132.383,429.051Z" stroke="none"/>
        <path d="M 132.3403930664062 431.1643676757812 C 132.1951751708984 431.5777282714844 132.1364440917969 431.9375305175781 132.1182708740234 432.2214965820312 C 132.0980529785156 432.5195617675781 132.1248168945312 432.6524353027344 132.1360321044922 432.6929016113281 C 132.1732635498047 432.7222900390625 132.2775573730469 432.7676391601562 132.4076538085938 432.7676391601562 C 132.4476318359375 432.7676391601562 132.4795379638672 432.7631225585938 132.5024108886719 432.7579956054688 C 132.5154418945312 432.7011108398438 132.5326385498047 432.58837890625 132.5334014892578 432.3876342773438 C 132.5362548828125 431.9873046875 132.4716644287109 431.5788269042969 132.3403930664062 431.1643676757812 M 132.3825073242188 429.0509338378906 C 132.9756317138672 429.9110717773438 133.5427703857422 431.076171875 133.5333709716797 432.394775390625 C 133.5309600830078 433.0281677246094 133.3962707519531 433.3187866210938 133.1978149414062 433.4983520507812 C 132.734619140625 433.9166259765625 131.8058776855469 433.8340148925781 131.3757934570312 433.3448181152344 C 131.2056427001953 433.1533813476562 131.0733032226562 432.8508605957031 131.1205596923828 432.1538391113281 C 131.1583709716797 431.5630493164062 131.3498077392578 430.3955993652344 132.3825073242188 429.0509338378906 Z" stroke="none" fill="#2a2a29"/>
      </g>
      <path id="Tracé_2798" data-name="Tracé 2798" d="M148.642,427.767a5.675,5.675,0,0,0-1.262,3.1,1.5,1.5,0,0,0,.255,1.189,1.4,1.4,0,0,0,1.822.154,1.368,1.368,0,0,0,.336-1.1A5.9,5.9,0,0,0,148.642,427.767Z" transform="translate(-20.842 -68.151)" fill="#2a2a29"/>
      <path id="Tracé_2799" data-name="Tracé 2799" d="M150.1,427.767a5.694,5.694,0,0,0-1.262,3.1,1.509,1.509,0,0,0,.255,1.189,1.4,1.4,0,0,0,1.822.154,1.375,1.375,0,0,0,.338-1.1A5.906,5.906,0,0,0,150.1,427.767Z" transform="translate(-18.859 -68.151)" fill="#2a2a29"/>
      <path id="Tracé_2803" data-name="Tracé 2803" d="M123.521,331.777c23.2-3.245,47.379,3.28,70.755,1.193" transform="translate(-53.352 -200.258)" fill="none" stroke="#2a2a29" stroke-width="2"/>
      <path id="Tracé_2804" data-name="Tracé 2804" d="M121.5,416.035c5.523.163,11.012-1.89,16.507-2.382,6.7-.6,13.309-.907,20.016-1.184,15.81-.657,31.522-.279,47.353-2" transform="translate(-56.104 -91.727)" fill="none" stroke="#2a2a29" stroke-width="2"/>
      <path id="Tracé_2805" data-name="Tracé 2805" d="M130.586,456.3c7.647.624,15.944-.95,23.6-1.491a150.57,150.57,0,0,0,27.68-4.471" transform="translate(-43.721 -37.385)" fill="none" stroke="#2a2a29" stroke-width="2"/>
      <path id="Tracé_2806" data-name="Tracé 2806" d="M121.839,462.035c17.672-2.855,35.963-3.067,53.809-4,6.695-.35,13.3-.47,19.969-1.094,6.059-.565,12.371-1.9,18.442-2.065" transform="translate(-55.645 -31.193)" fill="none" stroke="#2a2a29" stroke-width="2"/>
      <path id="Tracé_2807" data-name="Tracé 2807" d="M124.53,470.7c13.832-1.042,28.233-4.048,42.043-5.939,13.477-1.846,27.309-1.3,40.639-4" transform="translate(-51.976 -23.168)" fill="none" stroke="#2a2a29" stroke-width="2"/>
      <path id="Tracé_2808" data-name="Tracé 2808" d="M134.791,469.787c10.972-1.917,22.8-1.524,33.788-3.975" transform="translate(-37.989 -16.29)" fill="none" stroke="#2a2a29" stroke-width="2"/>
    </g>
  </g>
</svg>
