<svg xmlns="http://www.w3.org/2000/svg" width="156.973" height="178.719" viewBox="0 0 156.973 178.719">
  <g id="Groupe_985" data-name="Groupe 985" transform="matrix(0.899, -0.438, 0.438, 0.899, -101.068, 14.289)">
    <g id="Calque_3" data-name="Calque 3" transform="translate(91.373 79.097)">
      <path id="Tracé_905" data-name="Tracé 905" d="M138.53,77.377c-13.034,0-25.2,7.789-28.373,20.274-1.411,5.555-1.155,11.761-4.275,16.57-3.973,6.125-11.764,6.411-14.238,13.045-3.931,10.534,5.406,10.243,10.164,15.489,6.093,6.717,3.732,18.306,2.975,27.019-1.732,19.928,6.348,43.815,32.724,37.477" transform="translate(-90.702 -77.377)" fill="none" stroke="#fd9b9d" stroke-linecap="round" stroke-linejoin="bevel" stroke-width="23.5"/>
    </g>
    <g id="Calque_1" data-name="Calque 1" transform="translate(89.415 74.081)">
      <g id="Groupe_764" data-name="Groupe 764">
        <path id="Tracé_906" data-name="Tracé 906" d="M164.435,113.239c-3.353-3.222,1.176-9.224.145-17.557-1.1-8.84-7.745-14.623-9.129-15.774-8.124-6.746-18.093-5.987-23.607-5.567-5.8.443-15.319,1.167-21.829,8.743-.8.934-5.813,6.927-5.859,14.891-.027,4.881,1.8,12.024,1.8,12.024a10.883,10.883,0,0,1-.352,3.622,6.3,6.3,0,0,1-2.881,3.238c-1.526.875-2.7.74-4.247.951-3.182.437-6.9,2.188-8.5,4.7-.371.58-.627,1.2-.545,7.576a122.273,122.273,0,0,0,.966,13.053c.307,2.525.472,3.343,1.114,4.25.79,1.116,1.928,1.838,7.273,3.479,5.077,1.56,7.142,1.858,7.659,3.43.082.248.062.338-.16,3.022-.1,1.243-.181,2.49-.3,3.732-.338,3.52-.53,7.346-.877,11.566-.81,9.878-1.469,9.793-1.49,15.235-.017,4.5-.026,6.751.969,9.525a21.585,21.585,0,0,0,7.518,9.686c5.433,4.279,10.982,5.3,15.532,6.131a47.725,47.725,0,0,0,19.093-.321c6.045-1.418,12.849-3.013,17.681-9.047,4.32-5.4,4.842-11.567,5.122-14.868.577-6.818-1.07-12.8-2.19-16.868-.756-2.748-1.406-6.915-2.706-15.247a6.04,6.04,0,0,1,.53-3.952c.627-1.1,1.5-1.58,3.747-2.715.566-.286,5.214-2.636,8.614-4.59,1.659-.953,2.455-1.485,2.957-2.509.712-1.452.342-2.884.068-4.349a45.037,45.037,0,0,1-.574-8.194c.087-5.129,1.668-6.629.406-9.735a7.413,7.413,0,0,0-2-2.922c-1.945-1.691-3.934-1.4-7.325-2.156C167.964,115.034,165.787,114.537,164.435,113.239Z" transform="translate(-89.415 -74.081)" fill="none" stroke="#040506" stroke-width="2.5"/>
        <path id="Tracé_907" data-name="Tracé 907" d="M126.531,80.6a26.057,26.057,0,0,1,12.64,3.1c2.2,1.187,7.134,3.844,9.565,9.265a18.424,18.424,0,0,1,1.345,8.763c-.286,8.105.991,16.2.933,24.316-.076,10.773-.131,18.473.718,28.565.759,9.021.254,18.108.683,27.153a15.228,15.228,0,0,1-1.084,7.095c-2.659,6.153-9.254,8.652-12.166,9.755a29.594,29.594,0,0,1-15.959,1.254c-4.212-.747-12.4-2.2-15.864-8.376-.522-.93-1.166-2.373-1.665-11.666-.461-8.574-.332-13.292-.332-13.293.248-9.094-.117-17.282-.846-33.655-.469-10.526-.95-15.264-.647-24.55.414-12.732,1.714-15.918,3.488-18.438C113.565,81.056,125.5,80.623,126.531,80.6Z" transform="translate(-81.929 -70.682)" fill="none" stroke="#040506" stroke-width="2.5"/>
        <path id="Tracé_908" data-name="Tracé 908" d="M124.667,83.481c5.126.335,8.539,3.55,10.5,5.395,2.1,1.977,5.546,5.227,5.763,9.74.186,3.89-2.219,4.76-2.032,9.887.1,2.654.762,2.995.893,6.346a32.147,32.147,0,0,1-.712,7.306c-.519,3.272-.5,6.131-.467,11.852a95.911,95.911,0,0,0,2.481,20.02c1.274,6.037,2.1,12.161,3.273,18.218.312,1.607.86,4.384-.458,7.069-.718,1.464-1.373,1.641-3.642,4.6-2.289,2.989-2.051,3.369-3.219,4.579-2.759,2.856-6.612,3.351-8.1,3.541a17.682,17.682,0,0,1-11.1-2.493c-.665-.379-8.028-4.737-9.551-12.873-.644-3.439.053-5.963.746-9.035a138.57,138.57,0,0,0,3.144-27.783c-.014-2.414-.166-10.154-.823-16.742-.382-3.84-.709-5.005-.365-7.434.286-2.01.86-3.675.309-6.008a10.179,10.179,0,0,0-1.359-3.109c-1.949-3.325-2.141-9.416,0-14.287A15.648,15.648,0,0,1,124.667,83.481Z" transform="translate(-79.698 -69.19)" fill="none" stroke="#040506" stroke-width="2.5" stroke-dasharray="1 0.5"/>
        <path id="Tracé_909" data-name="Tracé 909" d="M129.3,94.76a10.856,10.856,0,0,0-4.453-2.4C119.1,90.887,114.268,95,113.7,95.49" transform="translate(-76.74 -64.706)" fill="none" stroke="#040506" stroke-width="2.5" stroke-dasharray="1 0.5"/>
        <path id="Tracé_910" data-name="Tracé 910" d="M114.6,143.01a10.853,10.853,0,0,0,4.454,2.394c5.751,1.478,10.583-2.631,11.146-3.126" transform="translate(-76.272 -38.493)" fill="none" stroke="#040506" stroke-width="2.5" stroke-dasharray="1 0.5"/>
        <path id="Tracé_911" data-name="Tracé 911" d="M121.974,103.722c2.476.05,4.194,3.031,5.139,4.674.641,1.112,2.08,3.879,2.668,10.7a51.477,51.477,0,0,1-.524,13.322c-1.227,7.134-3.025,8.632-4.024,9.236a5.356,5.356,0,0,1-3.935.741c-1.98-.514-3.158-2.459-4.185-4.891a39.615,39.615,0,0,1-2.8-15.7c.03-10.517,2.458-14.007,3.168-14.958C118.312,105.737,119.89,103.681,121.974,103.722Z" transform="translate(-76.423 -58.613)" fill="none" stroke="#040506" stroke-width="2.5"/>
      </g>
    </g>
  </g>
</svg>
