<svg xmlns="http://www.w3.org/2000/svg" width="153.506" height="89.224" viewBox="0 0 153.506 89.224">
  <g id="Groupe_794" data-name="Groupe 794" transform="translate(-74.516 -244.081)">
    <g id="Calque_3" data-name="Calque 3" transform="translate(99.838 286.177)">
      <path id="Tracé_943" data-name="Tracé 943" d="M94.329,304.208c6.918.266,11.9,5.8,18.683,7.6,6.979,1.858,20.772-3.4,27.934-5.075,10.53-2.468,20.854-6.624,31.231-9.881,14.517-4.558,22.608-10.509,33.77-20.049" transform="translate(-94.329 -276.805)" fill="none" stroke="#fda9b9" stroke-linecap="round" stroke-width="23.5"/>
    </g>
    <g id="Calque_2" data-name="Calque 2" transform="translate(75.719 245.144)">
      <path id="Tracé_944" data-name="Tracé 944" d="M75.719,279l20.792-16.081,79.141-17.775,13.542,8.04,27.932,32.587-12.273,11.849-85.487,29.625c-3.147-3-7.512-6.08-12.273-5.5-2.89.35-4.086,1.825-5.5,2.115C97.413,324.719,89.927,315.569,75.719,279Z" transform="translate(-75.719 -245.144)" fill="none" stroke="#161615" stroke-width="2"/>
      <path id="Tracé_945" data-name="Tracé 945" d="M104.761,299.287c1.676,3.93,2.985,8.76,6.09,12.014" transform="translate(-67.122 -229.117)" fill="none" stroke="#161615" stroke-width="2"/>
      <path id="Tracé_946" data-name="Tracé 946" d="M99.213,309.043c1.323-8.276,9.272-16.988,14.467-22.131" transform="translate(-68.765 -232.78)" fill="none" stroke="#161615" stroke-width="2"/>
      <path id="Tracé_947" data-name="Tracé 947" d="M93.4,263.43a52.236,52.236,0,0,0,4.443,10.324,53.011,53.011,0,0,0,13.332,15.492" transform="translate(-70.487 -239.731)" fill="none" stroke="#161615" stroke-width="2"/>
      <path id="Tracé_948" data-name="Tracé 948" d="M180.149,269.179l-69.773,22.982" transform="translate(-65.46 -238.029)" fill="none" stroke="#161615" stroke-width="2"/>
      <path id="Tracé_949" data-name="Tracé 949" d="M152.714,245.144l18.65,25.19" transform="translate(-52.928 -245.144)" fill="none" stroke="#161615" stroke-width="2"/>
      <path id="Tracé_950" data-name="Tracé 950" d="M78.781,272.2c2.006,5.079,4.295,10.386,6.91,15.87a252.4,252.4,0,0,0,12.03,22.267" transform="translate(-74.813 -237.136)" fill="none" stroke="#161615" stroke-width="2"/>
      <path id="Tracé_951" data-name="Tracé 951" d="M187.549,283.325c-3.18-4.439-6.691-9.032-10.56-13.714a251.607,251.607,0,0,0-17.08-18.677" transform="translate(-50.798 -243.43)" fill="none" stroke="#161615" stroke-width="2"/>
      <path id="Tracé_952" data-name="Tracé 952" d="M134.211,258.227c-4.681,1.142-7.208,1.487-14.444,3.4-7.212,1.908-9.546,2.828-10.861,5.163-1.673,2.972-1.1,6.917.534,9.614,2.552,4.224,7.46,5.021,9.436,5.341,4.642.754,6.847-.695,16.556-3.917,7.392-2.452,14.7-5.165,22.077-7.655,3.585-1.209,6.707-2.237,7.477-4.807.971-3.236-2.374-6.962-3.026-7.655a12.847,12.847,0,0,0-5.52-3.383C150.395,252.406,146.5,255.231,134.211,258.227Z" transform="translate(-66.193 -242.612)" fill="none" stroke="#161615" stroke-width="2"/>
    </g>
  </g>
</svg>
