<svg id="Groupe_819" data-name="Groupe 819" xmlns="http://www.w3.org/2000/svg" width="128.647" height="134.337" viewBox="0 0 128.647 134.337">
  <g id="Calque_1" data-name="Calque 1" transform="translate(2.407 1.48)">
    <path id="Tracé_1114" data-name="Tracé 1114" d="M42.984,4.589a55.33,55.33,0,0,0-3.143,6.228c-.948,2.164-1.826,4.392-2.716,6.607s-1.791,4.413-2.787,6.521a42.893,42.893,0,0,1-3.352,5.965,4.938,4.938,0,0,1-.526-2.579,17.648,17.648,0,0,1,.431-3.243c.237-1.123.535-2.255.794-3.29a22.6,22.6,0,0,0,.563-2.718q.161-1.438.284-2.9t.2-2.921q.076-1.464.1-2.927t-.013-2.914a11.323,11.323,0,0,0-3.3,4.819,31.007,31.007,0,0,0-1.469,6.013c-.346,2.095-.63,4.227-1.093,6.232a16.333,16.333,0,0,1-2.165,5.465,15.893,15.893,0,0,1-.3-5.256c.157-1.77.5-3.554.826-5.34A39.866,39.866,0,0,0,26.025,13a14.405,14.405,0,0,0-.658-5.289,24.435,24.435,0,0,0-2.178,5,55.538,55.538,0,0,0-1.37,5.388c-.387,1.827-.737,3.668-1.147,5.473a41.189,41.189,0,0,1-1.5,5.252,42.415,42.415,0,0,1,.374-5.858c.245-2.244.541-4.692.674-7.088a27.78,27.78,0,0,0-.3-6.767,8.232,8.232,0,0,0-2.539-4.882,21.834,21.834,0,0,0-1.924,5.352c-.441,1.887-.726,3.855-.986,5.836s-.5,3.976-.839,5.916a29.426,29.426,0,0,1-1.479,5.584,7.768,7.768,0,0,1-.409-2.17,20.562,20.562,0,0,1,.019-2.511c.051-.859.134-1.724.208-2.54s.14-1.587.158-2.257q.038-1.424-.005-2.856t-.151-2.863q-.108-1.43-.272-2.854t-.37-2.831a12.675,12.675,0,0,0-2.155,4.828,32.96,32.96,0,0,0-.731,5.692c-.114,1.967-.151,3.966-.271,5.883a27.381,27.381,0,0,1-.77,5.394,38.156,38.156,0,0,1-2.019-5.4A53.574,53.574,0,0,1,4.051,16.7c-.346-1.946-.6-3.912-.8-5.864s-.32-3.887-.408-5.772c.205,1.67.388,3.388.53,5.13s.246,3.507.294,5.272.038,3.528-.044,5.266-.237,3.45-.482,5.112c.02-.492.056-.987.106-1.481s.114-.989.192-1.481.17-.981.276-1.464.225-.961.357-1.431" transform="translate(69.96 84.025)" fill="none" stroke="#47d1d1" stroke-linecap="round" stroke-linejoin="round" stroke-width="6"/>
    <path id="Tracé_1115" data-name="Tracé 1115" d="M35.78,25.919c.145,1.1-.532,2.839-1.709,4.747a30.094,30.094,0,0,1-4.7,5.741,17.592,17.592,0,0,1-5.735,3.885c-1.869.673-3.593.57-4.855-.776-.729-.778-.311-2.234.765-4.032a44.756,44.756,0,0,1,4.721-6.1c1.91-2.155,3.992-4.318,5.749-6.144s3.194-3.322,3.8-4.13a16.276,16.276,0,0,0-4.608,2.74c-1.461,1.169-2.871,2.52-4.3,3.831a36.258,36.258,0,0,1-4.382,3.586,12.053,12.053,0,0,1-4.86,2.011,10.681,10.681,0,0,1,1.312-2.65A29.343,29.343,0,0,1,19,25.972c.731-.879,1.5-1.745,2.21-2.585s1.382-1.652,1.917-2.423c.458-.66.935-1.315,1.415-1.968s.967-1.308,1.445-1.968.947-1.326,1.4-2,.876-1.37,1.269-2.079A9.127,9.127,0,0,0,23.555,14.9a30.6,30.6,0,0,0-4.364,4.157c-1.4,1.538-2.783,3.124-4.248,4.439A11.7,11.7,0,0,1,10.21,26.3,27.282,27.282,0,0,1,14,21.15c1.445-1.585,3.026-3.07,4.608-4.55s3.169-2.958,4.62-4.526A27.438,27.438,0,0,0,27.044,7c-.9-1.2-2.5-1.1-4.442-.213a31.788,31.788,0,0,0-6.5,4.435c-2.273,1.893-4.539,4.025-6.451,5.868s-3.465,3.393-4.326,4.135c-.036-.768.686-2.058,1.744-3.609s2.457-3.367,3.771-5.18a34.764,34.764,0,0,0,3.269-5.177c.722-1.548.934-2.827.211-3.57-.452-.464-1.079-.363-1.778.067a10.581,10.581,0,0,0-2.2,2.041C9.6,6.648,8.9,7.594,8.329,8.4s-1,1.468-1.195,1.757c-.173.258-.477.749-.836,1.332s-.775,1.258-1.173,1.884-.778,1.2-1.067,1.587-.488.581-.522.445" transform="translate(85.235 41.166)" fill="none" stroke="#47d1d1" stroke-linecap="round" stroke-linejoin="round" stroke-width="6"/>
    <path id="Tracé_1116" data-name="Tracé 1116" d="M27.522,36.675a15.933,15.933,0,0,1,5.237-2.926c2.042-.778,4.277-1.444,6.4-2.262a18.96,18.96,0,0,0,5.72-3.176,9.341,9.341,0,0,0,3.167-5.673,7.438,7.438,0,0,0-6.06.523A29.333,29.333,0,0,0,35.976,27.4c-1.99,1.7-3.97,3.517-5.938,4.967a12.826,12.826,0,0,1-5.849,2.746,3.17,3.17,0,0,1,.5-2.083,9.557,9.557,0,0,1,1.66-1.993c.663-.633,1.4-1.227,2.07-1.757s1.293-.995,1.729-1.37c.608-.524,1.481-1.171,2.451-1.9s2.04-1.555,3.039-2.427a17.966,17.966,0,0,0,2.622-2.729,5.332,5.332,0,0,0,1.19-2.807c.11-2.268-.694-2.993-2.015-2.791s-3.15,1.329-5.1,2.764-4,3.171-5.786,4.6a16.218,16.218,0,0,1-4.119,2.77c.073-1.41,1.169-2.824,2.749-4.223a55.532,55.532,0,0,1,5.667-4.139A47.046,47.046,0,0,0,36.2,13.094c1.366-1.26,2.128-2.459,1.738-3.572-.774-2.208-2.17-2.759-3.891-2.35a17.3,17.3,0,0,0-5.825,3.4c-2.063,1.624-4.153,3.508-5.977,4.963s-3.378,2.476-4.381,2.386A6.912,6.912,0,0,1,19.629,13.8a14.143,14.143,0,0,1,3.608-2.766c1.367-.79,2.825-1.493,4.156-2.249a12.57,12.57,0,0,0,3.393-2.569,3.417,3.417,0,0,0-3.521-2.469A12.5,12.5,0,0,0,22.15,5.575c-1.808,1-3.642,2.226-5.264,3.2s-3.03,1.688-3.994,1.671A8,8,0,0,1,15.928,7.6a9.165,9.165,0,0,1,3.434-.9c1.19-.106,2.412-.084,3.632-.131a13.334,13.334,0,0,0,3.629-.548,5.294,5.294,0,0,0-2.747-1.77A8.373,8.373,0,0,0,20.6,4.116a20.18,20.18,0,0,0-3.392.8c-1.1.348-2.155.739-3.09,1.058a8.6,8.6,0,0,1-3.029.487,11.377,11.377,0,0,1-2.681-.426c-.871-.231-1.739-.519-2.656-.772A15.757,15.757,0,0,0,2.8,4.711a.649.649,0,0,0,.033.252.494.494,0,0,0,.127.194.684.684,0,0,0,.22.136,1.327,1.327,0,0,0,.314.078" transform="translate(50.706)" fill="none" stroke="#47d1d1" stroke-linecap="round" stroke-linejoin="round" stroke-width="6"/>
    <path id="Tracé_1117" data-name="Tracé 1117" d="M16.324,3.735a7.693,7.693,0,0,1,3.74-.22,11.229,11.229,0,0,1,3.71,1.4A13.587,13.587,0,0,1,26.95,7.5a11.463,11.463,0,0,1,2.133,3.319,10.57,10.57,0,0,1,.367,1.236c.139.561.281,1.234.387,1.914a12.428,12.428,0,0,1,.171,1.948,2.492,2.492,0,0,1-.281,1.339,1.932,1.932,0,0,1-1.107.873,1.431,1.431,0,0,1-1.079-.275,6.669,6.669,0,0,1-1.1-.982c-.379-.4-.771-.837-1.186-1.248-.319-.317-1.182-1.239-2.326-2.379s-2.564-2.494-4-3.681a16.5,16.5,0,0,0-4.1-2.664c-1.211-.463-2.18-.375-2.65.648-.386.84.29,1.974,1.543,3.243a41.132,41.132,0,0,0,5.015,4.059c1.931,1.385,3.957,2.746,5.587,3.921a13.053,13.053,0,0,1,3.208,2.8,6.143,6.143,0,0,1,.555,1.349,2.662,2.662,0,0,1,.059,1.227,1.922,1.922,0,0,1-.608,1.032,3.831,3.831,0,0,1-1.444.766A3.926,3.926,0,0,1,23.3,25.7a10.848,10.848,0,0,1-2.723-1.822c-.875-.761-1.708-1.623-2.465-2.423s-1.439-1.536-2.014-2.05c-.232-.207-.741-.718-1.4-1.357s-1.473-1.4-2.313-2.124a18.411,18.411,0,0,0-2.473-1.844,2.548,2.548,0,0,0-1.89-.522c-.736.264-1,.683-.959,1.176a3.272,3.272,0,0,0,.828,1.623,14.91,14.91,0,0,0,1.552,1.588c.52.47.983.853,1.211,1.067a37.882,37.882,0,0,0,3.092,2.366c1.367.987,2.964,2.138,4.478,3.352A28.576,28.576,0,0,1,22.2,28.461a5.24,5.24,0,0,1,1.57,3.48,2.649,2.649,0,0,1-.826,1.817,3.169,3.169,0,0,1-1.677.725,6.678,6.678,0,0,1-1.972-.03A8.329,8.329,0,0,1,17.578,34,15.925,15.925,0,0,1,13.1,31.281a29.778,29.778,0,0,1-3.729-3.86c-1.156-1.4-2.247-2.881-3.328-4.329S3.9,20.23,2.777,18.957a10.628,10.628,0,0,0,.274,3.816,20.825,20.825,0,0,0,1.409,3.9,40.537,40.537,0,0,0,2,3.707c.7,1.172,1.413,2.263,2.038,3.224a2.108,2.108,0,0,1-.479-.3,2.3,2.3,0,0,1-.343-.362c-.1-.129-.188-.264-.277-.4s-.179-.28-.282-.422" transform="translate(21.572 7.056)" fill="none" stroke="#47d1d1" stroke-linecap="round" stroke-linejoin="round" stroke-width="6"/>
    <path id="Tracé_1118" data-name="Tracé 1118" d="M34.193,14.812a6.279,6.279,0,0,1,.734,2.976,20.941,20.941,0,0,1-.267,3.906c-.2,1.371-.5,2.768-.808,4.063s-.63,2.488-.889,3.453a14.846,14.846,0,0,1-2.118-5.924,44.529,44.529,0,0,1-.414-6.868c0-2.353.056-4.722-.046-6.964a21.943,21.943,0,0,0-1.011-6.2c-.313,1.158-.573,2.362-.8,3.592s-.413,2.484-.584,3.743-.323,2.523-.475,3.772-.3,2.481-.47,3.676c-.133.946-.2,1.913-.242,2.887s-.061,1.957-.1,2.935-.088,1.951-.2,2.908a16.63,16.63,0,0,1-.55,2.807,20.53,20.53,0,0,1-1.49-5.509c-.278-1.944-.387-3.972-.473-6.009s-.147-4.085-.33-6.067A26.461,26.461,0,0,0,22.6,6.324c-.242,1.839-.358,3.722-.426,5.623s-.088,3.821-.135,5.735-.124,3.821-.306,5.7a34.9,34.9,0,0,1-.937,5.5,53.542,53.542,0,0,1-.85-5.425c-.2-1.823-.341-3.656-.481-5.489s-.28-3.663-.482-5.479A52.394,52.394,0,0,0,18.133,7.1a26.787,26.787,0,0,0-.993,4.5c-.219,1.536-.356,3.1-.5,4.657s-.29,3.114-.531,4.635a23.978,23.978,0,0,1-1.092,4.432A9,9,0,0,1,13.5,21.5a27.671,27.671,0,0,1-.354-4.673c-.014-1.623.03-3.274,0-4.837a19.4,19.4,0,0,0-.476-4.311,15.877,15.877,0,0,0-.993,4.222c-.16,1.453-.19,2.941-.213,4.428s-.04,2.974-.174,4.425a16.643,16.643,0,0,1-.873,4.205,17.142,17.142,0,0,1-.7-3.882c-.105-1.351-.107-2.746-.086-4.152s.064-2.821.051-4.21a27.535,27.535,0,0,0-.292-4.053A10.456,10.456,0,0,0,8.24,11.878,31.4,31.4,0,0,0,7.8,15.485c-.1,1.23-.178,2.467-.341,3.657A13.728,13.728,0,0,1,6.624,22.5a35.136,35.136,0,0,1-.446-3.83c-.081-1.291-.1-2.592-.063-3.89s.124-2.6.255-3.878.3-2.551.508-3.792c-.156,1.1-.3,2.515-.487,4.078s-.4,3.268-.688,4.934A31.741,31.741,0,0,1,4.57,20.82a9.125,9.125,0,0,1-1.819,3.359,2.261,2.261,0,0,1-.045-.485,2.506,2.506,0,0,1,.049-.44c.028-.144.066-.288.107-.438s.087-.309.129-.482" transform="translate(18.838 85.701)" fill="none" stroke="#47d1d1" stroke-linecap="round" stroke-linejoin="round" stroke-width="6"/>
    <path id="Tracé_1119" data-name="Tracé 1119" d="M30.981,15.233c-.615-.406-1.28-.923-1.984-1.5s-1.444-1.2-2.211-1.838-1.556-1.273-2.359-1.864A21.372,21.372,0,0,0,22,8.46c-.8-.432-1.576-.9-2.352-1.378S18.1,6.113,17.323,5.636,15.77,4.7,14.976,4.269a22.659,22.659,0,0,0-2.429-1.14,9.923,9.923,0,0,0,1.2,2.263,22.024,22.024,0,0,0,1.728,2.166c.626.7,1.281,1.383,1.907,2.035S18.6,10.87,19.109,11.46c.586.68,1.173,1.439,1.772,2.224s1.21,1.6,1.842,2.38A26.844,26.844,0,0,0,24.7,18.286a12.336,12.336,0,0,0,2.163,1.75,44.63,44.63,0,0,1-3.739-3.191c-1.235-1.147-2.473-2.339-3.748-3.453a28.715,28.715,0,0,0-3.97-2.986A13.864,13.864,0,0,0,11,8.613a3.739,3.739,0,0,0,.722,1.614,14.5,14.5,0,0,0,1.471,1.731c.555.573,1.145,1.131,1.677,1.638s1.009.964,1.337,1.334c.577.651,1.212,1.291,1.867,1.934s1.332,1.287,1.992,1.947,1.3,1.335,1.89,2.037a15.252,15.252,0,0,1,1.562,2.2,10.054,10.054,0,0,1-3.851-1.408,33.6,33.6,0,0,1-4.007-2.8C14.324,17.78,13,16.653,11.71,15.618a32.719,32.719,0,0,0-3.689-2.661,19.1,19.1,0,0,0,2.6,3.8c1,1.171,2.1,2.269,3.211,3.363s2.221,2.188,3.24,3.349a20.143,20.143,0,0,1,2.678,3.76c-.939-.682-1.86-1.443-2.778-2.231s-1.83-1.6-2.753-2.386-1.855-1.545-2.812-2.226a18.629,18.629,0,0,0-2.953-1.753,13.968,13.968,0,0,0,2.4,4,41.041,41.041,0,0,0,3.318,3.441c1.166,1.114,2.344,2.224,3.391,3.418a15.6,15.6,0,0,1,2.612,3.926c-.616-.641-1.259-1.25-1.919-1.838s-1.337-1.154-2.022-1.709-1.375-1.1-2.064-1.645-1.373-1.089-2.045-1.645c-.476-.393-.967-.85-1.474-1.323S9.627,24.3,9.092,23.84a13.166,13.166,0,0,0-1.647-1.225,5.889,5.889,0,0,0-1.728-.744,6.681,6.681,0,0,0,.69,1.586,11.739,11.739,0,0,0,1,1.408c.363.451.749.887,1.127,1.327s.75.881,1.086,1.341c.587.8,1.162,1.617,1.735,2.431s1.145,1.63,1.723,2.441,1.165,1.617,1.768,2.411,1.223,1.577,1.87,2.341a21.2,21.2,0,0,1-3.375-2.467C12.213,33.712,11.1,32.6,10,31.456s-2.165-2.336-3.2-3.48-2.026-2.242-2.965-3.209c.827.993,1.742,2.064,2.679,3.192s1.9,2.315,2.818,3.538A45.018,45.018,0,0,1,11.9,35.256a24.11,24.11,0,0,1,1.918,3.853,24.863,24.863,0,0,1-2.779-3.092c-.857-1.1-1.668-2.249-2.5-3.37a33.062,33.062,0,0,0-2.651-3.2,15.072,15.072,0,0,0-3.213-2.587,47.776,47.776,0,0,1,3.442,4.781c1.063,1.673,2.047,3.415,2.974,5.2s1.8,3.6,2.635,5.436,1.639,3.676,2.429,5.5a32.974,32.974,0,0,1-3.025-4.116c-.92-1.45-1.776-2.958-2.635-4.463s-1.719-3-2.649-4.441A30.83,30.83,0,0,0,2.779,30.7a17.542,17.542,0,0,1,1.35,2.316c.4.806.747,1.64,1.077,2.485s.639,1.7.953,2.556.632,1.7.979,2.53q.764,1.823,1.537,3.649t1.57,3.645q.8,1.819,1.627,3.624t1.709,3.585q-.032-.139-.063-.28l-.063-.282q-.032-.141-.065-.282t-.068-.28" transform="translate(0 46.523)" fill="none" stroke="#47d1d1" stroke-linecap="round" stroke-linejoin="round" stroke-width="6"/>
  </g>
  <g id="Calque_2" data-name="Calque 2">
    <g id="Groupe_709" data-name="Groupe 709">
      <g id="Groupe_708" data-name="Groupe 708">
        <path id="Tracé_605" data-name="Tracé 605" d="M.993,3.307l.051.029.052.026.054.023.055.021a18.331,18.331,0,0,1,4.1,1.451,17.774,17.774,0,0,1,3.511,2.3,20.4,20.4,0,0,1,2.96,3.079,26.441,26.441,0,0,1,2.454,3.786q2.168,4.026,4.339,8.065t4.352,8.1q2.18,4.061,4.364,8.135t4.377,8.17c.02.037.04.073.062.11l.067.112.072.119.079.13,26.7-15.9L56.71,27.431q-1.021-1.915-2.037-3.83T52.64,19.778q-1.016-1.909-2.036-3.813t-2.048-3.8a26.056,26.056,0,0,0-1.321-2.309A25.582,25.582,0,0,0,45.7,7.72a25.116,25.116,0,0,0-1.737-1.957,24.7,24.7,0,0,0-1.924-1.757,11.1,11.1,0,0,0-1.081-.772A10.956,10.956,0,0,0,39.8,2.6a10.809,10.809,0,0,0-2.49-.821q-.1-.02-.2-.035t-.2-.023q-.1-.009-.2-.012t-.205,0l-8.841.361-8.771.359-8.7.357-8.633.356c-.046,0-.092,0-.138.008l-.137.014-.136.017L1.005,3.2Z" transform="translate(47.294)" fill="none" stroke="#201f1f" stroke-width="2"/>
        <path id="Tracé_606" data-name="Tracé 606" d="M18.308,67.156c-.043-.233-.087-.465-.132-.7s-.09-.465-.135-.7-.088-.465-.128-.7-.078-.466-.112-.7a21.649,21.649,0,0,1,.028-6.559,21.148,21.148,0,0,1,.753-3.166,20.575,20.575,0,0,1,1.234-3c.315-.633.644-1.259.983-1.878s.688-1.235,1.041-1.847.711-1.223,1.069-1.833.714-1.223,1.064-1.838L27.64,37.8l3.68-6.455,3.693-6.477,3.706-6.5c.023-.04.045-.08.068-.12l.068-.126.072-.136.08-.15L14.674,1.6l-.076.117-.071.109-.066.1c-.021.034-.042.068-.062.1q-1.242,2.179-2.483,4.354T9.438,10.73Q8.2,12.9,6.971,15.067T4.517,19.4q-.592,1-1.1,2.043t-.926,2.135q-.419,1.088-.749,2.214t-.567,2.282a13.614,13.614,0,0,0,.15,6.164q.036.133.079.263t.093.258q.05.128.106.252t.118.246l4.033,7.82L9.8,50.925,13.872,58.8l4.084,7.907q.031.06.063.119l.066.118.067.117.067.117Z" transform="translate(0 43.235)" fill="none" stroke="#201f1f" stroke-width="2"/>
        <path id="Tracé_607" data-name="Tracé 607" d="M53.529,1.174c-.285.219-.568.444-.852.669s-.567.453-.853.678-.574.448-.866.666-.587.429-.888.632A19.568,19.568,0,0,1,47.723,5.2a19.3,19.3,0,0,1-2.492,1.034,19.124,19.124,0,0,1-2.6.672,19,19,0,0,1-2.673.3c-.822.033-1.645.051-2.467.06s-1.643.007-2.464,0-1.64-.016-2.46-.026-1.637-.019-2.454-.022l-7.168-.029-7.122-.03L8.746,7.133,1.715,7.1a4.1,4.1,0,0,0-.444.009.353.353,0,0,0-.228.087.392.392,0,0,0-.084.238C.948,7.548.948,7.7.948,7.9V38.044c0,.207,0,.363.013.479a.41.41,0,0,0,.088.248.387.387,0,0,0,.239.1,4.638,4.638,0,0,0,.466.025l4.67.121,4.689.121,4.709.121,4.729.121q1.259.083,2.516.044t2.5-.2q1.247-.161,2.477-.444t2.432-.686q.5-.2.992-.432t.969-.484q.478-.255.944-.535t.917-.586a7.523,7.523,0,0,0,.785-.617,7.641,7.641,0,0,0,.7-.717,7.785,7.785,0,0,0,.6-.806,7.936,7.936,0,0,0,.5-.886q2.033-3.909,4.075-7.825t4.1-7.85q2.056-3.933,4.121-7.874t4.145-7.9c.02-.037.039-.074.058-.11l.054-.107.049-.1Z" transform="translate(71.165 81.534)" fill="none" stroke="#201f1f" stroke-width="2"/>
        <path id="Tracé_608" data-name="Tracé 608" d="M37.224,7.873,45,1.434l-.024-.165-.807.008L37.245,1.3l-6.885.023-6.843.022-6.8.021a.75.75,0,0,0-.256.01.773.773,0,0,0-.235.093.8.8,0,0,0-.2.165.835.835,0,0,0-.139.226Q14.205,5.182,12.521,8.5T9.157,15.108Q7.478,18.408,5.8,21.7t-3.35,6.569l-.038.078-.043.091-.055.117-.074.157,7.939-4.6.1.156.093.15.089.145.086.142,2.548,4.353,2.553,4.363L18.2,37.791l2.565,4.383c.038.065.074.131.112.192a.961.961,0,0,0,.127.167.518.518,0,0,0,.171.118.626.626,0,0,0,.245.045q1.368.037,2.737.013T26.9,42.6q1.37-.085,2.738-.23t2.734-.351a16.716,16.716,0,0,0,3.863-1.091,17.058,17.058,0,0,0,3.481-1.962,17.509,17.509,0,0,0,2.964-2.74A17.975,17.975,0,0,0,44.992,32.8a9.423,9.423,0,0,0,.953-2.3,9.6,9.6,0,0,0,.015-4.882,9.459,9.459,0,0,0-.939-2.309q-.954-1.841-1.892-3.689t-1.866-3.7q-.929-1.848-1.853-3.695T37.557,8.546l-.078-.155L37.4,8.23l-.084-.171Z" transform="translate(81.268 42.158)" fill="none" stroke="#201f1f" stroke-width="2"/>
        <path id="Tracé_609" data-name="Tracé 609" d="M1.95,16.485l1.044,2.051L4.018,20.55,5.03,22.539l1.006,1.978,2.137,4.206,2.141,4.214,2.145,4.223,2.148,4.232a.757.757,0,0,0,.109.216.706.706,0,0,0,.164.162.664.664,0,0,0,.2.1.644.644,0,0,0,.228.021l5.3-.142,5.321-.138,5.347-.133,5.374-.129,6.205-.154.052,0,.067-.006.1-.009.144-.013L35.7,36.251l.232-.445.226-.435.222-.428.221-.423L38.768,30.4l2.171-4.131,2.177-4.139L45.3,17.981a.977.977,0,0,0,.121-.262.992.992,0,0,0,.04-.28.975.975,0,0,0-.04-.279A.931.931,0,0,0,45.3,16.9q-.6-1.1-1.228-2.19t-1.282-2.15q-.654-1.064-1.336-2.108T40.064,8.39A16.545,16.545,0,0,0,37.8,5.769a15.859,15.859,0,0,0-2.691-2.035A15.346,15.346,0,0,0,32.086,2.34a15.085,15.085,0,0,0-3.268-.7A12.936,12.936,0,0,0,26.8,1.549a9.482,9.482,0,0,0-1.943.271,8.012,8.012,0,0,0-1.842.71A8.313,8.313,0,0,0,21.3,3.759q-.236.221-.456.459t-.425.491q-.2.253-.392.521t-.358.549Q18.6,7.522,17.544,9.264t-2.113,3.484q-1.053,1.742-2.1,3.484t-2.086,3.484a1.9,1.9,0,0,1-.207.294.591.591,0,0,1-.214.16.488.488,0,0,1-.258.026,1.272,1.272,0,0,1-.338-.109q-.958-.435-1.918-.859t-1.92-.843l-1.92-.836q-.959-.418-1.916-.838l-.12-.046L2.3,16.616l-.157-.058Z" transform="translate(15.91 4.235)" fill="none" stroke="#201f1f" stroke-width="2"/>
        <path id="Tracé_610" data-name="Tracé 610" d="M27.419,3.28q-.073,1.129-.146,2.231T27.129,7.7q-.071,1.084-.138,2.156T26.863,12a1.165,1.165,0,0,1-.048.3.387.387,0,0,1-.11.177.391.391,0,0,1-.183.083,1.218,1.218,0,0,1-.266.017q-2.324-.054-4.642-.1l-4.622-.1-4.6-.1q-2.295-.051-4.583-.106a.871.871,0,0,0-.29.009.887.887,0,0,0-.267.1.936.936,0,0,0-.226.183,1,1,0,0,0-.167.254q-.713,1.178-1.372,2.39T4.222,17.55q-.6,1.243-1.149,2.517T2.038,22.643a18.173,18.173,0,0,0-.89,3.682,18.667,18.667,0,0,0,.524,7.492,18.376,18.376,0,0,0,1.4,3.539,9.217,9.217,0,0,0,1.295,2A8.7,8.7,0,0,0,6.069,40.9a8.183,8.183,0,0,0,2.016,1.01,7.784,7.784,0,0,0,2.223.4q1.479.135,2.96.289t2.967.318q1.486.163,2.974.33t2.982.328l.776.085.777.085q.389.042.778.08t.779.07a.968.968,0,0,1,.222.04.37.37,0,0,1,.151.089.4.4,0,0,1,.092.157,1.088,1.088,0,0,1,.046.245q.113,1.216.23,2.434t.237,2.444q.12,1.226.243,2.463t.246,2.493l.105-.15.091-.128.08-.115c.025-.037.049-.073.071-.11l3.51-5.77L34.147,42.2,37.681,36.4l3.546-5.825a.839.839,0,0,0,.133-.237.887.887,0,0,0,.053-.264.909.909,0,0,0-.028-.27.9.9,0,0,0-.11-.254q-1.706-3.231-3.406-6.456t-3.392-6.438q-1.692-3.213-3.378-6.42t-3.364-6.4c-.019-.036-.039-.072-.06-.11l-.069-.12-.083-.143Z" transform="translate(19.778 76.911)" fill="none" stroke="#201f1f" stroke-width="2"/>
      </g>
    </g>
  </g>
</svg>
