<svg xmlns="http://www.w3.org/2000/svg" viewBox="0 0 284.24 213.28"><defs><style>.a,.b,.c,.d{fill:none;stroke-width:5px;}.a,.b,.c{stroke:#171617;}.a{stroke-linecap:round;}.a,.c,.d{stroke-miterlimit:10;}.c{stroke-linecap:square;}.d{stroke:#47d1d1;}</style></defs><rect class="a" x="4.35" y="2.5" width="277.39" height="175.74" rx="9.41"/><path class="a" d="M276.67,210.78H5.73a3.23,3.23,0,0,1-3.23-3.22h0v-13a3.19,3.19,0,0,1,1-2.28,3.88,3.88,0,0,1,2.28-.95c3.25-.31,109.43-1.49,120.62-1.62a20.75,20.75,0,0,0,29.34.67q.69-.66,1.32-1.38c5.75.11,116.93,2.06,119.66,2.33a3.94,3.94,0,0,1,2.28.95,3.16,3.16,0,0,1,.94,2.28v13.05Z"/><rect class="a" x="14.66" y="13.15" width="257.39" height="155.05" rx="5.44"/><path class="b" d="M209.7,104.06l3.64,21.39,5.62-7.27,9-3.16Z"/><line class="c" x1="223.08" y1="123.66" x2="218.42" y2="117.14"/><rect class="d" x="97.27" y="59.42" width="92.15" height="57.54" rx="4.87"/><path class="d" d="M98.29,66.23l46.55,37.83,43.57-37.83"/></svg>