<svg xmlns="http://www.w3.org/2000/svg" viewBox="0 0 216.52 988.39"><defs><style>.a,.b,.c,.d,.f,.g,.h,.i,.j,.k,.l,.m,.n,.o{fill:none;}.a,.b,.d,.e,.g,.j,.l,.o{stroke:#2e2e2d;}.a,.n{stroke-miterlimit:10.01;}.a,.b,.d,.e,.f,.g,.h,.k,.m,.n{stroke-width:3px;}.b,.d,.e{stroke-linejoin:round;}.c,.f,.h,.k,.n{stroke:#47d1d1;}.c{stroke-miterlimit:10.01;stroke-width:3px;}.d,.e,.f{stroke-linecap:round;}.e{fill:#fff;}.f,.g,.h,.m{stroke-miterlimit:10;}.j{stroke-miterlimit:10;stroke-width:3px;}.l{stroke-miterlimit:10;stroke-width:3px;}.m{stroke:#161615;}.o{stroke-miterlimit:10.01;stroke-width:3px;}</style></defs><path class="a" d="M179.74,139.52a6.81,6.81,0,0,0-2-.43,6.17,6.17,0,0,0-2,.25c-6.32,2.33-13,4.6-20.16,6.75-5.92,1.79-11.66,3.35-17.18,4.73a7,7,0,0,0-5,3.5,6.38,6.38,0,0,0-.54,3.58q2.76,9.6,5.54,19.25,12.21,42,25,82.91a7.27,7.27,0,0,0,3.06,4.31c2.59,1.47,5.75.3,7-.12,5.54-2,19.14-6,38.7-11.78a5.39,5.39,0,0,0,2.26-2.15,5.66,5.66,0,0,0,.15-4.76L183.46,143.63C183.34,143.45,181.93,140.36,179.74,139.52Z"/><path class="a" d="M135.58,120.56c.16.6,7.07-.54,13.41-2.47,4.67-1.43,10.1-3.61,9.93-4.14s-6.76.77-12,2.28C141.93,117.64,135.42,119.94,135.58,120.56Z"/><path class="b" d="M135.81,120.94c1.31,4.78,2.8,9.74,4.51,14.87q1.86,5.52,3.78,10.62a51.3,51.3,0,0,0,5.67-.68,53.23,53.23,0,0,0,9.35-2.63,55,55,0,0,0,7.73-3.63q-1.62-4.71-3.19-9.63-2.59-8.13-4.73-15.91a60.6,60.6,0,0,1-23.12,7Z"/><path class="a" d="M132.82,157.94l-1-3a6.46,6.46,0,0,1,.58-3c1.91-4,8.13-5,11.67-5.48,2.27-.34,2.8-.17,5.66-.68a55.84,55.84,0,0,0,6-1.47,57.41,57.41,0,0,0,6-2.21c2.55-1.12,3.09-1.58,5.15-2.57,3.93-1.9,10-4.86,13.08-2.57a7.44,7.44,0,0,1,1.73,2.21,13.24,13.24,0,0,1,1.74,4.49"/><rect class="c" x="154.7" y="149.13" width="37.56" height="106.5" rx="5.97" transform="translate(-52.36 60.78) rotate(-17.31)"/><ellipse class="d" cx="144.95" cy="420.11" rx="54.26" ry="11.22"/><ellipse class="e" cx="145.19" cy="412.76" rx="54.26" ry="11.22"/><path class="d" d="M90.69,420.11q.53,30.33,1.06,60.64a86.34,86.34,0,0,0,30.37,14.5,89.51,89.51,0,0,0,23.62,2.56,87.83,87.83,0,0,0,24.82-4.07,81.59,81.59,0,0,0,28.33-16.33q.15-28.64.31-57.3"/><path class="d" d="M155,443.41a15.76,15.76,0,0,1-1.76,6,17.59,17.59,0,0,1-5.76,6c-9.22,6.83-8,7.8-14,11.94-3.59,2.48-7.6,3.56-11.72,4.73-3,.83-10,1.59-11.62,4.73a3.65,3.65,0,0,0-.35,2.23c.8,2.44,8.94,3.43,38.85-1.88,2.93-4,6.2-5.89,8-5a2.54,2.54,0,0,1,1.2,1.4,3.42,3.42,0,0,0,.56,2.72c.56.64,1.4.83,4.53.79s4.87-.06,5.45-.48c1.5-1.07,1.47-3.33,1.33-8.27a92.79,92.79,0,0,0-1.26-12.67c-1.5.67-8.82,3.73-15.34.2a14.09,14.09,0,0,1-3.25-2.45"/><path class="d" d="M130.64,469.11a20.33,20.33,0,0,0,11.17-2.29,21,21,0,0,0,9.83-11.95"/><path class="f" d="M137,461.57a10.18,10.18,0,0,1,3.44,2.35"/><path class="f" d="M140.64,458.45a10.18,10.18,0,0,1,3.44,2.35"/><path class="f" d="M146.93,457.61a10.86,10.86,0,0,0-3.48-1.95"/><path class="f" d="M134.19,464.63c.68,0,1.61,1.13,2.08,1.8"/><path class="d" d="M156.38,472a29.72,29.72,0,0,1,6.17-.44c2.42-.06,4.84-.24,7.24-.54"/><path class="d" d="M137.39,445.85a4.47,4.47,0,0,0,1.76-1.09c2-2.09,1.06-5.49,1-5.69,1.37,1.8,1.62,3.16,4.07,3.48a3.5,3.5,0,0,0-1.11,1.44c-.66,1.66.94,3.46.6,3.72s-1.51-1.6-3.58-2.06A5,5,0,0,0,137.39,445.85Z"/><path class="d" d="M131.73,451.73a2.09,2.09,0,0,0-.5,0c-1.58.21-2.39,2.25-2.52,2.58-.06-1.41.29-2.2-.87-3.23a2.16,2.16,0,0,0,1.08-.35c.93-.62.71-2.1,1-2.12s.29,1.13,1.12,2.31A6.7,6.7,0,0,0,131.73,451.73Z"/><path class="g" d="M48.58,232.28c11.46,6.19,28.67,10.7,41.77,11,8.71.24,14.71-2.38,21.19,5.43,4.69,5.66,6.68,14.65,9.49,21.4,4.6,11,10.08,21.42,15.32,32.15"/><path class="g" d="M43.63,238.87c11.46,6.19,28.66,10.7,41.76,11,8.71.23,14.72-2.39,21.2,5.43,4.69,5.65,6.68,14.64,9.49,21.39,4.6,11,10.08,21.42,15.32,32.15"/><path class="g" d="M48.36,232.07c-5.26,6.36-6.09,17.75-8.42,25.27-2.74,8.86-7.53,18.3-6.49,27.19"/><path class="g" d="M33.61,284.81c12.84,12.41,40.46,49.3,59.82,47.94"/><path class="g" d="M136.2,302.47c-7.79,2.37-14.46,13-20.63,18.14-7.1,5.91-13,9.75-22.56,11.8"/><path class="g" d="M44.46,239.79c-.12-5.14-6.32-8-10.76-8.81C23,229.07,13.35,236.31,8.32,245.53c-4.52,8.27-5.27,21.7.44,29.48,4.43,6,16.55,9.77,23.13,4.83"/><path class="g" d="M43.6,241.38c-.45-5.37-7.4-8.77-12.29-9.88-11.82-2.66-21.86,4.29-26.77,13.59-4.4,8.35-4.37,22.33,2.35,30.8,5.2,6.57,18.65,11.24,25.52,6.5"/><path class="g" d="M130.48,306.15c8.4,3.45,13.74,4.34,16.45,14s-.39,17.53-7.59,24.65c-7.63,7.58-16.84,11.67-27.58,8.43C100,349.66,95.28,344.91,93,333.15"/><path class="g" d="M128.67,308.07c8.32,3.65,13.63,4.67,16.11,14.42,2.43,9.58-.82,17.51-8.19,24.46-7.82,7.39-17.12,11.25-27.77,7.75-11.73-3.85-16.28-8.72-18.25-20.52"/><path class="h" d="M65.76,255.38c9.67,6.09,21.42.72,30.16,9.69,6.35,6.52,12.38,15.2,17.46,22.78"/><path class="h" d="M63.52,271.74c19.25,1.74,24.86,8.05,34.32,24.53"/><path class="h" d="M57.48,285.66c13.18,4,20,16.89,31.76,22"/><path class="i" d="M44.14,752.94c-4.27,5.63,3.54,16.79,5.85,22.61,5.1,12.9,7.23,25.91,11.57,39"/><path class="i" d="M124.1,744.38c4.65,5.77,9.22,11.64,14.11,17.17,6.21,7,14.72,24,21.66,27.23"/><rect class="j" x="48.72" y="739.71" width="69.85" height="69.85" transform="translate(-307.49 100.79) rotate(-23.97)"/><rect class="j" x="52.92" y="744.21" width="61.92" height="61.92" rx="3.49" transform="translate(-307.69 100.93) rotate(-23.97)"/><circle class="g" cx="84.13" cy="775.78" r="23.75"/><path class="k" d="M73.57,759.52a19.39,19.39,0,1,1-5.71,26.83,19.38,19.38,0,0,1,5.71-26.83Z"/><polygon class="l" points="115.95 750.44 162.22 705.89 207.23 751.68 160.96 796.23 115.95 750.44"/><rect class="l" x="133.2" y="723.14" width="56.63" height="56.63" rx="3.49" transform="translate(-478.24 325.44) rotate(-44.21)"/><circle class="g" cx="161.89" cy="751.77" r="21.73"/><circle class="h" cx="161.89" cy="751.77" r="17.75"/><path class="i" d="M62.51,85.86c6.44-1.7,12.58,2,19.32,1.74,6.94-.25,18.15-9,24.27-12.52,9-5.23,17.31-12,25.94-17.87,12.07-8.27,17.84-16,25.43-27.93"/><path class="m" d="M30.61,60.84,45.21,40.2,113,1.6l14.72,3.59L162.58,27.3l-8,14.36L84.31,92.94c-3.73-1.88-8.61-3.48-12.83-1.61-2.56,1.13-3.24,2.82-4.46,3.49C63.42,96.79,54,90.48,30.61,60.84Z"/><path class="m" d="M75.43,83.66c2.65,3.14,5.21,7.21,9,9.33"/><path class="m" d="M70.54,91.29c-1.11-8,3.75-18.24,7.08-24.43"/><path class="m" d="M48.82,45.06a50.53,50.53,0,0,0,7,8.24A51.12,51.12,0,0,0,72.44,63.8"/><path class="m" d="M135.33,26.1,77.62,66.86"/><path class="m" d="M112.86,1.65,137.1,19.57"/><path class="m" d="M34.6,60.84c3.27,4.1,6.87,8.34,10.81,12.65q8.24,9,17.33,17.09"/><path class="m" d="M158.08,27.94c-4.18-3.18-8.7-6.42-13.57-9.64a242.26,242.26,0,0,0-21-12.37"/><path class="h" d="M88,24.94c-4,2.37-6.21,3.4-12.33,7.19s-8,5.28-8.53,7.8c-.71,3.2.93,6.67,3.19,8.69,3.54,3.17,8.27,2.52,10.18,2.26,4.48-.61,6.1-2.56,14.13-8.26,6.11-4.33,12.06-8.88,18.15-13.24,3-2.12,5.54-3.95,5.52-6.53,0-3.25-4.14-5.74-4.93-6.19a12.34,12.34,0,0,0-6-1.56C101.28,15,98.5,18.73,88,24.94Z"/><path class="i" d="M49.89,611.62c4.1,17,31.49,19.89,46.12,25.82,12.85,5.21,26.17,9.43,38.81,15.36,13.55,6.35,35.28,12.19,45.42,23.11"/><path class="d" d="M47.4,608.07c-.23-.15.85-3.55,3.79-5.85,1.6-1.25,2.18-.94,3.32-2.18,1.6-1.74.91-2.83,2.44-5.08a8.57,8.57,0,0,1,4.6-3.35c3.67-1,7.54,1.38,7.41,2.23-.07.46-1.26.26-3.06,1.32a9.18,9.18,0,0,0-2.54,2.27,7.57,7.57,0,0,0-1.83,5.67c.49,3,3.23,4.57,4,5s2.2,1,6.89,1.2a66,66,0,0,0,12-.67c3.77-.58,6.5-1.29,6.69-1.33,5.18-1.29,29.51,10.1,95,50.15a12.88,12.88,0,0,1-6.57,11.39l-123-64.3a7.69,7.69,0,0,0-5.43,0C48.57,605.65,47.58,608.19,47.4,608.07Z"/><path class="d" d="M46.31,609.54c-.33,0-.92,4.52,1.6,7.89a13,13,0,0,0,3.3,2.9,21.63,21.63,0,0,0,4.76,2.5c7.2,2.7,76.4,29.94,92.94,37,5.87,2.51,12.13,4.18,17.72,7.27,3.92,2.17,10.49,6.23,12.2,4.6.19-.18.82-.91.63-1.52s-1.3-.88-1.63-1c-1.61-.34-4.85-1.56-10.8-4.27-4.74-2.31-11.9-5.71-20.78-9.6-4.93-2.16-8.77-3.76-11.62-4.94C108.75,639.67,81.06,629,81.06,629c-8.84-3.41-17-9.34-26.4-10.48a9.31,9.31,0,0,1-5.33-2.2C46.41,613.69,46.63,609.49,46.31,609.54Z"/><path class="d" d="M70.45,593.94a8.77,8.77,0,0,0-5.74,2c-2.69,2.27-4,6.34-2.86,9,2,4.74,11.56,4.46,16.25,4.32,10.17-.29,17-3.2,24.37-5.87a258,258,0,0,1,36.4-10c20-4.21,30-6.31,30.76-6.41,4.92-.7,12.56-1.64,17.83-7.53,2.35-2.63,4.46-6.51,3.38-7.78-1.32-1.56-6.54,2-15,4.46-6.77,1.94-10.75,1.76-17.24,2.31-13.29,1.15-23.56,4.25-43.11,10.15-7.2,2.18-14.68,3.43-21.71,6.08-6.35,2.4-11.57,5-16.23,2.64C75.16,596.15,73.7,594.07,70.45,593.94Z"/><path class="h" d="M173,654.12c-1.94-.19-3.92,1.43-3.42,3.48.37,1.56,2.21,2.93,3.62,3.35,4.25,1.27,5-3.83,1.76-5.89"/><path class="h" d="M69.06,597.72c-1.83.68-2.89,3-1.55,4.62,1,1.24,3.27,1.66,4.73,1.42,4.38-.73,2.85-5.65-1-6.06"/><path class="d" d="M157.14,654.11c1.55-2.66,3-5.46,4.8-8"/><path class="d" d="M159.63,655.5a47.48,47.48,0,0,0,4.54-8"/><path class="d" d="M163.15,655.82c1.09-2.61,3.5-4.78,4.16-7.61"/><path class="d" d="M47.68,608.69a10.1,10.1,0,0,1,6.39-1.42c2.93.44,3.84,2.26,7,4.55,4,2.92,5.22,2,15.51,6.27,2.86,1.19,4.87,2.14,7.16,3.23,4.44,2.12,9.1,4.61,15.7,8.3,7.18,4,12.1,7.21,14.35,8.64C121,642.8,132.6,649.33,152.18,658"/><path class="i" d="M116,860.8c12.43,12.82,8,12.52,5.43,27-2,10.9,2.53,17.35,8.46,26.54,12.34,19.15,25.78,36.57,35.1,57.54"/><path class="n" d="M107.75,858.7c.27.54,6.57-1.81,12.2-4.79,4.15-2.2,8.88-5.25,8.62-5.73s-6.24,2-10.94,4.36C113.21,854.78,107.49,858.16,107.75,858.7Z"/><path class="a" d="M108,859c2.12,4.27,4.44,8.69,7,13.21q2.74,4.86,5.52,9.33a47.36,47.36,0,0,0,5.22-1.68,53.47,53.47,0,0,0,15-9q-2.4-4.16-4.79-8.51-3.93-7.2-7.37-14.14A58.21,58.21,0,0,1,108,859Z"/><rect class="o" x="127.89" y="868.64" width="60.83" height="115.99" rx="14.49" transform="translate(-429.39 192.93) rotate(-29)"/></svg>