<svg xmlns="http://www.w3.org/2000/svg" viewBox="0 0 201.53 1058.1"><defs><style>.a,.b,.c,.d,.e,.f,.g,.h,.i,.j,.l,.m,.n,.o,.p{fill:none;}.b,.f,.g,.j,.m,.p{stroke:#47d1d1;}.b,.n{stroke-miterlimit:10.01;}.b,.c,.e,.f,.g,.h,.n,.o,.p{stroke-width:3px;}.c,.d,.e,.h,.i,.l,.n,.o{stroke:#2e2e2d;}.c,.g,.h{stroke-linejoin:round;}.d{stroke-miterlimit:10.01;stroke-width:3px;}.e,.f,.o,.p{stroke-miterlimit:10;}.g,.h{stroke-linecap:round;}.i,.j{stroke-miterlimit:10.01;stroke-width:3px;}.k{fill:#2e2e2d;}.l,.m{stroke-miterlimit:10;stroke-width:3px;}.o,.p{stroke-dasharray:1 0.5;}</style></defs><path class="a" d="M64.87,271.48c1.15,15.79-1.85,13-12.51,21-8,6-8.74,12.94-10.07,22.49-2.77,19.91-3.7,39.32-9.76,58.65"/><path class="b" d="M58,264.36c-.14.55,5.81,2.79,11.69,4.16,4.33,1,9.6,1.76,9.71,1.26s-5.68-2.47-10.51-3.68C64.36,265,58.18,263.82,58,264.36Z"/><path class="c" d="M58,264.77c-1.14,4.35-2.22,9-3.2,13.76q-1.07,5.19-1.86,10.09a45.48,45.48,0,0,0,4.78,2,48.65,48.65,0,0,0,8.56,2.19,52.84,52.84,0,0,0,7.74.66q.87-4.5,1.87-9,1.65-7.58,3.51-14.68a55,55,0,0,1-21.39-5Z"/><rect class="d" x="1.86" y="316.09" width="101.98" height="48.79" rx="14.49" transform="translate(-291.18 321.39) rotate(-78)"/><path class="a" d="M18.28,689.59c8.29,10.51,11.83,26.14,19.19,37.92,10.81,17.3,21.58,32.92,29.37,51.66"/><path class="e" d="M11,688.19l49.15-20,1.46,3.8L12.51,692.14Z"/><path class="e" d="M12.84,693l49.1-20.17,22.55,88.37A47.53,47.53,0,0,1,71,769.67a48.53,48.53,0,0,1-16.39,3.82Z"/><path class="e" d="M89.72,779.51a53.28,53.28,0,0,1-27.48,11l-7.59-15.89a41.91,41.91,0,0,0,16-3.31,40.9,40.9,0,0,0,13.5-9.14Z"/><path class="a" d="M167.72,353.11A157.38,157.38,0,0,1,150.85,374c-9.28,9.59-13.78,20.24-20.55,30.84-11.94,18.7-31.36,37-41.73,58.46a32,32,0,0,0,3.2,2.47C88.91,473,83.16,484,75.43,487.81"/><path class="e" d="M116.65,418.46,130.31,400l-1-1.47c21.31-28.93,36.48-49.72,39.29-54.35a11.89,11.89,0,0,1,4.69-4.56,10.09,10.09,0,0,1,6.45-1,9.87,9.87,0,0,1,3.49,1.43c1.26.77,4.28,2.61,5.27,6.3a10,10,0,0,1-.93,7.2q-8.94,13.41-18.24,27-10.94,16-21.84,31.35l-1.53-.75L132,429.8a56.66,56.66,0,0,1-15.28-11.33Z"/><path class="e" d="M119.49,421.22,91.58,460c-1.9.06-3.65.37-4,1.34-1,2.88,10.54,11,13,9,.8-.66.56-2.32.16-3.81l27.48-38.82"/><path class="e" d="M129.71,398.56a38.52,38.52,0,0,0,17.43,13.15"/><path class="f" d="M183.85,341.48a10.5,10.5,0,0,0-3.85,4.83"/><path class="f" d="M182.48,340.49a10.94,10.94,0,0,0-2.55,5.71"/><path class="f" d="M182.38,340.43a10.75,10.75,0,0,0-6.22-.44"/><path class="f" d="M181.74,339.4a8.83,8.83,0,0,0-5.64.56"/><path class="f" d="M187,346.77a10.78,10.78,0,0,0-3.24-5.33"/><path class="f" d="M187,346.75a5,5,0,0,0-.9-4.12"/><path class="e" d="M92,467.59c-7.91,3.92-.62,14.83-11.88,18.1"/><path class="e" d="M92.88,468.2C85,472.12,92.27,483,81,486.3"/><path class="e" d="M92.9,468.15c-8.69,3.68-2.28,15-14.39,17.87"/><path class="a" d="M39.25,15.17C36.78,27.65,35,40.05,33.72,52.81c-1.9,19.42,1.8,37.71,1.82,56.91"/><path class="a" d="M85.59,15.17C79.15,13,75.88,30.76,71.69,34.64"/><path class="g" d="M78.24,9.54c-1.56,2.33-.5,5.5-.31,6.06,2.7,8,16.76,11.61,20.24,7.83a7.14,7.14,0,0,0,1.54-3.51A7.94,7.94,0,0,0,99,15.54c-1.89-4.45-7.79-8.71-14.2-8.5C83,7.09,79.8,7.19,78.24,9.54Z"/><path class="g" d="M70.16,25.07c1.11-2.18,2.23-4.36,3.38-6.56,1.26-2.41,2.51-4.8,3.77-7.16a10.25,10.25,0,0,0,.32,4.7,10.81,10.81,0,0,0,3.5,4.9,17.42,17.42,0,0,0,8.35,4c2.55.49,6.36,1.21,8.54-1.07a5.26,5.26,0,0,0,1.22-2.17s-1.8,3.93-5.32,10.77c-1.31,2.56-2.42,4.67-3.2,6.11a10.54,10.54,0,0,1-4.81,3.65,10.85,10.85,0,0,1-6,.27c-5-.93-10.48-5-11.13-10.76A11.72,11.72,0,0,1,70.16,25.07Z"/><path class="h" d="M67.6,26c.38.12-1.48,4.22,0,8.73,1.93,5.89,7.22,8.1,8.73,8.73,1.25.52,6.63,2.76,11.07.2,3.63-2.09,4.78-6.33,4.86-6.29S88.6,46.63,72,86.05h0a7.83,7.83,0,0,1-1.66,1.59A10.37,10.37,0,0,1,64,89.28a15.12,15.12,0,0,1-3.28-.36l.57-46.49C65.73,29.3,67.24,25.85,67.6,26Z"/><path class="h" d="M60.67,91.8a9.76,9.76,0,0,0,5.93.08,11.46,11.46,0,0,0,4.89-3.17l-8.15,18.53L60.6,107Q60.65,99.42,60.67,91.8Z"/><path class="h" d="M31.51,111.64Q30.74,64.51,30,17.37a14.69,14.69,0,0,1,1.28-7.22C34.7,2.88,43,1.65,43.41,1.6A16.7,16.7,0,0,1,60.28,11a14.83,14.83,0,0,1,1.28,6.23L60.36,112a24,24,0,0,1-28.85-.26Z"/><path class="a" d="M75.39,159c11.13-6,16.07,6.73,21.77,13.67,7.44,9.05,15.28.11,25.2,3.33s13.41,12.47,21.49,17.9c5.12,3.43,6.87,2.33,12.25.82,4.78-1.34,7.88.74,12.24,1"/><path class="e" d="M73,168.37c1.4-4.56,6.4-18.84,20.93-28.5,1.46-1,24.32-15.6,49.34-4.2,2.12,1,23.17,11,28.29,34.94a51.29,51.29,0,0,1-4.92,34.09"/><path class="e" d="M73,168.37A11.74,11.74,0,0,1,80.6,166c6,.49,11.52,6.68,12.65,15.42a43.29,43.29,0,0,1,31.57-1.62c16.65,5.73,23.48,19.76,24.64,22.25.83-.48,5.89-3.27,11.57-1.25a13.29,13.29,0,0,1,5.59,3.87"/><path class="e" d="M143.25,135.67c-4.61,0-19.83.51-32.72,11.61A52.17,52.17,0,0,0,96.77,167a52.84,52.84,0,0,0-3.52,14.5"/><path class="e" d="M144.47,135.64A56.06,56.06,0,0,1,152,147.88a59,59,0,0,1,4.51,31.29,64.56,64.56,0,0,1-7.08,22.9"/><path class="e" d="M145.54,132.82c-.17.43-.82,2-.75,1.85l2.24-5.5c-.88,2.12-2.36,4.9-2.65,6.52"/><path class="f" d="M125.41,180.67l-19.89,51.06c-1.24,4.26-4.78,7.28-8.48,7.39a7.52,7.52,0,0,1-7-4.77,7.81,7.81,0,0,1,3.58-10.44h0a6.24,6.24,0,0,1,.84-.36"/><path class="a" d="M42.13,567.49c7.34,9.73,16.77,17,26.52,24.73,5.49,4.33,11.1,8.4,16.79,12.44,6.07,4.3,15.36,13.37,23,13.49"/><rect class="i" x="62.59" y="532.06" width="40.73" height="99.23" rx="12.01" transform="translate(-404.93 254.28) rotate(-48.02)"/><rect class="j" x="67.25" y="565.97" width="31.46" height="31.46" rx="9.86" transform="translate(-404.95 254.3) rotate(-48.02)"/><circle class="k" cx="53.8" cy="555.6" r="1.5"/><circle class="k" cx="99.91" cy="597.09" r="1.5"/><circle class="k" cx="48.44" cy="561.55" r="1.5"/><circle class="k" cx="94.56" cy="603.04" r="1.5"/><circle class="k" cx="59.15" cy="549.65" r="1.5"/><circle class="k" cx="105.27" cy="591.13" r="1.5"/><circle class="k" cx="59.75" cy="560.95" r="1.5"/><circle class="k" cx="105.86" cy="602.44" r="1.5"/><circle class="k" cx="54.39" cy="566.9" r="1.5"/><circle class="k" cx="100.51" cy="608.39" r="1.5"/><circle class="k" cx="65.1" cy="555" r="1.5"/><circle class="k" cx="111.22" cy="596.49" r="1.5"/><circle class="k" cx="65.7" cy="566.3" r="1.5"/><circle class="k" cx="111.81" cy="607.79" r="1.5"/><circle class="k" cx="60.34" cy="572.25" r="1.5"/><circle class="k" cx="106.46" cy="613.74" r="1.5"/><circle class="k" cx="71.05" cy="560.35" r="1.5"/><circle class="k" cx="117.17" cy="601.84" r="1.5"/><path class="a" d="M106.6,559.31c1.69,12.07,6.38,23,11.18,34.47,2.7,6.45,5.62,12.73,8.64,19,3.22,6.71,6.94,19.14,13.53,22.93"/><rect class="l" x="115.08" y="541.9" width="40.7" height="99.18" rx="12" transform="translate(-185.19 76.32) rotate(-19)"/><rect class="m" x="119.71" y="575.79" width="31.45" height="31.45" rx="9.85" transform="translate(-185.2 76.32) rotate(-19)"/><circle class="k" cx="122.56" cy="554.57" r="1.5"/><circle class="k" cx="142.74" cy="613.2" r="1.5"/><circle class="k" cx="114.99" cy="557.18" r="1.5"/><circle class="k" cx="135.18" cy="615.8" r="1.5"/><circle class="k" cx="130.12" cy="551.97" r="1.5"/><circle class="k" cx="150.31" cy="610.59" r="1.5"/><circle class="k" cx="125.16" cy="562.14" r="1.5"/><circle class="k" cx="145.35" cy="620.76" r="1.5"/><circle class="k" cx="117.6" cy="564.74" r="1.5"/><circle class="k" cx="137.78" cy="623.37" r="1.5"/><circle class="k" cx="132.73" cy="559.53" r="1.5"/><circle class="k" cx="152.91" cy="618.16" r="1.5"/><circle class="k" cx="127.77" cy="569.7" r="1.5"/><circle class="k" cx="147.95" cy="628.33" r="1.5"/><circle class="k" cx="120.2" cy="572.31" r="1.5"/><circle class="k" cx="140.39" cy="630.93" r="1.5"/><circle class="k" cx="135.33" cy="567.1" r="1.5"/><circle class="k" cx="155.51" cy="625.72" r="1.5"/><path class="a" d="M137.29,783.19c-4.93,12.19-8.27,24.23-12.5,36.46-3.06,8.88-7.25,17.39-10.57,26.18-6.68,17.66-9.84,39.31-21,54.74"/><path class="a" d="M165.55,787.91c1.32,8.84-5.85,18.87-8.73,27.11-4.52,13-7.17,26.06-12.42,39.05-9.42,23.32-17.79,46.38-27,69.67"/><path class="e" d="M162.77,781.32l36.8,13.5-1.85,4.7-36.84-13.4Z"/><path class="e" d="M160.17,788.41l36.49,13.07L145.34,914.16a26.45,26.45,0,0,1-22.4-8.16Z"/><path class="e" d="M137.64,931.3a33.51,33.51,0,0,1-20.75-8l4.92-15.1a26.68,26.68,0,0,0,22.62,8.09Z"/><path class="n" d="M128.11,812.1c-2.23,7-12.15,33.13-40.27,104,1.81,1.21,4.2,2.43,6.17,2a3.44,3.44,0,0,0,2.18-1.48c4.1-5.72,35.73-92.74,40-104.07,1.26-3.36,3.46-9,6.63-16,3.41-8.1,5.13-14.37,4.32-15.28a6.39,6.39,0,0,0-.93-.87,6.29,6.29,0,0,0-3.09-1.32c-2-.25-4.64,7.65-6,11.36-1.07,2.84-2.27,5.47-4.68,10.72A72.57,72.57,0,0,0,128.11,812.1Z"/><line class="b" x1="122.64" y1="800.68" x2="133.46" y2="805.43"/><line class="b" x1="123.49" y1="798.64" x2="134.31" y2="803.39"/><line class="b" x1="124.34" y1="796.6" x2="135.16" y2="801.35"/><line class="b" x1="125.2" y1="794.56" x2="136.02" y2="799.31"/><line class="b" x1="125.99" y1="792.66" x2="136.81" y2="797.41"/><line class="b" x1="126.84" y1="790.62" x2="137.66" y2="795.37"/><line class="b" x1="127.7" y1="788.58" x2="138.52" y2="793.33"/><line class="b" x1="128.55" y1="786.54" x2="139.37" y2="791.29"/><line class="b" x1="129.45" y1="784.39" x2="140.27" y2="789.14"/><line class="b" x1="130.3" y1="782.35" x2="141.12" y2="787.1"/><line class="b" x1="131.15" y1="780.31" x2="141.97" y2="785.06"/><line class="b" x1="132" y1="778.27" x2="142.82" y2="783.02"/><path class="a" d="M26.57,930.22C15,935.88,7.5,948.09,10.1,960.59c1.15,5.56,4.07,11,3.38,16.62-.88,7.18-7.69,10.81-7,17.79,1.07,11.09,9.26,6.78,15.78,9.39,8.34,3.34,11.27,14.69,14.37,22.78,7.11,18.5,24.67,36.27,45.41,19.18"/><path class="e" d="M63.87,949.68c-4.39-1.42-3-8.73-7.49-15.71-4.82-7.39-13.25-9.66-15-10.08-10.17-2.49-18.72,2.51-23.45,5.28-5,2.91-13.13,7.69-15.65,17.26-.3,1.18-2.17,8.7,1.25,15.81,2.09,4.36,6.82,9.93,6.82,9.93a10.79,10.79,0,0,1,1.26,3.38,6.28,6.28,0,0,1-1.16,4.13c-1,1.44-2.08,1.83-3.37,2.69-2.65,1.77-5.2,5-5.53,7.88-.08.68,0,1.34,2.8,7a121.58,121.58,0,0,0,6.52,11.21c1.37,2.12,1.87,2.77,2.84,3.3,1.18.65,2.51.81,8,0,5.2-.82,7.17-1.45,8.32-.27.18.18.2.27,1.17,2.76.45,1.15.91,2.3,1.35,3.46,1.22,3.28,2.71,6.77,4.23,10.68,3.57,9.15,3,9.36,5.29,14.22,1.94,4,2.91,6,5,8.07A21.39,21.39,0,0,0,58,1056c6.7,1.46,12.08,0,16.5-1.27a47.3,47.3,0,0,0,16.86-8.59c4.77-3.88,10.14-8.26,11.83-15.73,1.5-6.68-.71-12.4-1.89-15.46-2.45-6.33-6.51-10.94-9.28-14.08-1.86-2.12-4.25-5.55-9-12.41a6,6,0,0,1-1.25-3.75c.08-1.25.66-2.06,2.16-4,.38-.5,3.5-4.61,5.68-7.83,1.07-1.57,1.54-2.39,1.55-3.52,0-1.6-1-2.71-1.83-3.9a43.23,43.23,0,0,1-4.06-7c-2.15-4.6-1.4-6.63-3.87-8.84a7.52,7.52,0,0,0-3-1.75c-2.46-.66-4.11.46-7.46,1.26C67.79,949.75,65.64,950.25,63.87,949.68Z"/><path class="e" d="M24.08,936.83a26,26,0,0,1,12.61-2.72c2.48.11,8,.33,12.54,4.11a18.16,18.16,0,0,1,5,7.22c3.26,7.34,7.92,14,11.38,21.25,4.61,9.63,7.9,16.51,13,25.13,4.59,7.71,8.08,16,12.39,23.89a15,15,0,0,1,2.11,6.79c.31,6.64-4.48,11.72-6.6,14a29.34,29.34,0,0,1-13.67,8c-4.08,1.16-12,3.42-17.77-.58-.87-.6-2.06-1.6-6.54-9.67-4.14-7.44-6.07-11.69-6.07-11.69-3.72-8.21-7.6-15.34-15.36-29.61-5-9.18-7.47-13.19-11.23-21.59-5.15-11.52-5.38-14.92-4.89-17.94C12.73,942.87,23.17,937.3,24.08,936.83Z"/><path class="o" d="M26.31,940.57c4.71-1.93,9.14-.54,11.69.25,2.72.85,7.21,2.25,9.36,6.17,1.85,3.39.09,5.21,2.48,9.7,1.24,2.32,2,2.33,3.55,5.26a32.54,32.54,0,0,1,2.54,6.82,74.61,74.61,0,0,0,4.72,10.76,95.68,95.68,0,0,0,10.9,16.75c3.76,4.83,7.15,9.93,10.82,14.81a10.63,10.63,0,0,1,2.66,6.49c0,1.62-.51,2.06-1.25,5.68s-.36,3.89-.88,5.48c-1.21,3.74-4.43,5.85-5.68,6.67a17.6,17.6,0,0,1-11,2.6c-.75,0-9.2-.74-14.09-7.33-2.07-2.78-2.54-5.33-3.26-8.37a138.11,138.11,0,0,0-9.25-26.11c-1.06-2.14-4.56-9-8-14.56-2-3.25-2.81-4.15-3.56-6.46-.61-1.91-.82-3.65-2.33-5.48a9.72,9.72,0,0,0-2.56-2.18c-3.18-2.12-6-7.46-6.2-12.73A15.5,15.5,0,0,1,26.31,940.57Z"/><path class="p" d="M39.91,951.31a10.71,10.71,0,0,0-5-.2c-5.77,1.18-8.29,6.94-8.57,7.63"/><path class="p" d="M59.55,1023.82a10.71,10.71,0,0,0,5,.2c5.77-1.18,8.29-6.94,8.57-7.63"/><path class="f" d="M40.2,967.77c2.22-1,5,.88,6.6,1.93,1.06.71,3.54,2.56,7,8.38a50.77,50.77,0,0,1,5.32,12.09c2,6.89,1.05,9,.42,10a5.32,5.32,0,0,1-3.18,2.37c-2,.4-3.88-.82-5.85-2.54a39,39,0,0,1-9.31-12.77c-4.54-9.38-3.89-13.54-3.67-14.7C37.81,971.15,38.33,968.64,40.2,967.77Z"/></svg>