<svg xmlns="http://www.w3.org/2000/svg" width="153.558" height="149.518" viewBox="0 0 153.558 149.518">
  <g id="Groupe_829" data-name="Groupe 829" transform="translate(-70.734 -281.446)">
    <g id="Calque_1" data-name="Calque 1">
      <path id="Tracé_1144" data-name="Tracé 1144" d="M115.946,301.591a55.01,55.01,0,0,1,3.292-10.489" fill="none" stroke="#3ED1D2" stroke-linecap="round" stroke-width="15"/>
      <path id="Tracé_1145" data-name="Tracé 1145" d="M91.754,295.162c2.058,3.085,5.43,5.513,7.885,8.344" fill="none" stroke="#3ED1D2" stroke-linecap="round" stroke-width="15"/>
      <path id="Tracé_1146" data-name="Tracé 1146" d="M147.489,323.025l.46,1.685" fill="none" stroke="#3ED1D2" stroke-linecap="round" stroke-width="15"/>
      <path id="Tracé_1147" data-name="Tracé 1147" d="M158.974,337.264l2.143-.765" fill="none" stroke="#3ED1D2" stroke-linecap="round" stroke-width="15"/>
      <path id="Tracé_1148" data-name="Tracé 1148" d="M191.511,337.8" fill="none" stroke="#3ED1D2" stroke-linecap="round" stroke-width="15"/>
      <path id="Tracé_1149" data-name="Tracé 1149" d="M207.589,350.965l1.454-1.3" fill="none" stroke="#3ED1D2" stroke-linecap="round" stroke-width="15"/>
      <path id="Tracé_1165" data-name="Tracé 1165" d="M207.589,350.965l1.454-1.3" transform="translate(-16.078 -14.466)" fill="none" stroke="#3ED1D2" stroke-linecap="round" stroke-width="15"/>
      <path id="Tracé_1150" data-name="Tracé 1150" d="M169.082,376.308l-.613,3.063" fill="none" stroke="#3ED1D2" stroke-linecap="round" stroke-width="15"/>
      <path id="Tracé_1151" data-name="Tracé 1151" d="M157.292,381.515a29.192,29.192,0,0,0,3.675,3.521" fill="none" stroke="#3ED1D2" stroke-linecap="round" stroke-width="15"/>
      <path id="Tracé_1152" data-name="Tracé 1152" d="M111.586,369.192a5.966,5.966,0,0,1-.076,2.373" fill="none" stroke="#3ED1D2" stroke-linecap="round" stroke-width="15"/>
      <path id="Tracé_1164" data-name="Tracé 1164" d="M9.165,8.263a3.321,3.321,0,0,0,.071-.437,3.174,3.174,0,0,0,.011-.435A3.207,3.207,0,0,0,9.2,6.959a3.42,3.42,0,0,0-.108-.431" transform="translate(112.421 371.63)" fill="none" stroke="#3ED1D2" stroke-linecap="round" stroke-width="15"/>
      <path id="Tracé_1153" data-name="Tracé 1153" d="M119.09,383.431" fill="none" stroke="#3ED1D2" stroke-linecap="round" stroke-width="15"/>
      <path id="Tracé_1154" data-name="Tracé 1154" d="M81.575,350.054c2.546.259,4.152,2.359,6.584,2.909" fill="none" stroke="#3ED1D2" stroke-linecap="round" stroke-width="15"/>
      <path id="Tracé_1155" data-name="Tracé 1155" d="M94.589,344.694l-.612,1.072" fill="none" stroke="#3ED1D2" stroke-linecap="round" stroke-width="15"/>
      <path id="Tracé_1156" data-name="Tracé 1156" d="M131.488,313.457v1.99" fill="none" stroke="#3ED1D2" stroke-linecap="round" stroke-width="15"/>
    </g>
    <g id="Calque_2" data-name="Calque 2">
      <g id="Groupe_573" data-name="Groupe 573">
        <path id="Tracé_293" data-name="Tracé 293" d="M114.848,305.66c-3.744-.991-6.026-5.975-5.774-9.6.4-5.734,7.36-11.187,17.519-11.889.346,1.476,2.477,11.2-3.205,17.528C122.553,302.627,118.877,306.726,114.848,305.66Z" fill="none" stroke="#353434" stroke-width="2"/>
        <path id="Tracé_294" data-name="Tracé 294" d="M100.268,305.088c3.188-2.187,3.645-7.646,2.179-10.972-2.32-5.265-10.724-8.067-20.525-5.325.174,1.505,1.463,11.371,8.96,15.429C91.983,304.815,96.837,307.442,100.268,305.088Z" fill="none" stroke="#353434" stroke-width="2"/>
        <path id="Tracé_295" data-name="Tracé 295" d="M110.966,317.061c-.035-.829-.719-12.838-9.267-18.052a15.252,15.252,0,0,0-8.621-2.186" fill="none" stroke="#353434" stroke-width="2"/>
        <path id="Tracé_296" data-name="Tracé 296" d="M119.255,294.7c-.29-.015-4.517-.006-6.889,11.005a68.1,68.1,0,0,0-1.324,11.341" fill="none" stroke="#353434" stroke-width="2"/>
      </g>
      <g id="Groupe_573-2" data-name="Groupe 573">
        <path id="Tracé_293-2" data-name="Tracé 293" d="M153.641,338.864c-1.188-2.447.421-5.948,2.467-7.476,3.237-2.416,9.333-1.209,14.364,3.881-.628.861-4.828,6.452-10.8,6.328C158.789,341.578,154.921,341.5,153.641,338.864Z" fill="none" stroke="#353434" stroke-width="2"/>
        <path id="Tracé_294-2" data-name="Tracé 294" d="M147.262,330.837c2.627.7,5.744-1.564,6.843-3.87,1.741-3.649-.619-9.41-6.573-13.373-.722.783-5.386,5.992-4.11,11.845C143.61,326.3,144.436,330.088,147.262,330.837Z" fill="none" stroke="#353434" stroke-width="2"/>
        <path id="Tracé_295-2" data-name="Tracé 295" d="M145.79,342.023c.425-.4,6.508-6.268,5.366-13.211a10.715,10.715,0,0,0-2.788-5.594" fill="none" stroke="#353434" stroke-width="2"/>
        <path id="Tracé_296-2" data-name="Tracé 296" d="M161.5,336.189c-.125-.161-2.068-2.408-9.02,1.376a47.817,47.817,0,0,0-6.647,4.494" fill="none" stroke="#353434" stroke-width="2"/>
      </g>
      <g id="Groupe_573-3" data-name="Groupe 573">
        <path id="Tracé_293-3" data-name="Tracé 293" d="M113.461,381.949c-.64-2.2,1.194-4.884,3.111-5.864,3.033-1.549,7.929.319,11.389,5.263-.644.626-4.928,4.677-9.879,3.727C117.355,384.935,114.151,384.321,113.461,381.949Z" fill="none" stroke="#353434" stroke-width="2"/>
        <path id="Tracé_294-3" data-name="Tracé 294" d="M109.3,374.372c2.084.951,5-.485,6.236-2.246,1.965-2.786.82-7.909-3.566-12.047-.711.548-5.327,4.216-5.1,9.262C106.9,370.082,107.055,373.349,109.3,374.372Z" fill="none" stroke="#353434" stroke-width="2"/>
        <path id="Tracé_295-3" data-name="Tracé 295" d="M106.487,383.461c.41-.271,6.3-4.287,6.335-10.22A9.043,9.043,0,0,0,111.3,368.2" fill="none" stroke="#353434" stroke-width="2"/>
        <path id="Tracé_296-3" data-name="Tracé 296" d="M120.371,380.84c-.082-.152-1.378-2.295-7.693-.136a40.363,40.363,0,0,0-6.162,2.793" fill="none" stroke="#353434" stroke-width="2"/>
      </g>
      <g id="Groupe_573-4" data-name="Groupe 573">
        <path id="Tracé_293-4" data-name="Tracé 293" d="M133.2,315.924c-.844-1.3-.18-3.394.87-4.4,1.66-1.594,5.193-1.34,8.4,1.185-.295.531-2.276,3.988-5.666,4.339C136.3,317.1,134.109,317.324,133.2,315.924Z" fill="none" stroke="#353434" stroke-width="2"/>
        <path id="Tracé_294-4" data-name="Tracé 294" d="M129.028,311.832c1.534.209,3.139-1.288,3.6-2.669.728-2.187-1.012-5.279-4.658-7.1-.353.493-2.624,3.767-1.492,6.988C126.643,309.523,127.377,311.608,129.028,311.832Z" fill="none" stroke="#353434" stroke-width="2"/>
        <path id="Tracé_295-4" data-name="Tracé 295" d="M128.982,318.263c.212-.256,3.24-4,2.106-7.85a6.1,6.1,0,0,0-1.97-2.967" fill="none" stroke="#353434" stroke-width="2"/>
        <path id="Tracé_296-4" data-name="Tracé 296" d="M137.455,313.858c-.082-.082-1.339-1.216-5,1.413a27.294,27.294,0,0,0-3.444,3.009" fill="none" stroke="#353434" stroke-width="2"/>
      </g>
      <g id="Groupe_573-5" data-name="Groupe 573">
        <path id="Tracé_293-5" data-name="Tracé 293" d="M79.91,353.441c-5.657-1.933-7.686-8.625-7.98-9.649,6.471-3.056,12.611-2.1,14.823,1.279,1.4,2.137,1.71,5.977-.245,7.869C84.4,354.977,80.741,353.725,79.91,353.441Z" fill="none" stroke="#353434" stroke-width="2"/>
        <path id="Tracé_294-5" data-name="Tracé 294" d="M100.71,343.832c3.205-5.062.609-11.554.2-12.537-6.952,1.682-11.144,6.285-10.76,10.31.242,2.543,2.4,5.733,5.1,5.98C98.164,347.851,100.239,344.574,100.71,343.832Z" fill="none" stroke="#353434" stroke-width="2"/>
        <path id="Tracé_295-5" data-name="Tracé 295" d="M96.825,340.049a10.725,10.725,0,0,0-4.537,4.3c-3.453,6.131.25,13.73.512,14.25" fill="none" stroke="#353434" stroke-width="2"/>
        <path id="Tracé_296-5" data-name="Tracé 296" d="M92.75,358.619a47.731,47.731,0,0,0-4.7-6.5c-5.233-5.938-7.828-4.493-8-4.384" fill="none" stroke="#353434" stroke-width="2"/>
      </g>
      <g id="Groupe_573-6" data-name="Groupe 573">
        <path id="Tracé_293-6" data-name="Tracé 293" d="M201.222,356.458c-1.973-3.061-.4-7.971,2.073-10.331,3.911-3.732,12.2-3.109,19.709,2.842-.7,1.245-5.374,9.349-13.336,10.149C208.5,359.234,203.346,359.753,201.222,356.458Z" fill="none" stroke="#353434" stroke-width="2"/>
        <path id="Tracé_294-6" data-name="Tracé 294" d="M191.453,346.82c3.6.5,7.38-3,8.468-6.244,1.725-5.129-2.338-12.4-10.887-16.709-.833,1.157-6.191,8.829-3.553,16.4C185.869,341.379,187.578,346.281,191.453,346.82Z" fill="none" stroke="#353434" stroke-width="2"/>
        <path id="Tracé_295-6" data-name="Tracé 295" d="M191.3,361.92c.5-.6,7.637-9.377,5-18.418a14.35,14.35,0,0,0-4.606-6.983" fill="none" stroke="#353434" stroke-width="2"/>
        <path id="Tracé_296-6" data-name="Tracé 296" d="M211.229,351.638c-.193-.194-3.136-2.867-11.763,3.281a63.98,63.98,0,0,0-8.107,7.041" fill="none" stroke="#353434" stroke-width="2"/>
      </g>
      <path id="Tracé_1157" data-name="Tracé 1157" d="M93.331,357.854c1.98,8.963,1.537,14.208,8.327,21.692,3.513,3.872,6.732,5.185,11.718,6.584,6.837,1.918,13.535,4.529,18.329,9.992,6.775,7.72,11,23.794,8.39,33.619" fill="none" stroke="#353434" stroke-linecap="square" stroke-linejoin="round" stroke-width="2"/>
      <path id="Tracé_1158" data-name="Tracé 1158" d="M140.87,412.961c1.226-9.443,8.756-15.035,17.277-17.309,5.876-1.567,11.4-3.305,16.592-6.617,8.168-5.21,19.315-17.752,17.2-28.4" fill="none" stroke="#353434" stroke-linecap="square" stroke-linejoin="round" stroke-width="2"/>
      <path id="Tracé_1159" data-name="Tracé 1159" d="M136.264,398.139c-.7-12.421,3.587-24.082-3.422-34.509-4.279-6.367-9.472-11.75-13.784-18.055-6.777-9.912-7.366-21.1-7.733-33.8" fill="none" stroke="#353434" stroke-linecap="square" stroke-linejoin="round" stroke-width="2"/>
      <path id="Tracé_1160" data-name="Tracé 1160" d="M137.829,371.706c2.34-8.72,9.772-11.939,16.511-14.157,8.325-2.739,14.105-6.646,17.935-16.407" fill="none" stroke="#353434" stroke-linecap="square" stroke-linejoin="round" stroke-width="2"/>
      <path id="Tracé_1161" data-name="Tracé 1161" d="M151.892,357.6c-2.158-2.931-4.853-6.08-6.449-9.237-2.237-4.425,1.169-8.706-1.257-12.835" fill="none" stroke="#353434" stroke-linecap="square" stroke-linejoin="round" stroke-width="2"/>
      <path id="Tracé_1162" data-name="Tracé 1162" d="M117.26,337.276c3.774-7.863,11.531-9.08,12.54-18.829" fill="none" stroke="#353434" stroke-linecap="square" stroke-linejoin="round" stroke-width="2"/>
      <path id="Tracé_1163" data-name="Tracé 1163" d="M109.836,352.663c2.769,4.517,9.9,7.761,14.581,4.4" fill="none" stroke="#353434" stroke-linecap="square" stroke-linejoin="round" stroke-width="2"/>
      <g id="Groupe_573-7" data-name="Groupe 573">
        <path id="Tracé_293-7" data-name="Tracé 293" d="M169.431,383.857c-2.294.032-4.393-2.448-4.828-4.557-.688-3.335,2.413-7.559,8.1-9.582.433.788,3.2,5.993.971,10.514C173.343,380.9,171.9,383.822,169.431,383.857Z" fill="none" stroke="#353434" stroke-width="2"/>
        <path id="Tracé_294-7" data-name="Tracé 294" d="M161.02,385.858c1.47-1.757.859-4.945-.509-6.609-2.165-2.634-7.407-2.891-12.562.24.339.831,2.65,6.254,7.576,7.373C156.248,387.026,159.438,387.749,161.02,385.858Z" fill="none" stroke="#353434" stroke-width="2"/>
        <path id="Tracé_295-7" data-name="Tracé 295" d="M169.036,390.982c-.152-.467-2.46-7.211-8.17-8.821a9.046,9.046,0,0,0-5.269.129" fill="none" stroke="#353434" stroke-width="2"/>
        <path id="Tracé_296-7" data-name="Tracé 296" d="M170.2,376.9c-.168.038-2.579.718-2.174,7.38a40.268,40.268,0,0,0,1.056,6.683" fill="none" stroke="#353434" stroke-width="2"/>
      </g>
    </g>
  </g>
</svg>
