<svg xmlns="http://www.w3.org/2000/svg" width="124.581" height="137.015" viewBox="0 0 124.581 137.015">
  <g id="Groupe_827" data-name="Groupe 827" transform="translate(-341.79 -63.344)">
    <g id="Calque_1" data-name="Calque 1">
      <path id="Tracé_1136" data-name="Tracé 1136" d="M348.064,134.8c1.046,2.627,2.557,7.025,5.494,8.06,1.575-2.239-.819-5.334.637-7.717,2.967,2.654,3.707,7.652,5.858,11.01.662-3.433.207-7.663-.006-11.19,2.079,1.9,1.873,5.619,4.255,7.116.36-2.366.115-4.969.491-7.209.916.981,1.564,2.223,2.7,2.9a4.574,4.574,0,0,0,2.385-3.943" fill="none" stroke="#22b1b2" stroke-linecap="round" stroke-linejoin="round" stroke-width="4.25"/>
      <path id="Tracé_1137" data-name="Tracé 1137" d="M438.585,134.152c2.137,2.669,2.478,6.741,4.973,9.038,1.4-2.374,1.19-6.343.645-9.008,1.895,3.2,1.9,9.215,5.068,11.316,2.122-2.007.348-7.6.413-10.337,1.367,1.766,2.027,4.572,3.95,5.642,1.676-2.048,1.08-5.224,1.852-7.525,1.3,2.445,2.311,5.15,3.951,7.344,1.2-2.615.365-5.642.753-8.393,1.386.7,1.96,2.492,3.794,2.248" fill="none" stroke="#22b1b2" stroke-linecap="round" stroke-linejoin="round" stroke-width="4.25"/>
      <path id="Tracé_1138" data-name="Tracé 1138" d="M400.814,84.332a5.991,5.991,0,0,0,2.043,4.822c1.2-1.647.977-4.38,2.012-5.911a32.379,32.379,0,0,0,2.473,4.869c.706-1.378.471-3.137.987-4.351.468.485,1.441.726,1.929,1.192a2.046,2.046,0,0,0,1.3-1.272" fill="none" stroke="#22b1b2" stroke-linecap="round" stroke-linejoin="round" stroke-width="3.25"/>
    </g>
    <g id="Calque_2" data-name="Calque 2">
      <line id="Ligne_138" data-name="Ligne 138" y2="15.523" transform="translate(405.362 63.344)" fill="none" stroke="#040405" stroke-width="2"/>
      <line id="Ligne_139" data-name="Ligne 139" x1="57.369" transform="translate(341.79 84.785)" fill="none" stroke="#040405" stroke-width="2"/>
      <line id="Ligne_140" data-name="Ligne 140" x1="52.973" transform="translate(410.533 84.638)" fill="none" stroke="#040405" stroke-width="2"/>
      <line id="Ligne_141" data-name="Ligne 141" x1="66.423" transform="translate(371.634 199.359)" fill="none" stroke="#040405" stroke-width="2"/>
      <line id="Ligne_142" data-name="Ligne 142" y2="108.887" transform="translate(404.846 90.472)" fill="none" stroke="#040405" stroke-width="2"/>
      <circle id="Ellipse_9" data-name="Ellipse 9" cx="5.687" cy="5.687" r="5.687" transform="translate(399.159 79.098)" fill="none" stroke="#040405" stroke-width="2"/>
      <line id="Ligne_143" data-name="Ligne 143" x1="13.7" y2="49.075" transform="translate(345.653 84.63)" fill="none" stroke="#040405" stroke-width="2"/>
      <line id="Ligne_144" data-name="Ligne 144" x2="13.516" y2="49.188" transform="translate(359.353 84.63)" fill="none" stroke="#040405" stroke-width="2"/>
      <line id="Ligne_145" data-name="Ligne 145" x1="13.731" y2="49.055" transform="translate(436.29 84.402)" fill="none" stroke="#040405" stroke-width="2"/>
      <line id="Ligne_146" data-name="Ligne 146" x2="13.485" y2="49.208" transform="translate(450.021 84.402)" fill="none" stroke="#040405" stroke-width="2"/>
      <path id="Tracé_611" data-name="Tracé 611" d="M359.168,146.929a13.58,13.58,0,0,1-13.516-13.516h27.033A13.582,13.582,0,0,1,359.168,146.929Z" fill="none" stroke="#040405" stroke-width="2"/>
      <path id="Tracé_612" data-name="Tracé 612" d="M449.9,146.967a13.672,13.672,0,0,1-13.607-13.611h27.216A13.672,13.672,0,0,1,449.9,146.967Z" fill="none" stroke="#040405" stroke-width="2"/>
    </g>
  </g>
</svg>
