<svg xmlns="http://www.w3.org/2000/svg" width="138.628" height="75.723" viewBox="0 0 138.628 75.723">
  <g id="Calque_2" data-name="Calque 2" transform="translate(-276.272 -274.047)">
    <g id="Groupe_574" data-name="Groupe 574">
      <path id="Tracé_291" data-name="Tracé 291" d="M413.9,330.574c-.171-.811-2.35-10.29-11.742-14.156-.757-.311-9.563-3.759-17.829,1.507a19.907,19.907,0,0,0-8.9,18.8l-6.915.721-44.846-.721v-61.1l89.471-.572Q413.518,302.812,413.9,330.574Z" fill="none" stroke="#353434" stroke-width="2"/>
      <path id="Tracé_292" data-name="Tracé 292" d="M318.294,335.684c-.335-8.593-5.254-16.044-12.358-18.782-8.869-3.417-16.512,2.291-17.108,2.751-7.459,5.773-7.8,14.986-7.822,16.03a73.254,73.254,0,0,1-3.29-15.027,75.71,75.71,0,0,1,3.29-31.537h37.288Z" fill="none" stroke="#353434" stroke-width="2"/>
      <g id="Groupe_573" data-name="Groupe 573">
        <path id="Tracé_293" data-name="Tracé 293" d="M367.681,313.548c-3.994-1.965-5.436-8.1-4.33-12.129,1.749-6.372,10.83-10.94,22.439-9.428.055,1.742.254,13.179-7.585,19.028C377.053,311.877,371.981,315.663,367.681,313.548Z" fill="none" stroke="#3ED1D2" stroke-width="10"/>
        <path id="Tracé_294" data-name="Tracé 294" d="M351.379,309.6c4.089-1.742,5.842-7.791,4.943-11.872-1.421-6.46-10.257-11.523-21.925-10.654-.145,1.736-.929,13.147,6.6,19.42C342.1,307.412,346.979,311.473,351.379,309.6Z" fill="none" stroke="#3ED1D2" stroke-width="10"/>
        <path id="Tracé_295" data-name="Tracé 295" d="M360.722,325.517c.148-.942,2.1-14.632-6.352-22.446a17.531,17.531,0,0,0-9.221-4.418" fill="none" stroke="#353434" stroke-width="2"/>
        <path id="Tracé_296" data-name="Tracé 296" d="M375.132,302.2c-.324-.082-5.09-1.03-10.259,10.842a78.146,78.146,0,0,0-4.063,12.481" fill="none" stroke="#353434" stroke-width="2"/>
      </g>
      <circle id="Ellipse_6" data-name="Ellipse 6" cx="13.086" cy="13.086" r="13.086" transform="translate(288.141 322.598)" fill="none" stroke="#353434" stroke-width="2"/>
      <circle id="Ellipse_7" data-name="Ellipse 7" cx="13.086" cy="13.086" r="13.086" transform="translate(381.408 322.598)" fill="none" stroke="#353434" stroke-width="2"/>
    </g>
  </g>
</svg>
