<svg xmlns="http://www.w3.org/2000/svg" width="122.664" height="162.33" viewBox="0 0 122.664 162.33">
  <g id="Groupe_906" data-name="Groupe 906" transform="translate(-73.273 -81.463)">
    <g id="Calque_2" data-name="Calque 2">
      <path id="Tracé_1999" data-name="Tracé 1999" d="M187.426,177.479q.232,6.1-4.929,12.231c-15.411-13.9-5.594-38.831-24.791-51.214-7.486,24.017,3.674,45.846,3.8,68.619-10.345-18.651-9.02-41.582-21.7-59.262-.131,10.5-1.475,21.051-.826,31.44.673,10.776,5.607,23.52,1.361,35.058-4.517-10.732-9.765-21.166-13.662-32.1-3.476-9.749-4.862-27.935-17.448-34.567-12.215,23.452,4.431,45.49,1.934,67.538-12.775-17.839-8.248-42.775-25.879-58.924" fill="none" stroke="#e8c0ac" stroke-linecap="round" stroke-linejoin="round" stroke-width="17"/>
    </g>
    <rect id="Rectangle_434" data-name="Rectangle 434" width="76.204" height="108.835" rx="12" transform="translate(89.567 134.282) rotate(-14)" fill="none" stroke="#232322" stroke-linejoin="round" stroke-width="2"/>
    <rect id="Rectangle_435" data-name="Rectangle 435" width="61.54" height="95.377" rx="12" transform="translate(97.819 138.917) rotate(-14)" fill="none" stroke="#232322" stroke-linejoin="round" stroke-width="2"/>
    <path id="Tracé_2000" data-name="Tracé 2000" d="M112.9,127.033c.489-3.349-.892-6.754-1.588-10.088-1.74-8.371-3.967-16.588-5.928-24.906" fill="none" stroke="#232322" stroke-linejoin="round" stroke-width="2"/>
    <path id="Tracé_2001" data-name="Tracé 2001" d="M139.769,120.334c-2-2.728-2.384-6.382-3.334-9.654-2.4-8.207-4.285-16.508-6.459-24.773" fill="none" stroke="#232322" stroke-linejoin="round" stroke-width="2"/>
    <path id="Tracé_2002" data-name="Tracé 2002" d="M109.041,105.585c7.7-1.9,17.147-2.807,24.164-6.711" fill="none" stroke="#232322" stroke-width="2"/>
    <path id="Tracé_2003" data-name="Tracé 2003" d="M105.366,90.844h0c3.881-1.283,8.022-2.525,12.412-3.682,4.1-1.08,8.051-1.988,11.82-2.752" fill="none" stroke="#232322" stroke-linecap="round" stroke-linejoin="round" stroke-width="5"/>
    <path id="Tracé_2004" data-name="Tracé 2004" d="M111.269,143.543c-.34,6.394,1.649,13.547,2.949,19.787,1.584,7.593,2.941,14.864,5.584,22.17,3.858,10.661,6.432,21.936,9.175,32.939" fill="none" stroke="#232322" stroke-linejoin="round" stroke-width="2"/>
    <path id="Tracé_2005" data-name="Tracé 2005" d="M119.452,140.538c1.421,15.858,7.814,31.149,11.158,46.668,1.156,5.363,2.437,10.774,3.523,16.136,1.033,5.1,2.991,10.075,4.016,15.088" fill="none" stroke="#232322" stroke-linejoin="round" stroke-width="2"/>
    <path id="Tracé_2006" data-name="Tracé 2006" d="M129,139.123c3.461,15.093,7.575,30.116,11.917,44.975,3.05,10.439,4.012,21.467,7.007,31.895" fill="none" stroke="#232322" stroke-linejoin="round" stroke-width="2"/>
    <path id="Tracé_2007" data-name="Tracé 2007" d="M137.749,138.389c1.954,7.113,4.692,14.1,6.728,21.23,1.973,6.9,4.149,13.683,5.89,20.665,1.455,5.836,3.451,11.611,4.35,17.538a67.945,67.945,0,0,0,3.939,14.735" fill="none" stroke="#232322" stroke-linejoin="round" stroke-width="2"/>
    <path id="Tracé_2008" data-name="Tracé 2008" d="M147.467,133.794c3.834,15.6,9.94,30.59,13.194,46.334,1.879,9.089,5.794,18.769,5.62,28.155" fill="none" stroke="#232322" stroke-linejoin="round" stroke-width="2"/>
    <circle id="Ellipse_30" data-name="Ellipse 30" cx="4.945" cy="4.945" r="4.945" transform="translate(134.267 233.904)" fill="#232322"/>
    <circle id="Ellipse_31" data-name="Ellipse 31" cx="4.945" cy="4.945" r="4.945" transform="translate(166.287 226.129)" fill="#232322"/>
  </g>
</svg>
