<svg xmlns="http://www.w3.org/2000/svg" width="83.292" height="65.933" viewBox="0 0 83.292 65.933">
  <g id="Groupe_893" data-name="Groupe 893" transform="translate(235.042 -3.314) rotate(173)">
    <path id="Tracé_384" data-name="Tracé 384" d="M159.419,11.951c3.17.5,19.937,2.853,31.345-7.168,5.665-4.977,7.645-11.645,8.323-13.716,1.495-4.569,3.242-9.913.844-15.58-.64-1.509-3.309-7.144-9.536-8.876-.728-.2-8.193-2.159-12.334,2.65-3.658,4.247-2.2,10.844.527,14.522,2.756,3.722,7.005,4.742,9.515,5.322a27.026,27.026,0,0,0,9.743.088c13.225-2.465,29.884-19.753,30.908-20.83" transform="translate(0 1.399)" fill="none" stroke="#2e2e2d" stroke-linecap="round" stroke-linejoin="round" stroke-width="4"/>
    <path id="Tracé_385" data-name="Tracé 385" d="M203.955-34.99c7.172,1.931,12.606.267,18.957-3.46a46.854,46.854,0,0,0-5.6,20.367" transform="translate(13.856 0)" fill="none" stroke="#2e2e2d" stroke-linecap="round" stroke-linejoin="round" stroke-width="4"/>
  </g>
</svg>
