<svg xmlns="http://www.w3.org/2000/svg" width="87.353" height="98.409" viewBox="0 0 87.353 98.409">
  <g id="Groupe_894" data-name="Groupe 894" transform="translate(49.78 95.366) rotate(-132)">
    <path id="Tracé_384" data-name="Tracé 384" d="M0,.6C3.17.1,19.937-2.257,31.345,7.764c5.665,4.977,7.645,11.645,8.323,13.716,1.495,4.569,3.242,9.913.844,15.58-.64,1.509-3.309,7.144-9.536,8.876-.728.2-8.193,2.159-12.334-2.65-3.658-4.247-2.2-10.844.527-14.522,2.756-3.722,7.005-4.742,9.515-5.322a27.026,27.026,0,0,1,9.743-.088c13.225,2.465,29.884,19.753,30.908,20.83" transform="translate(0 0)" fill="none" stroke="#2e2e2d" stroke-linecap="round" stroke-linejoin="round" stroke-width="4"/>
    <path id="Tracé_385" data-name="Tracé 385" d="M0,16.907c7.172-1.931,12.606-.268,18.957,3.46A46.853,46.853,0,0,1,13.356,0" transform="translate(58.392 32.029)" fill="none" stroke="#2e2e2d" stroke-linecap="round" stroke-linejoin="round" stroke-width="4"/>
  </g>
</svg>
