<svg xmlns="http://www.w3.org/2000/svg" width="71.176" height="70.211" viewBox="0 0 71.176 70.211">
  <g id="Groupe_734" data-name="Groupe 734" transform="translate(-17.525 -32.398) rotate(7)">
    <path id="Tracé_647" data-name="Tracé 647" d="M82.956,31.973c-.333-.164-6.862-3.242-12.273.362l-.1.066c-4.349,2.936-4.972,8.292-5.019,8.748a12.563,12.563,0,0,0,1.385,7.009c-8.8,9.019-14.944,14.659-19.038,18.218-1.234,1.072-4.907,4.159-9.633,8.64-2.839,2.693-5.107,4.978-6.606,6.518a4.833,4.833,0,0,0-1.206,2.706,5.4,5.4,0,0,0,1.654,4.085,6.183,6.183,0,0,0,3.991,2.142c1.841.089,3.967-1.92,8.219-5.939,1.342-1.269,3.4-3.332,3.889-3.854,1.853-1.971-1.011,1.142,9.822-9.928,6.073-6.205,11.625-11.937,15.482-15.932A11.406,11.406,0,0,0,81.78,56.79c5.513-.958,7.916-6.091,8.37-7.049a13.607,13.607,0,0,0,.734-9.4L80.753,49.888l-8.077-7.782Z" transform="translate(0 0)" fill="none" stroke="#22b1b2" stroke-width="3"/>
    <circle id="Ellipse_10" data-name="Ellipse 10" cx="2.504" cy="2.504" r="2.504" transform="translate(34.378 81.429)" fill="none" stroke="#22b1b2" stroke-width="3"/>
    <path id="Tracé_648" data-name="Tracé 648" d="M98.008,32.705l-9.984,9.9,7.41,7.18,9.833-9.321" transform="translate(-14.644 -0.537)" fill="none" stroke="#22b1b2" stroke-width="3"/>
  </g>
</svg>
