<svg xmlns="http://www.w3.org/2000/svg" width="60.845" height="76.511" viewBox="0 0 60.845 76.511">
  <g id="Groupe_733" data-name="Groupe 733" transform="translate(-26.459 -10.387)">
    <rect id="Rectangle_381" data-name="Rectangle 381" width="57.845" height="53.901" rx="16.519" transform="translate(27.959 31.497)" fill="none" stroke="#3E3E3D" stroke-linecap="round" stroke-width="3"/>
    <rect id="Rectangle_382" data-name="Rectangle 382" width="42.276" height="39.394" rx="16.519" transform="translate(35.744 38.858)" fill="none" stroke="#3E3E3D" stroke-linecap="round" stroke-width="3"/>
    <path id="Tracé_644" data-name="Tracé 644" d="M73.585,88.066l-2.834-9.986a4.865,4.865,0,1,0-4.89-.017q-1.4,5-2.806,10Z" transform="translate(-11.439 -18.614)" fill="none" stroke="#3ED1D2" stroke-width="3"/>
    <path id="Tracé_645" data-name="Tracé 645" d="M53.169,34c-.936-7.517,4.919-13.649,10.994-14.034,6.548-.413,13.7,5.831,12.826,14.034" transform="translate(-8.184 -2.623)" fill="none" stroke="#3E3E3D" stroke-linecap="round" stroke-width="3"/>
    <path id="Tracé_646" data-name="Tracé 646" d="M47.159,30.722c-1.254-10.071,6.59-18.289,14.728-18.8,8.772-.555,18.35,7.813,17.182,18.8" transform="translate(-6.214 0)" fill="none" stroke="#3E3E3D" stroke-linecap="round" stroke-width="3"/>
  </g>
</svg>
