<svg xmlns="http://www.w3.org/2000/svg" viewBox="0 0 1859.53 1058.1"><defs><style>.a,.b,.c,.d,.e,.f,.g,.h,.i,.j,.l,.m,.n,.o,.p,.q,.s,.t,.u,.v,.w,.x{fill:none;}.b,.f,.g,.j,.m,.p,.q,.s,.u{stroke:#47d1d1;}.b,.n{stroke-miterlimit:10.01;}.b,.c,.e,.f,.g,.h,.n,.o,.p,.r,.s,.u,.w{stroke-width:3px;}.c,.d,.e,.h,.i,.l,.n,.o,.r,.t,.v,.x{stroke:#2e2e2d;}.c,.g,.h,.r{stroke-linejoin:round;}.d{stroke-miterlimit:10.01;stroke-width:3px;}.e,.f,.o,.p,.s,.w{stroke-miterlimit:10;}.g,.h,.r,.s{stroke-linecap:round;}.i,.j{stroke-miterlimit:10.01;stroke-width:3px;}.k{fill:#2e2e2d;}.l,.m{stroke-miterlimit:10;stroke-width:3px;}.o,.p{stroke-dasharray:1 0.5;}.q{stroke-miterlimit:10.01;stroke-width:3px;}.r{fill:#fff;}.t{stroke-miterlimit:10;stroke-width:3px;}.v{stroke-miterlimit:10;stroke-width:3px;}.w{stroke:#161615;}.x{stroke-miterlimit:10.01;stroke-width:3px;}</style></defs><path class="a" d="M64.87,271.48c1.15,15.79-1.85,13-12.51,21-8,6-8.74,12.94-10.07,22.49-2.77,19.91-3.7,39.32-9.76,58.65"/><path class="b" d="M58,264.36c-.14.55,5.81,2.79,11.69,4.16,4.33,1,9.6,1.76,9.71,1.26s-5.68-2.47-10.51-3.68C64.36,265,58.18,263.82,58,264.36Z"/><path class="c" d="M58,264.77c-1.14,4.35-2.22,9-3.2,13.76q-1.07,5.19-1.86,10.09a45.48,45.48,0,0,0,4.78,2,48.65,48.65,0,0,0,8.56,2.19,52.84,52.84,0,0,0,7.74.66q.87-4.5,1.87-9,1.65-7.58,3.51-14.68a55,55,0,0,1-21.39-5Z"/><rect class="d" x="1.86" y="316.09" width="101.98" height="48.79" rx="14.49" transform="translate(-291.18 321.39) rotate(-78)"/><path class="a" d="M18.28,689.59c8.29,10.51,11.83,26.14,19.19,37.92,10.81,17.3,21.58,32.92,29.37,51.66"/><path class="e" d="M11,688.19l49.15-20,1.46,3.8L12.51,692.14Z"/><path class="e" d="M12.84,693l49.1-20.17,22.55,88.37A47.53,47.53,0,0,1,71,769.67a48.53,48.53,0,0,1-16.39,3.82Z"/><path class="e" d="M89.72,779.51a53.28,53.28,0,0,1-27.48,11l-7.59-15.89a41.91,41.91,0,0,0,16-3.31,40.9,40.9,0,0,0,13.5-9.14Z"/><path class="a" d="M167.72,353.11A157.38,157.38,0,0,1,150.85,374c-9.28,9.59-13.78,20.24-20.55,30.84-11.94,18.7-31.36,37-41.73,58.46a32,32,0,0,0,3.2,2.47C88.91,473,83.16,484,75.43,487.81"/><path class="e" d="M116.65,418.46,130.31,400l-1-1.47c21.31-28.93,36.48-49.72,39.29-54.35a11.89,11.89,0,0,1,4.69-4.56,10.09,10.09,0,0,1,6.45-1,9.87,9.87,0,0,1,3.49,1.43c1.26.77,4.28,2.61,5.27,6.3a10,10,0,0,1-.93,7.2q-8.94,13.41-18.24,27-10.94,16-21.84,31.35l-1.53-.75L132,429.8a56.66,56.66,0,0,1-15.28-11.33Z"/><path class="e" d="M119.49,421.22,91.58,460c-1.9.06-3.65.37-4,1.34-1,2.88,10.54,11,13,9,.8-.66.56-2.32.16-3.81l27.48-38.82"/><path class="e" d="M129.71,398.56a38.52,38.52,0,0,0,17.43,13.15"/><path class="f" d="M183.85,341.48a10.5,10.5,0,0,0-3.85,4.83"/><path class="f" d="M182.48,340.49a10.94,10.94,0,0,0-2.55,5.71"/><path class="f" d="M182.38,340.43a10.75,10.75,0,0,0-6.22-.44"/><path class="f" d="M181.74,339.4a8.83,8.83,0,0,0-5.64.56"/><path class="f" d="M187,346.77a10.78,10.78,0,0,0-3.24-5.33"/><path class="f" d="M187,346.75a5,5,0,0,0-.9-4.12"/><path class="e" d="M92,467.59c-7.91,3.92-.62,14.83-11.88,18.1"/><path class="e" d="M92.88,468.2C85,472.12,92.27,483,81,486.3"/><path class="e" d="M92.9,468.15c-8.69,3.68-2.28,15-14.39,17.87"/><path class="a" d="M39.25,15.17C36.78,27.65,35,40.05,33.72,52.81c-1.9,19.42,1.8,37.71,1.82,56.91"/><path class="a" d="M85.59,15.17C79.15,13,75.88,30.76,71.69,34.64"/><path class="g" d="M78.24,9.54c-1.56,2.33-.5,5.5-.31,6.06,2.7,8,16.76,11.61,20.24,7.83a7.14,7.14,0,0,0,1.54-3.51A7.94,7.94,0,0,0,99,15.54c-1.89-4.45-7.79-8.71-14.2-8.5C83,7.09,79.8,7.19,78.24,9.54Z"/><path class="g" d="M70.16,25.07c1.11-2.18,2.23-4.36,3.38-6.56,1.26-2.41,2.51-4.8,3.77-7.16a10.25,10.25,0,0,0,.32,4.7,10.81,10.81,0,0,0,3.5,4.9,17.42,17.42,0,0,0,8.35,4c2.55.49,6.36,1.21,8.54-1.07a5.26,5.26,0,0,0,1.22-2.17s-1.8,3.93-5.32,10.77c-1.31,2.56-2.42,4.67-3.2,6.11a10.54,10.54,0,0,1-4.81,3.65,10.85,10.85,0,0,1-6,.27c-5-.93-10.48-5-11.13-10.76A11.72,11.72,0,0,1,70.16,25.07Z"/><path class="h" d="M67.6,26c.38.12-1.48,4.22,0,8.73,1.93,5.89,7.22,8.1,8.73,8.73,1.25.52,6.63,2.76,11.07.2,3.63-2.09,4.78-6.33,4.86-6.29S88.6,46.63,72,86.05h0a7.83,7.83,0,0,1-1.66,1.59A10.37,10.37,0,0,1,64,89.28a15.12,15.12,0,0,1-3.28-.36l.57-46.49C65.73,29.3,67.24,25.85,67.6,26Z"/><path class="h" d="M60.67,91.8a9.76,9.76,0,0,0,5.93.08,11.46,11.46,0,0,0,4.89-3.17l-8.15,18.53L60.6,107Q60.65,99.42,60.67,91.8Z"/><path class="h" d="M31.51,111.64Q30.74,64.51,30,17.37a14.69,14.69,0,0,1,1.28-7.22C34.7,2.88,43,1.65,43.41,1.6A16.7,16.7,0,0,1,60.28,11a14.83,14.83,0,0,1,1.28,6.23L60.36,112a24,24,0,0,1-28.85-.26Z"/><path class="a" d="M75.39,159c11.13-6,16.07,6.73,21.77,13.67,7.44,9.05,15.28.11,25.2,3.33s13.41,12.47,21.49,17.9c5.12,3.43,6.87,2.33,12.25.82,4.78-1.34,7.88.74,12.24,1"/><path class="e" d="M73,168.37c1.4-4.56,6.4-18.84,20.93-28.5,1.46-1,24.32-15.6,49.34-4.2,2.12,1,23.17,11,28.29,34.94a51.29,51.29,0,0,1-4.92,34.09"/><path class="e" d="M73,168.37A11.74,11.74,0,0,1,80.6,166c6,.49,11.52,6.68,12.65,15.42a43.29,43.29,0,0,1,31.57-1.62c16.65,5.73,23.48,19.76,24.64,22.25.83-.48,5.89-3.27,11.57-1.25a13.29,13.29,0,0,1,5.59,3.87"/><path class="e" d="M143.25,135.67c-4.61,0-19.83.51-32.72,11.61A52.17,52.17,0,0,0,96.77,167a52.84,52.84,0,0,0-3.52,14.5"/><path class="e" d="M144.47,135.64A56.06,56.06,0,0,1,152,147.88a59,59,0,0,1,4.51,31.29,64.56,64.56,0,0,1-7.08,22.9"/><path class="e" d="M145.54,132.82c-.17.43-.82,2-.75,1.85l2.24-5.5c-.88,2.12-2.36,4.9-2.65,6.52"/><path class="f" d="M125.41,180.67l-19.89,51.06c-1.24,4.26-4.78,7.28-8.48,7.39a7.52,7.52,0,0,1-7-4.77,7.81,7.81,0,0,1,3.58-10.44h0a6.24,6.24,0,0,1,.84-.36"/><path class="a" d="M42.13,567.49c7.34,9.73,16.77,17,26.52,24.73,5.49,4.33,11.1,8.4,16.79,12.44,6.07,4.3,15.36,13.37,23,13.49"/><rect class="i" x="62.59" y="532.06" width="40.73" height="99.23" rx="12.01" transform="translate(-404.93 254.28) rotate(-48.02)"/><rect class="j" x="67.25" y="565.97" width="31.46" height="31.46" rx="9.86" transform="translate(-404.95 254.3) rotate(-48.02)"/><circle class="k" cx="53.8" cy="555.6" r="1.5"/><circle class="k" cx="99.91" cy="597.09" r="1.5"/><circle class="k" cx="48.44" cy="561.55" r="1.5"/><circle class="k" cx="94.56" cy="603.04" r="1.5"/><circle class="k" cx="59.15" cy="549.65" r="1.5"/><circle class="k" cx="105.27" cy="591.13" r="1.5"/><circle class="k" cx="59.75" cy="560.95" r="1.5"/><circle class="k" cx="105.86" cy="602.44" r="1.5"/><circle class="k" cx="54.39" cy="566.9" r="1.5"/><circle class="k" cx="100.51" cy="608.39" r="1.5"/><circle class="k" cx="65.1" cy="555" r="1.5"/><circle class="k" cx="111.22" cy="596.49" r="1.5"/><circle class="k" cx="65.7" cy="566.3" r="1.5"/><circle class="k" cx="111.81" cy="607.79" r="1.5"/><circle class="k" cx="60.34" cy="572.25" r="1.5"/><circle class="k" cx="106.46" cy="613.74" r="1.5"/><circle class="k" cx="71.05" cy="560.35" r="1.5"/><circle class="k" cx="117.17" cy="601.84" r="1.5"/><path class="a" d="M106.6,559.31c1.69,12.07,6.38,23,11.18,34.47,2.7,6.45,5.62,12.73,8.64,19,3.22,6.71,6.94,19.14,13.53,22.93"/><rect class="l" x="115.08" y="541.9" width="40.7" height="99.18" rx="12" transform="translate(-185.19 76.32) rotate(-19)"/><rect class="m" x="119.71" y="575.79" width="31.45" height="31.45" rx="9.85" transform="translate(-185.2 76.32) rotate(-19)"/><circle class="k" cx="122.56" cy="554.57" r="1.5"/><circle class="k" cx="142.74" cy="613.2" r="1.5"/><circle class="k" cx="114.99" cy="557.18" r="1.5"/><circle class="k" cx="135.18" cy="615.8" r="1.5"/><circle class="k" cx="130.12" cy="551.97" r="1.5"/><circle class="k" cx="150.31" cy="610.59" r="1.5"/><circle class="k" cx="125.16" cy="562.14" r="1.5"/><circle class="k" cx="145.35" cy="620.76" r="1.5"/><circle class="k" cx="117.6" cy="564.74" r="1.5"/><circle class="k" cx="137.78" cy="623.37" r="1.5"/><circle class="k" cx="132.73" cy="559.53" r="1.5"/><circle class="k" cx="152.91" cy="618.16" r="1.5"/><circle class="k" cx="127.77" cy="569.7" r="1.5"/><circle class="k" cx="147.95" cy="628.33" r="1.5"/><circle class="k" cx="120.2" cy="572.31" r="1.5"/><circle class="k" cx="140.39" cy="630.93" r="1.5"/><circle class="k" cx="135.33" cy="567.1" r="1.5"/><circle class="k" cx="155.51" cy="625.72" r="1.5"/><path class="a" d="M137.29,783.19c-4.93,12.19-8.27,24.23-12.5,36.46-3.06,8.88-7.25,17.39-10.57,26.18-6.68,17.66-9.84,39.31-21,54.74"/><path class="a" d="M165.55,787.91c1.32,8.84-5.85,18.87-8.73,27.11-4.52,13-7.17,26.06-12.42,39.05-9.42,23.32-17.79,46.38-27,69.67"/><path class="e" d="M162.77,781.32l36.8,13.5-1.85,4.7-36.84-13.4Z"/><path class="e" d="M160.17,788.41l36.49,13.07L145.34,914.16a26.45,26.45,0,0,1-22.4-8.16Z"/><path class="e" d="M137.64,931.3a33.51,33.51,0,0,1-20.75-8l4.92-15.1a26.68,26.68,0,0,0,22.62,8.09Z"/><path class="n" d="M128.11,812.1c-2.23,7-12.15,33.13-40.27,104,1.81,1.21,4.2,2.43,6.17,2a3.44,3.44,0,0,0,2.18-1.48c4.1-5.72,35.73-92.74,40-104.07,1.26-3.36,3.46-9,6.63-16,3.41-8.1,5.13-14.37,4.32-15.28a6.39,6.39,0,0,0-.93-.87,6.29,6.29,0,0,0-3.09-1.32c-2-.25-4.64,7.65-6,11.36-1.07,2.84-2.27,5.47-4.68,10.72A72.57,72.57,0,0,0,128.11,812.1Z"/><line class="b" x1="122.64" y1="800.68" x2="133.46" y2="805.43"/><line class="b" x1="123.49" y1="798.64" x2="134.31" y2="803.39"/><line class="b" x1="124.34" y1="796.6" x2="135.16" y2="801.35"/><line class="b" x1="125.2" y1="794.56" x2="136.02" y2="799.31"/><line class="b" x1="125.99" y1="792.66" x2="136.81" y2="797.41"/><line class="b" x1="126.84" y1="790.62" x2="137.66" y2="795.37"/><line class="b" x1="127.7" y1="788.58" x2="138.52" y2="793.33"/><line class="b" x1="128.55" y1="786.54" x2="139.37" y2="791.29"/><line class="b" x1="129.45" y1="784.39" x2="140.27" y2="789.14"/><line class="b" x1="130.3" y1="782.35" x2="141.12" y2="787.1"/><line class="b" x1="131.15" y1="780.31" x2="141.97" y2="785.06"/><line class="b" x1="132" y1="778.27" x2="142.82" y2="783.02"/><path class="a" d="M26.57,930.22C15,935.88,7.5,948.09,10.1,960.59c1.15,5.56,4.07,11,3.38,16.62-.88,7.18-7.69,10.81-7,17.79,1.07,11.09,9.26,6.78,15.78,9.39,8.34,3.34,11.27,14.69,14.37,22.78,7.11,18.5,24.67,36.27,45.41,19.18"/><path class="e" d="M63.87,949.68c-4.39-1.42-3-8.73-7.49-15.71-4.82-7.39-13.25-9.66-15-10.08-10.17-2.49-18.72,2.51-23.45,5.28-5,2.91-13.13,7.69-15.65,17.26-.3,1.18-2.17,8.7,1.25,15.81,2.09,4.36,6.82,9.93,6.82,9.93a10.79,10.79,0,0,1,1.26,3.38,6.28,6.28,0,0,1-1.16,4.13c-1,1.44-2.08,1.83-3.37,2.69-2.65,1.77-5.2,5-5.53,7.88-.08.68,0,1.34,2.8,7a121.58,121.58,0,0,0,6.52,11.21c1.37,2.12,1.87,2.77,2.84,3.3,1.18.65,2.51.81,8,0,5.2-.82,7.17-1.45,8.32-.27.18.18.2.27,1.17,2.76.45,1.15.91,2.3,1.35,3.46,1.22,3.28,2.71,6.77,4.23,10.68,3.57,9.15,3,9.36,5.29,14.22,1.94,4,2.91,6,5,8.07A21.39,21.39,0,0,0,58,1056c6.7,1.46,12.08,0,16.5-1.27a47.3,47.3,0,0,0,16.86-8.59c4.77-3.88,10.14-8.26,11.83-15.73,1.5-6.68-.71-12.4-1.89-15.46-2.45-6.33-6.51-10.94-9.28-14.08-1.86-2.12-4.25-5.55-9-12.41a6,6,0,0,1-1.25-3.75c.08-1.25.66-2.06,2.16-4,.38-.5,3.5-4.61,5.68-7.83,1.07-1.57,1.54-2.39,1.55-3.52,0-1.6-1-2.71-1.83-3.9a43.23,43.23,0,0,1-4.06-7c-2.15-4.6-1.4-6.63-3.87-8.84a7.52,7.52,0,0,0-3-1.75c-2.46-.66-4.11.46-7.46,1.26C67.79,949.75,65.64,950.25,63.87,949.68Z"/><path class="e" d="M24.08,936.83a26,26,0,0,1,12.61-2.72c2.48.11,8,.33,12.54,4.11a18.16,18.16,0,0,1,5,7.22c3.26,7.34,7.92,14,11.38,21.25,4.61,9.63,7.9,16.51,13,25.13,4.59,7.71,8.08,16,12.39,23.89a15,15,0,0,1,2.11,6.79c.31,6.64-4.48,11.72-6.6,14a29.34,29.34,0,0,1-13.67,8c-4.08,1.16-12,3.42-17.77-.58-.87-.6-2.06-1.6-6.54-9.67-4.14-7.44-6.07-11.69-6.07-11.69-3.72-8.21-7.6-15.34-15.36-29.61-5-9.18-7.47-13.19-11.23-21.59-5.15-11.52-5.38-14.92-4.89-17.94C12.73,942.87,23.17,937.3,24.08,936.83Z"/><path class="o" d="M26.31,940.57c4.71-1.93,9.14-.54,11.69.25,2.72.85,7.21,2.25,9.36,6.17,1.85,3.39.09,5.21,2.48,9.7,1.24,2.32,2,2.33,3.55,5.26a32.54,32.54,0,0,1,2.54,6.82,74.61,74.61,0,0,0,4.72,10.76,95.68,95.68,0,0,0,10.9,16.75c3.76,4.83,7.15,9.93,10.82,14.81a10.63,10.63,0,0,1,2.66,6.49c0,1.62-.51,2.06-1.25,5.68s-.36,3.89-.88,5.48c-1.21,3.74-4.43,5.85-5.68,6.67a17.6,17.6,0,0,1-11,2.6c-.75,0-9.2-.74-14.09-7.33-2.07-2.78-2.54-5.33-3.26-8.37a138.11,138.11,0,0,0-9.25-26.11c-1.06-2.14-4.56-9-8-14.56-2-3.25-2.81-4.15-3.56-6.46-.61-1.91-.82-3.65-2.33-5.48a9.72,9.72,0,0,0-2.56-2.18c-3.18-2.12-6-7.46-6.2-12.73A15.5,15.5,0,0,1,26.31,940.57Z"/><path class="p" d="M39.91,951.31a10.71,10.71,0,0,0-5-.2c-5.77,1.18-8.29,6.94-8.57,7.63"/><path class="p" d="M59.55,1023.82a10.71,10.71,0,0,0,5,.2c5.77-1.18,8.29-6.94,8.57-7.63"/><path class="f" d="M40.2,967.77c2.22-1,5,.88,6.6,1.93,1.06.71,3.54,2.56,7,8.38a50.77,50.77,0,0,1,5.32,12.09c2,6.89,1.05,9,.42,10a5.32,5.32,0,0,1-3.18,2.37c-2,.4-3.88-.82-5.85-2.54a39,39,0,0,1-9.31-12.77c-4.54-9.38-3.89-13.54-3.67-14.7C37.81,971.15,38.33,968.64,40.2,967.77Z"/><path class="n" d="M1822.75,161.57a6.88,6.88,0,0,0-2-.43,6.14,6.14,0,0,0-2,.25c-6.32,2.33-13,4.6-20.16,6.75-5.92,1.79-11.66,3.35-17.18,4.73a6.93,6.93,0,0,0-5,3.5,6.38,6.38,0,0,0-.54,3.58q2.75,9.6,5.54,19.25,12.21,42,25,82.91a7.23,7.23,0,0,0,3.06,4.31c2.59,1.47,5.75.3,7-.12,5.54-2,19.14-6,38.7-11.78a5.45,5.45,0,0,0,2.26-2.15,5.7,5.7,0,0,0,.15-4.76l-31.11-101.93C1826.35,165.5,1824.94,162.41,1822.75,161.57Z"/><path class="n" d="M1778.59,142.61c.16.6,7.07-.54,13.41-2.47,4.67-1.43,10.1-3.61,9.93-4.14s-6.76.77-12,2.28C1784.94,139.69,1778.43,142,1778.59,142.61Z"/><path class="c" d="M1778.82,143c1.31,4.78,2.8,9.74,4.51,14.87q1.85,5.52,3.78,10.62a51.59,51.59,0,0,0,5.67-.68,53.23,53.23,0,0,0,9.35-2.63,55,55,0,0,0,7.73-3.63q-1.62-4.71-3.19-9.63-2.6-8.13-4.73-15.91a60.65,60.65,0,0,1-23.12,7Z"/><path class="n" d="M1775.83,180l-1-3a6.46,6.46,0,0,1,.58-3c1.91-4,8.13-5,11.67-5.48,2.27-.34,2.8-.17,5.66-.68a56.43,56.43,0,0,0,6-1.47,58.26,58.26,0,0,0,6-2.21c2.55-1.12,3.09-1.58,5.15-2.57,3.93-1.9,10-4.86,13.08-2.57a7.44,7.44,0,0,1,1.73,2.21,13.24,13.24,0,0,1,1.74,4.49"/><rect class="q" x="1797.71" y="171.18" width="37.56" height="106.5" rx="5.97" transform="translate(15.49 550.65) rotate(-17.31)"/><ellipse class="h" cx="1787.96" cy="442.16" rx="54.26" ry="11.22"/><ellipse class="r" cx="1788.2" cy="434.81" rx="54.26" ry="11.22"/><path class="h" d="M1733.7,442.16q.52,30.33,1.06,60.64a86.17,86.17,0,0,0,30.37,14.5,89.46,89.46,0,0,0,23.62,2.56,87.89,87.89,0,0,0,24.82-4.07,81.68,81.68,0,0,0,28.33-16.33q.15-28.63.31-57.3"/><path class="h" d="M1798,465.46a15.76,15.76,0,0,1-1.76,6,17.68,17.68,0,0,1-5.76,6c-9.22,6.83-8,7.8-14,11.94-3.59,2.48-7.6,3.56-11.72,4.73-3,.83-10,1.59-11.62,4.73a3.58,3.58,0,0,0-.35,2.23c.8,2.44,8.94,3.43,38.85-1.88,2.93-4,6.2-5.89,8-5a2.54,2.54,0,0,1,1.2,1.4,3.39,3.39,0,0,0,.56,2.72c.56.64,1.4.83,4.53.79s4.87-.06,5.45-.48c1.5-1.07,1.47-3.33,1.33-8.27a92.79,92.79,0,0,0-1.26-12.67c-1.5.67-8.82,3.73-15.34.2a13.88,13.88,0,0,1-3.25-2.45"/><path class="h" d="M1773.65,491.16a20.35,20.35,0,0,0,11.17-2.29,21.05,21.05,0,0,0,9.83-11.95"/><path class="s" d="M1780,483.62a10.38,10.38,0,0,1,3.44,2.35"/><path class="s" d="M1783.65,480.5a10.38,10.38,0,0,1,3.44,2.35"/><path class="s" d="M1789.94,479.66a10.86,10.86,0,0,0-3.48-2"/><path class="s" d="M1777.2,486.68c.68,0,1.61,1.13,2.08,1.8"/><path class="h" d="M1799.39,494.07a29.67,29.67,0,0,1,6.17-.44c2.42-.06,4.84-.24,7.24-.54"/><path class="h" d="M1780.4,467.9a4.61,4.61,0,0,0,1.76-1.09c2-2.09,1.06-5.49,1-5.69,1.37,1.8,1.62,3.16,4.07,3.48a3.42,3.42,0,0,0-1.11,1.44c-.66,1.66.94,3.46.6,3.72s-1.51-1.6-3.58-2.06A5,5,0,0,0,1780.4,467.9Z"/><path class="h" d="M1774.74,473.78a2.09,2.09,0,0,0-.5,0c-1.58.21-2.39,2.25-2.52,2.58-.06-1.41.29-2.2-.87-3.23a2.19,2.19,0,0,0,1.08-.35c.93-.62.71-2.1,1-2.12s.29,1.13,1.12,2.31A5.28,5.28,0,0,0,1774.74,473.78Z"/><path class="e" d="M1691.59,254.33c11.46,6.19,28.67,10.7,41.77,11,8.71.24,14.71-2.38,21.19,5.43,4.69,5.66,6.68,14.65,9.49,21.4,4.6,11,10.08,21.42,15.32,32.15"/><path class="e" d="M1686.64,260.92c11.46,6.19,28.66,10.7,41.76,11.05,8.71.23,14.72-2.39,21.2,5.43,4.69,5.65,6.68,14.64,9.49,21.39,4.6,11,10.08,21.42,15.32,32.15"/><path class="e" d="M1691.37,254.12c-5.26,6.36-6.09,17.75-8.42,25.27-2.74,8.86-7.53,18.3-6.49,27.19"/><path class="e" d="M1676.62,306.86c12.84,12.41,40.46,49.3,59.82,47.94"/><path class="e" d="M1779.21,324.52c-7.79,2.37-14.46,13-20.63,18.14-7.1,5.91-13,9.75-22.56,11.8"/><path class="e" d="M1687.47,261.84c-.12-5.14-6.32-8-10.76-8.81-10.74-1.91-20.35,5.33-25.38,14.55-4.52,8.27-5.27,21.7.44,29.48,4.43,6,16.55,9.77,23.13,4.83"/><path class="e" d="M1686.61,263.43c-.45-5.37-7.4-8.77-12.29-9.88-11.82-2.66-21.86,4.29-26.77,13.59-4.4,8.35-4.37,22.33,2.35,30.8,5.2,6.57,18.65,11.24,25.52,6.5"/><path class="e" d="M1773.49,328.2c8.4,3.45,13.74,4.34,16.45,14s-.39,17.53-7.59,24.65c-7.63,7.58-16.84,11.67-27.58,8.43C1743,371.71,1738.29,367,1736,355.2"/><path class="e" d="M1771.68,330.12c8.32,3.65,13.63,4.67,16.11,14.42,2.43,9.58-.82,17.51-8.19,24.46-7.82,7.39-17.12,11.25-27.77,7.75-11.73-3.85-16.28-8.72-18.25-20.52"/><path class="f" d="M1708.77,277.43c9.67,6.09,21.42.72,30.16,9.69,6.35,6.52,12.38,15.2,17.46,22.78"/><path class="f" d="M1706.53,293.79c19.25,1.74,24.86,8,34.32,24.53"/><path class="f" d="M1700.49,307.71c13.18,4,20,16.89,31.76,22"/><path class="a" d="M1687.15,775c-4.27,5.63,3.54,16.79,5.85,22.61,5.1,12.9,7.23,25.91,11.57,39"/><path class="a" d="M1767.11,766.43c4.65,5.77,9.22,11.64,14.11,17.17,6.21,7,14.72,24,21.66,27.23"/><rect class="t" x="1691.72" y="761.76" width="69.85" height="69.85" transform="translate(-174.75 770.17) rotate(-23.97)"/><rect class="t" x="1695.92" y="766.26" width="61.92" height="61.92" rx="3.49" transform="translate(-174.95 770.31) rotate(-23.97)"/><circle class="e" cx="1727.14" cy="797.83" r="23.75"/><path class="u" d="M1716.58,781.57a19.39,19.39,0,1,1-5.71,26.83,19.39,19.39,0,0,1,5.71-26.83Z"/><polygon class="v" points="1758.95 772.49 1805.22 727.94 1850.23 773.73 1803.96 818.28 1758.95 772.49"/><rect class="v" x="1776.2" y="745.19" width="56.63" height="56.63" rx="3.49" transform="translate(-28.29 1477.34) rotate(-44.21)"/><circle class="e" cx="1804.9" cy="773.82" r="21.73"/><circle class="f" cx="1804.9" cy="773.82" r="17.75"/><path class="a" d="M1705.52,107.91c6.44-1.7,12.58,2,19.32,1.74,6.94-.25,18.15-9,24.27-12.52,9-5.23,17.31-12,25.94-17.87,12.07-8.27,17.84-16,25.43-27.93"/><path class="w" d="M1673.62,82.89l14.6-20.64,67.8-38.6,14.72,3.59,34.85,22.11-8,14.36L1727.32,115c-3.73-1.88-8.61-3.48-12.83-1.61-2.56,1.13-3.24,2.82-4.46,3.49C1706.43,118.84,1697,112.53,1673.62,82.89Z"/><path class="w" d="M1718.44,105.71c2.65,3.14,5.21,7.21,9,9.33"/><path class="w" d="M1713.55,113.34c-1.11-8,3.75-18.24,7.08-24.43"/><path class="w" d="M1691.83,67.11a50.53,50.53,0,0,0,7,8.24,51.12,51.12,0,0,0,16.62,10.5"/><path class="w" d="M1778.34,48.15l-57.71,40.76"/><path class="w" d="M1755.87,23.7l24.24,17.92"/><path class="w" d="M1677.61,82.89c3.27,4.1,6.87,8.34,10.81,12.65q8.24,9,17.33,17.09"/><path class="w" d="M1801.09,50c-4.18-3.18-8.7-6.42-13.57-9.64a242.26,242.26,0,0,0-21-12.37"/><path class="f" d="M1731,47c-4,2.37-6.21,3.4-12.33,7.19s-8,5.28-8.53,7.8c-.71,3.2.93,6.67,3.19,8.69,3.54,3.17,8.27,2.52,10.18,2.26,4.48-.61,6.1-2.56,14.13-8.26,6.11-4.33,12.06-8.88,18.15-13.24,3-2.12,5.54-4,5.52-6.53,0-3.25-4.14-5.74-4.93-6.19a12.37,12.37,0,0,0-6-1.56C1744.29,37.09,1741.51,40.78,1731,47Z"/><path class="a" d="M1692.9,633.67c4.1,17,31.49,19.89,46.12,25.82,12.85,5.21,26.17,9.43,38.81,15.36,13.55,6.35,35.28,12.19,45.42,23.11"/><path class="h" d="M1690.41,630.12c-.23-.15.85-3.55,3.79-5.85,1.6-1.25,2.18-.94,3.32-2.18,1.6-1.74.91-2.83,2.44-5.08a8.53,8.53,0,0,1,4.6-3.35c3.67-.95,7.54,1.38,7.41,2.23-.07.46-1.26.26-3.06,1.32a9.18,9.18,0,0,0-2.54,2.27,7.57,7.57,0,0,0-1.83,5.67c.49,3,3.23,4.57,4,5s2.2,1,6.89,1.2a66,66,0,0,0,12-.67c3.77-.58,6.5-1.29,6.69-1.33,5.18-1.29,29.51,10.1,95,50.15a12.88,12.88,0,0,1-6.57,11.39l-123-64.3a7.69,7.69,0,0,0-5.43,0C1691.58,627.7,1690.59,630.24,1690.41,630.12Z"/><path class="h" d="M1689.32,631.59c-.33,0-.92,4.52,1.6,7.89a12.88,12.88,0,0,0,3.3,2.9,21.2,21.2,0,0,0,4.76,2.5c7.2,2.7,76.4,29.94,92.94,37,5.87,2.51,12.13,4.18,17.72,7.27,3.92,2.17,10.49,6.23,12.2,4.6.19-.18.82-.91.63-1.52s-1.3-.88-1.63-1c-1.61-.34-4.85-1.56-10.8-4.27-4.74-2.31-11.9-5.71-20.78-9.6-4.93-2.16-8.77-3.76-11.62-4.94-25.88-10.7-53.57-21.38-53.57-21.38-8.84-3.41-17-9.34-26.4-10.48a9.29,9.29,0,0,1-5.33-2.2C1689.42,635.74,1689.64,631.54,1689.32,631.59Z"/><path class="h" d="M1713.46,616a8.76,8.76,0,0,0-5.74,2c-2.69,2.27-4,6.34-2.86,9,2,4.74,11.56,4.46,16.25,4.32,10.17-.29,17-3.2,24.37-5.87a257.62,257.62,0,0,1,36.4-10c20-4.21,30-6.31,30.76-6.41,4.92-.7,12.56-1.64,17.83-7.53,2.35-2.63,4.46-6.51,3.38-7.78-1.32-1.56-6.54,2-15,4.46-6.77,1.94-10.75,1.76-17.24,2.31-13.29,1.15-23.56,4.25-43.11,10.15-7.2,2.18-14.68,3.43-21.71,6.08-6.35,2.4-11.57,5-16.23,2.64C1718.17,618.2,1716.71,616.12,1713.46,616Z"/><path class="f" d="M1816,676.17c-1.94-.19-3.92,1.43-3.42,3.48.37,1.56,2.21,2.93,3.62,3.35,4.25,1.27,5-3.83,1.76-5.89"/><path class="f" d="M1712.07,619.77c-1.83.68-2.89,3-1.55,4.62,1,1.24,3.27,1.66,4.73,1.42,4.38-.73,2.85-5.65-1-6.06"/><path class="h" d="M1800.15,676.16c1.55-2.66,3-5.46,4.8-8"/><path class="h" d="M1802.64,677.55a47.48,47.48,0,0,0,4.54-8"/><path class="h" d="M1806.16,677.87c1.09-2.61,3.5-4.78,4.16-7.61"/><path class="h" d="M1690.69,630.74a10.09,10.09,0,0,1,6.39-1.42c2.93.44,3.84,2.26,7,4.55,4,2.92,5.22,2,15.51,6.27,2.86,1.19,4.87,2.14,7.16,3.23,4.44,2.12,9.1,4.61,15.7,8.3,7.18,4,12.1,7.21,14.35,8.64,7.17,4.54,18.81,11.07,38.39,19.74"/><path class="a" d="M1759,882.85c12.43,12.82,8,12.52,5.43,27-2,10.9,2.53,17.35,8.46,26.54,12.34,19.15,25.78,36.57,35.1,57.54"/><path class="b" d="M1750.76,880.75c.27.54,6.57-1.81,12.2-4.79,4.15-2.2,8.88-5.25,8.62-5.73s-6.24,2-10.94,4.36C1756.22,876.83,1750.5,880.21,1750.76,880.75Z"/><path class="n" d="M1751,881.05c2.12,4.27,4.44,8.69,7,13.21q2.74,4.86,5.52,9.33a48.05,48.05,0,0,0,5.22-1.68,52.89,52.89,0,0,0,8.34-4.19,54.16,54.16,0,0,0,6.64-4.84q-2.4-4.15-4.79-8.51-3.93-7.2-7.37-14.14A58.3,58.3,0,0,1,1751,881.05Z"/><rect class="x" x="1770.9" y="890.69" width="60.83" height="115.99" rx="14.49" transform="translate(-234.08 992.24) rotate(-29)"/></svg>