<svg xmlns="http://www.w3.org/2000/svg" viewBox="0 0 897.04 156.79"><defs><style>.a,.b,.c,.d,.e,.f,.g,.h,.i,.j,.k,.l,.m,.n,.o,.p,.q,.r,.s,.t,.u,.v,.w,.x,.y,.z{fill:none;}.b,.d{stroke:#040506;}.b,.c,.d,.e,.f{stroke-miterlimit:10;stroke-width:3px;}.c,.g,.i,.j,.l,.m,.n,.o,.p,.r,.t,.u,.w,.z{stroke:#161615;}.d,.e,.i{stroke-dasharray:1 0.5;}.e,.f,.h,.k,.q,.s,.v,.x,.y{stroke:#fff1e9;}.g,.h,.i{stroke-miterlimit:10;stroke-width:2px;}.j,.m{stroke-miterlimit:10;stroke-width:3px;}.k,.l{stroke-miterlimit:10;stroke-width:3px;}.m{stroke-dasharray:1 0.5;}.n{stroke-miterlimit:10;stroke-width:3px;}.o{stroke-miterlimit:10;stroke-width:3px;}.p,.s{stroke-miterlimit:10;}.p,.q,.s{stroke-width:3px;}.r{stroke-miterlimit:10;stroke-width:3px;}.t{stroke-miterlimit:10;}.t,.u{stroke-width:3px;}.u,.v{stroke-miterlimit:10.01;}.w,.x{stroke-miterlimit:10;stroke-width:2px;}.y,.z{stroke-miterlimit:10.01;stroke-width:3px;}</style></defs><path class="a" d="M258.75,17.45c-11.7-5.46-25.89-3.57-34,6.32-3.59,4.39-6,10.08-10.77,13.09-6.14,3.84-13.25.83-18.25,5.75-7.94,7.81.56,11.46,2.64,18.17,2.66,8.58-4.31,18-8.64,25.51-9.9,17.16-12.65,42,13.69,47.35"/><path class="b" d="M267.12,58.67c-1.67-4.3,4.92-7.79,7.48-15.71,2.72-8.4-.83-16.37-1.59-18-4.47-9.46-13.74-12.95-18.87-14.88-5.39-2-14.25-5.37-23.26-1.29-1.12.5-8.13,3.79-11.5,10.92C217.31,24.09,216,31.27,216,31.27a10.84,10.84,0,0,1-1.83,3.11,6.25,6.25,0,0,1-3.94,1.7c-1.74.15-2.73-.47-4.22-.93-3-.94-7.11-.92-9.6.66-.57.37-1.06.82-3.66,6.58a122.18,122.18,0,0,0-4.6,12.12c-.78,2.4-1,3.2-.78,4.29.24,1.33,1,2.45,5.07,6.16,3.91,3.53,5.64,4.66,5.44,6.29,0,.26-.08.33-1.4,2.65-.62,1.08-1.21,2.16-1.84,3.23-1.78,3-3.55,6.37-5.63,10-4.86,8.53-5.42,8.17-7.72,13.06-1.9,4-2.85,6.05-3.12,9a21.41,21.41,0,0,0,2.7,11.85c3.08,6.11,7.64,9.35,11.38,12a47.4,47.4,0,0,0,17.28,7.7c6,1.25,12.8,2.67,19.67-.72,6.14-3,9.19-8.36,10.82-11.21,3.38-5.88,4.4-11.94,5.1-16.07.47-2.78,1.63-6.79,3.95-14.82a6,6,0,0,1,2.14-3.33c1-.72,2-.79,4.5-.87.62,0,5.78-.18,9.65-.51,1.89-.16,2.83-.31,3.71-1,1.25-1,1.51-2.44,1.88-3.87a44.82,44.82,0,0,1,2.92-7.6c2.22-4.57,4.27-5.25,4.44-8.57a7.35,7.35,0,0,0-.57-3.47c-1-2.33-2.95-2.91-5.67-5C269.53,61.76,267.79,60.4,267.12,58.67Z"/><path class="c" d="M252,19.68a25.8,25.8,0,0,1,10,8.08c1.49,2,4.8,6.44,4.71,12.32a18.13,18.13,0,0,1-2.46,8.43c-3.65,7.16-5.89,15-9.34,22.23-4.58,9.64-7.85,16.53-11.32,26-3.09,8.42-7.35,16.37-10.75,24.66a15.13,15.13,0,0,1-4,5.92c-5,4.42-11.93,3.9-15,3.67a29.34,29.34,0,0,1-14.86-5.56c-3.47-2.43-10.21-7.17-10.74-14.16-.08-1.06,0-2.62,3.39-11.18C195,92.15,197,88,197,88c4-8.07,7.13-15.57,13.33-30.58,4-9.65,5.54-14.1,9.7-22.32,5.7-11.26,8.21-13.57,10.85-15.09C240.21,14.66,251.11,19.26,252,19.68Z"/><path class="d" d="M250.54,23.76c4.47,2.44,6.18,6.76,7.17,9.24,1.06,2.65,2.79,7,1.1,11.15-1.47,3.58-4,3.35-6,8-1,2.42-.57,3-1.85,6.07a32.32,32.32,0,0,1-3.7,6.26c-1.84,2.72-3,5.3-5.39,10.45a95.46,95.46,0,0,0-6.15,19c-1.39,6-3.21,11.8-4.69,17.73-.39,1.58-1.06,4.3-3.37,6.16-1.26,1-1.92.9-5.2,2.6s-3.25,2.17-4.8,2.77c-3.68,1.41-7.35.24-8.76-.22a17.54,17.54,0,0,1-8.93-6.88c-.44-.62-5.22-7.62-3.19-15.56.87-3.36,2.55-5.33,4.46-7.8a137.35,137.35,0,0,0,14.45-23.64c1-2.17,4.11-9.18,6.28-15.37,1.26-3.61,1.46-4.79,2.78-6.83,1.1-1.69,2.31-2.94,2.79-5.27a9.72,9.72,0,0,0,.08-3.36c-.35-3.8,2-9.35,6-12.83A15.47,15.47,0,0,1,250.54,23.76Z"/><path class="e" d="M250.76,41.09a10.76,10.76,0,0,0-3-4c-4.55-3.74-10.61-2.07-11.32-1.86"/><path class="e" d="M206.8,102a10.74,10.74,0,0,0,3,4c4.55,3.74,10.6,2.07,11.32,1.86"/><path class="f" d="M238.16,51.67c2.2,1.09,2.5,4.48,2.66,6.35.11,1.27.24,4.36-2.09,10.73a51,51,0,0,1-6,11.74c-4.09,5.89-6.33,6.48-7.48,6.61a5.31,5.31,0,0,1-3.84-1c-1.57-1.3-1.81-3.54-1.71-6.15a39.24,39.24,0,0,1,4-15.27c4.43-9.43,8.08-11.55,9.11-12.1C234,52,236.31,50.76,238.16,51.67Z"/><path class="a" d="M492.3,132.19c9.16-19.44,11-43.75,13.94-64.95a165.58,165.58,0,0,1,7.18-31.78c5.5-16.88-1.81-9.74-14.81-16.73"/><path class="g" d="M500.71,6.91,497.3,21l54.76,12.85,3.3-14.2Z"/><line class="h" x1="499.47" y1="14.64" x2="552.91" y2="27.4"/><line class="g" x1="498.64" y1="16.37" x2="552.5" y2="29.33"/><line class="g" x1="497.43" y1="18.02" x2="551.63" y2="31.14"/><path class="g" d="M520,25.93,493,134.76c.4,3.72,3.15,6.34,6.09,6.35s4.92-2.65,5.12-2.93L530.68,28.92"/><path class="g" d="M521.54,27.65,496.13,134.52a3,3,0,0,0,2.75,2.21,3.12,3.12,0,0,0,3-2.29q13.21-53,26.45-106.08"/><path class="i" d="M502.68,9.92,501.9,13l49.15,11.53.67-3.26Z"/><path class="a" d="M601.5,22c-16.43,6.22-30.63,40.09-40.09,55.39-9.08,14.68-42.18,56.9-5.64,61.47"/><path class="j" d="M595.11,29.78a27.9,27.9,0,0,1,3.12-5.43c1.37-1.84,2-2.22,2.64-2.39a4.36,4.36,0,0,1,4.2,1.35c.67.75.46,1.09,1.12,2.64a15.31,15.31,0,0,0,3.55,4.95c1.41,1.3,2,1.22,2.71,2.41a5.28,5.28,0,0,1,.92,3.11A5.19,5.19,0,0,1,612,39.67Z"/><rect class="k" x="600.75" y="24.26" width="3.43" height="23.94" transform="translate(259.38 532.79) rotate(-58.8)"/><rect class="l" x="597.88" y="26.95" width="4.82" height="25.57" transform="translate(255.34 532.62) rotate(-58.8)"/><path class="j" d="M580.24,38.68c4.29-7.19,8-13.38,11.35-19,1.15-1.95,3.13-5.34,6.37-5.77,1-.14,1.92.12,5,1.58,4,1.86,6.94,3.52,8,4.13,5.6,3.18,7.47,4.41,9.53,6.14,2.88,2.41,3.29,3.42,3.46,4,.54,1.84-.06,3.58-2.59,8.19-2.62,4.77-5,8.4-6.52,10.75-1.17,1.81-2.93,4.55-5,8Z"/><path class="j" d="M575.29,45.86c3.32-5.28,5.49-8.67,9.74-10.09,9.79-3.28,24.79,5.74,25.82,15.52.39,3.67-1.2,7.35-3.2,12a86,86,0,0,1-5.39,9.6l-6.66,11c-4.21,6.7-14.82,24-32.55,53a29.27,29.27,0,0,1-31.52-18.76c.8-1.4,2-3.48,3.44-6,10.28-17.76,13.3-21,20.19-33C562.56,66.14,566.8,59.38,575.29,45.86Z"/><path class="m" d="M601.25,23a3.39,3.39,0,0,1,2.13,1.2c.65.91.27,1.73.45,3.34A9.5,9.5,0,0,0,605.59,32a9.71,9.71,0,0,0,3.31,2.9"/><path class="a" d="M606.81,146.94c9.42-40.73,55.58-64,63.5-105.49"/><path class="n" d="M654.83,83.35A34.21,34.21,0,0,1,661.07,89c-19,30.57-32.48,52.52-34.91,57.36a12,12,0,0,1-4.33,4.93,9.54,9.54,0,0,1-10,.38c-1.32-.67-4.48-2.27-5.76-5.87a10.08,10.08,0,0,1,.35-7.27q7.86-14.08,16.07-28.38,9.66-16.8,19.33-33a56.62,56.62,0,0,1,7.31,3A40.6,40.6,0,0,1,654.83,83.35Z"/><path class="n" d="M652,82.17c1.29-2.17,2.77-4.3,3.93-6.53,1.88-3.62,1.68-7.4,1.78-11.21.46-16.4,16-27.8,26-39.11"/><path class="n" d="M651.52,81c3.7-6.1,10.67-8.89,11.63-16.56.56-4.47-.28-8.72.6-13.19,1.76-9,8.15-17.35,13.76-24.33"/><path class="n" d="M650.82,80.6c3.54-5.91,8.16-10.14,10.36-16.87,1.74-5.33,1.78-10.83,3.44-16.11,2.35-7.4,8.12-13.27,13.2-18.8"/><path class="n" d="M653.68,82.59c4.2-7,2.48-12.34,3.82-19.67,1.09-6,3.89-13.4,8-17.94s8.57-9.17,12.36-14.22a84.89,84.89,0,0,1,6.39-8.25"/><path class="n" d="M653.28,82.07c3.51-5.85,8.91-12,8.25-18.75-.34-3.58-1.21-6.79-.5-10.6,1.31-6.92,5.23-12.77,9.25-18.52,1.84-2.64,6.46-9.9,9.91-9.32"/><path class="a" d="M8.59,87.06c-4.28,5.63,3.54,16.79,5.84,22.61,5.11,12.9,7.23,25.91,11.58,39.05"/><path class="a" d="M88.54,78.48c4.65,5.77,9.22,11.64,14.12,17.17,6.2,7,14.71,24,21.66,27.23"/><rect class="o" x="13.16" y="73.78" width="69.85" height="69.85" transform="translate(-40.02 28.91) rotate(-23.97)"/><rect class="o" x="17.36" y="78.29" width="61.92" height="61.92" rx="3.49" transform="translate(-40.22 29.05) rotate(-23.97)"/><circle class="p" cx="48.57" cy="109.88" r="23.75"/><path class="q" d="M38,93.62a19.4,19.4,0,1,1-5.7,26.83A19.4,19.4,0,0,1,38,93.62Z"/><rect class="r" x="93.58" y="53.08" width="63.89" height="63.89" transform="translate(-23.74 111.62) rotate(-44.21)"/><rect class="r" x="97.59" y="57.11" width="56.63" height="56.63" rx="3.49" transform="translate(-23.91 112) rotate(-44.21)"/><circle class="p" cx="126.34" cy="85.87" r="21.73"/><circle class="s" cx="126.34" cy="85.87" r="17.75"/><path class="a" d="M400.29,14.26C400.5,26.48,402,38,402.84,50c.6,8.72.11,17.53.46,26.26.71,17.55,5.87,37.25,1.91,54.52"/><path class="a" d="M426.2,8c4.35,7.09,1.86,18.29,2.39,26.4.84,12.74,3.32,24.92,3.55,37.94.42,23.4,1.63,46.19,2.18,69.49"/><path class="t" d="M421.43,3.39l36.42-1.82.12,4.7L421.56,8.18Z"/><path class="t" d="M421.78,10.41l36-2.07-3,115.15a24.62,24.62,0,0,1-22.14,1.15Z"/><path class="t" d="M454.42,141a31.14,31.14,0,0,1-20.65.73L432.49,127a24.8,24.8,0,0,0,22.31-1.3Z"/><path class="u" d="M402.94,42.35c.63,6.8,1.63,32.78,3.32,103.69,2,.37,4.47.56,6-.5a3.17,3.17,0,0,0,1.33-2.06c1.43-6.39-3.11-92.4-3.61-103.65-.14-3.34-.31-9-.13-16.09,0-8.18-.83-14.17-1.85-14.66a7.35,7.35,0,0,0-1.11-.4,6,6,0,0,0-3.14,0c-1.79.52-1.19,8.25-1,11.93.12,2.82.05,5.51-.11,10.88A68.16,68.16,0,0,0,402.94,42.35Z"/><line class="v" x1="394.1" y1="34.55" x2="405.09" y2="34.69"/><line class="v" x1="394.09" y1="32.5" x2="405.08" y2="32.63"/><line class="v" x1="394.08" y1="30.44" x2="405.07" y2="30.58"/><line class="v" x1="394.07" y1="28.39" x2="405.06" y2="28.52"/><line class="v" x1="394.06" y1="26.47" x2="405.05" y2="26.6"/><line class="v" x1="394.05" y1="24.41" x2="405.04" y2="24.55"/><line class="v" x1="394.03" y1="22.36" x2="405.03" y2="22.49"/><line class="v" x1="394.02" y1="20.3" x2="405.02" y2="20.44"/><line class="v" x1="394.01" y1="18.13" x2="405" y2="18.27"/><line class="v" x1="394" y1="16.07" x2="404.99" y2="16.21"/><line class="v" x1="393.99" y1="14.02" x2="404.98" y2="14.16"/><line class="v" x1="393.98" y1="11.96" x2="404.97" y2="12.1"/><path class="a" d="M327.24,137.12c3.84-5.44,10.91-6.57,15.91-11.09,5.16-4.66,8.15-18.53,10.54-25.19,3.53-9.79,5.58-20.29,8.39-30.37,3.93-14.09,3.37-23.73,1.52-37.74"/><path class="p" d="M286.71,138.45l-2.08-25.19,27.12-73.14,13.58-6.72,40.91-5.46,3.14,16.11-20.89,84.47c-4.07,1-8.84,2.88-10.87,7-1.23,2.51-.67,4.25-1.17,5.54C335,144.91,323.65,146.15,286.71,138.45Z"/><path class="p" d="M335.72,127.12c4,.71,8.63,2.18,12.88,1.38"/><path class="p" d="M336.87,136.11c-6-5.4-8.85-16.37-10.27-23.26"/><path class="p" d="M290.52,114.66a50.07,50.07,0,0,0,10.66,1.82,50.94,50.94,0,0,0,19.48-2.64"/><path class="p" d="M344.6,44.53l-18,68.32"/><path class="p" d="M311.67,40.24l30.09-1.85"/><path class="p" d="M289.77,135.89c5.14,1,10.62,2,16.42,2.74a239.84,239.84,0,0,0,24.26,2"/><path class="p" d="M363.21,31.32c-5.24.24-10.79.67-16.59,1.33-8.06.93-16.08,2.27-24,4"/><path class="s" d="M307.63,74c-1.53,4.38-2.58,6.6-4.83,13.43s-2.72,9.19-1.52,11.47c1.52,2.91,5,4.51,8,4.6,4.75.16,8-3.38,9.25-4.81,3-3.35,3-5.89,5.52-15.41,1.89-7.24,3.53-14.55,5.39-21.81.9-3.53,1.7-6.58,0-8.55-2.1-2.48-6.86-1.73-7.75-1.57a12.29,12.29,0,0,0-5.62,2.68C311.41,57.94,311.65,62.56,307.63,74Z"/><path class="a" d="M671.86,137.8c11.13,13.47,37,4.07,52.76,3,13.84-.95,27.66-3,41.62-3.21,15-.23,37.06-4.5,51,.86"/><path class="w" d="M668.07,135.71c-.28,0-.8-3.57.83-6.92.9-1.83,1.55-1.81,2-3.43.67-2.25-.42-2.93,0-5.62a8.59,8.59,0,0,1,2.66-5c2.89-2.46,7.39-2.06,7.64-1.24.14.44-1,.78-2.17,2.52a9.29,9.29,0,0,0-1.29,3.16,7.55,7.55,0,0,0,.85,5.9c1.75,2.48,4.91,2.69,5.82,2.75s2.44,0,6.72-2A65.92,65.92,0,0,0,701.64,120c3.13-2.17,5.28-4,5.43-4.13,4.09-3.43,30.95-3.85,107.35,3.44a12.89,12.89,0,0,1-.91,13.12L674.7,128.54a7.77,7.77,0,0,0-4.87,2.4C668.06,133,668.28,135.74,668.07,135.71Z"/><path class="w" d="M667.72,137.5c-.27.19,1.17,4.47,4.91,6.39a12.94,12.94,0,0,0,4.23,1.17,21.94,21.94,0,0,0,5.37.16c7.66-.74,81.8-6.59,99.77-7.48,6.37-.31,12.74-1.56,19.11-1.23,4.48.23,12.17,1,13-1.22.09-.24.33-1.17-.11-1.64s-1.55-.22-1.88-.14c-1.59.4-5,.73-11.58.9-5.27,0-13.19.08-22.88.48-5.38.22-9.53.47-12.61.66-27.95,1.72-57.53,4.26-57.53,4.26-9.43.81-19.37-.94-28.31,2.16a9.28,9.28,0,0,1-5.75.36C669.64,141.19,668,137.32,667.72,137.5Z"/><path class="w" d="M682.6,112.91a8.88,8.88,0,0,0-4.28,4.35c-1.42,3.22-.81,7.45,1.38,9.35,3.91,3.37,12.35-1,16.5-3.23,9-4.73,13.86-10.33,19.34-16a256.45,256.45,0,0,1,28.32-25C760,69.88,768.07,63.61,768.69,63.19c4.11-2.79,10.57-7,12.72-14.58,1-3.4,1.16-7.81-.36-8.47-1.88-.83-5,4.68-11.55,10.59-5.23,4.71-8.9,6.29-14.48,9.64-11.45,6.85-19.32,14.14-34.3,28-5.52,5.1-11.69,9.51-16.85,15-4.65,4.93-8.22,9.53-13.43,9.48C687.78,112.82,685.57,111.59,682.6,112.91Z"/><path class="x" d="M801.18,122c-1.84.69-2.9,3-1.56,4.63,1,1.24,3.28,1.66,4.73,1.42,4.38-.72,2.85-5.65-1-6.06"/><path class="x" d="M683,116.9c-1.35,1.42-1.29,4,.63,4.84,1.46.67,3.67.06,4.87-.8,3.62-2.57.09-6.33-3.55-5"/><path class="w" d="M786.88,129c.22-3.08.32-6.24.8-9.31"/><path class="w" d="M789.73,129.13a48.77,48.77,0,0,0,.57-9.19"/><path class="w" d="M793,127.88c-.16-2.82,1.05-5.83.4-8.67"/><path class="w" d="M668.59,136.14a10.16,10.16,0,0,1,5.12-4.08c2.83-.89,4.44.35,8.26,1,4.86.88,5.55-.53,16.69-1.17,3.09-.18,5.31-.21,7.85-.23,4.92,0,10.2.16,17.74.57,8.21.46,14,1.18,16.69,1.48,8.44.94,21.76,1.71,43.16.91"/><path class="a" d="M831.94,62.9c8.82,9.09,5.69,8.88,3.86,19.13-1.38,7.74,1.79,12.31,6,18.82,8.76,13.59,18.29,26,24.9,40.83"/><path class="y" d="M826.07,61.4c.18.38,4.66-1.28,8.65-3.39,2.94-1.56,6.3-3.73,6.12-4.07s-4.43,1.4-7.76,3.09C829.94,58.62,825.88,61,826.07,61.4Z"/><path class="z" d="M826.27,61.62c1.5,3,3.14,6.16,5,9.37q1.95,3.45,3.91,6.62a31.88,31.88,0,0,0,3.7-1.19,37.23,37.23,0,0,0,5.92-3A37.86,37.86,0,0,0,849.47,70c-1.13-2-2.27-4-3.39-6q-2.8-5.11-5.24-10a41.21,41.21,0,0,1-14.56,7.68Z"/><rect class="z" x="840.35" y="68.45" width="43.16" height="82.28" rx="14.49" transform="translate(54.94 431.61) rotate(-29)"/></svg>