<?xml version="1.0" encoding="UTF-8" standalone="no"?>
<svg
   xmlns:dc="http://purl.org/dc/elements/1.1/"
   xmlns:cc="http://creativecommons.org/ns#"
   xmlns:rdf="http://www.w3.org/1999/02/22-rdf-syntax-ns#"
   xmlns:svg="http://www.w3.org/2000/svg"
   xmlns="http://www.w3.org/2000/svg"
   viewBox="0 0 793.70135 793.70135"
   height="450"
   width="450"
   xml:space="preserve"
   id="svg2"
   version="1.1"><metadata
     id="metadata8"><rdf:RDF><cc:Work
         rdf:about=""><dc:format>image/svg+xml</dc:format><dc:type
           rdf:resource="http://purl.org/dc/dcmitype/StillImage" /></cc:Work></rdf:RDF></metadata><defs
     id="defs6"><clipPath
       id="clipPath22"
       clipPathUnits="userSpaceOnUse"><path
         id="path20"
         d="M 0,595.276 H 595.276 V 0 H 0 Z" /></clipPath></defs><g
     transform="matrix(1.3333333,0,0,-1.3333333,0,793.70133)"
     id="g10"><g
       transform="translate(129.9716,276.0424)"
       id="g12"><path
         id="path14"
         style="fill:#3c3c3a;fill-opacity:1;fill-rule:nonzero;stroke:none"
         d="M 0,0 -7.519,21.451 -15.039,0 Z m 4.445,-12.732 h -23.929 l -3.844,-11.197 H -41.19 l 24.527,64.435 H 1.625 L 26.152,-23.929 H 8.29 Z" /></g><g
       id="g16"><g
         clip-path="url(#clipPath22)"
         id="g18"><g
           transform="translate(176.1193,274.1618)"
           id="g24"><path
             id="path26"
             style="fill:#3c3c3a;fill-opacity:1;fill-rule:nonzero;stroke:none"
             d="m 0,0 c 0,-1.424 0.256,-2.748 0.768,-3.972 0.514,-1.227 1.21,-2.295 2.094,-3.205 0.882,-0.913 1.937,-1.625 3.163,-2.137 1.224,-0.514 2.549,-0.77 3.973,-0.77 1.369,0 2.662,0.256 3.889,0.77 1.224,0.512 2.278,1.224 3.16,2.137 0.885,0.91 1.597,1.964 2.136,3.16 0.543,1.196 0.813,2.479 0.813,3.847 0,1.366 -0.27,2.663 -0.813,3.887 -0.539,1.224 -1.251,2.292 -2.136,3.204 -0.882,0.913 -1.936,1.625 -3.16,2.137 -1.227,0.514 -2.52,0.77 -3.889,0.77 C 8.632,9.828 7.333,9.572 6.109,9.058 4.885,8.546 3.831,7.834 2.949,6.921 2.064,6.009 1.352,4.971 0.812,3.803 0.27,2.634 0,1.369 0,0 M 19.484,48.882 H 35.037 V -22.049 H 19.484 v 4.871 c -3.305,-4.159 -7.778,-6.237 -13.417,-6.237 -3.191,0 -6.125,0.598 -8.802,1.795 -2.678,1.196 -5.015,2.848 -7.007,4.957 -1.995,2.106 -3.547,4.584 -4.657,7.433 -1.112,2.848 -1.669,5.925 -1.669,9.23 0,3.132 0.529,6.109 1.583,8.93 1.054,2.82 2.548,5.285 4.487,7.394 1.936,2.106 4.256,3.772 6.963,4.999 2.707,1.224 5.683,1.836 8.932,1.836 5.47,0 9.998,-1.909 13.587,-5.725 z" /></g><g
           transform="translate(258.9259,315.522)"
           id="g28"><path
             id="path30"
             style="fill:#3c3c3a;fill-opacity:1;fill-rule:nonzero;stroke:none"
             d="m 0,0 -14.869,-13.158 -7.177,5.297 12.221,14.955 z m -5.213,-35.121 c -0.512,2.165 -1.566,3.901 -3.16,5.211 -1.597,1.31 -3.533,1.967 -5.812,1.967 -2.392,0 -4.345,-0.629 -5.855,-1.881 -1.508,-1.255 -2.465,-3.021 -2.863,-5.297 z m -18.115,-8.974 c 0,-6.665 3.132,-9.998 9.399,-9.998 3.361,0 5.898,1.366 7.606,4.101 H 8.632 c -3.021,-10.029 -10.568,-15.039 -22.647,-15.039 -3.702,0 -7.093,0.554 -10.167,1.667 -3.077,1.11 -5.714,2.69 -7.906,4.743 -2.195,2.05 -3.889,4.498 -5.086,7.346 -1.196,2.849 -1.794,6.04 -1.794,9.573 0,3.647 0.568,6.935 1.708,9.87 1.141,2.934 2.765,5.427 4.871,7.477 2.109,2.053 4.66,3.633 7.65,4.743 2.991,1.113 6.368,1.666 10.126,1.666 3.703,0 7.035,-0.553 9.998,-1.666 2.963,-1.11 5.472,-2.721 7.522,-4.826 2.05,-2.109 3.616,-4.688 4.699,-7.737 1.082,-3.046 1.624,-6.481 1.624,-10.295 v -1.625 z" /></g><g
           transform="translate(291.3147,274.1618)"
           id="g32"><path
             id="path34"
             style="fill:#3c3c3a;fill-opacity:1;fill-rule:nonzero;stroke:none"
             d="m 0,0 c 0,-1.424 0.256,-2.748 0.768,-3.972 0.514,-1.227 1.21,-2.295 2.095,-3.205 0.881,-0.913 1.936,-1.625 3.162,-2.137 1.224,-0.514 2.549,-0.77 3.973,-0.77 1.369,0 2.662,0.256 3.889,0.77 1.224,0.512 2.278,1.224 3.16,2.137 0.885,0.91 1.597,1.978 2.136,3.205 0.543,1.224 0.813,2.52 0.813,3.886 0,1.368 -0.27,2.651 -0.813,3.847 -0.539,1.196 -1.251,2.248 -2.136,3.16 -0.882,0.913 -1.936,1.625 -3.16,2.137 -1.227,0.514 -2.52,0.77 -3.889,0.77 C 8.632,9.828 7.333,9.572 6.109,9.058 4.885,8.546 3.831,7.834 2.949,6.921 2.064,6.009 1.352,4.971 0.812,3.803 0.27,2.634 0,1.369 0,0 m 19.484,-43.925 v 26.149 c -3.589,-3.758 -8.117,-5.639 -13.587,-5.639 -3.135,0 -6.042,0.598 -8.718,1.795 -2.679,1.196 -4.999,2.848 -6.965,4.957 -1.964,2.106 -3.503,4.57 -4.613,7.391 -1.112,2.821 -1.669,5.825 -1.669,9.016 0,3.302 0.57,6.379 1.711,9.23 1.138,2.846 2.704,5.325 4.699,7.433 1.994,2.109 4.331,3.761 7.01,4.957 2.676,1.197 5.58,1.795 8.715,1.795 5.639,0 10.112,-2.081 13.417,-6.237 v 4.871 h 15.553 v -65.718 z" /></g><g
           transform="translate(353.7834,295.9547)"
           id="g36"><path
             id="path38"
             style="fill:#3c3c3a;fill-opacity:1;fill-rule:nonzero;stroke:none"
             d="m 0,0 v -24.697 c 0,-5.413 2.62,-8.12 7.861,-8.12 5.241,0 7.865,2.707 7.865,8.12 V 0 h 15.467 v -27.69 c 0,-5.926 -1.953,-10.368 -5.853,-13.331 -3.903,-2.962 -9.731,-4.442 -17.479,-4.442 -7.747,0 -13.572,1.48 -17.475,4.442 -3.903,2.963 -5.853,7.405 -5.853,13.331 l 0,27.69 z" /></g><g
           transform="translate(409.8427,274.1618)"
           id="g40"><path
             id="path42"
             style="fill:#3c3c3a;fill-opacity:1;fill-rule:nonzero;stroke:none"
             d="m 0,0 c 0,-1.424 0.259,-2.748 0.771,-3.972 0.511,-1.227 1.21,-2.295 2.091,-3.205 0.885,-0.913 1.937,-1.625 3.163,-2.137 1.224,-0.514 2.549,-0.77 3.976,-0.77 1.366,0 2.662,0.256 3.886,0.77 1.227,0.512 2.278,1.224 3.163,2.137 0.882,0.91 1.594,1.964 2.136,3.16 0.54,1.196 0.813,2.479 0.813,3.847 0,1.366 -0.273,2.663 -0.813,3.887 -0.542,1.224 -1.254,2.292 -2.136,3.204 -0.885,0.913 -1.936,1.625 -3.163,2.137 -1.224,0.514 -2.52,0.77 -3.886,0.77 C 8.574,9.828 7.249,9.572 6.025,9.058 4.799,8.546 3.747,7.834 2.862,6.921 1.981,6.009 1.282,4.971 0.771,3.803 0.259,2.634 0,1.369 0,0 M 19.487,21.793 H 35.04 V -22.049 H 19.487 v 4.871 c -3.305,-4.159 -7.778,-6.237 -13.42,-6.237 -3.191,0 -6.123,0.585 -8.802,1.75 -2.678,1.169 -5.012,2.807 -7.007,4.916 -1.995,2.105 -3.547,4.584 -4.657,7.435 -1.11,2.846 -1.666,5.951 -1.666,9.314 0,3.132 0.54,6.109 1.625,8.93 1.079,2.82 2.589,5.285 4.528,7.394 1.937,2.106 4.243,3.772 6.922,4.999 2.678,1.224 5.641,1.836 8.887,1.836 5.47,0 9.998,-1.909 13.59,-5.725 z" /></g><g
           transform="translate(472.6536,283.0498)"
           id="g44"><path
             id="path46"
             style="fill:#3c3c3a;fill-opacity:1;fill-rule:nonzero;stroke:none"
             d="M 0,0 V -30.937 H -15.467 V 0 h -5.127 v 12.905 h 5.127 V 26.063 H 0 V 12.905 H 8.802 L 8.802,0 Z" /></g><g
           transform="translate(486.4959,260.3167)"
           id="g48"><path
             id="path50"
             style="fill:#3c3c3a;fill-opacity:1;fill-rule:nonzero;stroke:none"
             d="m 0,0 c 0,1.369 0.259,2.662 0.771,3.889 0.511,1.224 1.224,2.292 2.136,3.205 0.91,0.909 1.978,1.624 3.205,2.136 1.224,0.512 2.52,0.771 3.889,0.771 1.366,0 2.662,-0.259 3.886,-0.771 1.227,-0.512 2.295,-1.227 3.205,-2.136 0.912,-0.913 1.624,-1.981 2.136,-3.205 0.515,-1.227 0.771,-2.52 0.771,-3.889 0,-1.366 -0.256,-2.662 -0.771,-3.886 -0.512,-1.227 -1.224,-2.295 -2.136,-3.205 -0.91,-0.912 -1.978,-1.624 -3.205,-2.136 -1.224,-0.515 -2.52,-0.771 -3.886,-0.771 -1.369,0 -2.665,0.256 -3.889,0.771 -1.227,0.512 -2.295,1.224 -3.205,2.136 -0.912,0.91 -1.625,1.978 -2.136,3.205 C 0.259,-2.662 0,-1.366 0,0" /></g><g
           transform="translate(340.222,312.2597)"
           id="g52"><path
             id="path54"
             style="fill:#19b3ba;fill-opacity:1;fill-rule:nonzero;stroke:none"
             d="m 0,0 c 12.018,-1.114 22.222,-1.661 29.953,-1.95 35.419,-1.325 43.963,1.829 49.395,4.615 2.266,1.162 10.93,5.82 18.344,15.523 2.167,2.837 18.141,24.512 9.793,51.313 -7.426,23.84 -28.328,33.216 -31.105,34.406 -3.592,1.538 -20.527,8.34 -40.105,1.348 C 16.671,98.255 7.454,82.083 4.302,75.327 -0.435,65.175 -0.579,53.722 -0.867,30.817 -1.027,18.121 -0.522,7.527 0,0" /></g></g></g></g></svg>