<svg xmlns="http://www.w3.org/2000/svg" width="849.637" height="363.041" viewBox="0 0 849.637 363.041">
  <g id="Groupe_746" data-name="Groupe 746" transform="translate(-470 -4846.959)">
    <text id="adv_adequatfrance.com" data-name="adv@adequatfrance.com" transform="translate(470 5202)" fill="#2e2e2d" font-size="34" font-family="Raleway" font-weight="500"><tspan x="0" y="0">adv@adequatfrance.com</tspan></text>
    <text id="par_email_:" data-name="par email :" transform="translate(576 5154)" fill="#2e2e2d" font-size="34" font-family="Raleway" font-weight="800"><tspan x="0" y="0">par email :</tspan></text>
    <text id="par_téléphone_:" data-name="par téléphone :" transform="translate(1064.637 5154)" fill="#2e2e2d" font-size="34" font-family="Raleway" font-weight="800"><tspan x="0" y="0">par téléphone :</tspan></text>
    <text id="_01_53_61_28_35_" data-name="01 53 61 28 35 " transform="translate(1198.023 5202)" fill="#2e2e2d" font-size="34" font-family="Raleway" font-weight="500"><tspan x="-113" y="0">01 53 61 28 35 </tspan></text>
    <g id="Groupe_568" data-name="Groupe 568" transform="translate(505.043 4817.311)">
      <rect id="Rectangle_298" data-name="Rectangle 298" width="258.477" height="163.753" rx="8.765" transform="translate(29.681 31.648)" fill="none" stroke="#2e2e2d" stroke-linecap="round" stroke-width="4"/>
      <path id="Tracé_282" data-name="Tracé 282" d="M283.429,109.674H30.968a3.008,3.008,0,0,1-3.009-3.009V94.512a3,3,0,0,1,.883-2.13,3.648,3.648,0,0,1,2.127-.88c3.027-.289,101.97-1.395,112.391-1.509a19.336,19.336,0,0,0,28.569-.666c5.364.1,108.961,1.922,111.5,2.175a3.676,3.676,0,0,1,2.127.88,3,3,0,0,1,.88,2.13v12.154Z" transform="translate(0 116.054)" fill="none" stroke="#2e2e2d" stroke-linecap="round" stroke-width="4"/>
      <rect id="Rectangle_299" data-name="Rectangle 299" width="239.833" height="144.472" rx="5.066" transform="translate(39.287 41.573)" fill="none" stroke="#2e2e2d" stroke-linecap="round" stroke-width="4"/>
      <g id="Groupe_567" data-name="Groupe 567" transform="translate(221.031 126.28)">
        <path id="Tracé_283" data-name="Tracé 283" d="M92.059,63.066,95.448,83l5.238-6.777,8.346-2.943Z" transform="translate(-92.059 -63.066)" fill="none" stroke="#2e2e2d" stroke-width="4"/>
        <line id="Ligne_24" data-name="Ligne 24" x1="4.346" y1="6.074" transform="translate(8.12 12.192)" fill="none" stroke="#2e2e2d" stroke-linecap="square" stroke-width="4"/>
      </g>
      <rect id="Rectangle_300" data-name="Rectangle 300" width="85.87" height="53.615" rx="4.535" transform="translate(116.269 84.69)" fill="none" stroke="#1ba8ad" stroke-width="4"/>
      <path id="Tracé_284" data-name="Tracé 284" d="M57.593,51.364l43.374,35.249,40.6-35.249" transform="translate(59.624 39.669)" fill="none" stroke="#1ba8ad" stroke-width="4"/>
    </g>
    <g id="Groupe_590" data-name="Groupe 590" transform="translate(1097.473 4821)">
      <rect id="Rectangle_324" data-name="Rectangle 324" width="203.225" height="106.411" rx="8.765" transform="translate(48.399 231.184) rotate(-90)" fill="none" stroke="#464545" stroke-linecap="round" stroke-width="4"/>
      <rect id="Rectangle_325" data-name="Rectangle 325" width="188.567" height="93.882" rx="5.066" transform="translate(54.849 223.632) rotate(-90)" fill="none" stroke="#464545" stroke-linecap="round" stroke-width="4"/>
      <line id="Ligne_53" data-name="Ligne 53" x2="38.674" transform="translate(81.566 42.95)" fill="none" stroke="#1ba8ad" stroke-linecap="round" stroke-width="4"/>
      <circle id="Ellipse_8" data-name="Ellipse 8" cx="5.919" cy="5.919" r="5.919" transform="translate(97.095 199.658)" fill="none" stroke="#1ba8ad" stroke-linecap="round" stroke-width="4"/>
    </g>
  </g>
</svg>
