<svg xmlns="http://www.w3.org/2000/svg" width="175.075" height="110.96" viewBox="0 0 175.075 110.96">
  <g id="Groupe_817" data-name="Groupe 817" transform="translate(-307.085 -359.432)">
    <g id="Calque_1" data-name="Calque 1">
      <path id="Tracé_1101" data-name="Tracé 1101" d="M427.031,431.18c5.1-5.921,11.706-11.639,17-17.946" fill="none" stroke="#22b1b2" stroke-linecap="round" stroke-width="11.5"/>
      <path id="Tracé_1102" data-name="Tracé 1102" d="M458.2,394.344c4.13-9.1,10.835-16.942,16.057-25.5" fill="none" stroke="#22b1b2" stroke-linecap="round" stroke-width="11.5"/>
      <path id="Tracé_1103" data-name="Tracé 1103" d="M426.086,431.18c.529,5.458,2.6,10.6.945,16.057" fill="none" stroke="#ebccbc" stroke-width="0.5"/>
      <path id="Tracé_1104" data-name="Tracé 1104" d="M459.145,397.177c2.912,12.433,9.969,25.5,14.167,37.781" fill="none" stroke="#22b1b2" stroke-linecap="round" stroke-width="11.5"/>
      <path id="Tracé_1105" data-name="Tracé 1105" d="M318.411,448.182c10.39,10.807,27.475,30.323,42.376,13.056,6.29-7.289,6.047-16.941-4.468-17.82-13.375-1.119-12.386,11.672-5.217,19.169,16.011,16.744,45.333,12.1,53.26-10.627" transform="translate(2 -5)" fill="none" stroke="#22b1b2" stroke-linecap="round" stroke-width="5.5"/>
      <path id="Tracé_1106" data-name="Tracé 1106" d="M406.251,378.287c12.82,2.857,25.764,6.588,39.67,6.612" fill="none" stroke="#22b1b2" stroke-linecap="round" stroke-width="11.5"/>
    </g>
    <g id="Calque_2" data-name="Calque 2" transform="translate(-0.217 -1)">
      <g id="Groupe_811" data-name="Groupe 811" transform="translate(1 -1)">
        <path id="Tracé_1079" data-name="Tracé 1079" d="M446.7,385.585c2.425-2.89,5.957-7.073,10.36-12.121,3.514-4.026,6.622-7.506,11.8-9.569,4.133-1.646,5.426-.732,5.766-.444.411.35,1.39,1.453.455,5.961a30.152,30.152,0,0,1-5.071,11.32,151.049,151.049,0,0,1-11.772,14.549c1.223,3.223,3.008,7.766,5.335,13.152,2.71,6.27,4.869,10.707,7.213,17.739,2.647,7.943,2.849,11.151,1.784,14.258a14.865,14.865,0,0,1-4.364,6.307Q460.575,436,452.928,423.983q-4.086-6.453-7.815-12.761c-2.226,2.176-5.3,5.239-8.883,9-8.105,8.5-8.561,9.794-8.794,10.828-1.245,5.522,2.779,8.3,1.069,15.91-.2.9-1.005,4.478-2.427,4.583-1.072.079-1.983-1.856-3.086-4.16-3.857-8.06-5.8-12.107-6.719-12.936-1.567-1.418-4.9-2.48-11.568-4.59-4.5-1.423-6.814-1.829-6.9-2.91-.112-1.445,3.869-3,6.419-3.7,7.614-2.094,10.432,1.2,14.864-.991,2.438-1.207,2.586-2.872,7.294-10.115,2.992-4.6,5.514-8.321,7.205-10.783q-8.051-3.539-16.158-7.073-9.576-4.172-19.1-8.28a11.164,11.164,0,0,1,3.373-5.247c4.831-4.058,12-1.984,31,1.993C438.985,384.073,443.985,385.058,446.7,385.585Z" fill="none" stroke="#201f1f" stroke-width="3"/>
        <path id="Tracé_1080" data-name="Tracé 1080" d="M404.862,441.03c-.718,3.1-3.952,15.39-15.628,22.47-1.476.9-17.419,10.269-27.973,2.2-5.966-4.56-8.863-13.665-6.173-20.2,1.233-3,4.468-7.445,8.045-6.968,2.469.329,4.5,2.921,4.981,5.4.984,5.1-4.613,9.66-6.35,11.076-9.221,7.517-21.823,5.561-22.751,5.4-14.939-2.539-27.682-20.123-31.228-43.776" fill="none" stroke="#201f1f" stroke-width="3"/>
      </g>
    </g>
  </g>
</svg>
