<svg xmlns="http://www.w3.org/2000/svg" width="136.78" height="133.004" viewBox="0 0 136.78 133.004">
  <g id="Groupe_819" data-name="Groupe 819" transform="translate(-49.178 -332.743)">
    <g id="Calque_1" data-name="Calque 1">
      <path id="Tracé_1114" data-name="Tracé 1114" d="M62.59,420.954c4.767,7.708,7.046,17.632,12.239,24.979,1.644-2.639-.954-8.719-1.294-11.634a80.936,80.936,0,0,1-.586-11.444c6.426,5.167,3.877,15.943,8.25,22.266,1.764-6.781-3.007-14.085-.592-20.916,3.817,6.226,3.815,14.23,6.407,20.912.277-6.219-3.791-19.81,1.856-24.256,3.679,6.589,2.575,15.491,5.441,22.515.977-2.484.1-6.729.025-9.384a62.969,62.969,0,0,1,.833-11.282c4.439,5.558,2.237,15.124,4.106,21.669,3.371-6.755,4.41-15.057,4.78-22.547-.863,6.633-1.343,14.026-.314,20.654a24.629,24.629,0,0,0-.978-5.839" fill="none" stroke="#3ED1D2" stroke-linecap="round" stroke-linejoin="round" stroke-width="6"/>
      <path id="Tracé_1115" data-name="Tracé 1115" d="M54.43,399.926c-.585,4.271,12.092,18.582,17.252,13.342,2.985-3.031-12.819-16.825-15.279-19.968,6.591,2.253,11.312,10.858,18.462,11.9-1.094-3.43-5.433-7.1-7.612-10.117a94.379,94.379,0,0,1-5.615-7.82c7.657.226,11.735,11.264,18.848,13.05-4.286-7.406-12.973-11.682-17.221-18.866,3.651-4.735,18.706,10.944,22.27,13.865.149-3.031-12.246-14.27-9.274-17.213,1.858-1.839,6.6,5.172,7.4,6.308.717,1.012,3.582,5.694,3.725,5.158" fill="none" stroke="#3ED1D2" stroke-linecap="round" stroke-linejoin="round" stroke-width="6"/>
      <path id="Tracé_1116" data-name="Tracé 1116" d="M98.369,369.8c-5.657-4.932-19.557-3.809-21.284-13.532,8.33-3.214,16.66,11.166,24.778,11.934.453-2.761-4.423-5.6-6.243-7.054-2.54-2.035-9.487-5.94-9.673-9.578-.455-8.941,14.24,6.157,17.759,6.943-.308-5.6-17.805-10.951-16.187-15.383,3.212-8.8,16.771,8.309,21.005,7.864-.585-6.736-9.99-7.434-13.566-11.315,3.114-7.468,14.738,3.907,18.827,3.743-3.921-5.507-9.5-2.647-14.476-4.045,3.268-3.808,9.218-1.555,13.176-.381,4.678,1.387,7.482-1.11,12.05-1.577q.03.564-.743.681" fill="none" stroke="#3ED1D2" stroke-linecap="round" stroke-linejoin="round" stroke-width="6"/>
      <path id="Tracé_1117" data-name="Tracé 1117" d="M141.368,343.118c-5.195-1.465-11.713,2.663-13.775,7.439-.4.923-1.53,5.395-.692,6.477,1.631,2.107,3.024-.039,4.812-1.727,1.376-1.3,12.131-12.527,14.177-8.433,1.682,3.366-15.148,11.876-16.618,14.453-1.069,1.874-1.205,3.6,1.547,4.374,3.949,1.116,8.3-4.639,10.8-6.756,1.009-.855,6.834-6.694,8.807-6.076,3.222,1.009-1.881,4.692-2.876,5.579-2.586,2.3-14.629,9.039-14.236,13.254.308,3.319,4.667,2.762,6.694,2.007,7.18-2.676,11.249-10.208,16.163-15.464.7,4.975-3.538,11.029-6.271,14.959.832-.364,1.063-.946,1.512-1.525" fill="none" stroke="#3ED1D2" stroke-linecap="round" stroke-linejoin="round" stroke-width="6"/>
      <path id="Tracé_1118" data-name="Tracé 1118" d="M125.047,433.508c-1.981,2.985.208,10.577,1.317,14.471,4.886-6.818,1.077-18.636,3.855-26.009,1.348,4.672,1.783,10.078,2.506,14.9.572,3.82.01,7.945,1.173,11.637,3.3-6.794,1.147-16.25,3.625-23.377,1.047,7.432-.077,15.544,1.955,22.792,1.674-7.191,1.209-14.8,2.9-21.956,2.055,5.908,1.14,12.682,3.389,18.486,3.464-4.22,1.14-12.691,2.573-17.83,2.374,5.5.32,12.074,2.464,17.555,1.712-4.94.219-11.246,1.13-16.514,2.457,3.969,1.149,9.869,3.019,14.1a44.119,44.119,0,0,0-.279-15.64c.684,4.458,1.244,14.2,4.54,17.422a3.621,3.621,0,0,0-.265-1.883" fill="none" stroke="#3ED1D2" stroke-linecap="round" stroke-linejoin="round" stroke-width="6"/>
      <path id="Tracé_1119" data-name="Tracé 1119" d="M148.9,394.59c2.688-1.652,6.273-5.094,9.86-6.908,3.506-1.773,6.769-4.138,10.458-5.5-1.205,3.142-5.026,6.126-7.272,8.538-2.588,2.781-5.2,6.83-8.532,8.735,5.567-3.809,10.571-10.341,17.525-11.675-.247,2.027-4.33,4.957-5.784,6.471-2.555,2.661-6.133,5.141-8.072,8.272,5.432-.507,11.984-7.483,17.177-10.309-3.123,5.7-9.783,9.009-13.02,14.575,4.149-2.767,8-6.828,12.538-8.757-2.478,6.079-10.162,9.159-13.011,15.056a99.286,99.286,0,0,1,8.918-6.934c2.118-1.6,4.513-4.252,7.15-4.807-.715,2.332-2.856,3.911-4.353,5.789-2.616,3.283-5.019,6.692-7.884,9.789,4.964-2.557,10.133-8.643,14.341-12.6-3.707,4.067-8.968,9.389-11.133,14.623,4.526-3.78,7.009-9.572,12.442-12.472-5.564,6.161-9.3,13.906-12.811,21.316,4.966-5.141,7.6-12.29,12.689-17.369-2.3,3-3.327,6.727-4.879,10.106-2.277,4.959-4.573,9.94-7.177,14.749.095-.377.184-.765.289-1.142" fill="none" stroke="#3ED1D2" stroke-linecap="round" stroke-linejoin="round" stroke-width="6"/>
    </g>
    <g id="Calque_2" data-name="Calque 2">
      <g id="Groupe_709" data-name="Groupe 709">
        <g id="Groupe_708" data-name="Groupe 708">
          <path id="Tracé_605" data-name="Tracé 605" d="M132.729,334.3a1.284,1.284,0,0,1-.229.106c-6.344,1.52-10.812,5.438-13.959,11q-9.229,16.31-18.419,32.643c-.083.147-.178.288-.293.471L72.182,363.159l1.98-3.59c2.792-5.06,5.556-10.137,8.388-15.175a26.209,26.209,0,0,1,6.749-8.223,11.982,11.982,0,0,1,4.919-2.334,4.1,4.1,0,0,1,.849-.094q18.529.2,37.06.408c.2,0,.393.025.589.039Z" fill="none" stroke="#201f1f" stroke-width="2"/>
          <path id="Tracé_606" data-name="Tracé 606" d="M165.495,442.682c.189-.947.413-1.888.562-2.841a20.369,20.369,0,0,0-2.232-13.02c-1.392-2.6-3.046-5.064-4.592-7.583q-8.068-13.145-16.144-26.287c-.1-.16-.19-.325-.314-.538l26.754-16.667c.116.166.218.3.306.44,3.684,5.909,7.382,11.809,11.042,17.733a27.385,27.385,0,0,1,3.756,8.915,12.832,12.832,0,0,1-.169,6.34,5.106,5.106,0,0,1-.446,1.046q-9.059,16.011-18.132,32.014c-.091.162-.2.317-.292.475Z" fill="none" stroke="#201f1f" stroke-width="2"/>
          <path id="Tracé_607" data-name="Tracé 607" d="M53.149,413.678c1.146.861,2.271,1.8,3.486,2.6a20.156,20.156,0,0,0,10.254,3.4c3.351.161,6.714.089,10.071.107q14.776.081,29.554.153c.809,0,.809.007.809.8v30.014c0,.825,0,.825-.85.826l-19.646.03a28.108,28.108,0,0,1-10.245-1.5,22.109,22.109,0,0,1-3.919-2.086A7.9,7.9,0,0,1,70.02,445q-8.3-15.477-16.667-30.923C53.273,413.931,53.2,413.783,53.149,413.678Z" fill="none" stroke="#201f1f" stroke-width="2"/>
          <path id="Tracé_608" data-name="Tracé 608" d="M59.407,381.856l-7.844-6.2.024-.161H52.4q13.976-.092,27.95-.192a.81.81,0,0,1,.851.477Q88.157,388.8,95.144,401.8c.052.1.1.2.22.439l-8.259-4.557c-.137.211-.262.4-.379.586q-5.274,8.581-10.547,17.163c-.157.256-.272.51-.672.507a66.192,66.192,0,0,1-11.18-.746,17.573,17.573,0,0,1-12.753-9.05,9.029,9.029,0,0,1-.029-9.224c2.558-4.773,5.022-9.6,7.525-14.4C59.175,382.315,59.276,382.111,59.407,381.856Z" fill="none" stroke="#201f1f" stroke-width="2"/>
          <path id="Tracé_609" data-name="Tracé 609" d="M165.992,351.166c-1.56,2.854-3.041,5.563-4.521,8.273q-4.717,8.637-9.429,17.277a.76.76,0,0,1-.772.51q-11.569-.189-23.138-.338l-6.644-.093c-.07,0-.141-.009-.386-.026l8.048-5.01c-.338-.6-.651-1.166-.967-1.727q-4.644-8.222-9.3-16.437a.928.928,0,0,1,0-1.078,94.806,94.806,0,0,1,5.589-8.648,17.584,17.584,0,0,1,12.1-7.089c2.949-.4,5.775-.05,8.158,1.934a9.488,9.488,0,0,1,1.778,2q4.651,6.943,9.224,13.94c.316.483.547.607,1.119.357,2.81-1.231,5.646-2.4,8.473-3.6C165.5,351.344,165.673,351.285,165.992,351.166Z" fill="none" stroke="#201f1f" stroke-width="2"/>
          <path id="Tracé_610" data-name="Tracé 610" d="M133.9,411.686c.211,3.033.423,5.906.6,8.781.03.493.208.59.656.585,6.7-.081,13.4-.141,20.1-.226a1.033,1.033,0,0,1,1.044.566,59.833,59.833,0,0,1,5.31,10.177,17.52,17.52,0,0,1-1.137,14.966,9.077,9.077,0,0,1-7.963,4.872c-4.322.269-8.637.654-12.955.988-1.122.087-2.244.187-3.368.246-.378.02-.513.126-.552.522-.325,3.26-.677,6.518-1.032,9.881-.163-.225-.277-.366-.375-.517q-7.564-11.81-15.133-23.615a.85.85,0,0,1-.051-1.027q7.274-12.814,14.516-25.645C133.646,412.1,133.738,411.955,133.9,411.686Z" fill="none" stroke="#201f1f" stroke-width="2"/>
        </g>
      </g>
    </g>
  </g>
</svg>
