<svg xmlns="http://www.w3.org/2000/svg" width="178.168" height="148.827" viewBox="0 0 178.168 148.827">
  <g id="Groupe_820" data-name="Groupe 820" transform="translate(-352.151 -86.084)">
    <g id="Calque_1" data-name="Calque 1">
      <path id="Tracé_1120" data-name="Tracé 1120" d="M410.073,143.693c-2.862,15.875-9.363,31.363-11.826,47.3" fill="none" stroke="#f29fa0" stroke-linecap="round" stroke-width="10.5"/>
      <path id="Tracé_1121" data-name="Tracé 1121" d="M374.6,188.632c.644-14.925,5.987-32.363,11.826-46.121" fill="none" stroke="#f4b9c4" stroke-linecap="round" stroke-width="7.5"/>
      <path id="Tracé_1122" data-name="Tracé 1122" d="M428.994,198.093c-2.458-10.9,11.582-32.277,13.009-46.122" fill="none" stroke="#1ba8ad" stroke-linecap="round" stroke-width="10.5"/>
      <path id="Tracé_1123" data-name="Tracé 1123" d="M451.464,208.736c7.78-13.719,15.327-30.286,16.556-46.121" fill="none" stroke="#008c8b" stroke-linecap="round" stroke-width="7.5"/>
      <path id="Tracé_1124" data-name="Tracé 1124" d="M470.385,214.649c11.674-9.8,19.526-24.144,30.748-34.295" fill="none" stroke="#ee9f7d" stroke-linecap="round" stroke-width="8.5"/>
      <path id="Tracé_1125" data-name="Tracé 1125" d="M360.664,108.326c1.491-5.673,13.654-23.076,20.109-14.954,4.981,6.267-7.168,23.729-8.854,29.833-2.375,8.6-6.26,15.836-9.105,24.142-3.31,9.665-10.184,27.855-7.36,37.883,1.774,6.295,7.5,9.275,13.138,11.6,9.008,3.714,18.393,7,27.456,10.8,22.259,9.337,47.132,10.2,69.236,19.646" fill="none" stroke="#ebccbc" stroke-linecap="round" stroke-linejoin="round" stroke-width="5.5"/>
      <path id="Tracé_1126" data-name="Tracé 1126" d="M390.608,106.474c8.589,6.928,20.153,7.17,30.522,9.849,13.734,3.548,25.92,9.275,38.693,15.271,11.432,5.367,23.08,7.242,35.212,9.954,5.912,1.322,16.658,1.589,20.694,6.07q-.042-.873-.034-1.747" fill="none" stroke="#ebccbc" stroke-linecap="round" stroke-linejoin="round" stroke-width="29"/>
    </g>
    <g id="Calque_2" data-name="Calque 2">
      <g id="Groupe_813" data-name="Groupe 813">
        <path id="Tracé_1083" data-name="Tracé 1083" d="M377.76,106.972l-8.091,24.457-10.942,33.083-3.555,10.743A15.833,15.833,0,0,0,365.3,195.22L479.64,233.043a15.833,15.833,0,0,0,20.039-9.99l3.554-10.743,10.942-33.083,8.09-24.458Z" fill="none" stroke="#0c0d0c" stroke-width="2"/>
        <rect id="Rectangle_423" data-name="Rectangle 423" width="26.714" height="152.205" transform="matrix(0.314, -0.949, 0.949, 0.314, 374.802, 115.911)" fill="none" stroke="#0c0d0c" stroke-width="2"/>
        <path id="Tracé_1084" data-name="Tracé 1084" d="M385.211,139.069l-9.841,41.4,8.369,2.768,16.839-39.081Z" fill="none" stroke="#0c0d0c" stroke-width="2"/>
        <rect id="Rectangle_424" data-name="Rectangle 424" width="7.42" height="6.476" transform="matrix(0.314, -0.949, 0.949, 0.314, 373.905, 188.587)" fill="none" stroke="#0c0d0c" stroke-width="2"/>
        <line id="Ligne_185" data-name="Ligne 185" x2="10.899" y2="3.605" transform="translate(386.18 142.364)" fill="none" stroke="#0c0d0c" stroke-width="2"/>
        <path id="Tracé_1085" data-name="Tracé 1085" d="M408.483,135.335l-9.634,48.531L412.8,188.48l21.3-44.674Z" fill="none" stroke="#0c0d0c" stroke-width="2"/>
        <rect id="Rectangle_425" data-name="Rectangle 425" width="11.564" height="14.816" transform="matrix(0.314, -0.949, 0.949, 0.314, 395.178, 194.833)" fill="none" stroke="#0c0d0c" stroke-width="2"/>
        <line id="Ligne_186" data-name="Ligne 186" x2="19.596" y2="6.482" transform="translate(409.978 141.289)" fill="none" stroke="#0c0d0c" stroke-width="2"/>
        <rect id="Rectangle_426" data-name="Rectangle 426" width="47.199" height="16.605" rx="4.102" transform="matrix(0.314, -0.949, 0.949, 0.314, 422.42, 201.892)" fill="none" stroke="#0c0d0c" stroke-width="2"/>
        <line id="Ligne_187" data-name="Ligne 187" x2="4.376" y2="3.677" transform="translate(500.003 169.648)" fill="none" stroke="#0c0d0c" stroke-width="1"/>
        <line id="Ligne_188" data-name="Ligne 188" x2="4.376" y2="3.677" transform="translate(499.043 170.79)" fill="none" stroke="#0c0d0c" stroke-width="1"/>
        <line id="Ligne_189" data-name="Ligne 189" x2="4.376" y2="3.677" transform="translate(498.082 171.934)" fill="none" stroke="#0c0d0c" stroke-width="1"/>
        <line id="Ligne_190" data-name="Ligne 190" x2="4.376" y2="3.677" transform="translate(497.122 173.076)" fill="none" stroke="#0c0d0c" stroke-width="1"/>
        <line id="Ligne_191" data-name="Ligne 191" x2="4.376" y2="3.677" transform="translate(496.162 174.219)" fill="none" stroke="#0c0d0c" stroke-width="1"/>
        <line id="Ligne_192" data-name="Ligne 192" x2="4.376" y2="3.677" transform="translate(495.202 175.362)" fill="none" stroke="#0c0d0c" stroke-width="1"/>
        <line id="Ligne_193" data-name="Ligne 193" x2="4.376" y2="3.677" transform="translate(494.242 176.504)" fill="none" stroke="#0c0d0c" stroke-width="1"/>
        <path id="Rectangle_427" data-name="Rectangle 427" d="M505.736,172.179h0a2.024,2.024,0,0,1,.247,2.851l-35.706,42.495a2.023,2.023,0,0,1-2.85.248h0a2.024,2.024,0,0,1-.247-2.851l35.706-42.495A2.023,2.023,0,0,1,505.736,172.179Z" fill="none" stroke="#0c0d0c" stroke-width="2"/>
        <rect id="Rectangle_428" data-name="Rectangle 428" width="14.835" height="16.605" rx="4.507" transform="matrix(0.314, -0.949, 0.949, 0.314, 436.23, 160.139)" fill="none" stroke="#0c0d0c" stroke-width="2"/>
        <rect id="Rectangle_429" data-name="Rectangle 429" width="3.191" height="22.8" transform="matrix(0.314, -0.949, 0.949, 0.314, 459.491, 162.707)" fill="none" stroke="#0c0d0c" stroke-width="1"/>
        <rect id="Rectangle_430" data-name="Rectangle 430" width="3.191" height="22.8" transform="matrix(0.314, -0.949, 0.949, 0.314, 459.993, 161.193)" fill="none" stroke="#0c0d0c" stroke-width="1"/>
        <rect id="Rectangle_431" data-name="Rectangle 431" width="47.658" height="3.409" transform="matrix(0.314, -0.949, 0.949, 0.314, 453.51, 211.663)" fill="none" stroke="#0c0d0c" stroke-width="2"/>
        <path id="Tracé_1086" data-name="Tracé 1086" d="M383.2,90.378c-.312-.8-9.1-1.106-16.342,2.947a23.189,23.189,0,0,0-10.792,14.112l7.588,1.829a20.805,20.805,0,0,1,5.608-11.407C375.141,91.932,383.509,91.175,383.2,90.378Z" fill="none" stroke="#0c0d0c" stroke-width="2"/>
      </g>
    </g>
  </g>
</svg>
