<svg xmlns="http://www.w3.org/2000/svg" width="431.652" height="468.31" viewBox="0 0 431.652 468.31">
  <g id="Groupe_945" data-name="Groupe 945" transform="translate(-48.969 -25.294)">
    <g id="Calque_2" data-name="Calque 2">
      <path id="Tracé_2373" data-name="Tracé 2373" d="M176.852,220.634c-3.7-34.318-9.128-83.138-16.322-142.9l122.075-4.489,164.263,8.977A1039.882,1039.882,0,0,1,430.342,311.7,1035.114,1035.114,0,0,1,399.3,435.884c-43.006,12.693-106.131,23.183-174.562,3.5A277.365,277.365,0,0,1,197.506,430c-1.678-18.761-4.228-46.748-7.51-80.742C187.189,320.189,182.709,274.94,176.852,220.634Z" fill="none" stroke="#2e2e2d" stroke-width="3"/>
      <rect id="Rectangle_449" data-name="Rectangle 449" width="109.087" height="145.217" transform="translate(341.598 68.759) rotate(4.929)" fill="none" stroke="#2e2e2d" stroke-width="3"/>
      <path id="Tracé_2374" data-name="Tracé 2374" d="M281.687,76.046c-1.061,3.835-3.164,11.439,1.017,18.977.806,1.453,5.586,10.071,14.232,10.166,7.809.086,12.587-6.848,13.216-7.794,3.339-5.014,2.9-10.162,2.372-16.266-.11-1.282-1.437-15.64-6.1-16.265-2.027-.272-4.419,2.087-5.083,4.4-.654,2.277.554,3.837,2.033,7.794,1.641,4.391,3.093,8.274,2.372,11.86-.9,4.488-5.335,9.138-9.15,8.811-5.649-.483-11.006-11.969-8.133-19.316,1.861-4.757,6.6-6.3,6.1-10.166-.3-2.323-2.379-4.65-4.4-4.744C286.151,63.321,282.837,71.891,281.687,76.046Z" fill="none" stroke="#2e2e2d" stroke-width="3"/>
      <path id="Tracé_2375" data-name="Tracé 2375" d="M280.332,60.8c.558-5.828,1.9-19.855,13.893-28.126,7.814-5.389,20.786-8.792,31.176-2.372,11.3,6.98,12.254,20.665,12.539,24.737,1.071,15.348-7.8,29.471-19.655,36.6-3.565,2.143-15.108,9.023-25.235,4.391C277.941,89.114,280.118,63.029,280.332,60.8Z" fill="none" stroke="#2e2e2d" stroke-width="3"/>
      <path id="Tracé_2376" data-name="Tracé 2376" d="M295.92,42.837A22.141,22.141,0,0,1,308.8,35.382c.58-.092,10.971-1.581,17.282,5.422,6.386,7.086,3.721,17.455,2.372,22.7-2.614,10.171-9.013,16.124-12.538,19.316-4.147,3.754-12.041,10.9-17.96,8.472-3.778-1.551-5-6.284-6.439-12.2C289.728,71.756,285.5,54.389,295.92,42.837Z" fill="none" stroke="#2e2e2d" stroke-width="3"/>
      <g id="Groupe_939" data-name="Groupe 939">
        <path id="Tracé_2377" data-name="Tracé 2377" d="M103.153,472.831c2.9,6.493,2.729,9.427,8.6,11.865,7.481,3.1,22.894,1.2,31.23,1.6,25.518,1.242,50.864.523,76.328,1.28,16.038.477,31-4.061,46.824-5.3,18.728-1.464,38.472-.962,57.3-.589,25.983.515,54.048,4.668,79.824,2.514,19.6-1.636,44.356,3.132,63.062-3.192" fill="none" stroke="#e6d5c6" stroke-linecap="round" stroke-linejoin="round" stroke-width="12"/>
        <path id="Tracé_2378" data-name="Tracé 2378" d="M379.222,470.459c-18.155.95-87.579,1.716-277.014,1.636-1,4.06-1.478,9.166,1.335,12.386a9.515,9.515,0,0,0,5.512,2.856c17.115,3.245,232.528-4.677,276.909-2.227,3.063.169,19.79.477,42.986.531,15.988.038,29.316-.109,38.742-.257a40.524,40.524,0,0,0,1.5-5.076,13.749,13.749,0,0,0,.545-3.858,11.988,11.988,0,0,0-1.653-5.01s-36.288.043-59.816-1.055C405.526,470.257,397.512,469.5,379.222,470.459Z" fill="none" stroke="#2e2e2d" stroke-linecap="round" stroke-width="3"/>
        <line id="Ligne_239" data-name="Ligne 239" x1="0.361" y2="25.013" transform="translate(412.305 450.433)" fill="none" stroke="#2e2e2d" stroke-linecap="round" stroke-width="3"/>
        <line id="Ligne_240" data-name="Ligne 240" x1="0.361" y2="25.013" transform="translate(416.906 450.499)" fill="none" stroke="#2e2e2d" stroke-linecap="round" stroke-width="3"/>
        <line id="Ligne_241" data-name="Ligne 241" x1="0.361" y2="25.013" transform="translate(421.507 450.566)" fill="none" stroke="#2e2e2d" stroke-linecap="round" stroke-width="3"/>
        <line id="Ligne_242" data-name="Ligne 242" x1="0.361" y2="25.013" transform="translate(426.109 450.632)" fill="none" stroke="#2e2e2d" stroke-linecap="round" stroke-width="3"/>
        <line id="Ligne_243" data-name="Ligne 243" x1="0.361" y2="25.013" transform="translate(430.414 450.694)" fill="none" stroke="#2e2e2d" stroke-linecap="round" stroke-width="3"/>
        <line id="Ligne_244" data-name="Ligne 244" x1="0.361" y2="25.013" transform="translate(435.015 450.761)" fill="none" stroke="#2e2e2d" stroke-linecap="round" stroke-width="3"/>
        <line id="Ligne_245" data-name="Ligne 245" x1="0.361" y2="25.013" transform="translate(439.616 450.827)" fill="none" stroke="#2e2e2d" stroke-linecap="round" stroke-width="3"/>
        <line id="Ligne_246" data-name="Ligne 246" x1="0.361" y2="25.013" transform="translate(444.218 450.893)" fill="none" stroke="#2e2e2d" stroke-linecap="round" stroke-width="3"/>
        <line id="Ligne_247" data-name="Ligne 247" x1="0.361" y2="25.013" transform="translate(449.077 450.964)" fill="none" stroke="#2e2e2d" stroke-linecap="round" stroke-width="3"/>
        <line id="Ligne_248" data-name="Ligne 248" x1="0.361" y2="25.013" transform="translate(453.679 451.03)" fill="none" stroke="#2e2e2d" stroke-linecap="round" stroke-width="3"/>
        <line id="Ligne_249" data-name="Ligne 249" x1="0.361" y2="25.013" transform="translate(458.28 451.096)" fill="none" stroke="#2e2e2d" stroke-linecap="round" stroke-width="3"/>
        <line id="Ligne_250" data-name="Ligne 250" x1="0.361" y2="25.013" transform="translate(462.882 451.163)" fill="none" stroke="#2e2e2d" stroke-linecap="round" stroke-width="3"/>
      </g>
      <path id="Tracé_2379" data-name="Tracé 2379" d="M392.56,231.153" stroke="#2e2e2d" stroke-width="3"/>
      <g id="Groupe_940" data-name="Groupe 940">
        <path id="Tracé_2380" data-name="Tracé 2380" d="M343.6,265.01c2.006,19.546-.845,25.564-4.2,27.072-1.125.505-1.8.275-5.125.56a58.432,58.432,0,0,0-14.635,3.1c-9.915,4.068-5.012,39.754-3.933,64.837a289.733,289.733,0,0,1-3.3,57.253" fill="none" stroke="#eac4cc" stroke-linecap="round" stroke-linejoin="round" stroke-width="17"/>
        <path id="Tracé_635" data-name="Tracé 635" d="M337.723,256.708c-.077.728,8.026,2.415,15.851,2.986,5.759.421,12.681.332,12.731-.331.058-.71-7.8-2.026-14.251-2.613C345.973,256.2,337.8,255.984,337.723,256.708Z" fill="none" stroke="#2e2e2d" stroke-width="3"/>
        <path id="Tracé_636" data-name="Tracé 636" d="M337.813,257.218c-.591,5.83-1.057,11.948-1.353,18.331q-.318,6.871-.352,13.333a58.976,58.976,0,0,0,6.543,1.663,63.261,63.261,0,0,0,11.438,1.088,65.984,65.984,0,0,0,10.078-.7q.216-5.893.581-12,.608-10.08,1.562-19.568a71.488,71.488,0,0,1-28.49-2.146Z" fill="none" stroke="#2e2e2d" stroke-width="3"/>
        <rect id="Rectangle_450" data-name="Rectangle 450" width="74.855" height="142.724" rx="14.49" transform="translate(312.478 287.293) rotate(3.103)" fill="none" stroke="#2e2e2d" stroke-width="3"/>
      </g>
      <g id="Groupe_941" data-name="Groupe 941">
        <path id="Tracé_2381" data-name="Tracé 2381" d="M355.5,432.88c3.966-9.785.851-22.519,2.032-33.122,1.776-15.939,5-39.1,15.336-52.933" fill="none" stroke="#eac4cc" stroke-linecap="round" stroke-linejoin="round" stroke-width="12"/>
        <path id="Tracé_638" data-name="Tracé 638" d="M357.569,378.813a40.031,40.031,0,0,0,31.718,4.006q-1.873,19.1-4.7,39.145-.942,6.612-1.963,13.093a15,15,0,0,1-5.606,2.924,20.788,20.788,0,0,1-6.578.475,41.535,41.535,0,0,1-7.672-.942,23.042,23.042,0,0,1-5.945-1.794,16.105,16.105,0,0,1-5.915-5.136q2.028-15.408,4-30.824Q356.251,389.288,357.569,378.813Z" fill="none" stroke="#2e2e2d" stroke-linecap="round" stroke-width="3"/>
        <path id="Tracé_639" data-name="Tracé 639" d="M359.048,368.7c.777-4.992,1.3-8.854,1.614-11.247.558-4.27,1.032-8.406,3.152-11.294a17.5,17.5,0,0,1,2.969-3.063,14.573,14.573,0,0,1,2.726-1.688c6.128-2.861,14.873-1.506,19.449,3.2a12.74,12.74,0,0,1,1.809,2.4A20.117,20.117,0,0,1,392,349.49c1.84,4.623.5,11.7.5,11.7-1.01,5.33-1.933,11.775-2.971,19.85a37.622,37.622,0,0,1-5.317,1.195,42.9,42.9,0,0,1-22.361-3.04,36.924,36.924,0,0,1-4.008-2.1Q358.445,372.9,359.048,368.7Z" fill="none" stroke="#2e2e2d" stroke-linecap="round" stroke-width="3"/>
        <path id="Tracé_2382" data-name="Tracé 2382" d="M358.728,375.163c1.683,2.676,11.956,4.523,15.376,5.022,2.848.416,14.2.945,15.022-1.944" fill="none" stroke="#2e2e2d" stroke-linecap="round" stroke-width="3"/>
        <path id="Tracé_2383" data-name="Tracé 2383" d="M358.895,372.95c1.683,2.676,11.956,4.522,15.376,5.022,2.848.416,14.2.945,15.022-1.944" fill="none" stroke="#2e2e2d" stroke-linecap="round" stroke-width="3"/>
      </g>
      <g id="Groupe_942" data-name="Groupe 942">
        <path id="Tracé_2384" data-name="Tracé 2384" d="M77.757,438.651c8.476.847,14.183,8.017,22.373,10.743,8.431,2.807,25.768-2.607,34.69-4.13,13.119-2.239,26.111-6.566,39.1-9.785,18.173-4.5,28.558-11.205,42.985-22.081" fill="none" stroke="#eac4cc" stroke-linecap="round" stroke-linejoin="round" stroke-width="17"/>
        <path id="Tracé_2385" data-name="Tracé 2385" d="M50.739,394.365l26.746-18.186,98.535-15.872L192.047,371.2,223.9,413.327l-15.965,13.629L100.71,456.9c-3.639-3.922-8.768-8.032-14.659-7.681-3.576.214-5.156,1.934-6.916,2.185C73.941,452.149,65.436,440.347,50.739,394.365Z" fill="none" stroke="#222221" stroke-width="3"/>
        <path id="Tracé_2386" data-name="Tracé 2386" d="M94.23,441.8c1.763,4.951,3.007,10.983,6.575,15.214" fill="none" stroke="#222221" stroke-width="3"/>
        <path id="Tracé_2387" data-name="Tracé 2387" d="M84.941,448.739c2.249-10.064,12.666-20.166,19.434-26.09" fill="none" stroke="#222221" stroke-width="3"/>
        <path id="Tracé_2388" data-name="Tracé 2388" d="M79.638,383.615a64.229,64.229,0,0,0,4.679,13.015,65.2,65.2,0,0,0,15.208,20.029" fill="none" stroke="#222221" stroke-width="3"/>
        <path id="Tracé_2389" data-name="Tracé 2389" d="M191.8,399.675l-87.424,22.974" fill="none" stroke="#222221" stroke-width="3"/>
        <path id="Tracé_2390" data-name="Tracé 2390" d="M175.841,360.3l21.008,32.343" fill="none" stroke="#222221" stroke-width="3"/>
        <path id="Tracé_2391" data-name="Tracé 2391" d="M204.616,403.274a76.377,76.377,0,0,1,7.726,5.021c2.809,1.912,6.343,5.144,9.575,6.136" fill="none" stroke="#222221" stroke-width="3"/>
        <path id="Tracé_2392" data-name="Tracé 2392" d="M206.655,412.792a51.988,51.988,0,0,1,1.327,12.775" fill="none" stroke="#222221" stroke-width="3"/>
        <path id="Tracé_2393" data-name="Tracé 2393" d="M55.521,396.147c2.083,6.388,4.494,13.08,7.293,20.01a310.133,310.133,0,0,0,13.1,28.253" fill="none" stroke="#222221" stroke-width="3"/>
        <path id="Tracé_2394" data-name="Tracé 2394" d="M218.235,412.076c-3.572-5.69-7.537-11.6-11.936-17.638a310.325,310.325,0,0,0-19.571-24.224" fill="none" stroke="#222221" stroke-width="3"/>
        <path id="Tracé_2395" data-name="Tracé 2395" d="M135.649,377.084c-5.835,1.049-8.966,1.282-18,3.088-9,1.8-11.937,2.754-13.727,5.523-2.278,3.524-1.866,8.412-.068,11.848,2.816,5.379,8.784,6.727,11.187,7.27,5.645,1.275,8.461-.338,20.63-3.564,9.264-2.456,18.439-5.237,27.69-7.74,4.494-1.217,8.406-2.243,9.545-5.341,1.435-3.9-2.393-8.73-3.141-9.63a15.793,15.793,0,0,0-6.524-4.57C155.963,371.152,150.967,374.328,135.649,377.084Z" fill="none" stroke="#222221" stroke-width="3"/>
      </g>
      <g id="Groupe_943" data-name="Groupe 943">
        <path id="Tracé_2396" data-name="Tracé 2396" d="M196.338,224.123c-5.65,11.031,2.473,32.24,5.147,43.562,3.466,14.68,8.165,29.27,11.549,44.153,6.386,28.084,11.534,57.979,20.584,85.193,3.952,11.885,12.6,27.758,12.835,40.07" fill="none" stroke="#e3aead" stroke-linecap="round" stroke-linejoin="round" stroke-width="20"/>
        <path id="Tracé_2397" data-name="Tracé 2397" d="M188.166,222.442,288.64,207.031l1.092,7.88L189.28,230.484Z" fill="none" stroke="#2e2e2d" stroke-width="3"/>
        <path id="Tracé_2398" data-name="Tracé 2398" d="M189.026,233.3l100.44-15.654,2.6,174.65a91.152,91.152,0,0,1-28.831,9.82,93.28,93.28,0,0,1-32.244-.2Q210.007,317.611,189.026,233.3Z" fill="none" stroke="#2e2e2d" stroke-width="3"/>
        <path id="Tracé_2399" data-name="Tracé 2399" d="M295.1,429.408a101.858,101.858,0,0,1-56.077,8.212l-7.057-32.988a80.01,80.01,0,0,0,31.228.96,78.9,78.9,0,0,0,29.216-11Z" fill="none" stroke="#2e2e2d" stroke-width="3"/>
      </g>
      <g id="Groupe_944" data-name="Groupe 944">
        <path id="Tracé_2400" data-name="Tracé 2400" d="M409.658,225.234c4.969,16.606,1.962,39.66,2.927,57,1.092,19.612,4.53,38.935,5.358,58.519.742,17.552,2.533,35.523,4.44,53.159,1.351,12.488-.185,30.34,4.043,42.137" fill="none" stroke="#e6d5c6" stroke-linecap="round" stroke-linejoin="round" stroke-width="14"/>
        <path id="Tracé_2401" data-name="Tracé 2401" d="M407.051,221.087l71.929-1.721v9.267l-71.929,1.912Z" fill="none" stroke="#2e2e2d" stroke-width="3"/>
        <path id="Tracé_2402" data-name="Tracé 2402" d="M407.051,233.936l71.93-1.721q-7.57,86.6-15.14,173.189a48.557,48.557,0,0,1-43.748,1.151Q413.573,320.246,407.051,233.936Z" fill="none" stroke="#2e2e2d" stroke-width="3"/>
        <path id="Tracé_2403" data-name="Tracé 2403" d="M462.432,438.186a61.519,61.519,0,0,1-40.785.38l-1.774-29.1a48.989,48.989,0,0,0,44.079-1.424Z" fill="none" stroke="#2e2e2d" stroke-width="3"/>
      </g>
    </g>
  </g>
</svg>
