<svg xmlns="http://www.w3.org/2000/svg" width="355.179" height="452.469" viewBox="0 0 355.179 452.469">
  <g id="Groupe_956" data-name="Groupe 956" transform="translate(-130.683 -97.818)">
    <g id="Calque_2" data-name="Calque 2">
      <path id="Tracé_2475" data-name="Tracé 2475" d="M148.12,292.658c-3.7-34.318-9.128-83.138-16.321-142.9l122.074-4.488,164.263,8.976A1039.878,1039.878,0,0,1,401.61,383.727a1035.107,1035.107,0,0,1-31.047,124.181C327.557,520.6,264.432,531.091,196,511.411a277.268,277.268,0,0,1-27.226-9.388c-1.679-18.761-4.229-46.748-7.511-80.742C158.457,392.213,153.977,346.964,148.12,292.658Z" fill="none" stroke="#2e2e2d" stroke-width="2"/>
      <rect id="Rectangle_451" data-name="Rectangle 451" width="109.087" height="145.217" transform="translate(312.866 140.783) rotate(4.929)" fill="none" stroke="#2e2e2d" stroke-width="2"/>
      <path id="Tracé_2476" data-name="Tracé 2476" d="M252.955,148.07c-1.061,3.835-3.164,11.439,1.017,18.977.806,1.453,5.586,10.071,14.232,10.166,7.809.086,12.587-6.848,13.216-7.794,3.339-5.014,2.9-10.162,2.372-16.266-.11-1.282-1.437-15.64-6.1-16.265-2.027-.272-4.418,2.087-5.083,4.4-.654,2.277.554,3.837,2.033,7.794,1.641,4.391,3.093,8.274,2.372,11.86-.9,4.488-5.335,9.138-9.15,8.811-5.648-.483-11.006-11.969-8.132-19.315,1.86-4.758,6.6-6.3,6.1-10.167-.3-2.323-2.379-4.649-4.4-4.744C257.419,135.346,254.1,143.915,252.955,148.07Z" fill="none" stroke="#2e2e2d" stroke-width="2"/>
      <path id="Tracé_2477" data-name="Tracé 2477" d="M251.6,132.821c.558-5.828,1.9-19.855,13.893-28.126,7.814-5.389,20.786-8.792,31.176-2.372,11.3,6.98,12.254,20.666,12.539,24.737,1.071,15.348-7.8,29.471-19.655,36.6-3.565,2.143-15.108,9.023-25.235,4.391C249.209,161.138,251.386,135.053,251.6,132.821Z" fill="none" stroke="#2e2e2d" stroke-width="2"/>
      <path id="Tracé_2478" data-name="Tracé 2478" d="M267.188,114.861a22.141,22.141,0,0,1,12.877-7.455c.581-.092,10.971-1.581,17.282,5.422,6.386,7.086,3.721,17.455,2.372,22.7-2.614,10.171-9.012,16.124-12.538,19.316-4.147,3.754-12.041,10.9-17.96,8.472-3.778-1.551-5-6.284-6.439-12.2C261,143.78,256.771,126.413,267.188,114.861Z" fill="none" stroke="#2e2e2d" stroke-width="2"/>
      <g id="Groupe_951" data-name="Groupe 951">
        <path id="Tracé_2479" data-name="Tracé 2479" d="M478.419,524.522c-6.827-2-9.71-1.427-12.921-6.917-4.089-6.991-4.289-22.521-5.821-30.724-4.688-25.116-7.41-50.325-11.61-75.451-2.645-15.826-.177-31.266-1.1-47.111-1.088-18.753-4.26-38.247-7.181-56.854-4.031-25.673-11.948-52.917-13.308-78.747C425.45,209.08,417.371,185.2,421.1,165.8" fill="none" stroke="#e6d5c6" stroke-linecap="round" stroke-linejoin="round" stroke-width="12"/>
        <path id="Tracé_2480" data-name="Tracé 2480" d="M443.362,250.678c1.519,18.116,10.166,87,35.914,274.681-3.888,1.537-8.881,2.706-12.453.355a9.519,9.519,0,0,1-3.577-5.074c-5.534-16.518-26.873-231.017-35.313-274.657-.583-3.012-3.154-19.543-6.351-42.517-2.2-15.836-3.864-29.062-4.995-38.42a40.521,40.521,0,0,1,4.826-2.173,13.725,13.725,0,0,1,3.749-1.063,11.978,11.978,0,0,1,5.187.959s4.874,35.959,9.15,59.121C440,224.589,441.832,232.427,443.362,250.678Z" fill="none" stroke="#2e2e2d" stroke-linecap="round" stroke-width="2"/>
        <line id="Ligne_251" data-name="Ligne 251" x1="24.733" y2="3.747" transform="translate(433.939 214.829)" fill="none" stroke="#2e2e2d" stroke-linecap="round" stroke-width="2"/>
        <line id="Ligne_252" data-name="Ligne 252" x1="24.733" y2="3.747" transform="translate(433.25 210.279)" fill="none" stroke="#2e2e2d" stroke-linecap="round" stroke-width="2"/>
        <line id="Ligne_253" data-name="Ligne 253" x1="24.733" y2="3.747" transform="translate(432.56 205.729)" fill="none" stroke="#2e2e2d" stroke-linecap="round" stroke-width="2"/>
        <line id="Ligne_254" data-name="Ligne 254" x1="24.733" y2="3.747" transform="translate(431.871 201.179)" fill="none" stroke="#2e2e2d" stroke-linecap="round" stroke-width="2"/>
        <line id="Ligne_255" data-name="Ligne 255" x1="24.733" y2="3.747" transform="translate(431.226 196.922)" fill="none" stroke="#2e2e2d" stroke-linecap="round" stroke-width="2"/>
        <line id="Ligne_256" data-name="Ligne 256" x1="24.733" y2="3.747" transform="translate(430.537 192.372)" fill="none" stroke="#2e2e2d" stroke-linecap="round" stroke-width="2"/>
        <line id="Ligne_257" data-name="Ligne 257" x1="24.733" y2="3.747" transform="translate(429.848 187.822)" fill="none" stroke="#2e2e2d" stroke-linecap="round" stroke-width="2"/>
        <line id="Ligne_258" data-name="Ligne 258" x1="24.733" y2="3.747" transform="translate(429.158 183.272)" fill="none" stroke="#2e2e2d" stroke-linecap="round" stroke-width="2"/>
        <line id="Ligne_259" data-name="Ligne 259" x1="24.733" y2="3.747" transform="translate(428.43 178.467)" fill="none" stroke="#2e2e2d" stroke-linecap="round" stroke-width="2"/>
        <line id="Ligne_260" data-name="Ligne 260" x1="24.733" y2="3.747" transform="translate(427.741 173.917)" fill="none" stroke="#2e2e2d" stroke-linecap="round" stroke-width="2"/>
        <line id="Ligne_261" data-name="Ligne 261" x1="24.733" y2="3.747" transform="translate(427.052 169.367)" fill="none" stroke="#2e2e2d" stroke-linecap="round" stroke-width="2"/>
        <line id="Ligne_262" data-name="Ligne 262" x1="24.733" y2="3.747" transform="translate(426.362 164.817)" fill="none" stroke="#2e2e2d" stroke-linecap="round" stroke-width="2"/>
      </g>
      <path id="Tracé_2481" data-name="Tracé 2481" d="M363.828,303.177" stroke="#2e2e2d" stroke-width="2"/>
      <g id="Groupe_952" data-name="Groupe 952">
        <path id="Tracé_2482" data-name="Tracé 2482" d="M336.874,382.507c3.01,19.417.473,25.573-2.8,27.252-1.1.562-1.78.368-5.089.824a58.43,58.43,0,0,0-14.456,3.85c-9.693,4.573-2.957,39.959-.588,64.954a289.73,289.73,0,0,1-.351,57.346" fill="none" stroke="#e6d5c6" stroke-linecap="round" stroke-linejoin="round" stroke-width="17"/>
        <path id="Tracé_635" data-name="Tracé 635" d="M330.578,374.519c-.039.731,8.14,2,15.984,2.166,5.773.123,12.682-.322,12.7-.987.022-.712-7.894-1.621-14.367-1.876C338.791,373.583,330.617,373.791,330.578,374.519Z" fill="none" stroke="#2e2e2d" stroke-width="2"/>
        <path id="Tracé_636" data-name="Tracé 636" d="M330.694,375.023c-.289,5.853-.44,11.987-.407,18.377q.038,6.877.336,13.334a59.412,59.412,0,0,0,6.62,1.323,63.383,63.383,0,0,0,11.479.5,66.059,66.059,0,0,0,10.028-1.223q-.088-5.9-.037-12.011.085-10.1.551-19.622a71.487,71.487,0,0,1-28.563-.676Z" fill="none" stroke="#2e2e2d" stroke-width="2"/>
        <rect id="Rectangle_452" data-name="Rectangle 452" width="74.855" height="142.724" rx="14.49" transform="translate(306.942 406.364) rotate(0.151)" fill="none" stroke="#2e2e2d" stroke-width="2"/>
      </g>
      <path id="Tracé_2483" data-name="Tracé 2483" d="M166.5,284.387c-6.576,10.505-.306,32.334,1.385,43.843,2.193,14.924,5.62,29.864,7.713,44.982,3.949,28.53,6.51,58.756,13.188,86.647,2.916,12.181,10.166,28.738,9.344,41.025" fill="none" stroke="#e6d5c6" stroke-linecap="round" stroke-linejoin="round" stroke-width="15"/>
      <path id="Tracé_2484" data-name="Tracé 2484" d="M158.5,282.011l101.426-6.721.411,7.944L158.92,290.119Z" fill="none" stroke="#2e2e2d" stroke-width="2"/>
      <path id="Tracé_2485" data-name="Tracé 2485" d="M158.425,292.9l101.413-6.966q-6.209,87.114-12.418,174.227a91.149,91.149,0,0,1-29.568,7.307,93.28,93.28,0,0,1-32.108-2.966Q172.085,378.7,158.425,292.9Z" fill="none" stroke="#2e2e2d" stroke-width="2"/>
      <path id="Tracé_2486" data-name="Tracé 2486" d="M247.255,497.4a101.856,101.856,0,0,1-56.575,3.363l-4.2-33.472a80.011,80.011,0,0,0,31.03,3.64,78.885,78.885,0,0,0,30.053-8.444Z" fill="none" stroke="#2e2e2d" stroke-width="2"/>
      <g id="Groupe_954" data-name="Groupe 954">
        <g id="Groupe_953" data-name="Groupe 953">
          <path id="Tracé_2488" data-name="Tracé 2488" d="M232.862,294.039c-7.455,9.9-3.083,32.188-2.387,43.8.9,15.057,3.032,30.237,3.818,45.479,1.484,28.763,1.438,59.1,5.694,87.46,1.859,12.385,7.66,29.5,5.785,41.675" fill="none" stroke="#e0af90" stroke-linecap="round" stroke-linejoin="round" stroke-width="11"/>
          <path id="Tracé_2489" data-name="Tracé 2489" d="M225.1,290.985,326.727,293l-.274,7.95L224.819,299.1Z" fill="none" stroke="#2e2e2d" stroke-width="2"/>
          <path id="Tracé_2490" data-name="Tracé 2490" d="M295.017,513.2a101.867,101.867,0,0,1-56.655-1.511l-1.3-33.709a79.994,79.994,0,0,0,30.6,6.293,78.9,78.9,0,0,0,30.668-5.831Z" fill="none" stroke="#2e2e2d" stroke-width="2"/>
        </g>
        <path id="Tracé_2487" data-name="Tracé 2487" d="M224.086,301.831l101.638,1.774q-13.672,86.257-27.343,172.516a91.165,91.165,0,0,1-30.087,4.738,93.261,93.261,0,0,1-31.734-5.713Z" fill="none" stroke="#2e2e2d" stroke-width="2"/>
      </g>
      <g id="Groupe_955" data-name="Groupe 955">
        <path id="Tracé_2491" data-name="Tracé 2491" d="M387.679,313.608c4.063,16.85-.187,39.708-.162,57.071.028,19.642,2.415,39.123,2.182,58.723-.209,17.566.606,35.608,1.556,53.321.672,12.543-1.828,30.285,1.755,42.294" fill="none" stroke="#e0af90" stroke-linecap="round" stroke-linejoin="round" stroke-width="14"/>
        <path id="Tracé_2492" data-name="Tracé 2492" d="M385.3,309.326l71.917,2.175-.5,9.253L384.79,318.77Z" fill="none" stroke="#2e2e2d" stroke-width="2"/>
        <path id="Tracé_2493" data-name="Tracé 2493" d="M384.606,322.156l71.917,2.175q-12.246,86.058-24.493,172.116a48.557,48.557,0,0,1-43.747-1.219Q386.444,408.691,384.606,322.156Z" fill="none" stroke="#2e2e2d" stroke-width="2"/>
        <path id="Tracé_2494" data-name="Tracé 2494" d="M428.848,529.1a61.513,61.513,0,0,1-40.746-1.829l-.195-29.155a48.99,48.99,0,0,0,44.091.964Z" fill="none" stroke="#2e2e2d" stroke-width="2"/>
      </g>
    </g>
  </g>
</svg>
