<svg xmlns="http://www.w3.org/2000/svg" width="165.929" height="101.914" viewBox="0 0 165.929 101.914">
  <g id="Calque_2" data-name="Calque 2" transform="translate(-251.569 -246.683)">
    <g id="Groupe_572" data-name="Groupe 572">
      <path id="Tracé_287" data-name="Tracé 287" d="M272.027,264.354v68.267a15.028,15.028,0,0,0,15.08,14.976H401.418A15.026,15.026,0,0,0,416.5,332.621V264.354Z" fill="none" stroke="#353434" stroke-width="2"/>
      <rect id="Rectangle_302" data-name="Rectangle 302" width="144.471" height="25.356" transform="translate(272.027 247.931)" fill="none" stroke="#353434" stroke-width="2"/>
      <path id="Tracé_288" data-name="Tracé 288" d="M288.31,291.054l3.471,40.238h8.367q1.764-20.118,3.526-40.238Z" fill="none" stroke="#353434" stroke-width="2"/>
      <rect id="Rectangle_303" data-name="Rectangle 303" width="6.147" height="7.043" transform="translate(292.918 331.292)" fill="none" stroke="#353434" stroke-width="2"/>
      <line id="Ligne_32" data-name="Ligne 32" x2="10.896" transform="translate(290.165 293.735)" fill="none" stroke="#353434" stroke-width="2"/>
      <path id="Tracé_289" data-name="Tracé 289" d="M308.173,280.752q2.892,23.3,5.785,46.607H327.9l5.875-46.607Z" fill="none" stroke="#353434" stroke-width="2"/>
      <rect id="Rectangle_304" data-name="Rectangle 304" width="14.063" height="10.976" transform="translate(313.914 327.359)" fill="none" stroke="#353434" stroke-width="2"/>
      <line id="Ligne_33" data-name="Ligne 33" x2="19.591" transform="translate(311.29 285.672)" fill="none" stroke="#353434" stroke-width="2"/>
      <rect id="Rectangle_305" data-name="Rectangle 305" width="15.761" height="44.801" rx="4.102" transform="translate(340.567 291.777)" fill="none" stroke="#353434" stroke-width="2"/>
      <g id="Groupe_570" data-name="Groupe 570">
        <line id="Ligne_34" data-name="Ligne 34" x2="5.04" y2="2.009" transform="translate(400.871 284.394)" fill="none" stroke="#353434" stroke-width="2"/>
        <line id="Ligne_35" data-name="Ligne 35" x2="5.04" y2="2.009" transform="translate(400.346 285.71)" fill="none" stroke="#353434" stroke-width="2"/>
        <line id="Ligne_36" data-name="Ligne 36" x2="5.04" y2="2.009" transform="translate(399.822 287.026)" fill="none" stroke="#353434" stroke-width="2"/>
        <line id="Ligne_37" data-name="Ligne 37" x2="5.04" y2="2.009" transform="translate(399.297 288.342)" fill="none" stroke="#353434" stroke-width="2"/>
        <line id="Ligne_38" data-name="Ligne 38" x2="5.04" y2="2.009" transform="translate(398.772 289.658)" fill="none" stroke="#353434" stroke-width="2"/>
        <line id="Ligne_39" data-name="Ligne 39" x2="5.04" y2="2.009" transform="translate(398.248 290.974)" fill="none" stroke="#353434" stroke-width="2"/>
        <line id="Ligne_40" data-name="Ligne 40" x2="5.04" y2="2.009" transform="translate(397.723 292.29)" fill="none" stroke="#353434" stroke-width="2"/>
        <path id="Rectangle_306" data-name="Rectangle 306" d="M406.793,284.966h0a1.92,1.92,0,0,1,1.072,2.495L388.355,336.4a1.919,1.919,0,0,1-2.494,1.073h0a1.921,1.921,0,0,1-1.073-2.495l19.51-48.939A1.921,1.921,0,0,1,406.793,284.966Z" fill="none" stroke="#353434" stroke-width="2"/>
      </g>
      <rect id="Rectangle_307" data-name="Rectangle 307" width="15.761" height="14.081" rx="4.507" transform="translate(340.567 280.752)" fill="none" stroke="#353434" stroke-width="2"/>
      <g id="Groupe_571" data-name="Groupe 571">
        <rect id="Rectangle_308" data-name="Rectangle 308" width="21.641" height="3.029" transform="translate(362.295 287.186)" fill="none" stroke="#353434" stroke-width="1"/>
        <rect id="Rectangle_309" data-name="Rectangle 309" width="21.641" height="3.029" transform="translate(362.295 285.672)" fill="none" stroke="#353434" stroke-width="1"/>
        <rect id="Rectangle_310" data-name="Rectangle 310" width="3.236" height="45.236" transform="translate(371.498 290.879)" fill="none" stroke="#353434" stroke-width="2"/>
      </g>
      <path id="Tracé_290" data-name="Tracé 290" d="M271.98,247.776c-.52-.626-8.533,1.717-13.846,7.528a22.014,22.014,0,0,0-5.52,15.934l7.385-.614a19.747,19.747,0,0,1,1.652-11.952C265.184,251.577,272.5,248.4,271.98,247.776Z" fill="none" stroke="#353434" stroke-width="2"/>
    </g>
  </g>
</svg>
