<svg xmlns="http://www.w3.org/2000/svg" width="345.153" height="456.897" viewBox="0 0 345.153 456.897">
  <g id="Groupe_932" data-name="Groupe 932" transform="translate(-120.515 -72.848)">
    <g id="Calque_3" data-name="Calque 3">
      <path id="Tracé_2206" data-name="Tracé 2206" d="M349.983,231.762c3.278,2.178,11.1,2.319,15.32,2.577,13.63.834,27.345.5,40.995,1.169,17.531.858,34.832,3.436,52.186-.525" fill="none" stroke="#16999a" stroke-linecap="round" stroke-linejoin="round" stroke-width="12"/>
      <path id="Tracé_2207" data-name="Tracé 2207" d="M352.421,246.258c4.034,2.129,12.963.514,18.15.539,7.63.037,14.751.137,22.335-.31,17.621-1.04,36.432.348,54.184.308h-2.626" fill="none" stroke="#16999a" stroke-linecap="round" stroke-linejoin="round" stroke-width="24"/>
      <path id="Tracé_2208" data-name="Tracé 2208" d="M352.421,258.07c11.838,5.889,32.033.263,45.033,1.049,16.751,1.013,33.274,1.636,50.058,1.636" fill="none" stroke="#16999a" stroke-linecap="round" stroke-linejoin="round" stroke-width="24"/>
      <path id="Tracé_2209" data-name="Tracé 2209" d="M302.734,143.171c-5.572-9.119-9.233-26.026-6.424-36.408C299.8,93.875,314.537,78.67,328.542,78.85c15.426.2,19.246,11.528,20.391,25.171.739,8.807-1.6,17.549-5.37,25.372-4,8.289-22.23,27.129-29.554,11.093" fill="none" stroke="#16999a" stroke-linecap="round" stroke-linejoin="round" stroke-width="12"/>
      <path id="Tracé_2210" data-name="Tracé 2210" d="M300.05,121.694c-2.3,8.829-.638,27.093,11.482,27.918,13.4.912,12.113-21.43,4.625-27.918" fill="none" stroke="#16999a" stroke-linecap="round" stroke-linejoin="round" stroke-width="12"/>
      <path id="Tracé_2211" data-name="Tracé 2211" d="M330.148,231.166c-12.173-4.528-18.008,21.325-1.867,21.469" fill="none" stroke="#2e2e2d" stroke-linecap="round" stroke-width="1.05"/>
      <path id="Tracé_2212" data-name="Tracé 2212" d="M313.345,220.9c1.2,2.164,2.828,4.013,4.2,6.067" fill="none" stroke="#2e2e2d" stroke-linecap="round" stroke-width="1.05"/>
      <path id="Tracé_2213" data-name="Tracé 2213" d="M304.944,237.233a18.318,18.318,0,0,1,5.134,1.867" fill="none" stroke="#2e2e2d" stroke-linecap="round" stroke-width="1.05"/>
      <path id="Tracé_2214" data-name="Tracé 2214" d="M308.211,256.369c1.522-1.391,3-2.934,4.668-4.2" fill="none" stroke="#2e2e2d" stroke-linecap="round" stroke-width="1.05"/>
      <path id="Tracé_2215" data-name="Tracé 2215" d="M328.281,259.636c-.1,1.728-.335,3.426-.467,5.134" fill="none" stroke="#2e2e2d" stroke-linecap="round" stroke-width="1.05"/>
      <g id="Groupe_926" data-name="Groupe 926">
        <path id="Tracé_2216" data-name="Tracé 2216" d="M246.257,206.02c1.062-.925,7.037-6.17,10-5.344.987,4.665-4.065,7.353-7.115,10.034" fill="none" stroke="#2e2e2d" stroke-linecap="round" stroke-linejoin="round" stroke-width="1.05"/>
        <path id="Tracé_2217" data-name="Tracé 2217" d="M245.438,205.988c-1.709.027-3.484-.726-5.192-1.03-3.821-.678-7.7-.949-11.475-1.866" fill="none" stroke="#2e2e2d" stroke-linecap="round" stroke-linejoin="round" stroke-width="1.05"/>
        <path id="Tracé_2218" data-name="Tracé 2218" d="M228.117,203.871a2.245,2.245,0,0,0,.129,2.546c.735.882,2.134.812,3.134,1.082A73.74,73.74,0,0,1,238.539,210" fill="none" stroke="#2e2e2d" stroke-linecap="round" stroke-linejoin="round" stroke-width="1.05"/>
        <path id="Tracé_2219" data-name="Tracé 2219" d="M249.317,210.489c-.159,1.7.456,3.529.627,5.255.382,3.863.353,7.755.977,11.585" fill="none" stroke="#2e2e2d" stroke-linecap="round" stroke-linejoin="round" stroke-width="1.05"/>
        <path id="Tracé_2220" data-name="Tracé 2220" d="M250.093,227.921a2.245,2.245,0,0,1-2.528-.324c-.823-.8-.645-2.19-.837-3.208a73.689,73.689,0,0,0-1.947-7.331" fill="none" stroke="#2e2e2d" stroke-linecap="round" stroke-linejoin="round" stroke-width="1.05"/>
        <path id="Tracé_2221" data-name="Tracé 2221" d="M239.418,212.343c-1.822,1.574-3.2,3.625-4.978,5.247" fill="none" stroke="#2e2e2d" stroke-linecap="round" stroke-width="1.05"/>
        <path id="Tracé_2222" data-name="Tracé 2222" d="M242.314,214.817c-1.878,1.786-4,3.256-5.792,5.172" fill="none" stroke="#2e2e2d" stroke-linecap="round" stroke-width="1.05"/>
        <g id="Groupe_923" data-name="Groupe 923">
          <g id="Groupe_922" data-name="Groupe 922">
            <path id="Tracé_2223" data-name="Tracé 2223" d="M234.267,217.553c-.746-.166-1.487-.525-2.223-.753a18.617,18.617,0,0,0-1.906-.46,5.278,5.278,0,0,1-1.66-.284" fill="none" stroke="#2e2e2d" stroke-linecap="round" stroke-linejoin="round" stroke-width="1.05"/>
          </g>
          <path id="Tracé_2224" data-name="Tracé 2224" d="M228.267,216.294c-.217.834-.369,1.5.56,1.9,1.284.547,2.529,1.085,3.782,1.714" fill="none" stroke="#2e2e2d" stroke-linecap="round" stroke-linejoin="round" stroke-width="1.05"/>
        </g>
        <g id="Groupe_925" data-name="Groupe 925">
          <g id="Groupe_924" data-name="Groupe 924">
            <path id="Tracé_2225" data-name="Tracé 2225" d="M236.594,220.034c.018.764.225,1.561.305,2.327a18.852,18.852,0,0,1,.08,1.959,5.264,5.264,0,0,0-.046,1.684" fill="none" stroke="#2e2e2d" stroke-linecap="round" stroke-linejoin="round" stroke-width="1.05"/>
          </g>
          <path id="Tracé_2226" data-name="Tracé 2226" d="M236.659,226.164c-.861.051-1.546.069-1.753-.919-.286-1.366-.571-2.692-.943-4.044" fill="none" stroke="#2e2e2d" stroke-linecap="round" stroke-linejoin="round" stroke-width="1.05"/>
        </g>
      </g>
      <path id="Tracé_2227" data-name="Tracé 2227" d="M219.882,228.693c2.439,3.411,8.8-1.365,6.46-4.38-1.108-1.425-3.676.147-2.567,1.682a3.08,3.08,0,0,0,3.139.762c2.064-.579,2.9-2.258,3.066-4.263" fill="none" stroke="#2e2e2d" stroke-linecap="round" stroke-linejoin="round" stroke-width="1.05"/>
      <path id="Tracé_2228" data-name="Tracé 2228" d="M331.777,224.392a39.281,39.281,0,0,0,1.977-5.535" fill="none" stroke="#2e2e2d" stroke-linecap="round" stroke-width="1.05"/>
      <g id="Groupe_933" data-name="Groupe 933">
        <path id="Tracé_2229" data-name="Tracé 2229" d="M290.155,180.231c-3.782,4.255-1.893,12.721,4.255,13.537,9.2,1.221,8.743-12.1-.559-12.921" fill="none" stroke="#2e2e2d" stroke-linecap="round" stroke-linejoin="round" stroke-width="1.05"/>
        <path id="Tracé_2230" data-name="Tracé 2230" d="M314.179,182.079c-1.293,5.4,2.523,11.737,8.025,6.8,4.986-4.476-1.162-11.647-6.793-9.262" fill="none" stroke="#2e2e2d" stroke-linecap="round" stroke-linejoin="round" stroke-width="1.05"/>
        <path id="Tracé_2231" data-name="Tracé 2231" d="M296.315,184.543c1.777-2.481,2.752-5.39,4.312-8.008" fill="none" stroke="#2e2e2d" stroke-linecap="round" stroke-width="1.05"/>
        <path id="Tracé_2232" data-name="Tracé 2232" d="M298.779,176.535c6.772,2.976,13.6,5.045,19.712,9.24" fill="none" stroke="#2e2e2d" stroke-linecap="round" stroke-width="1.05"/>
        <path id="Tracé_2233" data-name="Tracé 2233" d="M301.74,176.589c2.61-.4,5.632.791,8.116-.285" fill="none" stroke="#2e2e2d" stroke-linecap="round" stroke-width="1.05"/>
        <path id="Tracé_2234" data-name="Tracé 2234" d="M310.995,176.161c.5,1.548,1.273,2.981,1.709,4.557" fill="none" stroke="#2e2e2d" stroke-linecap="round" stroke-width="1.05"/>
        <path id="Tracé_2235" data-name="Tracé 2235" d="M309.571,175.165c.929.2,2.308.614,3.133,0" fill="none" stroke="#2e2e2d" stroke-linecap="round" stroke-width="1.05"/>
        <path id="Tracé_2236" data-name="Tracé 2236" d="M300.032,176.161c-.29-.684-.54-1.438-.855-2.135" fill="none" stroke="#2e2e2d" stroke-linecap="round" stroke-width="1.05"/>
        <path id="Tracé_2237" data-name="Tracé 2237" d="M299.035,173.741c-1.458-1.438.3-1.759,1.566-2.421" fill="none" stroke="#2e2e2d" stroke-linecap="round" stroke-width="1.05"/>
      </g>
      <path id="Tracé_2238" data-name="Tracé 2238" d="M192.418,135.387c4.509.41,10.715,4.07,14.868,5.764,3.7,1.509,8.834,2.841,9.772,6.58,4.125,16.437-22.411,4.8-27.041,3.586" fill="none" stroke="#2e2e2d" stroke-linecap="round" stroke-linejoin="round" stroke-width="1.05"/>
      <path id="Tracé_2239" data-name="Tracé 2239" d="M215.615,149.432c-2.152-1.317-10.576-5.856-12.859-3.61-4.995,4.914,9.291,7.7,11.082,8.413" fill="none" stroke="#2e2e2d" stroke-linecap="round" stroke-linejoin="round" stroke-width="1.05"/>
      <path id="Tracé_2240" data-name="Tracé 2240" d="M198.275,142.578c-2-.712-6.635-3.981-8.455-1.408-1.973,2.788,3.532,7.038,6.222,6.261" fill="none" stroke="#2e2e2d" stroke-linecap="round" stroke-linejoin="round" stroke-width="1.05"/>
      <path id="Tracé_2241" data-name="Tracé 2241" d="M203.665,158.115c-4.219-.6-9.225-2.59-13.348-4.066" fill="none" stroke="#2e2e2d" stroke-linecap="round" stroke-width="1.05"/>
      <path id="Tracé_2242" data-name="Tracé 2242" d="M199.523,153.961a3.916,3.916,0,0,1-1.2,1.939c-.255-1.969.094-1.982,2.138-1.6.006-.01-.372,1.359-.376,1.406.034.04-1.441-1.185-1.477-1.207-.28.081.994-1.3.89-.973.269-.839.352,2.494.2,1.8a.688.688,0,0,1-.846-.593.75.75,0,0,1,.3-.684.909.909,0,0,1,1.055.263c.052.165-.349,1.4-.534,1.014" fill="none" stroke="#2e2e2d" stroke-linecap="round" stroke-linejoin="round" stroke-width="1.05"/>
      <path id="Tracé_2243" data-name="Tracé 2243" d="M194.265,152.234c-.25.6,1.238.464.146.949a5.465,5.465,0,0,1-2.022-.743,5.631,5.631,0,0,1,.481-.925c1.818,1.019,1.529.353,1.083,2.007-.841-1.826-.946-.387-.2-2.12.2-.241-.854.983-.92,1.056-.152.473.264-2.156.348-1.552a.985.985,0,0,1,.946.386c-.105.486-.265,1.682-.32.992" fill="none" stroke="#2e2e2d" stroke-linecap="round" stroke-linejoin="round" stroke-width="1.05"/>
      <path id="Tracé_2244" data-name="Tracé 2244" d="M188.6,151.012c-.975.228-1.11,1.123-2.1.128a1.524,1.524,0,0,1,.273-.769c.3.049,1.738.172,1.845.178-1.625.684-2.863-.235-1.8-2.059a8,8,0,0,0,1.218,1.627c-.633-.15-1.227-.474-1.826-.644a1.662,1.662,0,0,1,1.333.273" fill="none" stroke="#2e2e2d" stroke-linecap="round" stroke-linejoin="round" stroke-width="1.05"/>
      <path id="Tracé_2245" data-name="Tracé 2245" d="M212.517,160.637a20.246,20.246,0,0,0,3.891.649" fill="none" stroke="#2e2e2d" stroke-linecap="round" stroke-width="1.05"/>
      <path id="Tracé_2246" data-name="Tracé 2246" d="M223.217,163.231c1.826.222,3.643.764,5.512.973" fill="none" stroke="#2e2e2d" stroke-linecap="round" stroke-width="1.05"/>
      <path id="Tracé_2247" data-name="Tracé 2247" d="M238.132,166.15a11.268,11.268,0,0,0,2.594.648" fill="none" stroke="#2e2e2d" stroke-linecap="round" stroke-width="1.05"/>
      <path id="Tracé_2495" data-name="Tracé 2495" d="M415.31,148.9c-.8-.433-1.885.594-1.494,1.515.666,1.571,2.624-.431,1.642-1.758-.894.281-2.766,1.9-.912,2.382,1.172.309,2.231-1.481.907-2.137a.991.991,0,1,0-.844,1.784c1.46.653,2.124-1.373,1.348-2.316a5.923,5.923,0,0,0,.071,2.727,12.8,12.8,0,0,0-.022-2.371,5.977,5.977,0,0,0,.031,1.8,1.226,1.226,0,0,0-.2-1" transform="matrix(0.999, 0.035, -0.035, 0.999, 7.068, -12.402)" fill="none" stroke="#2e2e2d" stroke-linecap="round" stroke-linejoin="round" stroke-width="0.25"/>
      <path id="Tracé_2496" data-name="Tracé 2496" d="M417.784,146.956c.337,1.117.011,2.587.234,3.629-.107-1.22-.02-2.666-.19-3.861.04,1.25.118,2.508.084,3.749a6.632,6.632,0,0,1,.182-2.389c-.2.634-.067,2.28-.3,2.044" transform="matrix(0.999, 0.035, -0.035, 0.999, 7.068, -12.402)" fill="none" stroke="#2e2e2d" stroke-linecap="round" stroke-linejoin="round" stroke-width="0.25"/>
      <path id="Tracé_2497" data-name="Tracé 2497" d="M417.865,147.684c.406.187.966-.01,1.538-.019A10.308,10.308,0,0,1,418.2,148a4.262,4.262,0,0,1,.671.048c-.273-.014-.329.191-.478.254" transform="matrix(0.999, 0.035, -0.035, 0.999, 7.068, -12.402)" fill="none" stroke="#2e2e2d" stroke-linecap="round" stroke-linejoin="round" stroke-width="0.25"/>
      <path id="Tracé_2498" data-name="Tracé 2498" d="M408.084,149.146c-.211-.652-1.853-.542-1.766.5.167,1.988,3.573-.346,1.232-1.113-2.776-.909-.536,4.147.734,1.419,1.115-2.4-3.507-1.275-1.443.245" transform="matrix(0.999, 0.035, -0.035, 0.999, 7.068, -12.402)" fill="none" stroke="#2e2e2d" stroke-linecap="round" stroke-linejoin="round" stroke-width="0.25"/>
      <path id="Tracé_2499" data-name="Tracé 2499" d="M408.488,149.469a21.211,21.211,0,0,0,.3,3.2" transform="matrix(0.999, 0.035, -0.035, 0.999, 7.068, -12.402)" fill="none" stroke="#2e2e2d" stroke-linecap="round" stroke-width="0.25"/>
      <path id="Tracé_2500" data-name="Tracé 2500" d="M410.552,148.927c.177.467.333,1.359.909,1.528.877.258,1.782-1.576,1.009-2.165-.321.7,0,2.121-.994,2.382-1.214.318-1.113-1.2-1.318-1.982.071,2.425,3.082,2.537,2.459-.306" transform="matrix(0.999, 0.035, -0.035, 0.999, 7.068, -12.402)" fill="none" stroke="#2e2e2d" stroke-linecap="round" stroke-linejoin="round" stroke-width="0.25"/>
      <path id="Tracé_2501" data-name="Tracé 2501" d="M402.742,149.262a3.956,3.956,0,0,1,1.847-.13c-.749-.138-1.48-.493-2.094.111a2.52,2.52,0,0,0,1.357.219c-.216.016-.451.013-.66.022,2.48.541.268-2.538-.72-.589-.748,1.475,1.266,2.112,2.227,1.3-1.709,1.781-3.507-1.942-.838-2.139.764.979.056,1.781-1.05,1.5.553.1,2.238.045,2.049-.751-.179-.758-1.623-.548-2.056-.258" transform="matrix(0.999, 0.035, -0.035, 0.999, 7.068, -12.402)" fill="none" stroke="#2e2e2d" stroke-linecap="round" stroke-linejoin="round" stroke-width="0.25"/>
      <path id="Tracé_2502" data-name="Tracé 2502" d="M403.381,146.867a2.871,2.871,0,0,0,1.133-.615,7.367,7.367,0,0,1-1.141.682c.415-.445,1.105-.636,1.528-1.045a7.693,7.693,0,0,0-1.177.851c.286-.206.574-.417.85-.638a.7.7,0,0,0-.429.254" transform="matrix(0.999, 0.035, -0.035, 0.999, 7.068, -12.402)" fill="none" stroke="#2e2e2d" stroke-linecap="round" stroke-linejoin="round" stroke-width="0.25"/>
      <path id="Tracé_2503" data-name="Tracé 2503" d="M399.62,148.7c-3.393-1.032-.169,3.969.488.756a1.167,1.167,0,0,0-1.725-1.163c-.887.637-.3,2.288.818,2.034,1.613-.365.529-2.441-.574-2.014-.979.379-.421,2.571,1.013,1.832s-.238-2.4-1.206-1.984c-1.4.61.4,3.319,1.394,1.274-.318-.752-1.338-1.1-1.557-.131" transform="matrix(0.999, 0.035, -0.035, 0.999, 7.068, -12.402)" fill="none" stroke="#2e2e2d" stroke-linecap="round" stroke-linejoin="round" stroke-width="0.25"/>
      <path id="Tracé_2504" data-name="Tracé 2504" d="M400.258,146.309a15.544,15.544,0,0,0,.112,3.8c.116-1.365.084-2.739.2-4.115a14.055,14.055,0,0,0-.044,3.89,10.812,10.812,0,0,0,.171-3.365,12.6,12.6,0,0,0,.193,3.413.845.845,0,0,1-.049-.4" transform="matrix(0.999, 0.035, -0.035, 0.999, 7.068, -12.402)" fill="none" stroke="#2e2e2d" stroke-linecap="round" stroke-linejoin="round" stroke-width="0.25"/>
      <path id="Tracé_2505" data-name="Tracé 2505" d="M393.414,150.475c.416-1.661,1-3.418,1.494-5,.889,1.094,1.048,3.6,1.108,5.035-.187-.854-.871-1.247-1.25-2.014-.469-.949-.122-1.962-.318-2.834-.693,1.035-1.4,3.51-1.056,4.67.3-1.4.5-3.539,1.3-4.749a17.353,17.353,0,0,1,1.051,4.475c-.68-.612-.664-2.741-1.949-1.858.581.271,1.556-.234,2.314-.242a3.182,3.182,0,0,0-2.2.494,6.571,6.571,0,0,1,2.22-.579,6.939,6.939,0,0,0-1.841.532,4,4,0,0,0,1.589-.308c-.339.148-.661.33-1,.482" transform="matrix(0.999, 0.035, -0.035, 0.999, 7.068, -12.402)" fill="none" stroke="#2e2e2d" stroke-linecap="round" stroke-linejoin="round" stroke-width="0.25"/>
      <path id="Tracé_2506" data-name="Tracé 2506" d="M412.217,138.32c.063-.249.114-.427.152-.669-.666.318-1.388,2.668-1.385,3.376a22.043,22.043,0,0,0,2.13-3.774c-.668,1.935-1.941,3.647-2.12,5.75.94-.582,2.088-3.032,2.425-4.209-.8.521-2.085,2.8-1.865,3.827,1.258-.443,2.417-3.225,3.049-4.291-.926,1.414-2.645,3.951-2.6,5.693,1.441-.157,2.64-4.362,3.255-5.594-.8,1.186-2.557,3.5-2.158,4.983,1.271-.327,2.4-3.736,2.793-4.978a4.41,4.41,0,0,0-1.375,2.437,9.31,9.31,0,0,0,1.9-1.891c-1,1.631-2.534,4.371-2.384,6.3,1.3-1.131,1.71-3.612,2.182-5.259-.68,1.25-1.525,3.551-1.256,4.99.73-.794,2.137-3.6,1.673-4.552-.5.878-1.206,2.743-.744,3.7a4.49,4.49,0,0,0,1.784-3.986c-.8.851-1.829,3.762-1,4.8a6.181,6.181,0,0,0,1.549-4.077c-.9.323-1.354,2.378-.693,3.12a4.526,4.526,0,0,0,1.4-3.425c-1.213,0-1.371,3.088-1.009,3.923.775-.834,1.73-2.611,1.2-3.717-.8.435-1.439,3.446-.246,2.655.968-.641.027-2.531-1.047-2.212a1.673,1.673,0,0,0,.46,1.677c.629-.794-.035-3.3-1.207-3.5-1.345-.226-2.177,2.811-1.417,3.608,1.35,1.418,2.177-2.305,1.919-3.106-.7-2.193-3.064-1.562-3.049.667.011,1.5,1.221,2.974,2.54,1.53,1.231-1.349-.2-3.034-1.773-2.9-1.689.143-1.988,2.761-.574,3.593,1.816,1.07,3.743-1.644,2.557-3.176-1.318-1.7-4.3-1.655-4.342.869-.031,2.083,3.084,4.692,4.12,1.7.643-1.855-1.715-4.531-3.606-3.623-2.127,1.02-1.043,7.126,1.77,5.156,1.7-1.189,1.317-5.4-1.3-4.633-1.839.538-2.454,4.238-.617,5.089,2.008.931,3.31-2.914,1.189-3.706-2.241-.838-4.019,3.876-2.062,4.472,2.508.762,3.039-4.946-.206-3.937-2.86.89-1.337,5.907,1.5,3.869,2.134-1.532-1.215-3.16-1.987-.775-1.132,3.494,3.319.65,1.94-.822-1,.448-2.535,2.162-1.677,3.263a2.146,2.146,0,0,0,1.6-2.215,2.334,2.334,0,0,0-1.946,1.385c.978.106,4.267-.93,4.731-1.749a4.331,4.331,0,0,0-2.833,1.574c1,.15,2.83-.872,3.49-1.484a6.721,6.721,0,0,0-2.825,1.09c1.029.73,2.784-.525,3.715-1.144a2.241,2.241,0,0,0-2.352.48c2.035,1.46,4.02-2.059,2.7-3.792a2.916,2.916,0,0,0-3.664-.272c-1.481,1.272,1.278,2.709.758.6-.759-3.077-3.8.638-2.037,1.455,1.036-1.5-.818-3.693.807-4.574,1.119-.606,3.468-.05,3.208,1.529-1.428.237-2.882-.215-4.33.1.8-1.379,3.606-3.648,4.512-1.105-1.483.7-6.483-1.34-4.722,2.093.211-1.161.314-3.181,2.014-3.162-1.393.421-2,1.478-2.978,2.411-1-1.942,2.646-3.406,4.1-2.69,1.09.537,2.408,2.2,1.884,3.461a3.665,3.665,0,0,1-.554-2.13c.8.236,1.217,1.285,1.555,1.983-.563-.452-1.756-1.509-1.153-2.272,1.054.287,1.523,2,1.416,2.939a2.577,2.577,0,0,1-1.026-1.853c1.711.119,1.466,2.424.774,3.445-1.025,1.515-2.651.977-3.888,1.884,1.379,1.028,3.471-.15,4.667-.992a19.76,19.76,0,0,0-4.556,1.82c1.244.614,3.539-.568,4.4-1.6.884-1.062.53-2.312-.266-3.4s-6.7-3.5-5.807-.494c.36-.459.773-1.058.429-1.539-1.082.436-1.978,2.565-1.1,3.531.741-.32.433-1.929-.179-2.3-1.153.71-.95,3.048-.649,4.173.708-.55.555-2.462.275-3.313-1.028.468-1.62,3.726-.267,4.436a11.348,11.348,0,0,0-.13-3.484,4.068,4.068,0,0,0,.3,2.007c-.391-2.654.383-6.541,3.884-5.59.393.107,1.549.151,1.1.915-.362.612-3.049-.567-3.748-.424.666.157,2.614-.644,2.528.571a.444.444,0,0,1-.293-.269" transform="matrix(0.999, 0.035, -0.035, 0.999, 7.068, -12.402)" fill="none" stroke="#2e2e2d" stroke-linecap="round" stroke-linejoin="round" stroke-width="0.25"/>
      <path id="Tracé_2507" data-name="Tracé 2507" d="M418.435,147.016c-.036-.116.086-.213-.069-.2-.2,1.149.021,2.82-.663,3.721.006-1.258.324-2.506.423-3.763a8.208,8.208,0,0,0-.122,3.66,14.779,14.779,0,0,0,.024-2.627c-.056.672.115,1.319.056,1.982" transform="matrix(0.999, 0.035, -0.035, 0.999, 7.068, -12.402)" fill="none" stroke="#2e2e2d" stroke-linecap="round" stroke-linejoin="round" stroke-width="0.25"/>
      <path id="Tracé_2508" data-name="Tracé 2508" d="M418.107,148.221c.427-.067.882-.068,1.3-.118a3.053,3.053,0,0,0-1.163,0c.43-.086.867-.247,1.3-.33a3.4,3.4,0,0,0-.758.281" transform="matrix(0.999, 0.035, -0.035, 0.999, 7.068, -12.402)" fill="none" stroke="#2e2e2d" stroke-linecap="round" stroke-linejoin="round" stroke-width="0.25"/>
      <path id="Tracé_2509" data-name="Tracé 2509" d="M420.223,150.982c-.009-.651-.556-.959-.863-.283.453-.137.458-.194.272-.631a.706.706,0,0,0-.4.8c.472-.019.631-.323.487-.809-.343.454-.208.2-.089.624a.416.416,0,0,0,.192-.3" transform="matrix(0.999, 0.035, -0.035, 0.999, 7.068, -12.402)" fill="none" stroke="#2e2e2d" stroke-linecap="round" stroke-linejoin="round" stroke-width="0.25"/>
      <path id="Tracé_2510" data-name="Tracé 2510" d="M415.471,148.89c-.535-.821-1.928.356-1.792,1.191.256,1.573,2.287.69,1.976-.726" transform="matrix(0.999, 0.035, -0.035, 0.999, 7.068, -12.402)" fill="none" stroke="#2e2e2d" stroke-linecap="round" stroke-linejoin="round" stroke-width="0.25"/>
      <path id="Tracé_2511" data-name="Tracé 2511" d="M411.738,150.586c.2.577-.4.73-.912.57a2.581,2.581,0,0,1,.571.169c-1.178-.1-1.282-1.632-.85-2.46,0-.154-.071.616-.1.8-.045-.311-.136-.653-.18-.972a6.474,6.474,0,0,0,.072.922,6.635,6.635,0,0,0,.117-.995,2.344,2.344,0,0,0-.183,1.039,1.535,1.535,0,0,0,.083-.961c-.137.67-.281,1.669.371,2.14a1.13,1.13,0,0,0,1.7-.416" transform="matrix(0.999, 0.035, -0.035, 0.999, 7.068, -12.402)" fill="none" stroke="#2e2e2d" stroke-linecap="round" stroke-linejoin="round" stroke-width="0.25"/>
      <path id="Tracé_2512" data-name="Tracé 2512" d="M407.959,148.915a1.165,1.165,0,0,0-1.507.776c-.347,2.032,2.582.323,1.1-.639-1.194-.778-2.048,1.742-.439,1.572.558-.06,1.255-1.041.986-1.579-.358-.717-1.365-.486-1.194.34" transform="matrix(0.999, 0.035, -0.035, 0.999, 7.068, -12.402)" fill="none" stroke="#2e2e2d" stroke-linecap="round" stroke-linejoin="round" stroke-width="0.25"/>
      <path id="Tracé_2513" data-name="Tracé 2513" d="M408.757,148.76c-.829.755-.752,3.467-.374,4.422a6.909,6.909,0,0,0-.166-.77" transform="matrix(0.999, 0.035, -0.035, 0.999, 7.068, -12.402)" fill="none" stroke="#2e2e2d" stroke-linecap="round" stroke-linejoin="round" stroke-width="0.25"/>
      <path id="Tracé_2514" data-name="Tracé 2514" d="M403.458,146.509c-.155-.216.489-.616.932-.807-.287.239-.634.5-.916.69.331-.339.793-.569,1.152-.894a6.484,6.484,0,0,0-.806.706" transform="matrix(0.999, 0.035, -0.035, 0.999, 7.068, -12.402)" fill="none" stroke="#2e2e2d" stroke-linecap="round" stroke-linejoin="round" stroke-width="0.25"/>
    </g>
    <g id="Calque_2" data-name="Calque 2">
      <path id="Tracé_2277" data-name="Tracé 2277" d="M190.058,273.738c-3.7-34.319-9.128-83.139-16.321-142.9l122.074-4.488,164.263,8.976a1039.878,1039.878,0,0,1-16.526,229.477A1035.113,1035.113,0,0,1,412.5,488.987c-43.006,12.693-106.131,23.183-174.562,3.5a277.364,277.364,0,0,1-27.227-9.388c-1.678-18.761-4.228-46.748-7.51-80.742C200.4,373.292,195.915,328.043,190.058,273.738Z" fill="none" stroke="#2e2e2d" stroke-width="3"/>
      <rect id="Rectangle_445" data-name="Rectangle 445" width="109.087" height="145.217" transform="translate(354.804 121.862) rotate(4.929)" fill="none" stroke="#2e2e2d" stroke-width="2"/>
      <path id="Tracé_2278" data-name="Tracé 2278" d="M294.893,129.15c-1.061,3.834-3.164,11.438,1.017,18.976.806,1.453,5.586,10.072,14.232,10.166,7.809.086,12.587-6.848,13.216-7.794,3.339-5.014,2.9-10.162,2.372-16.265-.11-1.283-1.437-15.641-6.1-16.266-2.027-.272-4.418,2.087-5.083,4.4-.654,2.278.554,3.838,2.033,7.794,1.641,4.391,3.093,8.275,2.372,11.861-.9,4.488-5.335,9.137-9.15,8.81-5.648-.483-11.006-11.968-8.132-19.315,1.86-4.758,6.6-6.3,6.1-10.166-.3-2.323-2.379-4.65-4.4-4.745C299.357,116.425,296.043,124.994,294.893,129.15Z" fill="none" stroke="#2e2e2d" stroke-width="2"/>
      <path id="Tracé_2279" data-name="Tracé 2279" d="M293.538,113.9c.558-5.828,1.9-19.855,13.893-28.126,7.814-5.389,20.786-8.791,31.176-2.372,11.3,6.981,12.254,20.666,12.539,24.738,1.071,15.348-7.8,29.47-19.655,36.6-3.565,2.143-15.108,9.022-25.235,4.39C291.147,142.217,293.324,116.132,293.538,113.9Z" fill="none" stroke="#2e2e2d" stroke-width="2"/>
      <path id="Tracé_2280" data-name="Tracé 2280" d="M309.126,95.94A22.141,22.141,0,0,1,322,88.485c.581-.092,10.971-1.581,17.282,5.422,6.386,7.086,3.721,17.455,2.372,22.7-2.614,10.172-9.012,16.124-12.538,19.316-4.147,3.755-12.041,10.9-17.96,8.472-3.778-1.551-5-6.284-6.439-12.2C302.934,124.86,298.709,107.492,309.126,95.94Z" fill="none" stroke="#2e2e2d" stroke-width="2"/>
      <g id="Groupe_927" data-name="Groupe 927">
        <path id="Tracé_2281" data-name="Tracé 2281" d="M125.815,520.55c6.806-2.062,9.695-1.522,12.852-7.044,4.02-7.031,4.067-22.562,5.517-30.78,4.44-25.16,6.913-50.4,10.865-75.562,2.489-15.851-.131-31.266.631-47.119.9-18.763,3.882-38.287,6.619-56.922,3.778-25.712,11.425-53.032,12.53-78.874.839-19.648,8.682-43.611,4.761-62.964" fill="none" stroke="#e6d5c6" stroke-linecap="round" stroke-linejoin="round" stroke-width="8.5"/>
        <path id="Tracé_2282" data-name="Tracé 2282" d="M158.168,246.373c-1.34,18.131-9.308,87.1-33.2,275.023,3.9,1.5,8.907,2.618,12.456.232a9.517,9.517,0,0,0,3.526-5.109c5.371-16.572,24.592-231.271,32.6-274.992.553-3.018,2.961-19.574,5.931-42.578,2.048-15.857,3.577-29.1,4.615-38.468a40.5,40.5,0,0,0-4.847-2.124,13.738,13.738,0,0,0-3.759-1.027,12,12,0,0,0-5.178,1.011s-4.519,36-8.566,59.208C161.274,220.253,159.518,228.108,158.168,246.373Z" fill="none" stroke="#2e2e2d" stroke-linecap="round" stroke-width="3"/>
        <line id="Ligne_224" data-name="Ligne 224" x2="24.769" y2="3.503" transform="translate(142.505 210.677)" fill="none" stroke="#2e2e2d" stroke-linecap="round" stroke-width="3"/>
        <line id="Ligne_225" data-name="Ligne 225" x2="24.769" y2="3.503" transform="translate(143.149 206.121)" fill="none" stroke="#2e2e2d" stroke-linecap="round" stroke-width="3"/>
        <line id="Ligne_226" data-name="Ligne 226" x2="24.769" y2="3.503" transform="translate(143.793 201.564)" fill="none" stroke="#2e2e2d" stroke-linecap="round" stroke-width="3"/>
        <line id="Ligne_227" data-name="Ligne 227" x2="24.769" y2="3.503" transform="translate(144.438 197.008)" fill="none" stroke="#2e2e2d" stroke-linecap="round" stroke-width="3"/>
        <line id="Ligne_228" data-name="Ligne 228" x2="24.769" y2="3.503" transform="translate(145.041 192.745)" fill="none" stroke="#2e2e2d" stroke-linecap="round" stroke-width="3"/>
        <line id="Ligne_229" data-name="Ligne 229" x2="24.769" y2="3.503" transform="translate(145.685 188.188)" fill="none" stroke="#2e2e2d" stroke-linecap="round" stroke-width="3"/>
        <line id="Ligne_230" data-name="Ligne 230" x2="24.769" y2="3.503" transform="translate(146.329 183.632)" fill="none" stroke="#2e2e2d" stroke-linecap="round" stroke-width="3"/>
        <line id="Ligne_231" data-name="Ligne 231" x2="24.769" y2="3.503" transform="translate(146.974 179.075)" fill="none" stroke="#2e2e2d" stroke-linecap="round" stroke-width="3"/>
        <line id="Ligne_232" data-name="Ligne 232" x2="24.769" y2="3.503" transform="translate(147.654 174.263)" fill="none" stroke="#2e2e2d" stroke-linecap="round" stroke-width="3"/>
        <line id="Ligne_233" data-name="Ligne 233" x2="24.769" y2="3.503" transform="translate(148.298 169.707)" fill="none" stroke="#2e2e2d" stroke-linecap="round" stroke-width="3"/>
        <line id="Ligne_234" data-name="Ligne 234" x2="24.769" y2="3.503" transform="translate(148.943 165.15)" fill="none" stroke="#2e2e2d" stroke-linecap="round" stroke-width="3"/>
        <line id="Ligne_235" data-name="Ligne 235" x2="24.769" y2="3.503" transform="translate(149.587 160.593)" fill="none" stroke="#2e2e2d" stroke-linecap="round" stroke-width="3"/>
      </g>
      <path id="Tracé_2283" data-name="Tracé 2283" d="M405.766,284.257" stroke="#2e2e2d" stroke-width="3"/>
      <path id="Tracé_2284" data-name="Tracé 2284" d="M356.8,318.114c2.006,19.545-.845,25.563-4.2,27.071-1.124.505-1.8.276-5.125.56a58.494,58.494,0,0,0-14.635,3.1c-9.915,4.069-5.011,39.755-3.933,64.838a289.723,289.723,0,0,1-3.3,57.252" fill="none" stroke="#e6d5c6" stroke-linecap="round" stroke-linejoin="round" stroke-width="13"/>
      <path id="Tracé_635" data-name="Tracé 635" d="M350.929,309.812c-.077.728,8.026,2.414,15.851,2.986,5.759.42,12.682.331,12.731-.332.058-.71-7.8-2.025-14.251-2.613C359.179,309.3,351.005,309.087,350.929,309.812Z" fill="none" stroke="#2e2e2d" stroke-width="2"/>
      <path id="Tracé_636" data-name="Tracé 636" d="M351.019,310.321c-.591,5.83-1.057,11.948-1.353,18.331q-.318,6.871-.352,13.334a59.2,59.2,0,0,0,6.543,1.662,63.353,63.353,0,0,0,11.438,1.089,66.113,66.113,0,0,0,10.078-.7q.216-5.895.581-12,.607-10.08,1.562-19.567a71.506,71.506,0,0,1-28.49-2.147Z" fill="none" stroke="#2e2e2d" stroke-width="3"/>
      <rect id="Rectangle_446" data-name="Rectangle 446" width="74.855" height="142.724" rx="14.49" transform="translate(325.684 340.396) rotate(3.103)" fill="none" stroke="#2e2e2d" stroke-width="3"/>
      <path id="Tracé_2285" data-name="Tracé 2285" d="M368.71,485.984c3.967-9.786.851-22.52,2.032-33.122,1.776-15.94,5-39.105,15.337-52.934" fill="none" stroke="#00999a" stroke-linecap="round" stroke-linejoin="round" stroke-width="15"/>
      <path id="Tracé_638" data-name="Tracé 638" d="M370.775,431.916a40.027,40.027,0,0,0,31.718,4.006q-1.874,19.1-4.705,39.145-.942,6.612-1.963,13.093a14.985,14.985,0,0,1-5.606,2.925,20.79,20.79,0,0,1-6.578.474,41.431,41.431,0,0,1-7.671-.942,22.979,22.979,0,0,1-5.945-1.794,16.1,16.1,0,0,1-5.916-5.136q2.028-15.408,4.005-30.824Q369.456,442.391,370.775,431.916Z" fill="none" stroke="#2e2e2d" stroke-linecap="round" stroke-width="3"/>
      <path id="Tracé_639" data-name="Tracé 639" d="M372.254,421.806c.778-4.992,1.3-8.854,1.614-11.247.558-4.269,1.032-8.406,3.152-11.294a17.492,17.492,0,0,1,2.969-3.062,14.526,14.526,0,0,1,2.726-1.689c6.128-2.861,14.873-1.506,19.449,3.2a12.7,12.7,0,0,1,1.809,2.4,20.117,20.117,0,0,1,1.232,2.483c1.84,4.623.5,11.7.5,11.7-1.01,5.33-1.933,11.775-2.971,19.85a37.491,37.491,0,0,1-5.317,1.2,42.892,42.892,0,0,1-22.361-3.04,36.927,36.927,0,0,1-4.008-2.1Q371.651,426,372.254,421.806Z" fill="none" stroke="#2e2e2d" stroke-linecap="round" stroke-width="3"/>
      <path id="Tracé_2286" data-name="Tracé 2286" d="M371.934,428.266c1.683,2.676,11.956,4.523,15.376,5.023,2.848.416,14.2.945,15.022-1.944" fill="none" stroke="#2e2e2d" stroke-linecap="round" stroke-width="0.25"/>
      <path id="Tracé_2287" data-name="Tracé 2287" d="M372.1,426.053c1.683,2.676,11.956,4.523,15.376,5.022,2.848.417,14.2.946,15.022-1.943" fill="none" stroke="#2e2e2d" stroke-linecap="round" stroke-width="0.25"/>
      <g id="Groupe_928" data-name="Groupe 928">
        <path id="Tracé_2288" data-name="Tracé 2288" d="M158.242,310.3c4.969,16.6,1.962,39.659,2.927,57,1.092,19.612,4.53,38.935,5.358,58.519.742,17.551,2.533,35.523,4.44,53.158,1.351,12.489-.185,30.34,4.043,42.138" fill="none" stroke="#e0af90" stroke-linecap="round" stroke-linejoin="round" stroke-width="13.5"/>
        <path id="Tracé_2289" data-name="Tracé 2289" d="M155.635,306.156l71.929-1.721V313.7l-71.929,1.912Z" fill="none" stroke="#2e2e2d" stroke-width="2"/>
        <path id="Tracé_2290" data-name="Tracé 2290" d="M155.635,319.005l71.93-1.722q-7.57,86.6-15.14,173.19a48.557,48.557,0,0,1-43.748,1.151Q162.157,405.314,155.635,319.005Z" fill="none" stroke="#2e2e2d" stroke-width="2"/>
        <path id="Tracé_2291" data-name="Tracé 2291" d="M211.016,523.255a61.518,61.518,0,0,1-40.785.38l-1.774-29.1a49,49,0,0,0,44.079-1.424Z" fill="none" stroke="#2e2e2d" stroke-width="2"/>
      </g>
      <path id="Tracé_2292" data-name="Tracé 2292" d="M234.5,348.029c4.332,25.914,9.682,53.119,16.282,81.422q7.2,30.881,15.279,59.219" fill="none" stroke="#16999a" stroke-linecap="round" stroke-linejoin="round" stroke-width="17"/>
      <g id="Groupe_930" data-name="Groupe 930">
        <path id="Tracé_2293" data-name="Tracé 2293" d="M299.342,459.459c4.3-31.817-3.98-67.27-9.337-98.772a248.317,248.317,0,0,1-4.066-48.5c.253-26.522-6.955-13.054-28.6-17.175" transform="translate(4 1)" fill="none" stroke="#00999a" stroke-linecap="round" stroke-linejoin="round" stroke-width="11"/>
        <g id="Groupe_929" data-name="Groupe 929">
          <path id="Tracé_2294" data-name="Tracé 2294" d="M255.012,277.235l1.482,21.625,83.768-6.311q-.843-10.855-1.684-21.71Z" fill="none" stroke="#222221" stroke-width="2"/>
          <line id="Ligne_236" data-name="Ligne 236" y1="5.846" x2="81.852" transform="translate(256.711 282.958)" fill="none" stroke="#222221" stroke-width="2"/>
          <line id="Ligne_237" data-name="Ligne 237" y1="5.748" x2="82.542" transform="translate(256.309 285.895)" fill="none" stroke="#222221" stroke-width="2"/>
          <line id="Ligne_238" data-name="Ligne 238" y1="5.669" x2="83.091" transform="translate(255.338 288.868)" fill="none" stroke="#222221" stroke-width="2"/>
          <path id="Tracé_2295" data-name="Tracé 2295" d="M291.057,295.659l10.419,167.148c2.229,5.115,7.33,7.612,11.527,6.307,4.245-1.32,5.814-5.984,5.969-6.47L307.6,295.11" fill="none" stroke="#222221" stroke-width="2"/>
          <path id="Tracé_2296" data-name="Tracé 2296" d="M294,297.42l11.849,163.633a4.463,4.463,0,0,0,4.91,1.9,4.627,4.627,0,0,0,3.281-4.619q-5-81.486-10.009-162.972" fill="none" stroke="#222221" stroke-width="2"/>
          <path id="Tracé_2297" data-name="Tracé 2297" d="M259.175,280.645l.274,4.767,75.184-5.674-.511-4.946Z" fill="none" stroke="#222221" stroke-width="2" stroke-dasharray="1 0.5"/>
        </g>
      </g>
      <g id="Groupe_931" data-name="Groupe 931">
        <path id="Tracé_2298" data-name="Tracé 2298" d="M236.177,360.157a33.122,33.122,0,0,1-2.262-7.252c-.514-2.742-.309-3.641.045-4.331a5.3,5.3,0,0,1,4.668-2.624c1.214.02,1.346.495,3.276,1.175a18.531,18.531,0,0,0,7.339.928c2.324-.188,2.7-.731,4.379-.428a6.4,6.4,0,0,1,3.531,1.744,6.323,6.323,0,0,1,1.762,3.9Z" fill="none" stroke="#222221" stroke-width="2"/>
        <rect id="Rectangle_447" data-name="Rectangle 447" width="29.073" height="4.16" transform="matrix(0.961, -0.275, 0.275, 0.961, 233.441, 360.941)" fill="none" stroke="#222221" stroke-width="2"/>
        <rect id="Rectangle_448" data-name="Rectangle 448" width="31.048" height="5.849" transform="matrix(0.961, -0.275, 0.275, 0.961, 233.59, 365.225)" fill="none" stroke="#222221" stroke-width="2"/>
        <path id="Tracé_2299" data-name="Tracé 2299" d="M231.842,380.752c-2.867-9.757-5.306-18.192-7.6-25.818-.788-2.622-2.172-7.191.111-10.43.716-1.016,1.694-1.605,5.582-3.2,4.952-2.031,8.857-3.281,10.288-3.736,7.46-2.37,10.1-3.022,13.338-3.432,4.522-.57,5.758-.1,6.423.226,2.084,1.033,3.15,3.007,5.167,9.063,2.09,6.276,3.354,11.391,4.193,14.681.648,2.543,1.645,6.362,2.966,11.048Z" fill="none" stroke="#222221" stroke-width="2"/>
        <path id="Tracé_2300" data-name="Tracé 2300" d="M234.154,391.085c-1.971-7.309-3.194-12.036-.957-17,5.15-11.433,25.563-17.349,35.132-10.2,3.591,2.681,5.553,7.125,8.022,12.719,1.283,2.906,2.243,6.22,4.111,12.728,2.8,9.77,4.206,14.655,4.3,14.994,2.489,9.28,9.127,32.971,20.377,72.733a35.523,35.523,0,0,1-42.708,12.61c-.592-1.86-1.47-4.637-2.51-8.008-7.352-23.817-7.749-29.184-12.779-45.232C241.726,419.162,239.2,409.8,234.154,391.085Z" fill="none" stroke="#222221" stroke-width="2"/>
        <path id="Tracé_2301" data-name="Tracé 2301" d="M235.208,349.109a4.053,4.053,0,0,1,2.829-.9c1.337.173,1.766,1.186,3.343,2.348a11.565,11.565,0,0,0,5.408,2.1,11.965,11.965,0,0,0,5.325-.558" fill="none" stroke="#222221" stroke-width="2" stroke-dasharray="1 0.5"/>
      </g>
    </g>
  </g>
</svg>
